<svg width="231" height="70" fill="none" xmlns="http://www.w3.org/2000/svg"><path d="M54.46 17.174c-2.884 0-4.426-1.31-5.555-2.268-.867-.736-1.31-1.109-2.4-1.109-1.088 0-1.532.373-2.399 1.11-1.129.957-2.671 2.267-5.544 2.267-2.873 0-4.426-1.31-5.555-2.268-.867-.736-1.31-1.109-2.4-1.109V8.938c2.884 0 4.426 1.31 5.556 2.268.867.736 1.31 1.11 2.399 1.11s1.532-.374 2.399-1.11c1.13-.957 2.671-2.268 5.555-2.268 2.883 0 4.425 1.31 5.554 2.268.867.736 1.31 1.11 2.4 1.11 1.088 0 1.532-.374 2.399-1.11 1.129-.957 2.671-2.268 5.554-2.268v4.86c-1.099 0-1.532.372-2.399 1.108-1.129.958-2.671 2.268-5.555 2.268m-.009-8.569c-2.884 0-4.426-1.31-5.555-2.268-.867-.736-1.31-1.109-2.4-1.109-1.088 0-1.532.373-2.399 1.11-1.129.957-2.671 2.267-5.544 2.267-2.873 0-4.426-1.31-5.555-2.268-.867-.736-1.31-1.109-2.4-1.109V.37c2.884 0 4.426 1.31 5.556 2.269.867.736 1.31 1.108 2.399 1.108s1.532-.373 2.399-1.108C42.091 1.681 43.632.37 46.516.37c2.883 0 4.425 1.31 5.554 2.269.867.736 1.31 1.108 2.4 1.108 1.088 0 1.532-.373 2.399-1.108 1.129-.959 2.671-2.27 5.554-2.27v4.86c-1.099 0-1.532.372-2.399 1.108-1.129.958-2.671 2.268-5.555 2.268m157.595 48.661h9.234V43.768c0-4.335 1.885-6.16 6.351-6.16.837 0 1.784.111 2.682.212v-7.55c-.686-.111-1.523-.162-2.47-.162-3.468 0-6.2 1.018-8.085 3.004l-.948-2.359h-6.774v26.513h.01zm-27.45-7.823c0 5.888 3.095 8.458 10.393 8.458 3.095 0 5.827-.806 7.712-2.52l.625 1.875h6.664V41.621c0-8.146-3.932-11.513-13.438-11.513-3.307 0-6.452.484-9.497 1.29v7.128c2.944-.857 5.827-1.28 8.347-1.28 4.093 0 5.777 1.018 5.777 3.639v1.18a22.914 22.914 0 00-5.404-.646c-7.711 0-11.179 2.57-11.179 8.035m9.032-.05c0-1.392 1.21-2.037 3.68-2.037 1.472 0 2.782.161 3.881.534v.585c0 2.036-1.311 2.943-4.305 2.943-2.308 0-3.256-.645-3.256-2.036m-9.97-18.64h-7.349v-8.468l-9.234 1.553v6.905h-4.355v7.128h4.355v9.486c0 7.5 3.256 10.554 11.291 10.554 1.834 0 3.619-.16 5.302-.534V50.2c-1.26.273-2.52.424-3.78.424-2.52 0-3.569-1.069-3.569-3.7v-9.052h7.349v-7.128l-.01.01zM139.744 38.9c0 11.089 13.337 6.804 13.337 10.232 0 1.23-.948 1.764-3.257 1.764-3.094 0-6.3-.484-9.506-1.442v7.178c3.145.857 6.563 1.28 10.293 1.28 8.397 0 11.915-2.681 11.915-9.002 0-11.3-13.337-7.016-13.337-10.182 0-1.129.898-1.602 2.994-1.602 2.884 0 5.827.423 8.66 1.179v-7.127c-2.944-.696-6.139-1.069-9.396-1.069-8.246 0-11.703 2.621-11.703 8.78m-19.477 18.378h9.234V43.768c0-4.335 1.885-6.16 6.351-6.16.837 0 1.785.111 2.672.212v-7.55c-.686-.111-1.522-.162-2.47-.162-3.468 0-6.2 1.018-8.085 3.004l-.948-2.359h-6.774v26.513h.02zM105.62 36.641c2.57 0 3.78 1.29 3.881 4.183h-8.448c.313-2.893 1.734-4.183 4.567-4.183zm-13.6 7.389c0 9.799 4.517 13.871 15.273 13.871 3.67 0 6.926-.373 9.819-1.28v-7.067c-3.045.857-6.139 1.28-9.083 1.28-4.567 0-6.563-1.179-6.986-4.072h17.168a27.5 27.5 0 00.161-3.166c0-9.536-3.73-13.498-12.752-13.498-9.557 0-13.6 4.073-13.6 13.932zm-11.18 0c0 4.657-1.36 6.583-4.727 6.583s-4.516-1.603-4.516-5.464v-2.248c0-3.912 1.31-5.514 4.516-5.514s4.728 1.986 4.728 6.643zM62.363 57.256h6.976l.736-2.087c2.148 1.825 4.99 2.732 8.509 2.732 8.246 0 11.653-4.072 11.653-13.871S86.83 30.098 78.583 30.098c-2.732 0-4.99.645-6.986 1.875v-12.43h-9.234v37.713zm-1.098-26.513h-9.608L46.99 46.218l-5.514-15.475h-10.03l11.34 26.886-.363 1.18c-.685 2.036-2.258 2.943-5.514 2.943-1.21 0-2.671-.212-4.093-.534v7.288c1.573.373 3.256.535 4.88.535 7.137 0 10.605-2.41 13.014-9.053l10.555-29.245zM.939 39.272c0 13.176 5.454 18.64 18.58 18.64 3.941 0 7.661-.484 11.129-1.392v-7.66c-3.256.907-6.452 1.39-9.607 1.39-7.299 0-10.293-3.215-10.293-10.977 0-7.762 2.994-10.978 10.293-10.978 3.145 0 6.35.484 9.607 1.39v-7.66c-3.468-.908-7.188-1.392-11.13-1.392C6.394 20.632.94 26.096.94 39.272z" fill="#fff"/></svg>