<svg width="110" height="39" fill="none" xmlns="http://www.w3.org/2000/svg"><path d="M50.991 17.299H37.07c.04-.837.262-1.643.665-2.41a6.81 6.81 0 011.583-2.015 7.295 7.295 0 012.308-1.351c.877-.333 1.845-.494 2.904-.494 2.157 0 3.77.615 4.848 1.845 1.079 1.23 1.613 2.701 1.613 4.425zm9.97 5.474v-1.32c0-2.813-.403-5.323-1.22-7.521-.816-2.198-1.945-4.073-3.397-5.605-1.451-1.542-3.185-2.712-5.212-3.528-2.026-.817-4.244-1.22-6.663-1.22-2.42 0-4.839.423-6.996 1.25-2.157.837-4.023 2.016-5.605 3.528-1.583 1.522-2.833 3.367-3.76 5.545-.928 2.177-1.381 4.607-1.381 7.288 0 2.682.473 5.232 1.421 7.39.948 2.157 2.248 3.971 3.891 5.443 1.654 1.472 3.569 2.601 5.777 3.367 2.197.766 4.526 1.15 6.996 1.15 3.347 0 6.28-.605 8.81-1.815 2.53-1.21 4.567-2.934 6.1-5.182L52.2 26.795c-.746 1.008-1.714 1.835-2.903 2.47-1.19.635-2.641.958-4.355.958a8.47 8.47 0 01-2.803-.464 8.308 8.308 0 01-2.44-1.29 7.112 7.112 0 01-1.784-1.946c-.463-.746-.735-1.583-.826-2.51H60.91c.04-.393.07-.817.07-1.25M.97 37.491h24.748v-9.244h-13.73V.333H.97v37.158zm88.49-16.563a9.9 9.9 0 01-.494 3.105 8.6 8.6 0 01-1.482 2.742 7.218 7.218 0 01-2.44 1.946c-.967.483-2.086.726-3.367.726-1.28 0-2.399-.242-3.367-.726a7.22 7.22 0 01-2.44-1.946 8.223 8.223 0 01-1.481-2.742 10.2 10.2 0 01-.494-3.105c0-1.058.161-2.087.494-3.105a8.151 8.151 0 011.452-2.671 7.377 7.377 0 012.409-1.885c.968-.484 2.087-.726 3.367-.726 1.28 0 2.4.242 3.367.726.968.484 1.784 1.109 2.44 1.885a8.305 8.305 0 011.522 2.671 9.387 9.387 0 01.524 3.105m10.424 0c0-2.681-.484-5.1-1.452-7.258-.968-2.158-2.288-3.982-3.962-5.474a17.497 17.497 0 00-5.806-3.428c-2.198-.796-4.557-1.19-7.067-1.19s-4.809.394-7.027 1.19c-2.217.797-4.153 1.936-5.806 3.428-1.653 1.492-2.964 3.327-3.932 5.474-.967 2.157-1.451 4.577-1.451 7.258 0 2.682.484 5.111 1.451 7.289.968 2.177 2.279 4.022 3.932 5.544 1.653 1.522 3.589 2.692 5.806 3.528 2.218.837 4.567 1.25 7.027 1.25s4.859-.423 7.067-1.25c2.197-.836 4.133-2.016 5.806-3.528 1.674-1.522 2.994-3.367 3.962-5.544.968-2.178 1.452-4.607 1.452-7.289zm9.536 10.837a4.373 4.373 0 00-1.078-1.492 4.883 4.883 0 00-1.583-.938 5.76 5.76 0 00-1.925-.322c-.686 0-1.311.11-1.916.322a4.55 4.55 0 00-1.583.938 4.348 4.348 0 00-1.068 1.492c-.262.585-.393 1.25-.393 1.976s.131 1.391.393 1.986a4.43 4.43 0 001.068 1.512 4.67 4.67 0 001.583.958c.605.231 1.24.342 1.916.342.675 0 1.32-.11 1.925-.342a4.862 4.862 0 001.583-.958 4.456 4.456 0 001.078-1.512c.262-.595.394-1.25.394-1.986s-.132-1.391-.394-1.976z" fill="#fff"/></svg>