<svg width="250" height="50" fill="none" xmlns="http://www.w3.org/2000/svg"><path d="M1.401 21.937h22.42v5.706s-1.693 2.026-5.595 6.663c-4.476 5.323-.262.283-7.056 8.549 1.754.02.897 0 12.641 0v6.351H0v-6.351L12.37 28.53c0-.131.645-.716.645-.716s-.585.04-.646.03H1.401v-5.917.01zm52.764 0h7.933v20.918h10.273v6.371c-6.1 0-12.36.06-18.428-.02.09-10.252-.01-.272.222-27.269zm20.303 0h7.943c0 6.976 0 13.942.02 20.918h10.253c-.04 2.641.02 3.972-.03 6.371H74.468c-.02-5.686 0-2.208 0-18.8 0-2.35-.03-5.172 0-8.489zM43.459 35.526c-.04 3.609-.353 5.615-1.2 6.875-.978 1.22-4.022 1.855-6.401.797a4.257 4.257 0 01-1.855-2.279 24.8 24.8 0 01-.464-7.42c.151-1.995.494-3.77 1.018-4.505.413-.555.464-.767 1.553-1.2 1.129-.585 3.81-.434 4.516.06 2.258 1.019 3.004 2.692 2.833 7.672zm9.254-1.694c-.323-4.516-1.462-6.431-2.833-8.205a12.767 12.767 0 00-3.579-2.944c-2.046-.998-3.548-1.361-5.978-1.603-1.3-.12-2.237-.02-3.669.02-4.819.504-9.154 2.248-11.392 7.5a17.979 17.979 0 00-.917 3.62c-.211 2.227-.09 4.244 0 6.37 1.522 7.844 5.484 9.85 9.799 11.02 5.776 1.068 10.645-.465 8.72 0 3.538-.838 5.474-2.26 7.248-4.638 1.411-2.026 2.42-4.526 2.54-6.966a38.04 38.04 0 00.04-4.163m61.303 15.373V27.461h-4.537v-3.165h8.942v24.92h-4.405zm125.518-24.91h-4.386v24.9h4.386V35.173c0-4.274 2.641-8.044 6.814-8.044.968 0 1.946.312 2.944.605l-.413-3.72a7.927 7.927 0 00-1.946-.252c-3.77 0-5.988 1.613-7.288 4.224l-.101.1v-3.77l-.01-.01zm-13.348 24.9h4.385V30.193c0-3.921-2.429-6.441-10.02-6.441a36.93 36.93 0 00-9.456 1.31l-.514 3.418a22.7 22.7 0 019.506-2.107c2.429 0 6.089.554 6.089 3.568 0 6.684-18.438 3.065-18.438 12.723 0 5.03 3.669 7.086 9.032 7.086 1.956.02 3.912-.15 5.837-.504l.726-3.014a17.66 17.66 0 01-5.323.907c-2.631 0-5.887-.907-5.887-4.072 0-5.837 11.049-5.434 14.043-8.297v14.436h.02zm-54.981-24.9h-4.406v24.9h4.406V35.375c0-4.778 2.792-8.246 7.026-8.246 3.508 0 5.212 1.905 5.212 4.738v17.35h4.385V35.384c0-4.778 2.793-8.246 7.027-8.246 3.518 0 5.221 1.915 5.221 4.738v17.35h4.386v-18.66c0-4.678-3.66-6.785-8.156-6.785-3.972 0-7.177 1.563-8.78 5.08-1.129-3.618-4.335-5.08-7.954-5.08-3.619 0-6.926 1.865-8.267 4.738l-.1-.1v-4.114zm-13.519 24.9h4.386V30.193c0-3.921-2.43-6.441-10.021-6.441a37.02 37.02 0 00-9.456 1.31l-.514 3.418a22.67 22.67 0 019.506-2.107c2.43 0 6.089.554 6.089 3.568 0 6.684-18.438 3.065-18.438 12.723 0 5.03 3.67 7.086 9.033 7.086 1.955.02 3.911-.15 5.837-.504l.725-3.014a17.653 17.653 0 01-5.322.907c-2.631 0-5.888-.907-5.888-4.072 0-5.837 11.049-5.434 14.043-8.297v14.436h.02zm-28.025-24.9v-5.434l-4.385.908v4.526h-3.206v3.125h3.206v16.341c0 4.375 2.117 5.988 6.512 5.988a21.735 21.735 0 004.698-.605l.514-3.377a16.88 16.88 0 01-3.891.605c-2.843 0-3.458-1.895-3.458-4.274V27.42h6.976v-3.125h-6.956l-.01.01zM84.176 14.185c-.01 2.48 2.036 4.496 4.587 4.506h4.264c-.04 1.522 0 3.034.13 4.556.021.253.061.494.122.736a3.455 3.455 0 001.22 2.117c1.804 1.744 4.718 1.744 6.512-.01a4.442 4.442 0 001.341-3.165V18.7c0-4.95-4.123-8.962-9.214-8.962H88.51h.272c-.252 0-.514.02-.766.06-2.218.363-3.841 2.228-3.841 4.426m10.181 11.744l.091.091-.09-.09zm-.685-.947c.181.332.393.635.645.907a3.38 3.38 0 01-.645-.907z" fill="#fff"/><path d="M111.586 13.318c0-2.47-2.067-4.476-4.597-4.476h-4.244c.04-1.522 0-3.035-.142-4.547a3.01 3.01 0 00-.121-.736 3.428 3.428 0 00-1.219-2.117c-1.805-1.744-4.718-1.744-6.513.02a4.425 4.425 0 00-1.34 3.166v4.254c0 4.95 4.123 8.962 9.204 8.962h4.354c.253 0 .515-.02.767-.06 2.217-.363 3.84-2.228 3.84-4.426M101.384 1.574l-.091-.091.091.09zm.685.947a4.463 4.463 0 00-.645-.907c.262.272.484.574.645.907z" fill="#fff"/></svg>