<svg width="212" height="68" fill="none" xmlns="http://www.w3.org/2000/svg"><path d="M140.1.801c-.121.262-1.482.494-1.603.756-2.006 4.496.575 7.672 2.551 12.33-.323-.132-.545-.011-.867-.142-2.783-1.12-4.073-2.268-6.855-3.397-6.079-2.45-9.718-4.345-16.281-4.486-2.984-.06-5.877-2.067-7.591 1.31 1.341 3.145 3.105 4.315 5.978 6.2l2.248.867 2.974 1.2c-5.988 2.63-16.079-.938-18.66 4.838-.726 1.633 4.436 3.367 6.15 4.063 3.568 1.442 5.746 1.956 9.566 2.61l.666.475c-5.767 2.984-17.47 2.308-14.285 7.974 6.22 2.51 13.418.302 20.182.846-1.673 3.75-8.74 6.2-5.454 10.303 4.859.404 8.065-.544 11.976-3.286 1.765-1.27 2.521-2.944 4.678-3.115 3.276-.242 9.789 1.996 12.44.1 2.822-2.036.091-7.187 3.135-8.982 2.369-1.39 2.984-.695 5.534.333 3.801 1.532 5.989 2.52 9.093 5.131.464-1.27.353-2.258.041-3.518-4.355-1.764-6.815-2.752-11.18-4.516-5.887-2.38-1.593-9.436-2.682-15.454-1.189-6.412-7.066-7.228-11.744-12.44" fill="#fff"/><path d="M79 1.769c.06.282 1.341.776 1.401 1.058.978 4.799-2.237 7.39-5.181 11.553.343-.06.534.1.877.03 2.964-.544 4.486-1.411 7.45-1.966 6.482-1.2 10.454-2.318 16.905-1.169 2.934.534 6.2-.857 7.138 2.782-1.996 2.813-3.972 3.6-7.208 4.88l-2.39.403-3.165.584c5.283 3.76 15.938 2.259 17.198 8.428.353 1.744-5.07 2.42-6.905 2.752-3.811.706-6.049.777-9.92.666l-.756.332c4.99 4.053 16.583 5.716 12.228 10.626-6.623 1.22-13.196-2.35-19.93-3.156.817 4.002 7.198 7.783 3.085 11.15-4.839-.575-7.772-2.127-10.998-5.585-1.452-1.583-1.825-3.377-3.891-3.962-3.156-.877-10.01.02-12.188-2.359-2.319-2.55 1.482-7.057-1.099-9.405-2.016-1.825-2.772-1.27-5.484-.767-4.053.747-6.412 1.28-10.02 3.216-.172-1.34.15-2.278.725-3.457 4.648-.857 7.269-1.341 11.916-2.208 6.28-1.16 3.619-8.922 5.998-14.577 2.56-6.039 8.488-5.666 14.204-9.85m-67.048 64.65v-5.726c0-3.841-3.145-5.898-6.865-5.898h-.615c-1.23 0-2.44.222-4.164.535l.898 2.63c1.33-.725 2.913-1.038 3.86-1.038 2.158 0 3.317 1.644 3.317 3.65v5.847h3.579-.01zM4.32 59.633H.933v6.785h3.388v-6.785zm21.675 6.785v-2.319h-1.16v-3.407c0-3.79-2.842-5.898-6.633-5.898h-.615c-1.23 0-2.016.101-3.74.414l.897 2.63c1.321-.725 2.48-.916 3.428-.916 2.157 0 3.075 1.613 3.075 3.649v3.528h-7.34v2.319h12.088zm5.201-6.381v-4.98H27.81v6.139l3.387-1.16zm14.054 6.381v-2.319h-1.16v-3.407c0-3.79-2.843-5.898-6.634-5.898h-.614c-1.23 0-2.006.101-3.74.414l.897 2.63c1.33-.725 2.49-.916 3.437-.916 2.158 0 3.075 1.613 3.075 3.649v3.528h-7.339v2.319H45.25zm14.808-5.726c0-3.861-3.58-5.898-7.178-5.898-2.127 0-3.428.172-5.827.918v4.93c0 3.477 2.56 6.038 6.32 6.038 3.761 0 6.675-2.339 6.675-5.988m-3.58-.091c0 1.865-.997 4.012-2.913 4.012-2.056 0-2.933-1.693-2.933-3.65v-3.82c.786-.221 1.3-.221 2.248-.221 2.369 0 3.599 1.471 3.599 3.669m16.462 5.827v-5.726c0-3.841-3.145-5.898-6.865-5.898h-.615c-1.23 0-2.44.222-4.163.535l.897 2.63c1.33-.725 2.913-1.038 3.86-1.038 2.158 0 3.317 1.644 3.317 3.65v5.847h3.58-.01zm-7.621-6.785h-3.387v6.785h3.387v-6.785zm29.315 6.785v-5.726c0-3.861-3.125-5.898-6.865-5.898-1.492 0-2.964.313-4.97.827l.786 1.401.02 5.535c0 .776.091 1.986-1.018 1.986-.615 0-.998-.172-1.582-.293v1.885c1.068.363 1.653.555 2.51.555 2.963 0 3.457-1.976 3.457-4.032v-5.706c.263-.02.525 0 .777 0 2.157 0 3.316 1.623 3.316 3.649v5.817h3.58-.011zm8.186 0v-7.591c0-2.057-.524-4.033-3.478-4.033-.857 0-1.663.242-2.722.605v1.835c.595-.12 1.19-.292 1.804-.292 1.09 0 1.019 1.159 1.019 1.905v5.242H96.45v2.319h6.371l-.01.01zm8.65 0v-7.591c0-2.057-.524-4.053-3.478-4.053-.857 0-1.663.242-2.722.605v1.865c.595-.12 1.18-.292 1.805-.292 1.088 0 1.018 1.089 1.018 1.835v2.248c-.545 1.18-1.825 2.197-3.458 2.802v3.287c1.774-.726 2.561-1.311 3.438-2.42v1.714h3.407-.01zm13.327 0v-5.726c0-3.841-3.145-5.898-6.865-5.898h-.615c-1.23 0-2.44.222-4.174.535l.897 2.63c1.331-.725 2.914-1.038 3.861-1.038 2.158 0 3.317 1.644 3.317 3.65v5.847h3.579zm-7.621-6.785h-3.388v6.785h3.388v-6.785zm20.302-1.794v-2.782h-7.006v-2.783h-3.579v5.101h7.198v1.3c0 .464-.524.989-.897 1.311-1.684 1.371-3.982 2.54-3.982 5.101v1.33h3.387V64.19c0-.797 1.663-1.835 2.228-2.268 1.21-.918 2.651-2.148 2.651-4.083zm18.59-.464v-2.318h-10.555v2.318h5.494v9.043h3.377v-9.043h1.684zm11.925 9.043v-5.726c0-3.841-3.145-5.898-6.865-5.898h-.615c-1.209 0-2.036.192-3.337.434l.898 2.631c1.33-.746 2.107-.938 3.034-.938 2.157 0 3.317 1.644 3.317 3.65v5.847h3.578-.01zm10.665-9.96v-1.401h-3.387c0 1.159.051 2.318-.141 3.457-.191 1.019.101.988-.877 2.319l1.21 1.714c.927-.363 1.048-.484 1.562-.918 1.633-1.33 1.633-3.528 1.633-5.171zm5.182-1.401h-3.508c-.071 2.197-.161 3.992-.373 5.705-.242 1.956-1.23 3.337-3.367 3.337h-2.51l-.686-9.032H170l.877 11.36h5.212c3.931 0 6.774-.705 7.218-5.1.191-1.905.332-3.82.524-6.26m15.081 5.625c0-3.841-3.266-5.898-6.935-5.898-.948 0-2.017.293-2.793.757-.806-.585-1.804-.656-2.671-.656h-.353l-.897 1.764c1.915-.02 2.036.363 2.036 1.644 0 .967-.071 1.955-.262 2.903-.353 1.734-.524 3.216-.897 5.222h3.054c.353-1.835.565-3.337.857-4.98.192-1.038.313-2.077.313-3.145 0-.847 1.109-1.664 2.016-1.664 2.318 0 3.337 1.835 3.337 3.962 0 2.299-1.23 4.083-3.67 4.083-.242 0-1.139-.383-1.421-.484l-.454 2.198c.897.171 1.522.292 2.127.292 3.74 0 6.633-2.147 6.633-5.988m12.854 5.716v-5.726c0-3.841-3.145-5.898-6.865-5.898h-.615c-1.23 0-2.44.222-4.163.535l.897 2.63c1.33-.725 2.913-1.038 3.861-1.038 2.157 0 3.316 1.644 3.316 3.65v5.847h3.579-.01zm-7.621-6.785h-3.387v6.785h3.387v-6.785z" fill="#fff"/></svg>