<svg width="166" height="38" fill="none" xmlns="http://www.w3.org/2000/svg"><path d="M62.589 18.798c0-2.822-.323-5.282-.978-7.52-.726-2.298-1.936-4.395-3.7-6.411-1.996-2.128-4.012-3.388-6.351-3.982C50.078.4 47.669.149 44.403.149h-8.78v13.69h8.78c1.37 0 2.56 0 2.863.06l.08.04h.141c.908.111 1.553.404 2.117.968.766.766 1.18 2.117 1.18 3.901v5.202h-14.81v13.57h29.437V24.01H62.59v-5.212zM88.94 5.935c-2.057-2.318-4.154-3.85-6.412-4.677-1.855-.736-4.405-1.12-7.58-1.12h-7.612v13.69h7.612c1.19 0 2.237.071 3.125.222.705.182 1.38.635 1.996 1.351.947 1.432 1.37 2.51 1.37 3.518v18.65h11.815V18.8c0-2.571-.292-4.96-.867-6.946-.645-1.926-1.794-3.912-3.447-5.918zm28.932 12.632c0 1.663-.403 3.034-1.21 4.052-.715.706-1.391 1.089-2.298 1.29-.312.081-1.19.091-2.429.091V.15h-11.694V24h-4.698v13.57h14.073c3.972 0 6.855-.252 8.549-.726 2.852-.746 5.211-2.329 7.238-4.859 2.883-3.609 4.284-7.994 4.284-13.418V.15h-11.815v18.418zm15.273 19.023l11.875-.02V16.832h-11.875v20.756z" fill="#fff"/><path d="M164.375 11.278c-.725-2.298-1.925-4.385-3.699-6.411-1.956-2.087-4.002-3.398-6.22-3.972-1.613-.494-4.002-.746-7.279-.746l-14.133-.08v13.77h14.123c2.4 0 4.083.564 5.01 1.683.817 1.13 1.24 2.258 1.24 3.276V37.57h11.815V18.8c0-3.146-.272-5.525-.857-7.52zM.883 37.59l11.876-.02V16.832H.883v20.756z" fill="#fff"/><path d="M28.404 4.866C26.448 2.78 24.402 1.47 22.184.894 20.561.4 18.182.16 14.906.16L.782.078v13.77h14.124c2.399 0 4.082.565 5.01 1.684.816 1.129 1.24 2.258 1.24 3.276v18.77H32.97v-18.77c0-3.135-.273-5.524-.857-7.52-.726-2.299-1.936-4.385-3.7-6.412" fill="#fff"/></svg>