<svg width="210" height="30" fill="none" xmlns="http://www.w3.org/2000/svg"><path d="M28.097 26.422l-.585-7.108-3.145.313c-.141-2.157-.273-5.575-.676-10.111-.403-4.224-1.39-7.148-7.107-7.148h-5.978c-2.43 0-4.405-1.481-4.99-1.844l-2.964 6.38c.535.364 2.783 2.29 7.864 2.29h3.598c1.442 0 2.208 1.118 2.289 2.429.09.988.625 8.72.625 8.72L.979 22.046l.585 6.926 26.523-2.56.01.01zm21.603.272L45.93 3.86 36.988.715 34.962 7.5l4.859 1.754.857 6.2-9.305 7.197c1.613 3.861.897 2.248 2.067 4.809l8.72-5.625 1.129 6.018 6.431-1.17-.02.01zm16.825.363V4.304L57.13 1.068 54.297 7.54l5.172 1.895v11.503l-5.444.725-.938 6.876 13.438-1.482zM79.953 15.01h-7.056v12.41h7.056V15.01zm16.281 12.41V9.657c0-4.184-.585-7.278-5.978-7.278h-8.498c-2.833 0-5.575-1.039-7.329-2.38-.766 1.755-2.742 5.979-3.055 6.694 1.533 1.623 4.81 2.52 7.279 2.52h10.514V27.42h7.067zm47.693 0V8.498c0-2.198-.272-6.069-5.756-6.069h-10.968c-2.833 0-5.575-1.028-7.329-2.379-.766 1.754-2.793 5.978-3.105 6.694.806.806 2.107 1.482 3.599 2.066v11.866l-4.184.715-1.079 7.148 12.319-1.936v-17.4h9.436V27.41h7.057l.01.01zm36.725 0l-1.21-25.041h-6.069c-8.004 0-13.307 4.768-13.307 4.768l-6.431-5.756-5.212 5.444 7.056 6.34-5.302 13.216 6.795 2.43 3.951-9.849c2.299-5.615 3.549-7.097 7.863-8.63 2.289-.806 3.781-.584 3.781-.584l.675 11.553-8.629.897.675 6.795 15.374-1.573-.01-.01zm28.72 0v-17.4c0-4.184-.947-7.641-6.341-7.641h-8.135c-2.833 0-5.575-1.039-7.329-2.38-.766 1.755-2.742 5.979-3.054 6.694 1.532 1.623 4.808 2.52 7.278 2.52h10.525V27.42h7.056z" fill="#fff"/></svg>