<svg width="152" height="74" fill="none" xmlns="http://www.w3.org/2000/svg"><path d="M94.22 56.738c-2.662 8.65-6.744 8.65-8.055 7.601-1.583-1.31-1.089-2.923 0-4.203 1.089-1.28 7.672-6.483 2.591-22.068-4.546-13.941-7.51-23.982-8.468-26.462l-.252-.554c.06.08.141.272.252.554 1.25 2.742 6.754 14.86 7.722 17.45 1.1 2.944 8.922 20.535 6.21 27.682zm-.706-28.73C90.308 23.26 83.292 9.812 80.711 3.228l-1.058-2.7-.978 2.731c-1.683 4.698-5.806 13.267-12.057 23.78-.504.858-1.633 2.723-2.903 5.213-1.28 2.51-2.712 5.665-3.81 9.073-2.198 6.764-3.247 14.95 1.159 21.19C65.69 69.077 72.647 73.15 79.35 73.15c6.704 0 17.229-3.236 21.029-13.095 3.811-9.86.605-20.948-6.855-32.037m54.749.937c-.574-.363-.998-.534-1.25-.534-.443 0-.857.272-1.219.806l-3.005 4.204c2.208 1.25 3.317 3.67 3.317 7.258 0 4.023-1.512 6.593-4.536 7.692l-.645.242-1.916-12.097c-.665-4.234-2.55-6.936-5.645-8.105-.484-.192-.928.02-1.311.635l-2.691 4.516c1.24.665 2.157 1.351 2.732 2.057.665.796 1.209 1.945 1.623 3.447l3.155 10.696v.101c-1.331.605-3.791 1.33-7.379 2.178l-.091.15 1.996 3.983c.433.847 1.2 1.129 2.309.857 2.832-.736 5.826-1.936 8.982-3.59 3.064-1.642 5.353-3.78 6.865-6.4 1.482-2.51 2.228-5.162 2.228-7.965 0-5.191-1.18-8.568-3.539-10.11m-22.198 2.56a14.768 14.768 0 00-2.55-2.349c-.928-.665-1.644-.998-2.148-.998-.342 0-.796.433-1.381 1.3l-2.399 3.539v.191c1.018.636 1.804 1.19 2.359 1.664 1.3.927 1.956 2.107 1.956 3.538 0 .504-.232 1.553-.686 3.155a259.301 259.301 0 01-1.583 4.103l.091.323c.353 0 1.018-.242 1.986-.736.968-.484 1.522-.816 1.653-.978 1.392-1.754 2.359-3.326 2.914-4.687.756-1.966 1.129-3.64 1.129-5.01 0-.979-.454-1.997-1.351-3.055M115.5 37.03c0-2.833-.988-5.151-2.953-6.966-1.099-.988-2.027-1.593-2.783-1.784-.433-.131-.836.11-1.219.736l-2.823 4.153c2.873 1.37 4.314 3.407 4.314 6.109v25.676h.958l3.559-2.661c.635-.484.957-1.29.957-2.4V37.03h-.01zm-61-5.494a14.763 14.763 0 00-2.55-2.349c-.927-.665-1.643-.998-2.147-.998-.343 0-.796.433-1.381 1.3l-2.4 3.539v.191c1.019.636 1.805 1.19 2.36 1.664 1.3.927 1.955 2.107 1.955 3.538 0 .504-.232 1.553-.685 3.155a266.831 266.831 0 01-1.583 4.103l.09.323c.354 0 1.019-.242 1.987-.736.968-.484 1.522-.816 1.653-.978 1.391-1.754 2.37-3.326 2.913-4.687.756-1.966 1.13-3.64 1.13-5.01 0-.979-.454-1.997-1.361-3.055M29.67 39.65l-.685-.272-3.508 2.097c-.817.504-1.22 1.461-1.22 2.863v10.605h.907l3.317-2.54c.796-.606 1.2-1.291 1.2-2.057V39.65h-.01zm14.698-1.512c0-5.736-2.46-8.6-7.379-8.6h-8.508c-.504 0-.948-.21-1.33-.624-.384-.413-.767-.847-1.16-1.28h-.293l-2.49 4.596c-.12.273-.18.515-.18.706 0 .313.09.595.261.857.877 1.27 2.077 1.905 3.6 1.905h8.094c1.36 0 2.359.313 2.984.928s.938 1.723.938 3.326v15h.957l3.508-2.64c.666-.535.998-1.24.998-2.097V38.139zM21.385 48.694h-3.579c-.191 0-.302-.081-.332-.242 0-.162.03-.293.09-.393 1.039-1.331 1.553-3.035 1.553-5.112v-6.663c0-4.496-2.137-6.744-6.422-6.744H6.868c-.524 0-.978-.212-1.37-.625-.394-.413-.787-.847-1.19-1.28h-.272l-2.44 4.596c-.161.273-.242.515-.242.706 0 .313.09.595.292.857.575.796 1.049 1.32 1.412 1.552.363.232.947.353 1.764.353h6.2c.988 0 1.704.252 2.127.746.423.494.635 1.381.635 2.651v5.958c0 1.402-.121 2.309-.353 2.732-.323.605-1.048.908-2.177.908H3.43c-.605 0-1.008.282-1.2.856L.96 54.167v.484h17.853c.666 0 1.1-.363 1.31-1.099l1.271-4.495v-.363h-.01z" fill="#fff"/></svg>