<svg width="182" height="57" fill="none" xmlns="http://www.w3.org/2000/svg"><path d="M27.504 56.32h-4.305V41.995H4.348V56.33H.064l-.02-29.96h4.304v12.793h18.851l-.01-12.803h4.305l.01 29.96zm11.381-30.01h4.294l.02 30.01h-4.304l-.01-30.01zM80.58 56.3h-5.081L62.605 41.27l-3.67 3.266V56.32h-4.284V26.29h4.285l.01 14.657h.212c.977-1.15 2.056-2.238 3.044-3.226L74.208 26.29h5.273L65.619 39.062 80.59 56.3h-.01zm25.161-12.339l-3.891-8.901c-.837-2.047-1.502-3.932-2.016-5.706h-.161c-.514 1.805-1.24 3.69-1.956 5.585l-3.942 9.012h11.966v.01zm9.688 12.32h-4.567l-4.244-9.729h-13.73l-4.143 9.728H84.35l13.034-30.01h4.97l13.065 30 .01.01zm17.702-15.798c5.494 0 9.003-2.379 9.003-5.988 0-4.455-4.406-5.826-9.224-5.826-2.319 0-3.982.16-4.849.322v11.502h5.07v-.01zm5.998 1.392c3.065.756 4.88 3.004 5.807 6.26 1.24 4.335 2.117 6.976 2.903 8.115h-4.455c-.625-.857-1.502-3.508-2.531-7.238-1.139-4.174-3.316-6.029-7.984-6.029h-4.808V56.26h-4.295V26.693c2.42-.404 5.837-.635 8.942-.645 5.121 0 8.488.796 10.827 2.44 1.855 1.31 2.953 3.356 2.953 5.594 0 3.982-3.155 6.532-7.338 7.682v.11h-.021zm21.352-15.626h-4.305v30.01h4.305V26.25zm17.914-.433c-.05-.484-.373-1.22-.675-1.603l-.051-.08-.05-.072-.051-.08-.07-.1-.081-.092-.08-.11-.101-.121-.111-.122-.121-.13-.131-.142-.151-.14-.162-.152-.171-.151-.202-.162-.201-.17-.182-.122-.181-.141-.202-.141-.211-.131-.202-.131-.202-.141-.181-.131-.182-.111-.151-.111-.131-.101-.131-.1-.141-.112-.121-.11-.121-.101-.111-.111-.151-.152-.141-.16-.151-.172-.152-.192-.171-.201-.192-.272-.191-.293-.192-.302-.171-.303-.171-.312-.142-.313-.121-.312-.12-.313-.091-.322-.071-.343-.06-.323-.041-.332-.03-.323v-1.018l.071-.333.08-.322.091-.323.111-.323.121-.302.141-.302.161-.303.172-.292.181-.282.202-.273.212-.272.241-.262.242-.242.252-.252.263-.222.262-.211.191-.162.192-.14.191-.142.182-.12.171-.112.141-.07.141-.081.152-.07.161-.071.151-.06.151-.061.182-.07.191-.071.212-.08.232-.082.232-.08.232-.08.231-.081.212-.091.202-.09.252-.112.232-.1.211-.112.192-.1.171-.101.162-.09.151-.102.131-.09.121-.091.111-.08.1-.081.091-.071.081-.07.07-.061.051-.05.04-.03c1.553-1.301 1.784-3.6.494-5.162a3.673 3.673 0 00-5.181-.534c-.394.282-.888.937-1.059 1.38l-.04.081-.031.081-.05.1-.04.102-.051.13-.06.112-.051.14-.06.162-.05.161-.061.192-.05.191-.051.222-.04.232-.04.242-.041.272-.02.212-.03.232-.02.242-.02.242v.241l-.021.242-.02.232-.03.202v.202l-.03.17-.02.152-.031.182-.03.16-.03.152-.03.161-.071.212-.06.202-.071.211-.081.222-.09.242-.142.303-.151.302-.171.313-.171.312-.192.292-.202.283-.211.272-.222.252-.232.242-.242.222-.252.211-.262.212-.272.191-.303.162-.292.161-.302.151-.323.111-.313.1-.332.072-.323.06-.332.06-.333.03h-.333l-.322.02-.343-.02-.323-.05-.353-.04-.352-.08-.333-.081-.333-.101-.322-.1-.323-.122-.232-.1-.211-.101-.202-.091-.212-.101-.191-.1-.131-.082-.141-.1-.132-.081-.151-.1-.121-.102-.141-.11-.141-.121-.161-.132-.162-.14-.191-.152-.182-.151-.191-.161-.182-.152-.181-.14-.181-.142-.212-.161-.202-.141-.191-.131-.192-.111-.181-.101-.172-.09-.161-.081-.151-.07-.131-.061-.131-.05-.121-.051-.111-.04-.091-.03-.091-.031-.06-.03h-.061a3.659 3.659 0 00-4.707 2.137 3.695 3.695 0 002.137 4.748c.443.202 1.25.302 1.724.222h.09l.091-.02h.101l.121-.02.121-.02.141-.02.151-.031.151-.02.182-.05.181-.041.192-.06.222-.061.221-.07.232-.081.242-.101.202-.1.211-.091.222-.101.212-.121.232-.101.201-.111.212-.09.182-.081.171-.081.161-.06.151-.071.162-.05.161-.061.141-.06.162-.03.201-.051.222-.04.222-.05.232-.041.252-.04.332-.04.343-.021h.343l.353-.01h.362l.343.04.343.05.323.071.322.08.323.102.312.1.313.122.302.15.282.162.293.171.272.192.262.212.242.241.232.232.212.252.211.262.192.263.181.292.162.282.151.293.141.312.121.323.101.332.101.343.08.343.061.322.06.343.04.242.021.242.03.232v.212l.01.221v.474l-.03.172v.16l-.041.172-.03.192-.03.201-.04.222-.041.232-.06.242-.041.242-.04.222-.03.242-.03.211-.041.273-.02.252v.231l-.02.212v.575l.02.161.02.141.02.141.021.121.02.111.02.101.02.09.02.071v.06a3.692 3.692 0 004.224 3.005 3.677 3.677 0 003.045-4.224" fill="#fff"/></svg>