<svg width="200" height="45" fill="none" xmlns="http://www.w3.org/2000/svg"><path d="M11.541 30.826c.716 0 1.432-.05 2.157-.16.716-.112 1.361-.303 1.916-.586a3.662 3.662 0 001.381-1.19c.353-.513.534-1.179.534-1.985 0-.625-.171-1.16-.514-1.613a5.732 5.732 0 00-1.31-1.24 12.42 12.42 0 00-1.775-1.028 30.61 30.61 0 01-1.965-1.029 26.582 26.582 0 01-2.39-1.592 9.535 9.535 0 01-1.915-1.895 8.579 8.579 0 01-1.26-2.34c-.313-.856-.464-1.844-.464-2.973 0-1.432.272-2.772.817-4.002.544-1.23 1.36-2.299 2.43-3.206 1.078-.907 2.419-1.613 4.042-2.127 1.623-.514 3.528-.776 5.705-.776.998 0 1.966.09 2.904.262.937.171 1.804.383 2.62.635.807.252 1.553.534 2.229.867.665.333 1.24.645 1.703.958l-3.044 5.383c-.776-.595-1.734-1.089-2.853-1.502-1.119-.404-2.339-.605-3.65-.605-.715 0-1.4.06-2.056.181a5.148 5.148 0 00-1.734.635 3.338 3.338 0 00-1.19 1.15c-.291.463-.443 1.048-.443 1.734 0 .625.121 1.149.353 1.562.232.424.534.786.918 1.099a6.66 6.66 0 001.31.847c.494.252 1.028.514 1.593.796a39.669 39.669 0 012.802 1.593 11.65 11.65 0 012.39 1.946 8.641 8.641 0 011.633 2.5c.403.937.604 2.046.604 3.316 0 1.774-.322 3.327-.988 4.637a9.027 9.027 0 01-2.762 3.277c-1.19.877-2.6 1.522-4.234 1.945-1.633.424-3.457.635-5.454.635-1.31 0-2.53-.11-3.669-.332a27.57 27.57 0 01-3.085-.766 16.1 16.1 0 01-2.389-.958 13.58 13.58 0 01-1.613-.938l3.085-5.564a15 15 0 001.36.796c.535.282 1.13.545 1.805.797.676.252 1.381.463 2.127.635.746.171 1.533.262 2.34.262m23.205-.041c.535.122 1.19.182 1.966.182 1.22 0 2.329-.222 3.327-.675a7.314 7.314 0 002.55-1.896c.706-.806 1.25-1.784 1.633-2.923.393-1.14.585-2.39.585-3.77 0-1.381-.292-2.48-.887-3.418-.595-.937-1.623-1.401-3.085-1.401-.998 0-1.935.09-2.813.282l-3.276 13.62zm16.986-9.586c0 2.278-.372 4.355-1.118 6.25-.746 1.885-1.785 3.518-3.116 4.889-1.33 1.371-2.913 2.44-4.768 3.206s-3.88 1.149-6.058 1.149c-1.059 0-2.127-.09-3.186-.282L31.38 44.92h-6.925l7.762-32.38c1.25-.373 2.671-.706 4.284-1.008 1.603-.293 3.347-.444 5.212-.444 1.744 0 3.256.262 4.516.796 1.26.535 2.299 1.26 3.115 2.178a8.966 8.966 0 011.805 3.226c.393 1.23.584 2.55.584 3.952zM62.077 8.648a4.308 4.308 0 01-2.621-.867c-.777-.574-1.17-1.461-1.17-2.64 0-.656.131-1.271.393-1.846a4.8 4.8 0 011.049-1.492A5.073 5.073 0 0161.25.795a4.538 4.538 0 011.845-.373 4.33 4.33 0 012.62.867c.777.575 1.17 1.462 1.17 2.642a4.25 4.25 0 01-.403 1.844 4.967 4.967 0 01-1.048 1.502 5.073 5.073 0 01-1.523 1.008 4.539 4.539 0 01-1.844.373M58.7 36.26h-6.926l5.847-24.607h6.966L58.689 36.26h.01zm10.15-23.488a59.065 59.065 0 001.755-.535c.635-.201 1.36-.393 2.157-.564a27.382 27.382 0 012.662-.424c.987-.11 2.096-.16 3.346-.16 3.68 0 6.21 1.058 7.581 3.185 1.371 2.117 1.603 5.02.706 8.7L83.87 36.26h-6.976l3.085-13.004a31.06 31.06 0 00.444-2.36c.11-.765.1-1.43-.02-2.005a2.34 2.34 0 00-.867-1.401c-.454-.353-1.15-.535-2.087-.535-.938 0-1.825.09-2.762.283L70.15 36.28h-6.976l5.666-23.488.01-.02zM194.953 36.36l.666-2.892h-11.775l2.067-8.69h9.698l.665-2.823h-9.738l1.754-7.47h10.968l.665-2.893h-14.325l-5.816 24.769h15.171zm-20.383-9.99a487.036 487.036 0 01-1.926 9.99h3.398a426.9 426.9 0 002.187-12.49c.665-4.153 1.2-8.246 1.593-12.278h-3.256a135.954 135.954 0 00-2.611 3.7 335.17 335.17 0 00-2.994 4.466 3765.545 3765.545 0 00-3.065 4.667c-1.018 1.552-1.945 2.964-2.782 4.254a175.13 175.13 0 00-.686-4.214 195.633 195.633 0 00-.877-4.667 258.657 258.657 0 00-.947-4.486 79.935 79.935 0 00-.898-3.72h-3.326c-.605 1.784-1.23 3.68-1.875 5.686a463.515 463.515 0 00-1.926 6.17 382.877 382.877 0 00-1.895 6.43 390.75 390.75 0 00-1.774 6.483h3.367a483.977 483.977 0 012.732-9.94 347.298 347.298 0 012.873-9.506c.121.524.252 1.2.423 2.016.162.827.343 1.734.545 2.732.201.998.393 2.046.594 3.125.202 1.089.394 2.137.575 3.145.181 1.018.353 1.956.504 2.823.151.867.272 1.593.363 2.157h2.732c.353-.544.806-1.26 1.371-2.127.564-.867 1.169-1.815 1.825-2.823.655-1.008 1.33-2.056 2.036-3.145.706-1.079 1.381-2.127 2.026-3.125.655-.998 1.26-1.915 1.825-2.752.564-.837 1.028-1.512 1.401-2.036-.444 3.074-.958 6.22-1.542 9.456m-38.388.836a178.668 178.668 0 014.133-6.956 191.574 191.574 0 013.044-4.697c.333 2.026.615 3.992.857 5.897.242 1.905.464 3.82.645 5.756h-8.69.011zm9.002 2.793c.121.998.222 2.046.312 3.125.091 1.088.202 2.167.313 3.236h3.427c-.282-2.601-.554-5.02-.806-7.258a273.81 273.81 0 00-1.664-12.098 176.14 176.14 0 00-.957-5.413h-3.327a319.427 319.427 0 00-7.379 11.472c-2.49 4.053-5.041 8.488-7.652 13.297h3.71l3.438-6.361h10.585zm-21.17-14.87c.988.575 1.492 1.523 1.492 2.863 0 1.24-.262 2.238-.786 2.984a5.46 5.46 0 01-2.037 1.754 8.854 8.854 0 01-2.752.837 21.195 21.195 0 01-2.944.212h-2.066l2.208-9.365c.352-.091 1.35-.141 3.014-.141 1.663 0 2.883.282 3.871.856zm-6.563-3.68a17.709 17.709 0 00-3.115.465L108.58 36.35h3.397l2.279-9.759h2.701c.303 0 .605 0 .908-.02.302-.01.604-.03.907-.05.302.575.635 1.23.998 1.986s.726 1.552 1.089 2.41c.363.856.715 1.753 1.068 2.68.353.928.686 1.846 1.018 2.753h3.468a47.913 47.913 0 00-.978-2.954 66.152 66.152 0 00-1.159-2.933 55.11 55.11 0 00-1.159-2.571 45.107 45.107 0 00-.978-1.916c2.167-.625 3.861-1.633 5.061-3.054 1.199-1.421 1.804-3.175 1.804-5.272 0-2.097-.756-3.65-2.278-4.718-1.522-1.069-3.569-1.613-6.17-1.613-.978 0-2.016.04-3.115.11M94.326 36.34l2.701-11.471h9.567l.665-2.823h-9.597l1.785-7.58h10.827l.665-2.894H96.755L90.94 36.34h3.397-.01z" fill="#fff"/></svg>