<svg width="195" height="36" fill="none" xmlns="http://www.w3.org/2000/svg"><path d="M175.412 29.86c-.978 0-2.017-.302-3.085-.886l-.514-.273-2.379 5.233.443.231c2.037 1.11 3.881 1.573 6.15 1.573 4.213 0 6.653-2.056 8.699-7.319l10.182-26.331h-7.107s-5.262 15.07-6.089 17.45c-.907-2.349-6.683-17.45-6.683-17.45h-7.269l10.595 25.414c-.887 1.946-1.764 2.359-2.943 2.359zm-65.98-6.622l.342-.383-4.193-4.134-.383.383c-1.986 2.037-3.861 2.944-6.069 2.944-3.942 0-6.905-3.206-6.905-7.47v-.09c0-4.144 2.913-7.38 6.633-7.38 2.873 0 4.617 1.411 6.069 2.934l.393.413 4.264-4.597-.333-.373c-2.802-3.095-5.998-4.466-10.353-4.466-7.54 0-13.448 5.948-13.448 13.549v.1c0 7.521 5.888 13.409 13.408 13.409 5.504 0 8.438-2.45 10.585-4.85m8.538-8.83c0-4.275 2.924-7.38 6.956-7.38s7.097 3.216 7.097 7.48v.101c0 3.66-2.409 7.37-7.006 7.37-3.962 0-7.047-3.277-7.047-7.47v-.101zm6.956 13.599c7.783 0 13.881-5.928 13.881-13.498v-.101c0-7.55-6.048-13.458-13.78-13.458-7.732 0-13.841 5.947-13.841 13.559v.1c0 7.51 6.038 13.398 13.74 13.398zM74.25 1.826l.03.524v14.234c0 2.893-1.876 4.91-4.577 4.91-2.702 0-4.688-2.137-4.688-4.98V1.816h-7.137v14.768c0 6.452 5.161 10.686 11.754 10.686 2.016 0 3.902-.746 5.545-1.583.161-.08.312-.161.463-.252l.081 1.31v.505h5.706V1.816h-7.168l-.01.01zm75.576 25.464l-.03-.524V12.532c0-2.904 1.875-4.92 4.586-4.92 2.712 0 4.698 2.137 4.698 4.99V27.3h7.137V12.531c0-6.451-5.161-10.695-11.764-10.695-2.016 0-3.901.746-5.535 1.592-.161.081-.312.162-.473.252l-.071-1.32v-.524h-5.716V27.29h7.178-.01zM39.33 21.877c-4.285 0-7.753-3.418-7.753-7.632 0-4.213 3.478-7.62 7.752-7.62 4.275 0 7.753 3.417 7.753 7.62 0 4.204-3.468 7.632-7.753 7.632zm6.935-19.618v1.099C44.209 2.188 41.769.989 39.087.989c-7.903 0-14.113 5.514-14.113 13.256v.101c0 7.672 6.16 13.116 14.013 13.116 2.681 0 5.161-1.23 7.268-2.44v1.784h6.381V1.644h-6.381v.605l.01.01zm-33.68 3.135c1.733 0 4.133.837 7.117 2.48l.241.131 2.672-4.838-.222-.142C19.49 1.231 15.83.152 12.625.152c-4.94 0-9.93 2.642-9.93 8.559v.1c0 4.84 4.446 6.765 8.327 7.894 2.57.756 5.07 1.664 5.07 3.559v.1c0 .817-.362 2.964-3.78 2.964-2.399 0-5.433-1.4-8.558-3.508l-.222-.161-2.984 4.597.201.151c3.337 2.46 7.37 4.143 11.362 4.143 6.703 0 10.403-3.256 10.403-8.599v-.544c0-3.377-2.702-5.918-8.266-7.773l-.676-.231c-2.58-.857-4.445-1.482-4.445-3.448v-.11c0-1.19 1.088-2.48 3.488-2.48" fill="#fff"/></svg>