<svg width="156" height="88" fill="none" xmlns="http://www.w3.org/2000/svg"><path d="M78.458.13c.161-.04.252.03.353.05.171.142.201.192.241.434-.08 1.11.101 1.825.595 2.49.585.787 1.704 1.15 2.087 2.137l.07.807c.061.272.041.837 0 1.381-.01.262-.08.433-.14.675-.111.162-.182.273-.293.121-.08-.191-.12-.584-.312-.675-.06-.04-.162-.09-.313.02-.07.131-.08.232-.02.363.313.393.484.897.615 1.452.09.393-.06.847-.02 1.119.242.524 1.028-.05 1.784.161.494.141 1.21.706 1.845.595.645-.121 1.482-.615 2.319-.414.564.142 1.088.293 1.481.595.323.242.565.877.898.655.15-.272.393-.564.473-.897.263-.978-.615-1.32-1.25-1.482-1.119-.302-4.234-.322-4.576-1.25-.273-.302-.192-1.028.12-1.25.817-.574 2.269-.514 3.388-.776l1.129-.06c.302-.111.373-.424.595-.595.443-.353.746-.575 1.37-.776.101-.03.464-.162.595-.121.877.262-.373 2.036-.594 2.258-.555-.01-1.502-.212-1.906-.121-.484.11-1.129.191-1.603.292-.252.06-.645.02-.836.06-.605.142-1.623.122-1.371.656 1.058.544 2.762.433 4.012.857.937.312 2.278 1.38 1.754 2.913-.192.555-.685.928-.827 1.462-.06.252.172.726.06 1.068-.19.605-.574 1.059-.594 1.845.333.303.625.696 1.069.887.383.172.856.081 1.008.474.07.121.312 1.27.242 1.492-.172.524-.827.837-1.13 1.25-.221.293-.261.625-.473.948-.212.332-.534.433-.595.947.192.404 1.794.192 2.621.182.06-.05.02-.02.121-.06.192-.444.202-.898.353-1.432.323-1.079.665-2.329 1.008-3.387.131-.404.131-1.25 0-1.664-.716-2.197-1.976-3.951-2.843-6.038-.232-.555-.947-1.553-.736-1.694.08-.322 1.502-.524 2.319-.836.756-.283 1.613-.797 2.5-.898.242-.02.514.857.897 1.462.121.192.454.938.665 1.028.202 0 .383-.08.575-.08.635-.091 1.361-.212 1.704-.222.423 0 .07-1.422.14-2.238.051-.06.021-.02.061-.121.04 0 .04-.05.081-.05.565-.101 1.26.04 1.754.04 1.623.02 3.095 0 4.728.03.242 0 .242.121.262.182.131.231-.282 1.663-.292 2.187.494.292 1.451.585 2.097.645.312-.534 1.31-2.42 1.673-2.47.161.04 1.321.313 1.926.484.614.172 1.492.363 2.782.625.322.03.322.152.282.293-.564.595-.887 1.401-1.371 2.076a63.692 63.692 0 00-2.349 3.478c-.232.373-.584.988-.746 1.462-.433 1.26-.171 4.173.121 5.474l.121 1.784c.666 2.732 1.21 6.069 1.603 8.055.161.817.343 1.875.413 2.651.071.766.162 1.643.293 2.924.161 1.482.121 3.88.121 5.524 0 2.863-.061 5.464-.061 8.62v5.06c0 .907 0 1.744.02 2.702 0 .252-.05.604-.03.756.03.232 0 .766 0 .907-.03.504 0 1.24-.01 1.673-.02 1.422.141 3.68-.03 3.882-.061.02-.161.11-.222.13-.262.04-1.079-.03-1.562 0h-3.277c-2.923 0-5.383.071-8.327.061h-3.215l-1.008-.06c-.495.09-4.688.302-5.827.12-.404-.06-1.12.071-1.482 0-.293-.06-4.325.162-5.06 0-.434-.1-1.009.04-1.372.061a24.33 24.33 0 01-3.327-.06h-8.034l-.413-.061c-.787.151-1.865-.11-2.732.06-.555.111-1.371-.16-2.137 0-1.019.222-2.753.061-4.164.061 0 0-.615-.04-1.008-.06-.675-.02-1.492-.05-1.724 0-.675.15-1.633 0-2.681 0-2.5 0-6.09-.061-6.422 0-.494.09-1.512 0-2.198 0-1.24 0-2.742.15-3.86-.061v-.121c-.152-.242 0-.625 0-.948l.06-2.379.06-9.335c-.14-.685 0-1.915 0-2.792 0-.948-.211-2.208-.06-3.034.06-.353.192-1.916.121-2.259-.161-.745-.131-2.137.06-2.973.121-.515-.04-1.22.061-1.664v-1.31c.222-.968-.02-2.198.242-3.156.403-1.512.575-3.084 1.069-4.576.423-1.29.927-2.773 1.31-4.103.161-.565.202-1.23.302-1.825.343-2.107.515-3.246.898-4.839.191-.826.06-1.653.242-2.44v-.715c.1-.423.252-1.401.06-1.905-.07-.182-.262-.383-.353-.535l-.413-.947c-.393-.645-.797-1.2-1.069-1.966-.776-2.117-2.066-3.246-1.492-3.448.656-.15 1.31-.494 1.906-.715.615-.232 1.099-.273 1.724-.474.312-.101 1.028-.585 1.431-.353.323.181.928 2.097 1.381 2.268.232.04 1.694-.232 2.188-.252.342.05.191-1.613.181-2.379.05-.06.02-.02.06-.12.04 0 .051-.132.091-.132.293.03 1.341.07 1.805.07l4.637.182c-.12 0 .11.04.11.08.061.293-.231 1.805-.281 2.178.534.333 1.633.786 2.379.655.171-.393 1.038-2.258 1.37-2.318.273.181.636.07 1.009.181.837.232 1.704.303 2.62.535.172.04.565.231.777.181.403-.1.726-.817 1.542-.655.686.14 1.412.413 1.906.776.554.403.897 1.109 1.482 1.482l.534.181c.343.212.726.605.948.948.423-.202.554-.625.897-.887.302-.232.988-.666 1.19-.948.332-.474.211-1.008-.475-1.008-.211.202-.967.776-1.25.837-.07-.09-.06-.05-.12-.182-.142-.221.05-.746.06-1.129-.151-.08-.212-.11-.474-.12-.292-.152-.826.12-1.068.18-.152.041-.424-.09-.535-.12-.877-.212-1.25-.101-1.663-.776-.383-.625-.383-1.886 0-2.5l.413-.414c.162-.211.474-.554.776-.413.192.08.162.05.182.302-.746.424-1.15.928-1.13 2.137.384.434.545.757 1.19.948.787.232 1.674-.232 1.724-.776a1.792 1.792 0 01-.776-1.432l.353-.413c.968-.645 1.37.04 1.663-1.542.293-.172.595-.504.948-.656.554-.231 1.16-.15 1.724-.352.302-.111.474-.434.715-.595.262-.182.595-.222.837-.414m-1.905 1.724c-.212.06-.555.252-.353.595.262.111.665.161.776.474.131.202 0 .454-.06.655-.06.07-.172.172-.232.04-.01-.252-.09-.554-.302-.211-.101.161-.232.584-.414.675-.06.01-.161.01-.201-.03-.353-.161-.192-.958-.666-1.14-.474-.231-.494.696-.806.918-.393.282-1.17.182-1.351.686-.05.08-.01.181-.02.322.1.252.433.121.776.121l.534.182c.091.171.222.353.353.474-.02.403-.171.423-.242.776.494.423 1.603.453 1.845 1.129.393.433.06 1.36-.181 1.724-.817 1.25-2.087 2.117-2.5 3.75-.424 1.673.786 2.52.836 3.921-1.068 1.018-1.895 2.319-2.792 3.508-.212.283-.706.393-.948.656-1.069-.101-1.421-.222-2.137.473.04.101-.05.121 0 .182.08.151-.02.04.12.12.283.142.737-.322 1.19-.18.414.13.454.503 1.009.534.262-.212.645-.252.836-.535.101-.15.091-.373.242-.473l.293-.06c.201-.092.413-.283.594-.414.686-.514 1.21-1.341 1.906-1.845.443-.323.867-.635 1.25-1.008l.413-.534c.171-.142.413-.232.534-.414.343-.514-.05-1.552.121-2.258.07-.322.222-.605.353-.837.141-.231.09-.423.353-.534.06-.04.06-.04.181-.06.656.967.162.594.06 1.784.384.413.555.897 1.13 1.13.998.412 4.093-.293 4.698-.717.504-.352.625-1.582 1.129-1.784.11-.1.15-.1.352-.121.313.343.464.565.595 1.13v.473c.111.343.434.837.656 1.129.645.867 1.643 1.28 2.56 1.905.202.141.302.424.474.595 0 1.048-.333 1.25-.948 1.663l-.353.414c-.524.363-1.2.403-1.25 1.25.152.13.152.191.414.242.332-.363.756-.424 1.482-.414.554-.947 1.21-1.713 1.844-2.56.162-.222.615-.575.474-1.069-.08-.292-.484-.262-.716-.413l-.18-.242c-.283-.192-.626-.222-.888-.413l-.413-.535c-.01-.353-.202-.574-.121-.947.201-.938.12-2.299-.353-2.914-.222-.282-1.442-.806-2.077-.655-.292.07-1.058.232-1.431.181-.686-.11-1.26-.322-1.926-.433-.272-.04-.423-.02-.675-.06-.262-.05-.686-.05-.968-.101-.403-.08-.675.191-.917.262-.242.07-.656.171-.746-.03 0-.454.14-1.22-.05-1.452-.404-.343-.737-.413-.575-1.16.05-.09.11-.17.15-.17.152-.03.192.05.354.05.181.201.211.514.554.554.293 0 .343-.222.393-.353.04-.211 0-.242 0-.494l-.836-.947c-.504-.373-1.039-.454-1.069-1.31.05-.061.02-.02.06-.122.696-.393.928-.211 1.724-.353.06-.13.091-.17.121-.352-.161-.182-.211-.454-.352-.656-.404-.554-1.25-.836-1.482-1.542-.142-.413-.232-1.583-.535-1.724-.494 0-.957-.02-1.451-.02-.081-.02-.091-.02-.212-.04M54.022 7.54c-.162-.01-.293-.08-.343.05-.1.293.05 1.623-.02 2.047 0 .12-1.18.191-2.006.302-.867.111-1.815.333-2.39.413-.191-.06-.272-.272-.352-.413-.303-.504-.555-1.845-1.069-1.542-.363.312-2.288.615-2.309 1.048.142.282.404.807.585 1.21.323.726.716 1.482 1.12 2.167.291.504.251 1.18.927.988 1.008-.252 1.36-.262 1.996-.474 1.431-.473 3.236-.604 5-.594.756 0 1.603.07 2.197.12.827.061 1.1.03 1.765.222.544.162 1.169.182 1.774.373.363.111.927.343 1.33.404.998-1.09 1.593-2.309 2.39-3.62.262-.423.675-.796.715-1.43-.715-.172-1.774-.515-2.44-.414-.19.353-.987 2.157-1.25 2.258-.12.07-.675.02-.896-.06-.706-.263-1.664-.454-2.44-.716-.292-.101-.645-.04-.776-.303-.131-.242.443-1.31.242-1.784-.08-.151.03-.04-.121-.121-.222-.05-2.924-.111-3.62-.131m46.423.1c-.07.091-.07.182-.131.303-.05.474.03 1.2.081 1.633-.111.242-.343.242-.837.242l-3.69.595c-.16-.272-1.128-1.926-1.189-2.077-.121-.322-2.53.565-2.38.776.132.626.505 1.21.777 1.724.303.585.534 1.21.837 1.785.202.393.292 1.018.837 1.068.443-.383 1.663-.383 2.318-.595 1.815-.564 5.031-.564 7.017-.181l.413-.06c.464.03 1.189 0 1.663.12.938.242 1.714.847 2.732 1.009.968-1.11 1.784-2.4 2.621-3.63.192-.272.918-1.028.817-1.33-.081-.151-.02-.07-.162-.151-.191-.131-2.167-.595-2.248-.565-.423.232-.937 1.754-1.441 2.44-.172.231-.897-.081-1.19-.162-.867-.252-1.966-.564-2.913-.594-.212-.01-.293-.121-.192-.494.141-.192.182-1.21.182-1.603.02-.091-.01-.141-.051-.141-.393-.121-3.145-.06-3.871-.111zm-32.158.394c-.11.12-.171.11-.242.302-.04.06-.04.06-.06.182.212.211.332.695.594.836.243.152 1.029.071 1.311.121.202.323.514.625.716.948.212.343.585 1.25.716 1.603l.06.413.292.242c.222.333.182.686.595.837.06.02.02.05.06 0 .192-.171.132-.766.122-1.13.15-.19.413-.917.242-1.189-.222-.685-1.19-1.25-1.724-1.663-.222-.171-.303-.544-.535-.716-.443-.322-1.41-.776-2.137-.776m-1.37.887c-.787 1.381-1.573 2.772-2.44 4.103-.555.857-1.12 1.603-1.432 2.732-.1.373.101 1.452.182 1.784l.12 1.432c.233.957.394 2.167.474 3.216.404.252 1.24.191 1.906.181.242-.131 1.32 0 1.784 0 .393-.1.151-1.633 1.603-2.198l1.492-.12c.292-.636.726-1.21 1.25-1.604.161-.12.353-.191.474-.352.13-.172.171-.353.302-.535.252-.342.595-.504.655-1.068-.252-.343-.231-.897-.473-1.25-.192-.272-.555-.283-.837-.474l-1.31-1.784c-.323-.807-.253-2.45-1.07-2.732-.382-.363-.927-.05-1.37 0-.07-.121-.182-.222-.242-.353v-.242c-.131-.232-.534-.222-.776-.716h-.303l.01-.02zm-12.491 5c-.756-.01-1.26 0-1.694.06-1.108.142-1.895.152-2.933.464-.494.142-1.32.162-1.522.575-.05.07.04.131.02.272.201.222.201.424.393.424.302-.05.685-.111.978-.192.212-.06.706-.161.937-.222.373-.02.645-.11 1.018-.13 1.382-.313 3.549-.475 4.88-.303.413.02.776.03 1.451.151.676.192 1.049.212 1.674.393.201.02.655.202 1.058.293.414.15.615.242 1.17.282.02-.04.07-.02.09-.06.152-.182.081-.475.02-.716-1.975-1.11-4.798-1.13-7.55-1.311m47.642 0c-.978.01-1.814-.141-2.863.02-.746.111-1.471.162-2.308.403-.555.152-1.16.343-1.734.484-.111.06-.141.05-.111.232.04.101.01.121.06.192.05.221.04.292.242.363.263.16.696-.111.948-.192.897-.302 1.704-.302 2.853-.423 2.732-.293 5.756.11 7.51.715.192.071 1.724.464 1.764.484.111.05.131 0 .182-.09.232-.363.101-.746.04-.797-1.593-.998-4.083-1.35-6.583-1.38m-16.946 2.086c-.262.262-.725.695-1.068.837l-1.13.242c-.241.15-.423.594-.594.836-.141.202-.514.655-.353 1.13.09.251.262.241.292.654-.393.373-.554 1.07-1.008 1.371-.594.384-1.663.162-1.724 1.07.101.04.06.01.121.06.323-.091.716-.444 1.19-.293.282.091.686.524.887.293.1-.162.282-.293.353-.474l.12-.656.243-.12.837-.837c.272-.192.665-.313.836-.595.142-.242 0-1.16.242-1.542.272-.454 1.13-.968 1.19-1.482-.162-.182-.151-.383-.414-.474m-31.23.121c-.383.222-1.028.06-1.482.181-.726.182-1.472.222-2.208.474-.191.07-.706.262-.907.333-.565.201-.978.03-.998.796-.03.535-.252 1.25-.393 1.825-.242.988-.353 2.54-.666 3.891l-.181 1.845c-.313 1.109-.423 2.329-.776 3.448-.111.342-.293.766-.404 1.058-.262.676-.352 1.17-.604 1.875-.383 1.079-.535 2.026-.857 3.226-.111.484-.131.877-.172 1.34-.11.858-.171 1.987-.181 3.096-.02.262.1.221.191.171.736-.242 1.523-.605 2.39-.847.675-.181 1.683-.423 2.52-.655.161 0 .574-.11.736-.11 1.582-.424 4.657-.777 7.006-.596.373.06.524.05.988.121 1.663.393 2.762.656 4.244 1.21.645.242 1.19.484 1.865.776.373.162.917.565 1.28.595 0-.04.07-.04.07-.08.051-1.06-.09-1.472-.06-2.027.081-1.451-.04-3.246-.353-4.577-.322-1.37-.342-2.661-.715-3.982-.585-2.086-1.17-4.425-1.724-6.603-.192-.776-.111-1.764-.242-2.5l.06-.352c-.14-.756-.332-1.593-.352-2.5l-.353-.303c-.393-.151-.656-.06-1.069-.181-.776-.232-1.663-.555-2.5-.777l-1.129-.06c-.938-.212-1.915-.111-3.034-.121m46.805.12c-.292 0-1.542.071-2.258.243-.957.222-1.976.302-2.933.504 0 .04-.141-.02-.111.484-.131.433-.293.937-.454 1.986-.08.564-.836 3.044-1.33 4.405-.121.333-.081.575-.192.927-.03.101-.121.283-.161.384-.02.181-.01.241-.101.534-.04.1-.151.201-.192.302-.11.252-.1.514-.191.827-.121.433-.363.897-.514 1.32-.172.464-.152.686-.313 1.13-.02.05-.07.383-.08.433-.081.192-.081.252-.212.565-.222.735-.555 2.036-.877 3.054-.121.373-.172.776-.242 1.13.02.12 0 .2-.07.533-.132.877-.404 3.267-.243 4.98.03.071.081.162.363.02.514-.433 2.35-.786 3.105-1.078 2.329-.917 6.916-1.27 10.283-.585.534.04.927.121 1.744.212 2.127.423 2.742.736 3.972 1.27.211.09.796.454 1.431.625.081-.564.091-.968.061-1.623-.021-.474.05-1.119-.031-1.663-.161-1.22.031-1.966-.211-3.055-.232-1.008-.031-2.097-.293-3.095-.544-2.016-1.028-4.465-1.572-6.461-.172-.787-.111-1.039-.152-1.573.011-.09-.03-.575-.04-.746-.151-1.774-.302-2.843-.312-4.305-2.248-1.522-4.325-1.643-7.853-1.663m-22.723.716c-.12.242-.01.524-.181.776-.222.333-.605.444-.948.655-.615.383-1.21.867-1.784 1.31l-.353.475c-.464.363-.897.655-1.31 1.068l-.353.474c-.162.12-.353-.03-.535.12-1.28 1.06-1.734.898-1.764.939-.02.231.534 1.885.807 1.975.272.172 1.986.07 2.318 0 .282-.514.968-2.167 1.603-2.197.655-.393 3.135.171 3.498-.242.07-.686-.11-.938.434-1.3.484-.323 1.37-.152 1.603-.716.13-.262-.122-.706-.061-1.069.121-.665.242-1.17.474-1.663l-.121-.121c-.534.12-1.573.262-2.198.06-.383-.12-.716-.423-1.129-.534m8.025.655c-.263.242-.646.282-.777.655-.191.343.263.716.06 1.069l-.241.181-.121.414c-.262.161-1.3.826-1.663 1.31-.484.645-.898 1.472-1.492 2.027-.121.695.383 1.159.675 1.703.242.151 1.089.06 1.34.03.636-.1 1.463.192 2.138.06.282-.513.907-1.46 1.008-2.025-.383-.232-.695-.535-.716-1.13.141-.17.172-.413.303-.594.09-.121 1.008-.988 1.129-1.069.13-.09.312-.07.413-.181.111-.111.09-.283.182-.413.1-.142.352-.303.473-.414-.04-.1-.01-.06-.06-.12-.151-.354-.544-.323-.887-.475-.605-.272-.958-.988-1.784-1.008m11.3 2.853l2.793.06c.312.485.252 1.442.241 2.259.253.413-.05 1.31.061 1.845.121.564-.05 1.38.06 2.026.091.524.142 1.855 0 2.56-.1.06-.1.071-.241.121-.242.142-.585-.06-.948 0-.464.081-1.33.06-1.966.06-.161-.241-.242-.312-.242-.775.151-.263 0-1.643 0-2.198 0-2.006-.1-3.77-.12-5.706.09-.292.261-.151.352-.242m-46.987.242c.776.08 1.794.06 2.792.06.414.182.313 2.632.242 3.63-.05.645-.09 1.552.06 2.258.132.605.122 1.714 0 2.318-.1.061-.1.071-.241.122-.756.1-2.843.201-2.934-.04-.151-.243-.171-.334-.161-.797.252-.413-.02-1.462 0-1.905.06-1.13.08-2.289.08-3.61 0-.655-.18-1.874.162-2.046m53.116 0h3.035c.322.06.191.454.181.897.121.202.061 1.543.061 2.027 0 1.21.06 2.43.06 3.81 0 .434.101 1.33 0 1.542-.06.182-.06.172-.242.242-.191.101-.504-.02-1.068 0-.636.02-1.19.061-1.906.061-.151-.06-.191-.171-.242-.413.101-.162.041-2.047-.01-2.611.02-.635.051-1.15.071-1.785-.172-.816-.182-3.024-.061-3.69.101-.04.061-.01.121-.06m-46.805.06c.957 0 2.127-.11 2.973.061.06.101.071.101.121.242.172.272 0 1.744 0 2.258l-.06 5.646c-.202.13-.192.221-.534.242-.696-.091-2.148-.071-2.672-.06-.171-.273-.191-.636-.181-1.13.242-.393.06-1.542.06-2.087l.06-2.671c0-.776-.07-1.704.061-2.38.07-.04.121-.06.182-.12m48.59 1.663c-.091.06-.323.02-.494.02-.182.283-.111.716-.101 1.23.121.605.081 2.52.081 3.65.171.09.524-.02.816-.02.03-.968 0-2.218 0-3.156-.212-.343.05-1.29-.06-1.542-.071-.152-.061-.121-.242-.182zm-47.38.121c-.333.545-.152 1.885-.142 2.732-.161.595-.03 1.552-.02 2.026.202.131.302.06.675.06.273 0 .162-2.177.182-2.56.03-.645.07-1.27.06-2.087l-.181-.181h-.575v.01zm-6.271.06c-.171.323-.12.978-.12 1.482-.132.232-.051 2.601-.122 3.216.02.293.363.182.776.182.273.04.222-.192.242-.535-.191-.312 0-.947 0-1.31 0 0 .04-2.38.04-2.793-.09-.241-.211-.211-.483-.211-.212 0-.202 0-.333-.02m46.765.1c-.16.303-.08.908-.08 1.381.171.283-.02 2.632.1 3.489.212.13.333.03.726.02.263.08.192-.867.182-1.432 0-.605.04-.695 0-.947-.101-.726.04-1.845-.09-2.51-.041 0-.223-.01-.263-.01-.202-.04-.373 0-.585.01m-34.154 1.149c-.181.524.161 1.129.303 1.542.393 1.17.604 2.37.947 3.508.998 3.337 1.371 6.906 1.432 11.18-.02.444 1.34.242 2.137.242h4.577c.16.09.675 0 1.008 0l2.026.06.776-.06c1.381.282 3.387.191 4.819.181.968-.01 2.097.172 3.034 0l.595.06c.857.021 1.925.082 2.681-.06v-.12c.263-.424.111-1.462.121-2.077 0-.434.101-.958.182-1.31l.12-2.027c.434-1.875.787-3.66 1.311-5.353.152-.484.121-.847.293-1.31.463-1.21 1.27-2.833 1.37-4.285-.12-.07-.11-.08-.302-.12-.282.18-1.129.04-1.431 0-.474-.072-1.442.05-1.966.06-.343.564-.756 1.19-1.069 1.784-.12.222-.191.675-.413.776h-.353c-.302-.191-1.17-.06-1.603-.06-.756 0-1.38-.131-1.965-.06-.333.04-.938.07-1.31 0-.263-.515-.515-1.2-.716-1.725-.101-.252-.071-.605-.303-.715h-1.19c-.181-.111-2.812-.131-3.094.06-.736.272-.938 1.885-1.603 2.137-.293.202-.736.06-1.19.06-.988 0-2.207.122-3.095-.06-.11-.514-.544-2.722-1.008-2.318h-5.11l-.01.01zm13.267 6.3c2.53-.03 4.808 1.724 4.465 4.758-.06.505-.06.847-.241 1.25-.656 1.513-2.037 2.34-3.7 2.48-1.089.091-1.684-.16-2.077-.362-1.31-.686-2.51-2.117-2.258-4.194 0-.242.121-.625.121-.867.202-.796.978-1.865 1.865-2.44.575-.373 1.26-.514 1.815-.615m.181 2.319c-.151.1-.323.04-.534.12-.303.122-.898.566-1.069.838-.605.947-.05 2.43.595 2.852.474.313 1.673.384 2.177.05.444-.291.827-.614 1.039-1.3.03-1.683-.625-2.54-2.198-2.56M53.72 39.426c-1.028.1-2.006.08-2.722.252-.897.212-1.794.181-2.691.464-.938.302-1.976.705-2.793 1.129-.383.201-1.25.443-1.431.836v1.31c-.202.323-.06 1.271-.06 1.725 0 1.29-.061 2.671-.061 4.042l-.06 7.077c0 1.24-.182 2.45 0 3.327.13.635-.182 1.653-.061 2.258.1.484.12 1.119.12 1.663.293.182.757.131 1.25.182.505.05.918 0 1.311.06.757.11 1.765.06 2.621.06.283-.423.252-.816.242-1.542a.9.9 0 00-.292-.12c-.252-.061-.444.2-.655.06-.161-.101-.172-.242-.242-.414-.141-.373 0-.665 0-1.008 0-.756-.07-1.623.06-2.318l.182-.06c.161-.102.574-.071.837-.061.16-.242.231-.273.252-.676.02-.473.02-.766.07-1.038.08-.504.03-.907.03-1.432-.322-.191-.796-.403-.836-.897.494-.514.998-1.532 1.431-2.137.242-.343.303-.837.837-.897.07-.01.635.635.776.413.373-.544 1.613-1.2 1.663-1.905-.252-.262-.524-.797-.534-1.25.746-.444 3.206-1.069 4.405-.595.484.192.928.04.948.716-.272.191-.534.746-.595 1.129.565.605.918 1.421 1.482 2.026.101-.04.131-.05.212-.08.252-.121.393-.263.554-.454.101.04.06.01.121.06.363.131.444.484.656.777.423.584 1.38 1.492 1.431 2.379-.312.292-.635.594-.947.897 0 .978.221 1.754.241 2.732.252.171.343.242.837.242.222.332.161.796.242 1.31.141.918.242 1.885.242 2.38l-.353.292c-.443.161-1.008-.162-1.19.242v1.068c.051.06.02.08.061.121.06.07.202.101.202.101.242.06.736.02 1.048.01.776 0 1.643-.05 2.5-.06.121-.182.202-.172.242-.474v-1.724l.06-3.75.061-6.19c0-.816-.05-1.784.06-2.5.051-.353.02-.907.02-1.18 0-1.26-.05-2.197-.02-3.346.01-.686.132-1.643 0-2.319-.04-.13-2.399-1.542-3.447-1.966-2.299-.927-5.363-.877-8.266-.947m45.021.353c-.696.03-1.633.13-2.258.302-1.865.494-3.65 1.13-5.111 2.026-.424.252-1.2.404-1.371.888-.202.322-.06 1.27-.06 1.723l-.061 4.224c0 4.819-.121 9.91-.121 14.517-.121.292 1.935.191 2.792.181.282-.04.434-.07.656-.06.14.03.413-.524.302-.746-.08-.152-.131-.02-.272-.101h-.867c-.111-.171-.162-.171-.182-.474.152-.242-.01-.736.06-1.069.152-.725.142-1.502.162-2.288 0-.484.131-.423.353-.464.1.081.423.03.595.05.15-.997.443-1.602.675-2.832-.413-.524-1.2-.564-.947-1.069.393-.332.856-1.38 1.179-1.865.212-.322.484-.987.746-1.139.06-.04.1-.06.222-.08.212.221.474.554.867.574.262-.262.494-.584.756-.836.242-.313.474-.605.756-.867 0-.777-.655-1.19-.555-1.593.898-.837 3.156-.756 4.426-.373.474.141 1.2.181 1.008.534-.272.282-.575 1.13-.474 1.432.434.423.958 1.058 1.412 1.4.403-.21.564-.574.967-.594.464.746.958 1.633 1.432 2.41.242.393.685.796.776 1.31-.05.06-.02.02-.06.121-.404.161-.968.242-1.009.776.182.303.253 2.057.343 2.52.081.182.131.172.192.192.181.12.504.03.716 0 .312.03.252.554.241 1.038l-.06 3.398c0 .14-.212.07-.585.07-.262-.06-.433-.06-.605-.02 0 .04-.06.192-.06.232a.796.796 0 000 .433c.04 0 .111.111.151.111.393.02.928 0 1.29 0 1.17.02 2.359 0 3.559 0 .182-.06.222-.222.222-.574.03-.515-.01-.757.02-1.27.05-.938.06-2.44.06-3.63v-1.19c.091-1.895.121-2.51.121-3.568-.02-.262.011-.736-.01-.988 0-1.139.01-1.915.01-3.115-.02-.312.021-.887 0-1.21.041-.867.041-1.875.061-2.752.02-.957.05-2.066.06-2.873-1.512-1.23-4.002-1.875-6.603-2.5 0 0-.735-.13-1.209-.191-.535-.07-.887-.081-1.371-.121a19.035 19.035 0 00-3.307.01m-31.704 2.56c-.313-.09-.182 1.28-.182 1.966 0 1.452-.06 2.732-.06 4.174v3.256c0 2.792-.06 5.736-.06 8.266v2.5c0 .303-.071.857.05 1.059.08.282.222.262.595.262.695 0 .826-.02 1.139-.01.302 0 .191-.766.181-1.31.06-.898.11-1.26.121-1.604.02-.1.05-.211-.353-.181-.423.1-.796.11-.867.04v-.272c.04-.444.08-.585.091-.817.05-1.21.05-1.41.05-2.298.01-.565.162-.504.404-.514.433.09.705.07.978.06.181 0 .201-.1.18-.474.122-.887.213-.856.334-1.3.181-.615.362-1.26.615-2.006-.283-.252-1.502-.847-1.603-1.129-.04-.06-.04-.06 0-.202.675-.877 1.119-1.461 1.593-2.177.252-.373.665-1.371.967-.978.182.262.706.786.948.534.605-.685.968-1.038 1.482-1.431l.776-.887c.121-.535-.222-.726-.302-1.19.01-.1 0-.171.191-.242.585-.11.625-.161 1.018-.262 1.412-.353 3.105-.474 4.315.08.837.394 1.37-.06 1.19.656-.152.202-.222.585-.243.897.515.545 1.744 2.41 2.198 2.631.524-.191.928-.514 1.31-.544.525.837 1.09 1.734 1.603 2.56.192.313.283.636.535.888-.04.1-.01.06-.06.12-.303.353-1.291.555-1.432 1.009-.03.09.13.806.181.947.182.565.615 2.642 1.13 2.732.14-.09.594-.1.776-.12.11.2.12.473.12.836-.211.343-.01 2.631-.12 3.216h-.121c-.222.151-.625.02-.898 0v.12c-.1.162.05 2.037.121 2.38.07.04.121.06.182.12.524-.1 1.28-.06 1.905-.06.222-.363.192-1.048.182-1.663.181-.292.06-1.13.06-1.542l.06-3.811.061-5.948c0-.746.06-1.542.06-2.197l-.06-.837c.141-.675-.08-1.623.06-2.38.111-.604.142-1.935 0-2.67-.1-.04-.06-.01-.12-.061-.696.13-2.057.1-2.793-.06h-3.629l-14.87-.122.01-.01zm8.982 4.043c-.182.13-.111.171-.121.413 0 .292.282 1.18.302 1.663.091.424.434.313.958.303.756.01.978.05 1.24 0 .363-.847.564-1.422.585-2.157-.232-.192-.434-.182-.767-.182-.746-.08-1.703-.03-2.197-.03m-1.472 2.177c-.514.575-.847.827-1.32 1.25-.233.242-.132.273-.081.333.403.393.705.534.978.817.1-.04.15-.02.211-.071.424-.383.807-1.028 1.15-1.36.13-.112 0-.203 0-.293l-.595-.716c-.08 0-.121-.131-.343.04zm5.807.091c-.373.353-.787.554-1.17.907-.13.101-.13.212-.08.273.342.433 1.098 1.139 1.21 1.098.957-.262 1.44-.564 1.44-.685-.443-.534-.745-1.13-1.219-1.623-.06-.04-.09-.04-.191.03m-25.505.585c-.07.12-.08.11-.121.292.312.474.464 2.097 1.008 2.198.333-.383.665-1.674.716-2.319 0 0 .03-.13-.182-.181-.514-.131-1.431 0-1.431 0m44.194.181c-.09.131-.1.111-.12.353.332.393.483 1.986.947 2.077.333-.595.686-1.422.716-2.258h-.121c-.212-.131-1.089-.182-1.432-.182m-22.006.837c-.343.353-.837.625-1.13 1.008-1.118 1.482-2.187 3.196-2.792 5.171-.282.908-.07 1.946-.292 2.974-.272 1.2-.172 3.095.06 4.285l.182.06c.302.192 1.825.06 2.319.06l6.38-.02c.162-.252.112-1.975.122-2.399.04-1.16-.01-1.744-.02-2.762-.01-1.129-.353-1.976-.595-2.792-.101-.353 0-.565-.121-.887-.414-1.16-1.17-2.289-1.845-3.216-.514-.706-1.038-1.492-2.258-1.492m-5.524.443c-.142-.171-.666.635-.767.867.615.414 2.107 1.462 2.329 1.603.343-.423.534-.574.554-.947-.473-.444-.846-.747-2.127-1.523m11.644.333c-.434.423-1.764.766-1.784 1.482.13.302.242.726.715.776.565-.565 1.371-.897 1.966-1.431-.04-.101-.01-.06-.06-.121a1.598 1.598 0 00-.474-.716c-.101-.09-.353 0-.353 0m-26.05.534c-.231.373-.402.434-.412.958.282.302.463.796.977.877.273-.242.505-.282.505-.817-.313-.211-.686-.695-.888-1.008 0 0-.12-.1-.181 0m-3.508.121c-.414.272-.756.464-.837.948.232.212.504.423.716.655.1-.04.06-.01.12-.06.343-.142.575-.646.837-.898-.04-.1-.01-.06-.06-.12-.08-.253-.282-.333-.413-.535 0 0-.162-.13-.353 0m44.507-.01c-.323.353-.393.504-.746.827-.403.504-.272.544-.232.605.121.332.262.231.474.453.262.272.363.01.423-.04.303-.303.525-.555.585-.948-.212-.272-.161-.736-.514-.907m3.196.484c-.192.292-.323.322-.363.786.181.172.171.323.423.423.071.051.212.152.353.172.272-.272.736-.454.595-.897l-.595-.595c-.101 0-.202-.242-.403.11M51.34 53.52c-.222.242-.413.393-.474.766l.716.716c.292.201.615.423.786.524.07.04.101.11.222-.04.292-.474.454-.404.484-.776-.454-.283-1.19-.757-1.492-1.19 0 0-.131-.111-.242 0zm8.508 0c-.393.393-1.29.706-1.31 1.431.222.182.181.333.595.353.403-.373 1.21-.605 1.31-1.25 0 0-.181-.262-.413-.534-.04-.05-.182 0-.182 0zm-4.284.06c-1.32 1.432-2.258 2.853-2.853 5.05l-.12 2.38c-.142.665-.072 2.077.06 2.732.1.06.1.07.241.12.232.152 1.25.132 1.603.061.968-.201 2.319-.05 3.509-.06.11-.171.11-.282.181-.474.373-1.15.181-2.359.181-3.095 0-1.532-.13-2.883-.594-3.982-.131-.302-.414-.594-.535-.887-.352-.816-.675-1.703-1.663-1.845m40.092.06c-.242.243-.645.424-.474.777.323.212.555.514 1.24 1.089.262.534.423.11.423.09.232-.332.283-.413.303-.766-.424-.393-.918-.766-1.31-1.19h-.182zm8.276-.02c-.302.313-1.461.928-1.31 1.392.222.252.312.907.655.595.343-.434 1.129-.696 1.19-1.371-.222-.242-.162-.514-.525-.615m-32.652.322c-.11.121-.191.02-.272.323-.04.433-.11 1.099-.262 1.673-.04.152-.202.565-.192.736 0 .111.061.192.182.242.383.06.726 0 1.008 0 .252.04.202-.171.242-.474.272-1.522.766-1.915.454-2.157-.313-.181-.514-.05-1.15-.343m28.348.242c-.807.867-1.411 1.502-2.067 2.793-.725 1.411-.826 4.828-.433 6.774.353.05.474.07.958.06.403 0 1.27-.04 1.623-.04.937 0 1.532-.01 2.49-.02.322 0 .242-.343.242-.837.04-1.2.06-1.865.06-2.44 0-3.064-.897-4.818-2.379-6.36-.121 0-.212-.151-.494.07zm-16.16.05c-.262.253-.746.353-.837.777.404.585.02 1.966 1.009 1.966.201.05.201 0 .302-.06.11-.182.171-.202.181-.535-.15-.514-.342-1.492-.352-1.966-.02-.201.04-.222-.303-.181zM50.725 56.08c-.07.362.05.846.121 1.25.05.302-.06.756 0 1.068 0 .05.05.08.121.06l.655-.18c.162-.021.182-.152.182-.243.01-.615-.01-1.15-.182-1.542-.181-.111-.292-.252-.594-.413-.283-.152-.303 0-.303 0zm9.275.352c-.383.283-.615.172-.595.887.03.313.11.424.12.656.233.14.374.181.837.181.172 0 .111-.171.121-.413a5.605 5.605 0 01-.12-1.13s-.081-.15-.182-.18a.502.502 0 00-.181 0zm35.333 0c-.05.091-.11.172-.181.242-.02.565-.202 1.18-.101 1.684 1.15.857.877-1.018.877-1.684-.202-.12-.282-.212-.595-.242zm8.367.131c-.111.212-.05.514-.04.887.161.273-.071.615.232.767.091.06.393.05.564.05.111-.252.051-.978.041-1.472-.02-.242-.111-.181-.414-.201-.131-.02-.242-.02-.373-.03m-34.295 1.532c-.141.221-.181.363-.181.776.01.08.03.07.06.12l.202.071c.393.081 1.562 0 2.006-.01.141-.221.232-.262.242-.655-.252-.161-.585-.161-.958-.222a8.55 8.55 0 00-1.36-.08m14.032.353c-.09.11-.121.08-.182.241-.11.172-.02.404 0 .656.06.181.242.181.595.181.656-.171 1.583.383 1.906-.474.05-.08.05-.15.06-.292-.01-.423-1.391-.302-2.38-.302m-33.74 1.41a.705.705 0 00-.12.293c-.072.232-.041.323-.041.615.04.172.937.141 1.482.141.191 0 .232.02.363.04.15-.241.191-.493.181-.947-.413-.141-.927-.131-1.532-.131-.131 0-.272-.05-.333 0m10.363.01c-.212.01-.343.06-.534.06-.121.222-.131.565-.121.948.05.06.02.08.06.121.061.06.091.07.202.05a9.826 9.826 0 011.825-.17c.11-.182.191-.313.181-.535-.01-.141-.09-.232-.12-.353h-.122c-.534 0-.837-.151-1.37-.121zm33.781.292c-.06.262-.12.505-.12.898.211.342.241.181.594.181.262.181.928.131 1.25.06.172-.262.393-.796 0-.947-.272-.171-1.27-.181-1.724-.181m10.051.12c-.06.04-.131.02-.292.101-.111.172-.051.131-.071.434.111.302.343.232.615.262.948.04 1.139-.02 1.563-.03.352-.02.272-.06.312-.232-.02-.121-.06-.313-.081-.434-.09-.171-.877-.12-1.381-.11h-.685m-19.87.473c-.11.07-.534-.04-.594.121-.172.706-.363 1.956-.242 2.682.272.161.484.252 1.068.181.323-.04.293-.353.293-.353 0-.907.06-1.673.06-2.5l-.12-.12h-.475l.01-.01zm-13.86.121c-.243-.11-.182 1.653-.182 2.621.07.383.685.303 1.31.293.272-.01.192-.404.182-.837.05-.524 0-.988.08-1.371.03-.161.02-.313.04-.535-.01-.05.081-.211-.352-.211-.413 0-.655.04-1.069.04M51.078 62.33c-.192.302-.192.766-.181 1.31.05.06.04.07.08.09.03.021.101.031.101.031.262.161.393-.1.534-.242 0-.443-.05-.766-.12-1.068l-.182-.06c-.07-.051-.101-.051-.242-.061m8.387.181c-.151.282-.13.796-.12 1.25.13.07.211.1.352.121.09 0 .111-.01.353-.09.04-.333.07-.454.06-.918-.09-.1-.171-.252-.242-.353h-.413l.01-.01zm35.898.252c-.15 0-.15.01-.201.141-.03.232-.05.565-.04.807.01.1.201.02.463.03.151-.05.232 0 .232-.141.02-.101.02-.151.02-.403-.02-.152 0-.142-.03-.333-.06-.06-.07-.06-.131-.08-.1-.03-.182 0-.303-.02m8.529.08c-.071.09-.02.201-.081.322-.02.293.01.394.051.565.06.02.131 0 .312.03.151-.04.121.01.293-.02 0-.04.05-.181.05-.222 0-.373 0-.463-.04-.645-.041 0-.121-.03-.162-.03-.08-.05-.272 0-.423 0zM6.34 73.872c-.646 0-1.896.212-2.097.393-.101.101-.121.212-.142.434-.08.897-.14 2.833-.14 4.607 0 3.085.02 5.1.292 6.23.04.171.14.272.312.332a4.991 4.991 0 001.663.293c.918 0 2.117-.212 3.448-1.059 1.684-1.109 2.51-3.084 2.51-5.212 0-2.248-.977-3.77-1.895-4.627-1.33-1.23-2.954-1.39-3.931-1.39h-.02zm8.084 6.17c0 1.17-.494 3.044-1.895 4.456-1.431 1.41-2.349 1.834-3.448 2.167-.998.312-1.703.333-3.115.333-1.058 0-3.014-.081-3.508-.081-.494 0-1.23.02-1.562.02-.02-.1-.06-.625-.04-.746.957-.333 1.179-.484 1.189-.877.1-1.623.1-5.141.1-7.712 0-2.308-.02-2.712-.06-2.954-.04-.352-.332-.504-1.18-.665-.06 0-.12-.1-.12-.272l-.02-.544c.786 0 1.562-.02 2.55-.06 1.371-.021 2.097-.082 3.075-.082 1.411 0 4.032.232 5.857 1.976 1.451 1.412 2.177 3.125 2.177 5.02v.02zm5.464-1.069c-.272 0-.726.172-1.059.525-.564.625-.786 1.441-.786 2.873 0 1.33.524 2.288.978 2.832.706.817 1.411.998 1.935.998.273 0 .726-.1 1.018-.393.474-.484.857-1.29.857-2.52s-.332-2.712-1.21-3.558c-.413-.394-1.078-.746-1.723-.746h-.02l.01-.01zm.877-.937c1.512 0 3.931 1.462 3.931 4.546 0 2.228-1.35 3.398-1.663 3.61-.857.544-1.875.957-2.823.957-.806 0-2.389-.504-3.175-1.603-.645-.877-.897-2.066-.897-2.833 0-.897.312-1.996.846-2.691.474-.645.827-.958 1.412-1.29.685-.353 1.683-.686 2.349-.686h.02v-.01zm14.829 8.861c-2.016 0-3.075 0-3.952.1-.04 0-.06-.02-.06-.06 0-.06.02-.473.02-.544 0 0 .04-.12.1-.141.787-.272.878-.333.918-.686.06-.605.121-1.915.121-3.629 0-1.19-.06-1.462-.312-1.774a1.628 1.628 0 00-1.27-.564c-.585 0-1.25.272-1.896.725-.191.192-.272.293-.292.525-.02.393-.06 1.663-.06 2.691 0 2.38.06 2.44.957 2.56.121.02.172.061.172.122 0 .171-.04.665-.081.665-.172 0-1.371.02-1.785.02-.544 0-1.41.06-1.723.101-.081-.02-.101-.413-.101-.706.161-.08.494-.211.625-.272.171-.06.232-.141.252-.413.04-.293.1-.978.1-2.692 0-1.502-.02-1.915-.06-2.228-.04-.332-.12-.353-.474-.433-.332-.04-.413-.121-.473-.212-.02-.06-.142-.433-.081-.504 1.14-.796 1.805-1.23 2.056-1.401.162-.101.212-.121.394-.121.12 0 .16.04.16.212l-.02 1.522c.606-.313 1.624-1.038 2.33-1.422.211-.12.494-.191.745-.191 1.1 0 1.704.645 2.289 1.522 1.16-.706 1.603-.978 2.137-1.21a3.02 3.02 0 011.23-.292c.423 0 .957.192 1.31.544.333.313.746.817.787 2.793.04 1.19.04 2.228.04 3.064 0 .837.02 1.039.1 1.17.142.232.434.272 1.271.413.08.02.121.1.121.232 0 .1-.1.565-.161.565h-1.452c-.806 0-1.542.04-2.016.1-.06 0-.101 0-.121-.06 0-.06-.04-.353-.06-.464 0-.06 0-.12.08-.141.232-.121.474-.333.504-.544.161-.837.161-2.36.161-2.914 0-1.734-.191-2.328-.494-2.732-.312-.433-.746-.584-1.35-.584-.605 0-1.21.272-1.785.625-.171.12-.211.191-.211.453-.02 1.23-.02 4.043.08 4.88.06.352.121.372 1.099.544.08 0 .121.06.121.171v.605l.01.01zm9.516-.988c.172 0 .746-.171 1.25-.434.252-.191.454-.332.494-.564.02-.272.04-1.19.04-1.522 0-.172-.06-.252-.14-.252-1.19.211-1.976.453-2.43.816-.161.101-.252.252-.252.686 0 .837.333 1.27 1.018 1.27h.02zm-1.955-5.04a1.58 1.58 0 01-.394.06c-.08 0-.292-.192-.292-.292 0-.172.08-.333.192-.545.413-.625 1.895-1.562 2.49-1.774.473-.171.877-.272 1.18-.272.917 0 1.43.393 1.763.766.353.373.434.837.434 1.13 0 1.562-.04 3.104-.04 4.515 0 1.079.16 1.543.473 1.543.293 0 .938-.313 1.059-.333.06-.02.191.141.191.212l-.04.484a.394.394 0 01-.141.211c-.252.192-1.643.605-2.288.625-.434 0-.746-.231-.877-1.149-.857.393-2.35 1.13-2.742 1.13-.293 0-.746-.102-1.21-.545-.313-.293-.645-.897-.645-1.734 0-.605.312-.978.897-1.31 1.078-.626 2.47-.999 3.76-1.25.02-.374.02-.918.02-1.331 0-.817-.161-1.331-.333-1.502-.17-.172-.665-.353-1.27-.353-.332 0-.605.08-.726.14-.08.061-.16.192-.16.898 0 .172-.021.232-.142.272l-1.16.394v.01zm10.282-7.481c.544 0 .917.545.917 1.11 0 .796-.564 1.25-1.159 1.25-.524 0-.938-.434-.938-1.11 0-.836.706-1.25 1.16-1.25h.02zm-1.25 6.704c-.02-.1-.171-.171-1.079-.353-.08-.02-.12-.06-.06-.312.14-.373.161-.413.252-.434.917-.292 1.532-.564 2.51-.957.04-.02.06-.02.1-.02.041 0 .061.04.061.171-.06 1.643-.161 4.083-.171 5.706-.02 1.058 0 1.462.02 1.683.04.313.1.414.353.414.524-.02.766-.02.826-.02.081 0 .192.12.172.19l-.06.646c-.02.121-.061.141-.192.141-.605 0-1.23-.04-1.875-.04-.958 0-1.785.1-1.845.1-.1 0-.161-.02-.171-.1-.04-.141-.04-.373-.04-.585 0-.08.04-.1.12-.1.787-.081.918-.142 1.019-.747.06-.352.17-1.814.14-3.165l-.06-2.208-.02-.01zm4.284 6.261c.666-.293.898-.434.978-1.039.08-.665.121-1.854.121-2.873 0-.877-.04-1.603-.08-2.036-.02-.292-.081-.353-1.019-.585-.08-.06-.1-.1-.02-.544 0-.06.06-.1.212-.192.857-.393 1.683-.877 1.845-.957.1-.06.191-.101.292-.101.1 0 .182.06.182.191.04.313.08.746.08 1.11 0 .06.08.12.162.1.856-.484 1.25-.685 1.784-.958a2.83 2.83 0 011.18-.292c.584 0 .977.141 1.41.504.545.454.847 1.27.938 2.208.04.454.04 1.038.04 1.956v3.044c0 .171.04.192.121.192.172 0 .767-.061 1.16-.081.06 0 .1.08.1.232 0 .171-.06.524-.1.625-.04.1-.08.1-.162.1-1.955 0-2.64.101-3.447.101-.101 0-.192-.02-.212-.12l-.1-.484c.624-.273.806-.414.897-1.039.08-.726.14-1.935.14-3.024 0-1.23-.04-1.794-.544-2.359-.333-.333-.766-.504-1.31-.504-.545 0-1.27.312-1.664.564-.211.142-.231.252-.252.505-.04.836-.04 3.89-.04 5.04 0 .313.06.373 1.16.564.12.04.16.081.12.212l-.14.524h-1.846c-.857 0-1.522.101-1.935.101-.04 0-.08-.04-.06-.14l.04-.525-.03-.02zm15.747-5.626c0-.645-.725-1.734-1.643-1.734-.161 0-.353.081-.544.212-.605.434-.958 1.442-.938 2.54 1.018-.252 1.996-.433 2.883-.665.172-.04.252-.1.252-.332v-.02h-.01zm-.917-2.64c.746 0 1.452.392 1.805.725.413.393.645.897.846 1.623.232-.04.605-.12.666-.06.08.08.08.14.04.231-.06.232-.212.686-.454.726-1.37.373-4.133.938-4.99 1.19-.12.04-.191.14-.191.393.06 1.935 1.18 2.792 2.49 2.792.957 0 1.844-.393 2.58-1.078.101-.101.373-.081.353-.02-.02.685-.06.816-.212.937a7.615 7.615 0 01-2.62 1.482c-.273.08-.565.1-.807.1-1.512 0-2.43-.957-2.702-1.25-.332-.413-.917-1.39-.917-2.772 0-1.935 1.058-3.457 2.228-4.314.524-.413 1.29-.706 1.875-.706h.02-.01zm12.893 1.138c-.393 0-1.038.212-1.431.646-.434.413-.726 1.149-.726 2.086 0 .565.08 2.148 1.119 3.105.605.545 1.16.625 1.704.625.453 0 1.23-.252 1.582-.484.172-.12.232-.191.252-.352.08-.898.101-3.65-.02-4.476-.04-.212-.08-.293-.353-.504a3.822 3.822 0 00-2.117-.645h-.02.01zm-3.82 3.962c0-1.149.332-2.379 1.512-3.538.726-.706 2.097-1.563 3.216-1.563.493 0 1.159.121 1.41.232.102.02.213-.02.233-.12.02-.313.04-.918.04-1.442 0-1.039 0-1.583-.06-2.107-.02-.313-.121-.414-.998-.605-.121-.02-.162-.08-.192-.171l-.04-.212c-.02-.101-.02-.121.1-.192.958-.413 1.704-.836 2.51-1.33.061-.04.212-.06.273-.02.1.04.14.231.14.393-.02 1.078-.14 5.584-.14 8.064v2.894c0 .746.02 1.683.12 2.207.061.293.142.333.253.333.212 0 .685-.171 1.018-.292.08-.04.171-.02.191.06.061.212.122.484.122.665 0 .182-.142.232-.273.273-.806.211-2.369.604-2.6.604-.172 0-.353-.17-.414-.393-.02-.312-.04-.816-.04-1.058-1.583.766-2.601 1.25-3.095 1.25-.807-.04-1.643-.504-2.117-.978-.786-.817-1.16-1.976-1.16-2.934v-.02h-.01zm12.873-5.111c.161 0 .191.121.231.373.02.172 0 .625-.04 1.522-.04 1.059-.1 3.045-.1 4.396 0 1.018 1.038 1.461 1.703 1.441.686-.02 1.33-.332 1.845-.746.141-.14.212-.252.252-.524.08-.585.141-1.462.141-2.54 0-1.392 0-1.916-.232-2.248-.141-.212-.353-.273-1.038-.474-.121-.02-.162-.08-.171-.141-.04-.101-.081-.394-.081-.454s0-.08.06-.1c.08-.02 1.865-.253 2.762-.253.232 0 .313.08.333.252.04.212.04.353.04.978-.02.645-.1 1.391-.1 2.772v2.107c0 .706.08 1.19.1 1.31.02.122.081.142.192.122.1 0 .585-.121 1.038-.252.081-.04.293.14.252.252-.171.746-.211.816-.332.816-1.059.121-2.178.484-2.51.545-.172.02-.293.02-.373-.101-.121-.141-.172-.212-.172-.353l.02-.877c-.473.232-1.21.645-1.744.938-.453.231-.917.352-1.29.352-.766 0-1.563-.252-2.036-1.058-.232-.373-.252-.958-.252-1.442 0-2.127.06-3.558.04-4.294 0-.393-.08-.504-.806-.938-.101-.06-.172-.171-.232-.484-.02-.231 0-.272.171-.292.313-.08 2.097-.585 2.308-.585h.02v-.02zm12.944 2.067c0-1.482.353-3.418 1.684-4.96 1.058-1.25 2.469-1.734 3.679-2.067.917-.231 2.097-.352 2.934-.352.836 0 1.875.211 2.349.393.252.06.453-.02.826-.212.04-.02.101 0 .272.06.192.081.232.122.212.172-.413 1.058-.454 2.147-.333 3.337 0 .04-.191.08-.352.08-.273.06-.333.02-.373-.1-.081-.273-.232-.918-.373-1.31-.121-.354-.212-.586-.515-.838-.433-.312-1.371-.705-2.681-.705-1.411 0-2.702.564-3.74 1.875-.917 1.21-1.371 2.933-1.371 4.728 0 2.328 1.21 6.099 5.565 6.099 1.33 0 2.308-.686 2.933-1.482.353-.413.544-.817.746-1.17.04-.08.101-.1.272.02.182.142.252.252.232.374-.212 1.038-.665 2.187-.937 2.62-.121.212-.192.232-.394.232-.584 0-1.784.353-3.135.353-5.383 0-7.52-3.81-7.52-7.147v-.02l.02.02zm16.472 5.766c.182 0 .746-.171 1.25-.434.252-.191.454-.332.494-.564.02-.272.04-1.19.04-1.522 0-.172-.06-.252-.141-.252-1.189.211-1.976.453-2.429.816-.161.101-.252.252-.252.686 0 .837.333 1.27 1.018 1.27h.02zm-1.956-5.04c-.161.04-.272.06-.393.06-.08 0-.292-.192-.292-.292 0-.172.081-.333.191-.545.414-.625 1.896-1.562 2.49-1.774.474-.171.878-.272 1.18-.272.917 0 1.431.393 1.764.766.353.373.434.837.434 1.13 0 1.562-.041 3.104-.041 4.515 0 1.079.162 1.543.474 1.543.292 0 .938-.313 1.059-.333.06-.02.191.141.191.212l-.04.484a.397.397 0 01-.141.211c-.252.192-1.644.605-2.289.625-.433 0-.746-.231-.877-1.149-.867.393-2.349 1.13-2.742 1.13-.292 0-.746-.102-1.209-.545-.313-.293-.646-.897-.646-1.734 0-.605.313-.978.898-1.31 1.078-.626 2.469-.999 3.76-1.25.02-.374.02-.918.02-1.331 0-.817-.161-1.331-.333-1.502-.171-.172-.665-.353-1.27-.353-.333 0-.605.08-.726.14-.081.061-.161.192-.161.898 0 .172-.02.232-.141.272l-1.16.394v.01zm14.032 3.811c0 .644-.292 1.29-1.018 1.814-.645.453-1.452.625-2.208.625-.584 0-1.492-.151-1.804-.212-.353-.08-.454-.1-.746.04-.04.02-.121 0-.172-.04-.08-.06-.08-.141-.06-.252.101-.837.081-1.583 0-2.46 0-.06 0-.14.06-.171.081-.04.192-.101.545-.171.171.584.504 1.23.958 1.733.524.605 1.078.767 1.37.767.525 0 1.351-.434 1.351-1.21 0-1.21-1.25-1.663-1.895-2.016-.544-.333-2.097-1.039-2.097-2.48 0-.726.313-1.331.958-1.875.564-.484 1.351-.686 1.875-.686s.978.08 1.411.08c.192 0 .313-.02.373-.06.061-.02.101-.02.162.02.06.061.06.101.06.142.02.665.172 1.39.393 2.248.021.08-.141.211-.191.211-.313 0-.454-.04-.645-.312-.333-.565-.867-1.543-1.886-1.543-.413 0-.957.313-.957 1.059 0 .978.897 1.442 1.764 1.895.564.293 2.409 1.039 2.409 2.813v.02l-.01.02zm4.093-8.015s.041.06.041.171c0 .313-.081 1.462-.081 1.663.998 0 2.248-.12 2.954-.12.232 0 .252.02.232.231a3.846 3.846 0 01-.142.726c-.06.293-.161.333-.332.333-.585.02-1.533.02-2.662.06-.04 0-.06.04-.1.313-.081 1.038-.081 3.206-.081 4.375 0 .978.645 1.482 1.532 1.482.474 0 .847-.171 1.27-.484.142-.1.192-.1.232 0 .061.121.101.333.101.484 0 .1-.04.171-.191.252-.857.544-1.644 1.018-2.642 1.018-.413 0-1.179-.191-1.602-.746-.293-.373-.353-.766-.313-1.583.06-1.29.06-4.224.121-4.788 0-.141-.121-.292-.232-.313-.272-.02-.685-.02-.847-.02-.08-.02-.191-.272-.141-.312.766-.686 2.097-1.996 2.601-2.56.081-.122.192-.172.252-.172h.02l.01-.01zm9.154 4.062c0-.645-.726-1.734-1.644-1.734-.161 0-.352.081-.544.212-.605.434-.958 1.442-.938 2.54 1.019-.252 1.996-.433 2.884-.665.171-.04.252-.1.252-.332v-.02h-.01zm-.918-2.64c.746 0 1.452.392 1.805.725.413.393.645.897.846 1.623.232-.04.605-.12.666-.06.08.08.08.14.04.231-.06.232-.212.686-.454.726-1.371.373-4.133.938-4.99 1.19-.121.04-.191.14-.191.393.06 1.935 1.179 2.792 2.49 2.792.958 0 1.845-.393 2.581-1.078.1-.101.373-.081.352-.02-.02.685-.06.816-.211.937a7.625 7.625 0 01-2.621 1.482c-.273.08-.565.1-.807.1-1.512 0-2.429-.957-2.702-1.25-.332-.413-.917-1.39-.917-2.772 0-1.935 1.059-3.457 2.228-4.314.524-.413 1.29-.706 1.875-.706h.02-.01zm4.144 8.538c0-.121.041-.293.081-.333.121-.06.353-.121.504-.171.413-.141.474-.273.494-.686.141-2.6.191-6.603.191-7.621 0-1.29-.02-2.44-.06-2.984-.04-.645-.192-.686-1.139-.817-.081 0-.101-.04.04-.524.02-.08.061-.12.192-.171.726-.293 1.663-.665 2.621-1.15.02-.02.06-.02.08-.02.061 0 .101.06.081.192-.192 2.46-.252 6.704-.252 10.726 0 2.56.02 2.934.585 2.934.252 0 .746-.04.836-.04.091 0 .121.04.101.17-.02.273-.04.505-.08.686-.021.08-.081.08-.142.08-.705 0-3.306.021-4.072.102-.081 0-.101 0-.101-.101l.02-.293.02.02z" fill="#fff"/></svg>