<svg width="234" height="65" fill="none" xmlns="http://www.w3.org/2000/svg"><path d="M153.158 52.129l3.417-16.412c.293-.07.867-.151 1.704-.222.847-.07 1.744-.11 2.702-.11 1.209 0 2.288.04 3.225.11.938.07 1.603.151 2.007.222l-8.922 28.358c-.625.181-1.3.302-2.036.362-.736.05-1.472.081-2.198.081s-1.482-.03-2.228-.08a14.207 14.207 0 01-2.339-.364l-4.022-15.413a459.03 459.03 0 00-2.117 7.762 508.534 508.534 0 01-2.067 7.651c-.766.182-1.532.303-2.288.364-.756.05-1.492.08-2.228.08-.736 0-1.472-.03-2.197-.08a9.031 9.031 0 01-2.037-.364l-8.649-28.357c.403-.07 1.109-.151 2.117-.222a48.2 48.2 0 013.337-.11c.957 0 1.875.04 2.782.11.897.07 1.492.151 1.794.222l3.579 16.845 3.962-16.845a9.7 9.7 0 012.066-.353c.756-.05 1.492-.08 2.228-.08.736 0 1.472.03 2.228.08.756.05 1.512.172 2.289.353l3.911 16.412h-.02zm24.738 4.516c.152 0 .343.02.575.05.242.04.595.05 1.068.05 2.057 0 3.589-.574 4.597-1.733 1.008-1.16 1.513-3.055 1.513-5.696 0-2.349-.494-4.063-1.492-5.151-.988-1.079-2.41-1.623-4.234-1.623-.444 0-.847.02-1.21.05-.363.04-.645.07-.827.111v13.932l.01.01zm.444-21.916c2.974 0 5.514.353 7.621 1.048 2.107.696 3.841 1.674 5.202 2.944 1.361 1.27 2.349 2.803 2.974 4.597.625 1.794.937 3.8.937 5.998 0 2.309-.322 4.405-.968 6.28-.645 1.876-1.653 3.468-3.024 4.789-1.381 1.32-3.155 2.339-5.343 3.054-2.187.716-4.818 1.08-7.903 1.08-1.805 0-3.408-.061-4.819-.192a89.083 89.083 0 01-4.435-.525V35.505c1.542-.181 3.175-.353 4.899-.524a52.332 52.332 0 014.849-.252M15.563 46.02c1.099.292 2.097.655 3.004 1.078a7.859 7.859 0 012.309 1.623c.645.656 1.149 1.472 1.512 2.42.363.957.554 2.117.554 3.468 0 1.35-.282 2.701-.857 3.91a8.67 8.67 0 01-2.53 3.136c-1.119.877-2.5 1.583-4.133 2.097s-3.518.776-5.645.776c-1.765 0-3.398-.13-4.9-.383a27.272 27.272 0 01-4.788-1.32c.181-2.5.857-5.03 2.036-7.602 1.18.555 2.41.968 3.69 1.24 1.28.273 2.57.414 3.85.414.444 0 .898-.02 1.372-.06a5.17 5.17 0 001.27-.243 2.63 2.63 0 00.907-.524c.242-.222.363-.514.363-.877 0-.474-.242-.837-.716-1.079-.473-.242-1.028-.443-1.653-.635l-3.74-1.048c-1.946-.555-3.558-1.482-4.849-2.803-1.28-1.32-1.925-3.125-1.925-5.393 0-1.431.292-2.732.877-3.911A8.663 8.663 0 014.05 37.3c1.068-.827 2.318-1.462 3.77-1.906 1.452-.443 3.055-.655 4.819-.655 1.39 0 2.913.151 4.566.444 1.654.292 3.287.715 4.9 1.27-.071 1.17-.313 2.43-.716 3.77a23.308 23.308 0 01-1.371 3.549c-.988-.404-2.188-.777-3.579-1.1-1.391-.332-2.681-.493-3.85-.493-1.725 0-2.592.474-2.592 1.431 0 .404.202.716.605.938.404.221.857.403 1.371.554l3.579.938.01-.02zm28.6 7.59h-8.146v10.465c-.957.15-1.814.252-2.59.332-.777.07-1.472.111-2.097.111s-1.32-.04-2.097-.11a35.236 35.236 0 01-2.53-.333V35.667a18.253 18.253 0 012.399-.384 25.91 25.91 0 012.288-.11c.736 0 1.452.04 2.258.11.807.071 1.593.202 2.37.384v9.687h8.145v-9.687a18.254 18.254 0 012.399-.384c.786-.07 1.553-.11 2.288-.11.696 0 1.452.04 2.258.11.807.071 1.593.202 2.37.384v28.408c-.958.15-1.815.252-2.591.332-.766.07-1.472.111-2.087.111-.615 0-1.32-.04-2.097-.11a35.226 35.226 0 01-2.53-.333V53.61h-.01zm23.75 10.465c-.957.14-1.814.252-2.59.332-.777.07-1.472.111-2.097.111s-1.32-.04-2.097-.11a35.241 35.241 0 01-2.53-.333V35.667a18.253 18.253 0 012.399-.384 25.91 25.91 0 012.288-.11c.736 0 1.452.04 2.258.11.807.071 1.593.202 2.37.384v28.408zm15.253-13.711c.181.04.413.06.685.081.273.02.505.03.686.03 1.28 0 2.339-.322 3.165-.967.827-.646 1.24-1.734 1.24-3.277 0-1.32-.413-2.339-1.24-3.054-.826-.716-1.844-1.079-3.054-1.079h-.635c-.273 0-.565.02-.857.05v8.206l.01.01zm-9.083-14.587a64.59 64.59 0 015.202-.574 70.218 70.218 0 015.151-.192c1.653 0 3.337.161 4.96.474 1.613.313 3.064.877 4.345 1.704 1.28.826 2.318 1.965 3.115 3.417.786 1.452 1.18 3.327 1.18 5.645 0 2.097-.354 3.851-1.08 5.283-.715 1.431-1.663 2.59-2.832 3.468-1.18.877-2.5 1.512-3.992 1.905a18.13 18.13 0 01-4.547.575 23.3 23.3 0 01-1.592-.05c-.444-.031-.716-.071-.827-.112v6.775c-.958.181-1.805.302-2.56.363-.757.05-1.422.08-2.007.08-.625 0-1.29-.03-2.006-.08a21.98 21.98 0 01-2.5-.363V35.798l-.01-.02zm37.672 13.63c2.964-3.71 6.291-11.371 6.291-13.72-.766-.182-1.996-.303-2.792-.383a26.423 26.423 0 00-2.259-.111c-.735 0-1.492.04-2.288.11a18.79 18.79 0 00-2.399.384v.12c-1.875 5.293-4.557 9.588-8.297 13.62v7.269h.03v1.945h12.34v5.363c.917.141 1.764.252 2.53.333.766.07 1.472.11 2.097.11s1.32-.04 2.096-.11c.767-.07 1.634-.182 2.591-.333v-.292h.02V49.407h-9.96zm94.499-38.489V.575l-3.045 1.018c-1.824.605-3.77 1.361-6.028 2.228l-1.845.706c-5.827 2.228-10.071 4.173-12.671 6.401h23.579l.01-.01zm-.323 28.166l3.004-.948a204.853 204.853 0 009.043-3.064c5.645-2.087 9.798-3.932 12.389-6.049h-24.436v10.071-.01zm27.531-17.057c-.917-7.208-10.303-7.793-15.353-8.105-1.21-.08-37.874.08-37.874.08-.504 1.14-.686 2.38-.514 3.77.917 7.209 10.312 7.793 15.353 8.106 2.661.171 37.833.05 37.833.05.545-1.169.736-2.45.545-3.911" fill="#fff"/></svg>