<svg width="174" height="44" fill="none" xmlns="http://www.w3.org/2000/svg"><g clip-path="url(#clip0_146_302)"><path d="M160.03 41.84c.52-2.07 1.07-4.25 1.63-6.54.56-2.29 1.05-4.35 1.47-6.17h.26c.52 1.82 1.07 3.88 1.63 6.17.56 2.29 1.09 4.47 1.58 6.54h7.2c-.98-3.26-1.94-6.45-2.89-9.59-.95-3.13-1.91-6.21-2.89-9.22.63-1.86 1.25-3.74 1.87-5.65.61-1.91 1.23-3.84 1.84-5.8.61-1.96 1.22-3.94 1.81-5.94h-7.2c-.42 2.21-.88 4.37-1.36 6.49-.49 2.12-.96 4.14-1.42 6.07h-.21c-.49-1.92-1.02-3.95-1.58-6.07s-1.09-4.28-1.57-6.49h-7.14c.95 3.01 1.89 5.96 2.84 8.85.95 2.89 1.89 5.75 2.84 8.59-.91 2.98-1.87 6.04-2.89 9.19-1.02 3.15-2 6.34-2.94 9.56h7.14l-.02.01zm-8.82-36.19h-6.67v36.19h6.67V5.65zm-21.9 5.62h1.94c1.43 0 2.46.34 3.07 1.02.61.68.92 1.95.92 3.81v1.94c0 1.19-.13 2.13-.39 2.81-.26.68-.68 1.18-1.26 1.5-.58.32-1.36.47-2.34.47h-1.94V11.27zm13.39 30.57c-.56-1.79-1.13-3.56-1.71-5.33-.58-1.77-1.17-3.55-1.79-5.33-.61-1.79-1.24-3.54-1.87-5.25l-5.99 1.15c.49 1.58.98 3.19 1.47 4.83.49 1.65.97 3.29 1.44 4.94.47 1.65.94 3.31 1.39 4.99h7.06zm-13.39 0V28.45h1.89c2.38 0 4.36-.29 5.94-.87 1.58-.58 2.78-1.6 3.6-3.07.82-1.47 1.23-3.52 1.23-6.14V15.8c0-2.66-.41-4.73-1.23-6.2-.82-1.47-2.03-2.49-3.62-3.07-1.59-.58-3.54-.87-5.86-.87h-8.61v36.18h6.67-.01zm-9.03 0v-5.78h-9.35V26.5h8.56v-5.78h-8.56v-9.24h9.35V5.65h-16.02v36.19h16.02zm-33.09 0V29.08c0-.91 0-1.88-.03-2.91-.02-1.03-.03-2.08-.05-3.12-.02-1.05-.04-2.07-.08-3.05h.16c.25.77.53 1.64.84 2.6.32.96.66 1.92 1.02 2.86.37.94.69 1.84.97 2.68l5.31 13.71h5.62V5.65H94.8v15.31c0 1.07.02 2.13.05 3.18.04 1.05.05 2.07.05 3.05h-.16c-.21-.81-.48-1.69-.81-2.65-.33-.96-.68-1.93-1.05-2.89-.37-.96-.71-1.81-1.02-2.55l-5.1-13.45h-5.72v36.19h6.15zm-8.51 0v-5.78h-9.35V26.5h8.56v-5.78h-8.56v-9.24h9.35V5.65H62.66v36.19h16.02zm-18.38 0v-5.78h-9.35V26.5h8.56v-5.78h-8.56v-9.24h9.35V5.65H44.28v36.19H60.3zM29.15 11.27h1.94c1.44 0 2.46.34 3.07 1.02.61.68.92 1.95.92 3.81v1.94c0 1.19-.13 2.13-.39 2.81-.26.68-.68 1.18-1.26 1.5-.58.32-1.36.47-2.34.47h-1.94V11.27zm13.39 30.57c-.56-1.79-1.13-3.56-1.71-5.33-.58-1.77-1.17-3.55-1.79-5.33-.61-1.79-1.24-3.54-1.87-5.25l-5.99 1.15c.49 1.58.98 3.19 1.47 4.83.49 1.65.97 3.29 1.44 4.94.47 1.65.94 3.31 1.39 4.99h7.06zm-13.39 0V28.45h1.89c2.38 0 4.36-.29 5.94-.87 1.58-.58 2.78-1.6 3.6-3.07.82-1.47 1.23-3.52 1.23-6.14V15.8c0-2.66-.41-4.73-1.23-6.2-.82-1.47-2.03-2.49-3.62-3.07-1.59-.58-3.55-.87-5.86-.87h-8.61v36.18h6.67-.01zm-14.49-.39c1.3-.54 2.35-1.32 3.15-2.34.77-1.02 1.31-2.26 1.63-3.73.31-1.47.47-3.29.47-5.46V22.3H9.87v5.41h5.36l-1.89-1.89v5.36c0 1.05-.05 1.85-.16 2.39s-.28 1.01-.53 1.39c-.21.24-.44.47-.68.66-.24.19-.53.34-.84.45-.31.11-.68.16-1.1.16-.35 0-.69-.04-1.02-.13-.33-.09-.62-.23-.87-.42-.25-.19-.46-.43-.63-.71-.28-.42-.48-.93-.6-1.52s-.18-1.51-.18-2.73V16.75c0-1.22.06-2.14.18-2.76.12-.61.32-1.15.6-1.6.24-.35.56-.61.95-.79.39-.17.86-.26 1.42-.26.53 0 .98.09 1.37.26.38.18.7.45.94.84.21.32.37.68.47 1.1.11.42.18 1.02.21 1.79s.05 1.86.05 3.26l6.78.05c0-2.7-.15-4.81-.45-6.35-.3-1.54-.85-2.84-1.66-3.89-.84-1.02-1.9-1.79-3.18-2.34-1.28-.54-2.79-.81-4.54-.81s-3.27.27-4.54.81C4.05 6.6 3.01 7.38 2.2 8.4 1.36 9.45.78 10.75.47 12.29.16 13.83 0 15.72 0 17.96v11.61c0 2.28.16 4.19.47 5.73.32 1.54.88 2.82 1.68 3.84.81 1.02 1.86 1.79 3.15 2.34 1.3.54 2.85.81 4.68.81 1.83 0 3.38-.27 4.68-.81" fill="#000"/><path d="M29.15 11.27h1.94c1.44 0 2.46.34 3.07 1.02.61.68.92 1.95.92 3.81v1.94c0 1.19-.13 2.13-.39 2.81-.26.68-.68 1.18-1.26 1.5-.58.32-1.36.47-2.34.47h-1.94V11.27zm-6.67-5.62v36.19h6.67V28.45h2.47a459.656 459.656 0 012.49 8.41c.47 1.65.94 3.31 1.39 4.99h7.04c-.56-1.79-1.13-3.56-1.71-5.33-.58-1.77-1.17-3.55-1.79-5.33-.45-1.32-.91-2.62-1.37-3.9 1.23-.61 2.2-1.53 2.9-2.77.82-1.47 1.23-3.52 1.23-6.15V15.8c0-2.66-.41-4.73-1.23-6.2-.82-1.47-2.03-2.5-3.62-3.07-1.59-.58-3.55-.87-5.86-.87h-8.61v-.01zm21.8 0v36.19H60.3v-5.78h-9.35V26.5h8.56v-5.78h-8.56v-9.24h9.35V5.65H44.28zm18.38 0v36.19h16.02v-5.78h-9.35V26.5h8.56v-5.78h-8.56v-9.24h9.35V5.65H62.66zm32.14 0v15.31c0 1.07.02 2.13.05 3.18.03 1.05.05 2.07.05 3.05h-.16c-.21-.81-.48-1.69-.81-2.65-.33-.96-.68-1.93-1.05-2.89-.37-.96-.71-1.81-1.02-2.55l-5.1-13.45h-5.72v36.19h6.14V29.08c0-.91 0-1.88-.03-2.92-.02-1.03-.03-2.07-.05-3.13-.02-1.05-.04-2.07-.08-3.05h.16c.25.77.53 1.64.84 2.6.31.96.66 1.92 1.02 2.86.37.95.69 1.84.97 2.68l5.31 13.71h5.62V5.65H94.8zm9.45 0v36.19h16.02v-5.78h-9.35V26.5h8.56v-5.78h-8.56v-9.24h9.35V5.65h-16.02zm25.05 5.62h1.94c1.44 0 2.46.34 3.07 1.02.61.68.92 1.95.92 3.81v1.94c0 1.19-.13 2.13-.4 2.81-.26.68-.68 1.18-1.26 1.5-.58.32-1.36.47-2.34.47h-1.94V11.27h.01zm-6.67-5.62v36.19h6.67V28.45h2.47a459.656 459.656 0 012.49 8.41c.47 1.65.94 3.31 1.39 4.99h7.04c-.56-1.79-1.13-3.56-1.71-5.33-.58-1.77-1.17-3.55-1.79-5.33-.45-1.32-.91-2.62-1.37-3.9 1.23-.61 2.2-1.53 2.9-2.77.82-1.47 1.23-3.52 1.23-6.15V15.8c0-2.66-.41-4.73-1.23-6.2-.82-1.47-2.03-2.5-3.62-3.07-1.59-.58-3.55-.87-5.86-.87h-8.61v-.01zm21.9 36.19h6.67V5.65h-6.67v36.19zm21.8-36.19c-.42 2.21-.88 4.37-1.36 6.49-.49 2.12-.96 4.14-1.42 6.07h-.21c-.49-1.93-1.02-3.95-1.58-6.07s-1.09-4.28-1.57-6.49h-7.14c.95 3.01 1.89 5.96 2.84 8.85.94 2.89 1.89 5.75 2.84 8.59-.91 2.98-1.87 6.04-2.89 9.19-1.01 3.15-1.99 6.34-2.94 9.56h7.14a628.097 628.097 0 003.1-12.71h.26c.52 1.82 1.07 3.88 1.63 6.17.56 2.29 1.08 4.47 1.58 6.54h7.2c-.98-3.26-1.94-6.45-2.89-9.59-.94-3.13-1.91-6.21-2.89-9.22.63-1.85 1.25-3.74 1.86-5.65.61-1.91 1.23-3.84 1.84-5.8.61-1.96 1.22-3.94 1.81-5.93h-7.21zM9.88 5.23c-1.75 0-3.26.27-4.54.81-1.28.54-2.32 1.32-3.13 2.34C1.37 9.43.79 10.73.48 12.27.16 13.81 0 15.7 0 17.94v11.61c0 2.28.16 4.19.47 5.73.31 1.54.87 2.82 1.68 3.83.8 1.02 1.86 1.8 3.15 2.34 1.3.54 2.85.81 4.67.81 1.82 0 3.38-.27 4.68-.81 1.3-.54 2.35-1.32 3.15-2.34.77-1.01 1.31-2.26 1.63-3.73.32-1.47.47-3.29.47-5.46V22.3H9.88v5.41h3.47v3.47c0 1.05-.05 1.85-.16 2.39s-.28 1.01-.52 1.39c-.21.24-.44.47-.68.66-.24.19-.52.34-.84.45-.31.11-.68.16-1.1.16-.35 0-.69-.04-1.02-.13-.33-.09-.62-.23-.87-.42a2.89 2.89 0 01-.63-.71c-.28-.42-.48-.93-.6-1.52s-.18-1.51-.18-2.73V16.75c0-1.23.06-2.14.18-2.76.12-.61.32-1.15.6-1.6.24-.35.56-.61.95-.79.39-.17.86-.26 1.42-.26.52 0 .98.09 1.37.26.38.18.7.46.94.84.21.31.37.68.47 1.1.1.42.17 1.02.21 1.79.03.77.05 1.86.05 3.26l6.78.05c0-2.7-.15-4.81-.45-6.36-.3-1.54-.85-2.83-1.65-3.89-.84-1.01-1.9-1.79-3.18-2.34-1.28-.54-2.79-.81-4.54-.81l-.02-.01z" fill="#fff"/></g><defs><clipPath id="clip0_146_302"><path fill="#fff" d="M0 0h173.79v43.44H0z"/></clipPath></defs></svg>