<svg width="197" height="43" fill="none" xmlns="http://www.w3.org/2000/svg"><path d="M23.96 33.263L11.37 5.037c-1.623 0-3.256-.111-4.87-.111-1.905 0-3.87-.282-5.776-.454v1.795c3.025.282 4.658 1.35 4.658 3.982V37.85c0 2.026-1.855 2.36-4.708 2.59v1.785c1.451-.12 3.085-.343 6.22-.343.897 0 1.734 0 2.63.061.888.05 1.795.11 2.632.161v-1.673c-4.143-.292-5.151-.736-5.151-2.59V12.365h.11l13.832 29.789h.725L35.171 10.46h.11v27.662c0 2.238-1.118 2.52-4.697 2.52v1.674c2.57-.11 5.151-.454 7.661-.454 1.12 0 2.863.06 4.476.111a71.49 71.49 0 013.81.232v-1.562c-2.913-.111-4.032-.837-4.032-2.52V8.504c.111-1.23.726-1.795 4.144-2.248V4.462c-1.452.282-2.964.393-4.476.454-2.127.06-4.264.11-6.381.11L23.96 33.254v.01zm49.398-4.597c0-7.006-4.426-11.32-11.09-11.32-7.399 0-13.104 5.826-13.104 13.276 0 7.843 5.655 12.157 12.994 12.157 5.323 0 9.678-3.528 11.26-8.568l-1.18-.383c-1.794 3.91-4.425 6.945-8.568 6.945-6.946 0-8.226-5.937-8.226-12.097h17.924l-.01-.01zm-17.753-1.35c0-3.862 2.178-8.73 6.664-8.73 3.357 0 5.494 4.586 5.494 7.217 0 1.069-.504 1.18-.786 1.18l-11.362.332h-.01zm50.294 12.318h-1.694c-1.845 0-2.188-.221-2.188-1.683l.404-37.622c-5.212.393-8.408.564-11.14.564v1.684c2.4.06 4.033.171 4.466.947.615 1.059.675 2.289.675 9.184v8.569h-.11c-1.402-2.58-4.87-3.922-7.894-3.922-6.825 0-11.25 6.05-11.25 12.602 0 7.228 4.587 12.823 11.815 12.823 3.135 0 5.938-1.734 7.732-4.315l.443 3.64 8.741-.777v-1.694zm-9.295-6.33c0 3.356-1.966 7.227-5.776 7.227-5.878 0-7.39-6.32-7.39-11.2 0-4.364 1.795-10.302 6.946-10.302 4.143 0 6.22 4.032 6.22 7.722v6.552zm10.908 8.568h13.498v-1.34l-3.589-.222c-.171-1.402-.282-3.307-.282-5.202v-6.22c0-4.819.171-8.851.171-10.474 0-.393-.332-.615-.554-.615-1.462 0-3.639.897-9.133 1.13v1.673l2.863.221c1.008.06 1.068.615 1.068 1.623v14.95c0 1.008-.171 2.017-.222 3.035h-3.81v1.441h-.01zm4.032-32.813c0 2.077 1.563 3.478 3.468 3.478s3.478-1.401 3.478-3.478-1.563-3.468-3.478-3.468c-1.915 0-3.468 1.401-3.468 3.468zm11.654 32.814h12.873V40.43h-3.075c-.06-1.744-.221-3.468-.221-5.101v-8.841c0-3.528 2.238-7.006 6.381-7.006 2.349 0 4.143 1.008 4.143 4.254V39.14c0 1.23-.564 1.29-1.794 1.29h-2.178v1.442h12.884V40.43h-3.317V27.044c0-5.313-2.238-9.688-8.176-9.688-3.588 0-6.714 2.127-8.175 5.766h-.111v-2.913c0-1.28-.121-1.966-.565-1.966-2.792 0-5.705.685-8.508.685v1.674l2.803.343c.564.06 1.008.443 1.008 1.744V39.14c0 1.23-.555 1.29-1.795 1.29h-2.177v1.442zm44.456.897c7.389 0 12.883-5.213 12.883-12.713 0-7.5-5.494-12.712-12.883-12.712-7.389 0-12.883 5.212-12.883 12.712s5.494 12.712 12.883 12.712zm0-1.23c-4.93 0-6.613-6.22-6.613-11.483 0-5.262 1.683-11.472 6.613-11.472 4.929 0 6.613 6.27 6.613 11.472s-1.623 11.482-6.613 11.482zm28.953-1.11h-3.478V15.895c0-5.142.453-10.746.453-14.89 0-.443-.282-.675-.564-.675-.676 0-2.52.837-9.91 1.008V3.01l2.742.222c.897.06 1.674.444 1.674 7.783v14.839c0 4.869-.172 9.677-.283 14.567h-4.143v1.451h13.498v-1.451l.011.01z" fill="#fff"/></svg>