<svg width="127" height="53" fill="none" xmlns="http://www.w3.org/2000/svg"><path d="M76.187 44.86c4.415 0 7.954-.927 10.182-2.238v-9.325c-1.25.928-4.416 2.944-9.91 2.944s-9.526-3.488-9.526-9.647c0-5.615 4.193-9.597 9.526-9.597 2.944 0 6.532.927 9.365 2.832v-9.103c-2.016-1.2-5.605-2.288-9.798-2.288-11.331 0-19.225 7.631-19.225 18.267 0 10.635 6.966 18.155 19.386 18.155zm23.962 0c8.549 0 12.964-4.203 12.964-10.958 0-11.885-12.692-10.252-12.692-15.212 0-1.36.867-2.45 2.944-2.45 2.561 0 5.716 1.311 7.843 2.672v-8.78c-1.139-.605-4.194-1.694-8.549-1.694-7.954 0-12.248 4.204-12.248 10.635 0 12.158 12.631 10.636 12.631 15.596 0 1.36-1.199 2.348-3.215 2.348-3.6 0-7.027-1.472-9.587-3.216v8.942c1.955.928 5.393 2.127 9.909 2.127m16.23-.544h9.86V8.992h-9.86v35.334zM26.145 3.982c-12.43 0-22.54 10.122-22.54 22.571 0 12.45 10.11 22.571 22.54 22.571s22.541-10.12 22.541-22.57c0-12.45-10.111-22.572-22.54-22.572zm0 48.227C12.012 52.21.52 40.697.52 26.553.52 12.41 12.012.897 26.145.897c14.134 0 25.626 11.513 25.626 25.656 0 14.144-11.492 25.656-25.626 25.656z" fill="#fff"/><path d="M17.536 23.74h-4.224v.989h4.224v-.988zm7.359 0H20.67v.989h4.224v-.988zm7.359 0H28.03v.989h4.224v-.988zm7.369 0H35.4v.989h4.224v-.988zm-28.64-2.862l1.462.998h28.106l1.451-.998H10.983zm31.02-1.139l-1.452-.988-14.053-8.257-14.053 8.257-1.451.988h31.019-.01zm-14.094-3.922a1.41 1.41 0 01-1.41 1.412 1.415 1.415 0 01-1.412-1.412c0-.776.635-1.411 1.411-1.411s1.411.635 1.411 1.411z" fill="#fff"/><path d="M26.145 46.806c-11.15 0-20.222-9.083-20.222-20.253S14.996 6.301 26.145 6.301c11.15 0 20.222 9.083 20.222 20.252 0 11.17-9.072 20.253-20.222 20.253zm0-41.534c-11.714 0-21.25 9.547-21.25 21.281 0 11.735 9.536 21.281 21.25 21.281s21.25-9.547 21.25-21.28c0-11.735-9.536-21.282-21.25-21.282z" fill="#fff"/><path d="M17.385 45.939l-.847-22.208H14.32l-.756 19.96c1.19.877 2.47 1.633 3.82 2.248zm7.429 1.855l-.917-24.053h-2.218l-.887 23.408c1.3.342 2.641.554 4.022.645zm7.33-.817l-.888-23.236H29.05l-.918 24.002a21.085 21.085 0 004.013-.776m7.206-3.76l-.745-19.466h-2.208l-.837 21.885a21.213 21.213 0 003.79-2.419z" fill="#fff"/></svg>