<svg width="154" height="38" fill="none" xmlns="http://www.w3.org/2000/svg"><path d="M39.725 2.563l.06-.272C39.868.809 38.436.355 37.347.355h-6.139c-1.23 0-2.671 1.089-2.671 2.4 0 1.31 1.623 2.237 2.731 2.237.464 0 .888-.02 1.26-.03.374 0 .636 0 .837.06.273.081.525.253.525 1.22v8.206c0 1.26.917 2.178 2.318 2.178 1.482 0 2.127-1.109 2.258-2.188l1.25-11.875h.01zm24.497 18.63V2.966c0-1.713-1.855-2.5-3.277-2.5-1.421 0-2.64.857-3.125 2.087l-4.173 11.1a3.264 3.264 0 00-.202 1.108c0 1.431 1.16 2.5 2.621 2.5 1.18 0 1.512-.564 1.936-1.572l1.16-2.218v7.732c0 2.52-1.322 4.143-4.235 4.143-1.19 0-2.319.05-3.458.05-.605 0-1.159-.1-1.582-.393-.222-.221-.434-.857-.575-1.713a18.615 18.615 0 01-.222-2.178L47.477 2.987c-.07-1.14-.806-2.148-2.258-2.148-1.572 0-2.137 1.26-2.137 2.34v24.667c0 1.653 1.794 2.4 3.095 2.4h8.81c5.485 0 9.235-4.325 9.235-9.043m12.763 6.421l2.147-25.071v-.151c.08-1.512-1.24-2.047-2.44-2.047h-7.147c-1.32 0-2.682 1.16-2.682 2.45 0 1.29 1.593 2.349 2.732 2.349h3.206c.01.06.02.12.02.201v22.279c0 1.069.434 2.238 2.026 2.238 1.593 0 2.017-1.29 2.138-2.248zM100.745.355h-15.01c-1.503 0-3.095 1.069-3.095 2.611 0 1.633 1.512 2.722 3.094 2.722h9.235c1.492 0 2.58 1.21 2.681 2.46l1.432 15.242c0 .323.06.645.06.907 0 1.432-.796 2.017-1.714 2.51l-.705.353a6.1 6.1 0 00-.666.393c-.423.303-.776.716-.776 1.361 0 .968.877 1.704 1.845 1.704.292 0 .585-.07.827-.141.221-.07.463-.151.665-.202 3.216-1.078 5-3.931 5-6.935V2.805c0-1.482-1.401-2.45-2.853-2.45" fill="#fff"/><path d="M86.279 14.781c-1.3 0-2.873.948-2.793 2.42l1.25 17.772c.071 1.12.625 2.319 2.198 2.319s2.026-1.29 2.026-2.288V17.23c0-1.35-1.36-2.45-2.681-2.45zM123.599.355h-10.727c-3.538 0-5.413.242-5.413 4.174v16.674c0 5.221 4.96 9.042 10.424 9.042 5.464 0 10.484-3.82 10.484-9.043V5.165c0-2.863-1.28-4.809-4.758-4.809m-.777 7.279c0 4.556-.06 9.062-.06 13.569 0 2.59-2.288 4.838-5.242 4.838s-5.192-2.248-5.192-4.838V8.6c0-2.036.282-3.447 2.621-3.447h5.837c1.331 0 1.704.222 1.855.463.091.142.141.353.161.706.02.363.01.797.01 1.31m30.243 20.164V2.866c0-1.422-1.442-2.5-2.853-2.5h-15.374c-1.451 0-2.671 1.118-2.671 2.5 0 1.38 1.401 2.399 2.792 2.399h8.458c1.744 0 4.053.837 4.053 2.268v20.323c0 1.432 1.472 2.4 2.792 2.4 1.401 0 2.793-.968 2.793-2.45M137.52 17.503c-.121-1.028-.615-2.238-2.197-2.238-1.583 0-2.319 1.29-2.319 2.51v9.92c0 1.442 1.411 2.339 2.732 2.339 2.631 0 2.913-2.268 2.913-3.841 0-1.442-.201-2.914-.433-4.385-.232-1.442-.524-2.884-.696-4.305zM26.287 27.634V2.754c0-1.663-1.794-2.399-3.094-2.399H8.605c-1.451 0-2.863.907-2.863 2.45v20.434c0 1.089-.675 2.58-1.794 2.923-.262.081-.564.182-.867.293a6.747 6.747 0 00-.958.423c-.594.343-1.2.877-1.2 1.724 0 .716.505 1.14 1.009 1.36.504.223 1.099.293 1.552.293h4.527c1.39 0 2.792-.907 2.792-2.45V5.708c0-.141-.01-.292-.04-.443h8.085c.836 0 1.26.604 1.31 1.441l1.966 21.18c.07.867.605 2.198 2.016 2.198 1.543 0 2.137-1.452 2.137-2.45" fill="#fff"/></svg>