<svg width="202" height="31" fill="none" xmlns="http://www.w3.org/2000/svg"><path d="M16.809 30.415H.96l5.323-27.33h3.932l-4.789 24.75h11.916l-.534 2.58zm19.788-12.208c-.897 0-2.54.201-3.89.453l-9.628 1.724c-.413 1.553-.575 2.662-.575 3.972 0 2.914 1.512 4.466 4.386 4.466 2.661 0 4.92-1.391 6.673-4.052l1.684 2.127c-2.621 2.701-5.202 3.89-8.519 3.89-4.788 0-7.863-3.114-7.863-7.943 0-6.805 5.454-13.156 11.351-13.156 3.972 0 6.553 2.621 6.553 6.593 0 .494-.04.988-.161 1.926m-6.714-6.714c-1.805 0-3.569 1.19-4.668 3.115-.736 1.27-.978 1.805-1.643 3.85l9.385-1.683c.121-.695.162-.988.162-1.471 0-2.38-1.23-3.811-3.236-3.811zm25.474 6.714c-.897 0-2.54.201-3.891.453l-9.627 1.724c-.414 1.553-.575 2.662-.575 3.972 0 2.914 1.512 4.466 4.385 4.466 2.662 0 4.92-1.391 6.674-4.052l1.683 2.127c-2.62 2.701-5.202 3.89-8.518 3.89-4.789 0-7.863-3.114-7.863-7.943 0-6.805 5.453-13.156 11.35-13.156 3.973 0 6.553 2.621 6.553 6.593 0 .494-.04.988-.16 1.926m-6.715-6.714c-1.804 0-3.568 1.19-4.667 3.115-.736 1.27-.978 1.805-1.633 3.85l9.385-1.683c.121-.695.161-.988.161-1.471 0-2.38-1.23-3.811-3.236-3.811m49.518 18.922h-9.8L92.819 7.51l-12.43 18.61-5.504-18.61-4.475 22.904h-4.65L71.568.575h11.008l3.045 11.049L92.909.575h11.089l-5.806 29.84zm21.563-14.013l-.534 2.54-.857 4.225c-.454 2.258-.736 3.528-.777 3.77a12 12 0 00-.121 1.804c0 .575.041.898.121 1.684h-3.609c-.12-.696-.12-.988-.12-1.391 0-.373 0-.655.12-1.512-1.885 2.379-3.608 3.276-6.35 3.276-3.438 0-5.575-1.845-5.575-4.758 0-1.603.736-3.115 1.925-4.133 1.432-1.23 2.914-1.886 6.512-2.783 4.466-1.149 6.19-2.46 6.19-4.748 0-1.683-1.27-2.701-3.437-2.701-2.168 0-4.013.816-5.978 2.62l-1.644-2.167c2.5-1.724 4.748-2.42 7.783-2.42 4.012 0 6.593 1.725 6.593 4.386 0 .696-.081 1.472-.242 2.339m-7.208 3.931l-2.5.817c-2.702.897-3.972 2.379-3.972 4.708 0 1.885.988 2.953 2.661 2.953 1.311 0 2.702-.695 3.69-1.764 1.351-1.552 2.006-3.115 2.742-6.552.081-.373.202-.857.373-1.563-1.149.696-1.552.897-2.994 1.391m23.67-7.601c-.655-.373-1.23-.494-1.966-.494-1.149 0-2.58.615-3.609 1.563-1.603 1.472-2.207 3.236-3.437 9.425l-1.432 7.168h-3.649l3.972-20.364h3.397l-.413 3.438c1.431-2.46 3.891-3.972 6.431-3.972.494 0 .736.04 1.271.161l-.575 3.075h.01zm13.811 1.149c-1.311-1.552-2.833-2.258-4.96-2.258-2.5 0-4.385 1.351-4.385 3.115 0 1.512.776 2.127 4.869 3.569 4.012 1.431 5.242 2.62 5.242 5.201 0 4.093-4.093 7.249-9.426 7.249-3.074 0-5.575-.817-7.621-2.5l1.805-2.914c1.35 2.38 3.155 3.438 5.897 3.438 3.196 0 5.363-1.724 5.363-4.224 0-1.563-.897-2.339-3.932-3.357-2.701-.897-3.477-1.23-4.425-1.966-1.069-.816-1.563-1.804-1.563-3.155 0-3.65 3.65-6.432 8.438-6.432 2.661 0 4.708.736 6.593 2.258l-1.926 1.966.031.01zm21.381 2.581l-2.702 13.932h-3.649l2.581-13.236c.332-1.684.413-2.168.413-2.742 0-1.512-1.028-2.42-2.782-2.42-1.351 0-2.5.414-3.609 1.351-1.684 1.35-2.379 2.621-3.156 5.736-.242.938-.413 1.885-.615 2.823l-1.683 8.478h-3.649l5.322-27.33h3.65l-2.006 10.243c1.965-2.5 4.173-3.65 7.167-3.65 2.994 0 5.202 1.472 5.202 3.65 0 .655-.121 1.19-.494 3.155m20.131 1.734c-.907 0-2.54.201-3.891.453l-9.627 1.724c-.414 1.553-.575 2.662-.575 3.972 0 2.914 1.512 4.466 4.385 4.466 2.662 0 4.92-1.391 6.674-4.052l1.683 2.127c-2.621 2.701-5.201 3.89-8.518 3.89-4.788 0-7.863-3.114-7.863-7.943 0-6.805 5.444-13.156 11.351-13.156 3.972 0 6.553 2.621 6.553 6.593 0 .494-.041.988-.162 1.926m-6.724-6.714c-1.804 0-3.568 1.19-4.667 3.115-.736 1.27-.988 1.805-1.643 3.85l9.385-1.683c.121-.695.161-.988.161-1.471 0-2.38-1.23-3.811-3.236-3.811zm11.262 18.922h-3.649l5.333-27.33h3.639l-5.323 27.33z" fill="#fff"/></svg>