<svg width="117" height="62" fill="none" xmlns="http://www.w3.org/2000/svg"><path d="M112.43 53.209c2.551 0 4.053 1.623 4.053 3.629-.04 2.046-1.502 3.629-4.053 3.629-2.55 0-4.052-1.583-4.052-3.63 0-2.046 1.502-3.628 4.012-3.628h.04zm3.922-2.087h-7.893V30.577h7.893v20.545zM90.786 36.979c.424-.091 1.27-.172 2.621-.172 3.166 0 4.728 1.412 4.728 3.559 0 2.681-2.197 4.133-5.272 4.133-1.018 0-1.603-.04-2.067-.131v-7.39h-.01zm-7.893 23.559h7.893v-9.89c.504.04 1.27.131 2.158.131 4.385 0 7.853-1.008 10.292-3.256 1.855-1.673 2.783-4.355 2.783-7.208 0-3.205-1.472-5.846-3.458-7.298-1.986-1.492-4.98-2.37-9.244-2.37-5.02 0-8.226.313-10.424.656v29.235zM66.522 54.65c-4.265 0-6.966-3.78-6.966-8.882 0-5.1 2.701-8.962 6.966-8.962 4.264 0 6.965 3.871 6.965 8.962 0 5.091-2.57 8.882-6.915 8.882h-.05zm-.333 6.421c9.748 0 15.787-6.553 15.787-15.515 0-8.961-5.696-15.161-15.313-15.161S51.088 36.948 51.088 46c0 8.529 5.695 15.081 15.06 15.081h.041v-.01zM23.486 30.92v29.628h7.974V48.814h10.716v11.734h7.974V30.92h-7.974v10.766H31.46V30.92h-7.974zM.32 59.046c1.815.968 5.484 2.026 9.244 2.026 9.073 0 12.823-4.577 12.823-9.537 0-4.485-2.61-7.248-8.145-9.103-3.71-1.23-5.524-1.754-5.524-3.336 0-1.27 1.35-2.067 3.71-2.067 3.246 0 5.655.968 7.006 1.542l1.814-6.502c-2.197-.968-4.808-1.673-8.69-1.673C5.17 30.396.532 34.347.532 39.71c0 5.363 4.012 7.732 8.861 9.143 3.458 1.008 4.768 1.845 4.768 3.125 0 1.492-1.35 2.38-4.012 2.38-3.246 0-6.29-1.1-8.185-2.068L.32 59.066v-.02z" fill="#fff"/><path d="M93.68 4.468l-7.501 20.918 5.575-.837L97.63 8.147c1.038-.988 1.724-1.522 2.893-1.704 1.159-.17-.373 2.672 1.795 2.35 1.895-.283 3.195-2.178 3.437-3.6.262-1.542-.615-2.44-2.349-2.177-1.623.242-3.326 1.37-4.91 2.712l.767-2.097-5.575.837h-.01zm-5.445 4.778c-.524 2.893-3.578 6.472-7.147 7.046 1.452-3.941 4.002-8.79 6.17-9.123 1.159-.171 1.119 1.22.978 2.077zM80.04 20.053c.08-.484.221-1.1.413-1.765 3.76-1.038 9.315-4.637 10.141-9.597.474-2.842-1.078-3.961-4.254-3.477-7.046 1.058-10.655 10.423-11.522 15.585-.585 3.488.937 6.16 4.647 5.605 5-.746 9.406-5.404 12.309-9.92l-1.744.262c-1.855 3.206-5.504 6.049-7.41 6.331-1.512.222-3.044-.333-2.59-3.014M71.552 2.32l-2.097 5.777-1.28.191-.585 1.674 1.28-.192c-1.24 3.589-4.698 12.5-5.06 14.658-.515 3.044 1.078 4.153 4.062 3.71 3.024-.454 8.307-6.513 10.394-8.64l-1.321.202c-1.764 1.532-4.163 4.103-5.706 4.335-1.552.232-1.835-.323-1.684-1.25.03-.202.061-.605 4.88-13.841l2.328-.343.585-1.674-2.329.343C76.37 3.5 77.41.657 77.41.657L71.54 2.33l.01-.01zM60.24 4.014L58.144 9.79l-1.28.192-.585 1.673 1.28-.191c-1.24 3.589-4.697 12.5-5.06 14.657-.514 3.045 1.078 4.154 4.062 3.71 3.025-.453 8.307-6.512 10.394-8.64l-1.32.202c-1.765 1.533-4.164 4.103-5.707 4.335-1.552.232-1.834-.322-1.683-1.25.03-.201.06-.605 4.879-13.84l2.329-.344.584-1.673-2.328.343c1.35-3.77 2.389-6.613 2.389-6.613L60.23 4.024l.01-.01zm-7.62 10.565c-.524 2.893-3.58 6.472-7.148 7.046 1.452-3.941 4.002-8.79 6.17-9.123 1.16-.171 1.119 1.22.978 2.077zm-8.186 10.806c.08-.483.222-1.098.403-1.764 3.76-1.038 9.315-4.637 10.142-9.597.473-2.842-1.079-3.961-4.255-3.478-7.046 1.059-10.655 10.424-11.522 15.585-.585 3.488.937 6.16 4.647 5.605 5-.745 9.406-5.403 12.309-9.92l-1.744.263c-1.855 3.206-5.504 6.049-7.41 6.33-1.512.223-3.044-.342-2.59-3.023M27.448 8.994L17.86 35.618l5.574-.837 5.777-16.029a23.287 23.287 0 011.956-.413c2.56-.383 3.135 1.825 2.691 4.466-.575 3.448-2.954 7.732-5.08 8.044-.545.081-1.825.07-2.35-1.078-.514 1.068-.816 1.945-.927 2.63-.423 2.561 1.774 2.47 4.103 2.118 4.264-.635 8.77-7.53 9.647-12.773.535-3.165-.282-5.776-3.346-5.958 2.731-1.875 4.546-4.597 4.95-6.996.554-3.326-1.624-6.089-7.703-5.181-6.472.968-14.456 7.187-15.363 12.59-.494 2.924.817 3.72 3.488 3.317.02-.363-.423-.614-.08-2.681 1.028-6.17 5.836-10.494 12.107-11.432 3.024-.454 3.931 1.351 3.548 3.63-.514 3.084-3.407 7.046-6.623 7.52l-.272.04L33.325 7.3l-5.867 1.674-.01.02z" fill="#fff"/></svg>