<svg width="86" height="80" fill="none" xmlns="http://www.w3.org/2000/svg"><path d="M8.668 0l-2.57 4.496H.957l2.57 4.496-2.57 4.496h5.14l2.571 4.496 2.581-4.496h5.141l-2.57-4.496 2.57-4.496h-5.14L8.667 0zm6.543 29.013l-2.57 4.496h5.14l2.572 4.496 2.58-4.496h5.142l-2.571-4.496 2.57-4.496h-5.14l-2.582-4.496-2.57 4.496H12.64l2.57 4.496zm25.193 4.496l2.57 4.496 2.57-4.496h5.142l-2.57-4.496 2.57-4.496h-5.141l-2.57-4.496-2.572 4.496h-5.14l2.56 4.496-2.56 4.496h5.14zm20.03-4.496l-2.56 4.496h5.14l2.571 4.496 2.571-4.496h5.141l-2.57-4.496 2.57-4.496h-5.14l-2.572-4.496-2.57 4.496h-5.142l2.561 4.496zM29.012 4.496H23.87l2.57 4.496-2.57 4.496h5.14l2.572 4.506 2.57-4.506h5.151l-2.57-4.496 2.57-4.496h-5.15L31.581 0l-2.57 4.496zM54.496 0l-2.57 4.496h-5.152l2.571 4.496-2.57 4.496h5.15l2.571 4.496 2.571-4.496h5.141l-2.57-4.496 2.57-4.496h-5.141L54.497 0zM77.41 0l-2.58 4.496h-5.141l2.57 4.496-2.57 4.496h5.14l2.581 4.496 2.571-4.496h5.141l-2.57-4.496 2.57-4.496h-5.14L77.41 0zm2.268 43.963h-5.463l-3.418 8.69-2.732 7.903-2.984-8.327-3.165-8.266H50.303v35.556h9.567V62.924l2.731 8.69 2.047 7.903h6.149l2.42-7.823 3.044-8.77v16.593h8.881V43.963H79.68zm-42.037 0v35.556h8.881V43.962h-8.881zm-36.795 0v10.272h16.391l-8.105 7.642-8.286 7.369v10.272h32.783V69.246h-8.881l-8.388-.02 8.236-7.36 9.033-7.63V43.962H.846z" fill="#fff"/></svg>