<svg width="309" height="56" fill="none" xmlns="http://www.w3.org/2000/svg"><path d="M47.802 20.487c-1.391 1.492-2.803 3.015-4.254 4.577-.232.252-.282.605-.121.948a84.989 84.989 0 003.145 6.119c.464.796-.484 1.562-1.613 1.3a86.368 86.368 0 01-8.045-2.399c-.423-.151-.877-.121-1.22.07-2.167 1.22-4.385 2.5-6.663 3.912-.937.575-2.187-.04-2.127-1.089.141-2.55.262-5.09.353-7.631.02-.403-.171-.817-.504-1.099-2.067-1.764-4.083-3.599-6.089-5.454-.817-.756-.554-2.157.434-2.328 2.419-.434 4.828-.706 7.228-.898a.903.903 0 00.806-.614c.756-2.198 1.492-4.345 2.208-6.442.292-.857 1.562-.625 2.167.363a151.604 151.604 0 004.486 6.905c.242.353.635.615 1.038.696 2.53.524 5.081.978 7.632 1.31 1.038.141 1.714 1.15 1.149 1.754m24.265 11.28c-5.131-7.056-8.075-15.453-9.83-24.032-.06-.312-.453-.534-.866-.494-9.95.998-19.92-.927-29.81-3.599-9.899-2.359-19.697-5.615-29.597.353-.413.262-.716.988-.665 1.593C2.659 22.2 2.357 39.097.875 54.974c-.05.575.363.716.918.333 10.675-8.972 22.57-11.644 36.351-13.448 11.644-1.784 23.922-4.375 33.54-9.254.393-.202.564-.575.373-.837m222.294 13.317h14.567v-4.607h-9.174v-7.51h8.508V28.36h-8.508v-7.218h9.174v-4.606h-14.567v28.549zm-21.987 0h4.98V34.218c0-2.118-.04-4.9-.08-7.098h.12c.787 1.906 2.077 4.769 3.196 7.098l5.313 10.867h4.566v-28.55h-4.98v10.666c0 2.077.041 4.86.081 7.057h-.121c-.786-1.865-2.157-4.9-3.236-7.138l-5.192-10.574h-4.647v28.549-.01zm-9.415 0h5.393v-28.55h-5.393v28.55zm-15.434 0h13.569v-4.607h-8.176V16.536h-5.393v28.549zm-21.16-14.94V20.97h2.571c2.611 0 3.901.998 3.901 3.942v1.24c0 2.984-1.371 3.982-3.901 3.982h-2.571v.01zm12.49 14.94c-1.411-3.821-2.943-7.632-4.526-11.412 2.53-1.119 3.942-3.407 3.942-7.339v-1.623c0-6.18-3.277-8.175-9.174-8.175h-8.135v28.549h5.393V34.59h3.024c1.24 3.448 2.571 7.138 3.74 10.495h5.736zM205.941 34.5c.161-1.12.373-2.198.534-3.196.454-3.075 1.16-6.764 1.744-9.92h.414a211.462 211.462 0 011.865 9.92c.211.998.373 2.077.584 3.196h-5.141zm6.845 10.585h5.605c-1.744-9.587-3.69-19.376-5.726-28.55h-8.377a802.46 802.46 0 00-5.605 28.55h5.565c.292-2.037.625-4.063.957-6.1h6.643c.333 1.946.626 4.023.958 6.1m-24.023 0h5.394V21.142h5.685v-4.606h-16.764v4.606h5.685v23.943zm-15.101.332c5.474 0 8.508-3.115 8.508-7.923v-.535c0-4.566-1.784-6.35-6.31-8.175l-1.744-.746c-2.863-1.16-3.73-2.077-3.73-4.022v-.212c0-1.905 1.078-3.024 3.075-3.024 1.239 0 2.076.413 2.651 1.2.494.665.786 1.582.907 2.782l4.98-.585c-.212-2.863-1.2-4.98-2.944-6.31-1.371-1.12-3.195-1.664-5.564-1.664-5.273 0-8.418 2.944-8.418 7.631v.373c0 4.234 1.986 6.472 6.139 8.135l1.704.706c3.155 1.33 3.942 2.198 3.942 4.395v.212c0 2.036-1.2 3.196-3.236 3.196-1.291 0-2.238-.494-2.823-1.412-.453-.584-.746-1.37-.958-2.65l-5.02.584c.212 2.318.958 4.194 2.157 5.514 1.492 1.663 3.771 2.53 6.684 2.53zm-30.495-4.808V20.98h2.611c1.704 0 2.904.333 3.609 1.2.787.867.998 2.278.998 3.982v9.294c0 1.664-.211 3.075-.998 3.982-.705.827-1.905 1.16-3.609 1.16h-2.611v.01zm-5.393 4.486h8.297c3.488 0 5.887-.786 7.429-2.37 1.704-1.784 2.369-4.475 2.369-8.094V27c0-3.61-.665-6.351-2.369-8.095-1.532-1.623-3.941-2.37-7.429-2.37h-8.297v28.561zm-16.139 0h13.568v-4.607h-8.175V16.546h-5.393v28.549zm-12.692-4.526c-1.331 0-2.279-.414-2.944-1.16-.746-.867-1.038-2.036-1.038-3.901v-9.375c0-1.865.292-3.065 1.038-3.942.665-.706 1.613-1.16 2.944-1.16 1.33 0 2.278.454 2.943 1.16.746.867 1.039 2.077 1.039 3.942v9.375c0 1.865-.293 3.034-1.039 3.901-.665.746-1.613 1.16-2.943 1.16zm0 4.858c3.195 0 5.685-1.038 7.218-2.822 1.532-1.784 2.197-4.194 2.197-8.095v-7.39c0-3.941-.665-6.35-2.197-8.135-1.533-1.784-4.023-2.782-7.218-2.782-3.196 0-5.686.998-7.218 2.782-1.533 1.785-2.198 4.194-2.198 8.136v7.389c0 3.901.665 6.31 2.198 8.095 1.532 1.784 4.022 2.823 7.218 2.823zM88.337 29.45v4.274h4.234v1.533c0 2.278-.373 3.276-.998 4.062-.665.827-1.744 1.25-3.075 1.25-1.33 0-2.45-.413-3.115-1.25-.625-.786-.998-1.784-.998-4.062v-9.002c0-2.037.333-3.236 1.039-4.063.625-.746 1.613-1.16 2.863-1.16s2.197.454 2.822 1.331c.585.827.918 1.996 1.08 3.529l5.231-.414c-.252-3.528-1.24-5.605-2.651-7.016-1.492-1.411-3.569-2.238-6.472-2.238-3.196 0-5.514.998-7.057 2.702-1.613 1.824-2.278 4.395-2.278 8.095v7.55c0 3.821.625 6.311 2.197 8.095 1.492 1.704 3.861 2.783 7.259 2.783 3.397 0 5.766-1.079 7.258-2.783 1.573-1.784 2.198-4.274 2.198-8.095v-5.1h-9.547l.01-.02z" fill="#fff"/></svg>