<svg width="155" height="30" fill="none" xmlns="http://www.w3.org/2000/svg"><path d="M141.855 14.316L153.66 1.04V.838h-8.519l-9.345 10.897V.838h-6.966v28.68h6.966V17.23l9.92 12.288h8.437v-.201l-12.288-15h-.01zm-32.33-7.54h5.404c2.419 0 3.81 1.35 3.81 3.357 0 2.006-1.391 3.397-3.81 3.397h-5.404V6.765v.01zM120.382 18.7c3.438-1.35 5.323-4.385 5.323-8.558 0-5.736-3.649-9.305-9.879-9.305h-13.277v28.68h6.966v-10.04h4.093l5.323 10.04h7.379v-.333l-5.938-10.494.01.01zm-37.944.817l3.568-9.214 3.57 9.214h-7.138zM88.547.838h-5.08L71.418 29.185v.333h7.168l1.724-4.466h11.391l1.724 4.466h7.168v-.333L88.547.838zm-25.162 0l-9.668 14.174L44.05.838h-6.07v28.68h6.724V13.126L52.9 24.84h1.643l8.196-11.713v16.391h6.724V.838h-6.079zm-35.848 28.68h6.966V.838h-6.966v28.68zM23.636.838H1.549v5.938H12.98L.651 29.105v.413h22.985V23.58h-12.33l12.33-22.329V.838z" fill="#fff"/></svg>