<svg width="134" height="67" fill="none" xmlns="http://www.w3.org/2000/svg"><path d="M133.064 20.135c0-1.673-.051-2.268-.494-3.145-.544-1.008-1.704-1.704-3.115-1.704-1.411 0-2.571.696-3.115 1.704-.434.877-.494 1.472-.494 3.145v17.712l-13.025-19.254c-1.542-2.268-2.55-3.296-4.224-3.296-1.078 0-1.985.383-2.701 1.108-.797.827-.978 1.906-.978 3.377v27.753c0 1.674.05 2.268.494 3.146.544 1.008 1.704 1.703 3.115 1.703 1.411 0 2.571-.695 3.115-1.703.433-.878.494-1.472.494-3.146V29.823l13.055 19.255c1.522 2.268 2.55 3.296 4.193 3.296 1.109 0 1.986-.383 2.702-1.109.827-.827.978-1.905.978-3.377V20.135zM83.859 3.079C83.597 1.224 81.67.427 80.43.427c-.826 0-1.572.283-2.117.827-.614.615-.877 1.16-1.36 2.62L65.38 39.26l-6.824-20.93c-.494-1.472-.746-2.006-1.361-2.631-.544-.544-1.29-.827-2.107-.827-1.24 0-3.165.797-3.428 2.652-.13.826 0 1.471.494 2.933L61.5 48.423c.494 1.441.898 2.137 1.442 2.65.696.616 1.442.878 2.45.878 1.008 0 1.724-.262 2.42-.877.543-.514.947-1.21 1.44-2.651L83.376 6.002c.494-1.472.615-2.107.494-2.934m17.6 42.885c-.695-.363-1.29-.454-2.802-.454H85.976v-8.972h10.212c1.522 0 2.107.02 2.802-.343.898-.463 1.522-1.482 1.522-2.742s-.615-2.42-1.522-2.883c-.695-.363-1.29-.514-2.802-.514H85.976v-8.478h12.692c1.522 0 2.107 0 2.802-.353.897-.464 1.522-1.492 1.522-2.752 0-1.26-.615-2.41-1.522-2.873-.695-.363-1.29-.504-2.802-.504H82.962c-.152 0-.353.11-.504.11l-3.952 11.866v20.525c0 1.058.04 2.379 1.048 3.377 1.008 1.008 2.36 1.018 3.418 1.018h15.706c1.522 0 2.107-.06 2.802-.423.897-.464 1.522-1.543 1.522-2.803s-.614-2.339-1.522-2.802M26.992 64.179c.252 1.855 2.188 2.651 3.428 2.651.826 0 1.572-.282 2.107-.826.615-.615.877-1.16 1.36-2.622L45.462 28l6.824 20.927c.494 1.472.746 2.007 1.361 2.632.545.544 1.29.826 2.107.826 1.24 0 3.166-.796 3.428-2.651.13-.827 0-1.472-.494-2.934l-9.345-27.964c-.494-1.442-.897-2.137-1.442-2.651-.695-.615-1.441-.877-2.45-.877-1.008 0-1.723.262-2.419.877-.544.514-.947 1.21-1.441 2.651l-14.124 42.42c-.494 1.472-.615 2.117-.494 2.934m-.837-16.655c0 1.674.11 2.269.554 3.146.323.605.978 1.088 1.663 1.38l5.263-15.494V19.752c0-1.572-.283-2.6-1.15-3.477-.645-.646-1.482-.978-2.46-.978-.846 0-1.511.15-2.157.594-.715.464-1.37 1.341-1.834 2.218L16.84 35.57 7.667 18.11c-.463-.877-1.108-1.754-1.824-2.218-.645-.433-1.29-.594-2.137-.594-.978 0-1.775.332-2.42.977C.41 17.151.208 18.18.208 19.753v27.783c0 1.674.05 2.269.493 3.146.545 1.008 1.694 1.703 3.115 1.703 1.422 0 2.46-.695 3.005-1.703.433-.877.373-1.472.373-3.146V30.932l6.089 11.765c.897 1.774 1.804 2.52 3.508 2.52 1.703 0 2.51-.746 3.417-2.52l5.938-11.765v16.603h-.01z" fill="#fff"/></svg>