<svg width="132" height="45" fill="none" xmlns="http://www.w3.org/2000/svg"><path d="M9.76 34.257V11h6.875c5.816 0 10.534 5.202 10.534 11.634 0 6.431-4.718 11.633-10.534 11.633H9.76v-.01zm6.875 7.672c8.982 0 16.533-6.14 18.68-14.447L57.15 44.54l21.825-17.046V41.93h24.9v-7.672h-16.14V3.329h-8.77v14.436l-20.938 16.35-4.678-3.659 10.021-7.832 10.908-8.529-6.23-4.869L47.12 25.577l-4.678-3.66L63.38 5.568 57.15.697 35.315 17.755c-2.157-8.306-9.698-14.446-18.68-14.446H.989v38.6h15.646v.02zm115.124-7.672v7.672h-24.9v-38.6h8.77v30.928h16.13z" fill="#fff"/></svg>