<svg width="187" height="47" fill="none" xmlns="http://www.w3.org/2000/svg"><path d="M145.05 20.773c-.565 3.77-3.377 3.77-6.099 3.77h-1.553l1.089-7.026a.866.866 0 01.847-.736h.706c1.854 0 3.599 0 4.506 1.079.544.645.705 1.602.494 2.923m-1.18-9.819h-10.262c-.706 0-1.301.524-1.411 1.23l-4.154 26.896a.868.868 0 00.847 1.008h5.262c.494 0 .908-.363.988-.857l1.18-7.621a1.438 1.438 0 011.411-1.23h3.246c6.764 0 10.666-3.347 11.684-9.97.464-2.903.02-5.172-1.311-6.764-1.461-1.754-4.052-2.682-7.48-2.682m-72.018 9.799c-.564 3.77-3.377 3.77-6.099 3.77h-1.552l1.089-7.026a.865.865 0 01.846-.736h.706c1.855 0 3.599 0 4.506 1.079.545.645.706 1.602.494 2.923m-1.18-9.819H60.39c-.705 0-1.3.524-1.41 1.23L54.825 39.09a.867.867 0 00.846 1.008h4.9c.706 0 1.3-.524 1.411-1.23l1.12-7.258c.11-.706.705-1.23 1.41-1.23h3.247c6.764 0 10.665-3.347 11.683-9.97.464-2.903.02-5.172-1.31-6.764-1.462-1.754-4.053-2.682-7.48-2.682zM94.484 30.43c-.474 2.873-2.701 4.799-5.544 4.799-1.422 0-2.57-.464-3.297-1.35-.725-.878-.998-2.138-.766-3.53.444-2.842 2.702-4.828 5.504-4.828 1.402 0 2.53.474 3.277 1.371.756.897 1.048 2.167.836 3.549m6.845-9.779h-4.92a.865.865 0 00-.846.736l-.212 1.401-.342-.504c-1.069-1.583-3.438-2.107-5.807-2.107-5.434 0-10.07 4.204-10.968 10.101-.474 2.944.202 5.756 1.835 7.712 1.502 1.805 3.639 2.55 6.19 2.55 4.374 0 6.804-2.872 6.804-2.872l-.222 1.4a.867.867 0 00.847 1.009h4.426c.705 0 1.3-.524 1.41-1.23l2.662-17.198a.867.867 0 00-.847-1.008m66.342 9.778c-.473 2.873-2.701 4.799-5.544 4.799-1.422 0-2.571-.464-3.297-1.35-.725-.878-.998-2.138-.766-3.53.444-2.842 2.712-4.828 5.504-4.828 1.402 0 2.531.474 3.277 1.371.756.897 1.048 2.167.836 3.549m6.845-9.779h-4.919a.865.865 0 00-.847.736l-.212 1.401-.342-.504c-1.069-1.583-3.438-2.107-5.807-2.107-5.434 0-10.071 4.204-10.968 10.101-.474 2.944.202 5.756 1.835 7.712 1.502 1.805 3.639 2.55 6.189 2.55 4.376 0 6.805-2.872 6.805-2.872l-.222 1.4a.868.868 0 00.847 1.009h4.426c.705 0 1.3-.524 1.411-1.23l2.661-17.198a.867.867 0 00-.847-1.008m-47.047 0h-4.94c-.474 0-.917.242-1.179.635l-6.815 10.253-2.883-9.86a1.434 1.434 0 00-1.371-1.038h-4.859c-.585 0-.998.585-.807 1.16l5.444 16.32-5.121 7.38c-.403.574 0 1.38.695 1.38h4.94c.474 0 .907-.231 1.17-.624l16.431-24.235c.394-.584-.01-1.37-.705-1.37zm52.824-8.962l-4.214 27.39a.868.868 0 00.847 1.008h4.234c.706 0 1.3-.524 1.411-1.23l4.154-26.896a.868.868 0 00-.847-1.008h-4.738a.865.865 0 00-.847.736zM18.1 27.295h-4a1.05 1.05 0 00-1.029.897s-2.55 16.412-2.701 17.49c-.101.656.463 1.19 1.048 1.19h6.351c.867 0 1.603-.645 1.744-1.522l1.543-9.819a1.775 1.775 0 011.744-1.522h1.098c7.097 0 12.652-2.944 14.275-11.472.675-3.558.464-7.52-2.601-9.607-.998 5.665-4.113 14.345-17.46 14.345" fill="#fff"/><path d="M14.099 25.32h4.133c2.188 0 4.143-.253 5.877-.757 4.375-1.28 7.309-4.193 8.79-8.81 1.856-5.817 1.029-9.265-1.078-11.654C29.684 1.69 25.934.611 21.085.611H7.98c-.988 0-1.835.736-1.986 1.734L.127 40.33c-.111.746.453 1.431 1.19 1.431h7.721s2.077-13.327 2.137-13.72c.202-1.3.998-2.712 2.934-2.712" fill="#fff"/></svg>