<svg width="130" height="39" fill="none" xmlns="http://www.w3.org/2000/svg"><path d="M31.626 26.997V17.56L.647 1.099v21.523h19.114c.806 0 1.462.615 1.462 1.36v1.12c0 .745-.656 1.36-1.462 1.36H.647V38.51h39.366V27.007h-8.377l-.01-.01zM29.873 1.613v11.815l9.889 5.181V1.614h-9.89zm73.5 16.009l8.468-4.436V1.38h-9.89v15.111L82.334.927V38.53h9.647l-.02-14.557c0-.756.656-1.36 1.462-1.36h1.17c.806 0 1.461.615 1.461 1.36l.03 14.557h33.62l-26.341-20.908h.01zm-29.266 8.78v-8.841L43.12 1.099V22.61h19.123c.807 0 1.462.616 1.462 1.361v1.12c0 .745-.655 1.36-1.462 1.36H43.12V38.51l36.08.05V26.464l-5.092-.05v-.011z" fill="#fff"/></svg>