<svg width="453" height="178" fill="none" xmlns="http://www.w3.org/2000/svg"><mask id="mask0_664_343" style="mask-type:alpha" maskUnits="userSpaceOnUse" x="0" y="0" width="406" height="157"><path d="M0 127.021V101.78L63.135 2.073h21.71V37.01h-12.85l-39.8 63.14v1.185h89.718v25.685H0zm72.586 26.648v-34.346l.591-11.177V2.073h29.98v151.596h-30.57zM202.511 157c-12.701-.049-23.63-3.183-32.786-9.401-9.107-6.218-16.122-15.224-21.045-27.018-4.873-11.794-7.285-25.981-7.236-42.562 0-16.532 2.437-30.62 7.31-42.267 4.923-11.646 11.938-20.504 21.045-26.573C178.955 3.059 189.859 0 202.511 0c12.651 0 23.531 3.06 32.638 9.179 9.156 6.119 16.196 15.001 21.119 26.648 4.922 11.596 7.359 25.66 7.31 42.192 0 16.63-2.462 30.842-7.384 42.636-4.874 11.794-11.864 20.8-20.971 27.018S215.212 157 202.511 157zm0-26.574c8.664 0 15.58-4.367 20.749-13.102 5.169-8.734 7.729-21.836 7.68-39.305 0-11.498-1.182-21.072-3.545-28.72-2.313-7.65-5.612-13.398-9.894-17.248-4.234-3.849-9.231-5.773-14.99-5.773-8.615 0-15.507 4.318-20.676 12.953-5.169 8.636-7.778 21.566-7.827 38.788 0 11.646 1.157 21.367 3.47 29.164 2.363 7.748 5.686 13.571 9.969 17.47 4.283 3.849 9.304 5.773 15.064 5.773zm81.576-3.405V101.78l63.135-99.707h21.709V37.01h-12.848l-39.801 63.14v1.185H406v25.685H284.087zm72.587 26.648v-34.346l.59-11.177V2.073h29.98v151.596h-30.57z" fill="#2862FF"/></mask><g mask="url(#mask0_664_343)"><path fill="#56EBFF" d="M0 124.6h406V157H0z"/></g><mask id="mask1_664_343" style="mask-type:alpha" maskUnits="userSpaceOnUse" x="0" y="0" width="406" height="157"><path d="M0 127.021V101.78L63.135 2.073h21.71V37.01h-12.85l-39.8 63.14v1.185h89.718v25.685H0zm72.586 26.648v-34.346l.591-11.177V2.073h29.98v151.596h-30.57zM202.511 157c-12.701-.049-23.63-3.183-32.786-9.401-9.107-6.218-16.122-15.224-21.045-27.018-4.873-11.794-7.285-25.981-7.236-42.562 0-16.532 2.437-30.62 7.31-42.267 4.923-11.646 11.938-20.504 21.045-26.573C178.955 3.059 189.859 0 202.511 0c12.651 0 23.531 3.06 32.638 9.179 9.156 6.119 16.196 15.001 21.119 26.648 4.922 11.596 7.359 25.66 7.31 42.192 0 16.63-2.462 30.842-7.384 42.636-4.874 11.794-11.864 20.8-20.971 27.018S215.212 157 202.511 157zm0-26.574c8.664 0 15.58-4.367 20.749-13.102 5.169-8.734 7.729-21.836 7.68-39.305 0-11.498-1.182-21.072-3.545-28.72-2.313-7.65-5.611-13.398-9.894-17.248-4.234-3.849-9.231-5.773-14.99-5.773-8.615 0-15.507 4.318-20.676 12.953-5.169 8.636-7.778 21.566-7.827 38.788 0 11.646 1.157 21.367 3.47 29.164 2.363 7.748 5.686 13.571 9.969 17.47 4.283 3.849 9.304 5.773 15.064 5.773zm81.576-3.405V101.78l63.135-99.707h21.709V37.01h-12.848l-39.801 63.14v1.185H406v25.685H284.087zm72.587 26.648v-34.346l.591-11.177V2.073h29.979v151.596h-30.57z" fill="#2862FF"/></mask><g mask="url(#mask1_664_343)"><path fill="#56EBFF" d="M0 93.4h406v31.4H0z"/></g><mask id="mask2_664_343" style="mask-type:alpha" maskUnits="userSpaceOnUse" x="0" y="0" width="406" height="157"><path d="M0 127.021V101.78L63.135 2.073h21.71V37.01h-12.85l-39.8 63.14v1.185h89.718v25.685H0zm72.586 26.648v-34.346l.591-11.177V2.073h29.98v151.596h-30.57zM202.511 157c-12.701-.049-23.63-3.183-32.786-9.401-9.107-6.218-16.122-15.224-21.045-27.018-4.873-11.794-7.285-25.981-7.236-42.562 0-16.532 2.437-30.62 7.31-42.267 4.923-11.646 11.938-20.504 21.045-26.573C178.955 3.059 189.859 0 202.511 0c12.651 0 23.531 3.06 32.638 9.179 9.156 6.119 16.196 15.001 21.119 26.648 4.922 11.596 7.359 25.66 7.31 42.192 0 16.63-2.462 30.842-7.384 42.636-4.874 11.794-11.864 20.8-20.971 27.018S215.212 157 202.511 157zm0-26.574c8.664 0 15.58-4.367 20.749-13.102 5.169-8.734 7.729-21.836 7.68-39.305 0-11.498-1.182-21.072-3.545-28.72-2.313-7.65-5.611-13.398-9.894-17.248-4.234-3.849-9.231-5.773-14.99-5.773-8.615 0-15.507 4.318-20.676 12.953-5.169 8.636-7.778 21.566-7.827 38.788 0 11.646 1.157 21.367 3.47 29.164 2.363 7.748 5.686 13.571 9.969 17.47 4.283 3.849 9.304 5.773 15.064 5.773zm81.576-3.405V101.78l63.135-99.707h21.709V37.01h-12.848l-39.801 63.14v1.185H406v25.685H284.087zm72.587 26.648v-34.346l.591-11.177V2.073h29.979v151.596h-30.57z" fill="#2862FF"/></mask><g mask="url(#mask2_664_343)"><path fill="#56EBFF" d="M0 62h406v31.4H0z"/></g><mask id="mask3_664_343" style="mask-type:alpha" maskUnits="userSpaceOnUse" x="0" y="0" width="406" height="157"><path d="M0 127.021V101.78L63.135 2.073h21.71V37.01h-12.85l-39.8 63.14v1.185h89.718v25.685H0zm72.586 26.648v-34.346l.591-11.177V2.073h29.98v151.596h-30.57zM202.511 157c-12.701-.049-23.63-3.183-32.786-9.401-9.107-6.218-16.122-15.224-21.045-27.018-4.873-11.794-7.285-25.981-7.236-42.562 0-16.532 2.437-30.62 7.31-42.267 4.923-11.646 11.938-20.504 21.045-26.573C178.955 3.059 189.859 0 202.511 0c12.651 0 23.531 3.06 32.638 9.179 9.156 6.119 16.196 15.001 21.119 26.648 4.922 11.596 7.359 25.66 7.31 42.192 0 16.63-2.462 30.842-7.384 42.636-4.874 11.794-11.864 20.8-20.971 27.018S215.212 157 202.511 157zm0-26.574c8.664 0 15.58-4.367 20.749-13.102 5.169-8.734 7.729-21.836 7.68-39.305 0-11.498-1.182-21.072-3.545-28.72-2.313-7.65-5.611-13.398-9.894-17.248-4.234-3.849-9.231-5.773-14.99-5.773-8.615 0-15.507 4.318-20.676 12.953-5.169 8.636-7.778 21.566-7.827 38.788 0 11.646 1.157 21.367 3.47 29.164 2.363 7.748 5.686 13.571 9.969 17.47 4.283 3.849 9.304 5.773 15.064 5.773zm81.576-3.405V101.78l63.135-99.707h21.709V37.01h-12.848l-39.801 63.14v1.185H406v25.685H284.087zm72.587 26.648v-34.346l.591-11.177V2.073h29.979v151.596h-30.57z" fill="#2862FF"/></mask><g mask="url(#mask3_664_343)"><path fill="#56EBFF" d="M0 30.6h406V62H0z"/></g><mask id="mask4_664_343" style="mask-type:alpha" maskUnits="userSpaceOnUse" x="0" y="0" width="406" height="157"><path d="M0 127.021V101.78L63.135 2.073h21.71V37.01h-12.85l-39.8 63.14v1.185h89.718v25.685H0zm72.586 26.648v-34.346l.591-11.177V2.073h29.98v151.596h-30.57zM202.511 157c-12.701-.049-23.63-3.183-32.786-9.401-9.107-6.218-16.122-15.224-21.045-27.018-4.873-11.794-7.285-25.981-7.236-42.562 0-16.532 2.437-30.62 7.31-42.267 4.923-11.646 11.938-20.504 21.045-26.573C178.955 3.059 189.859 0 202.511 0c12.651 0 23.531 3.06 32.638 9.179 9.156 6.119 16.196 15.001 21.119 26.648 4.922 11.596 7.359 25.66 7.31 42.192 0 16.63-2.462 30.842-7.384 42.636-4.874 11.794-11.864 20.8-20.971 27.018S215.212 157 202.511 157zm0-26.574c8.664 0 15.58-4.367 20.749-13.102 5.169-8.734 7.729-21.836 7.68-39.305 0-11.498-1.182-21.072-3.545-28.72-2.313-7.65-5.611-13.398-9.894-17.248-4.234-3.849-9.231-5.773-14.99-5.773-8.615 0-15.507 4.318-20.676 12.953-5.169 8.636-7.778 21.566-7.827 38.788 0 11.646 1.157 21.367 3.47 29.164 2.363 7.748 5.686 13.571 9.969 17.47 4.283 3.849 9.304 5.773 15.064 5.773zm81.576-3.405V101.78l63.135-99.707h21.709V37.01h-12.848l-39.801 63.14v1.185H406v25.685H284.087zm72.587 26.648v-34.346l.591-11.177V2.073h29.979v151.596h-30.57z" fill="#2862FF"/></mask><g mask="url(#mask4_664_343)"><path fill="#56EBFF" d="M0 0h406v31.4H0z"/></g><mask id="mask5_664_343" style="mask-type:alpha" maskUnits="userSpaceOnUse" x="4" y="0" width="406" height="157"><path d="M4 127.021V101.78L67.135 2.073h21.71V37.01h-12.85l-39.8 63.14v1.185h89.718v25.685H4zm72.586 26.648v-34.346l.591-11.177V2.073h29.98v151.596h-30.57zM206.511 157c-12.701-.049-23.63-3.183-32.786-9.401-9.107-6.218-16.122-15.224-21.045-27.018-4.873-11.794-7.285-25.981-7.236-42.562 0-16.532 2.437-30.62 7.31-42.267 4.923-11.646 11.938-20.504 21.045-26.573C182.955 3.059 193.859 0 206.511 0c12.651 0 23.531 3.06 32.638 9.179 9.156 6.119 16.196 15.001 21.119 26.648 4.922 11.596 7.359 25.66 7.31 42.192 0 16.63-2.462 30.842-7.384 42.636-4.874 11.794-11.864 20.8-20.971 27.018S219.212 157 206.511 157zm0-26.574c8.664 0 15.58-4.367 20.749-13.102 5.169-8.734 7.729-21.836 7.68-39.305 0-11.498-1.182-21.072-3.545-28.72-2.313-7.65-5.612-13.398-9.894-17.248-4.234-3.849-9.231-5.773-14.99-5.773-8.615 0-15.507 4.318-20.676 12.953-5.169 8.636-7.778 21.566-7.827 38.788 0 11.646 1.157 21.367 3.47 29.164 2.363 7.748 5.686 13.571 9.969 17.47 4.283 3.849 9.304 5.773 15.064 5.773zm81.576-3.405V101.78l63.135-99.707h21.709V37.01h-12.848l-39.801 63.14v1.185H410v25.685H288.087zm72.587 26.648v-34.346l.59-11.177V2.073h29.98v151.596h-30.57z" fill="#2862FF"/></mask><g mask="url(#mask5_664_343)"><path fill="#E72A84" d="M4 124.6h406V157H4z"/></g><mask id="mask6_664_343" style="mask-type:alpha" maskUnits="userSpaceOnUse" x="4" y="0" width="406" height="157"><path d="M4 127.021V101.78L67.135 2.073h21.71V37.01h-12.85l-39.8 63.14v1.185h89.718v25.685H4zm72.586 26.648v-34.346l.591-11.177V2.073h29.98v151.596h-30.57zM206.511 157c-12.701-.049-23.63-3.183-32.786-9.401-9.107-6.218-16.122-15.224-21.045-27.018-4.873-11.794-7.285-25.981-7.236-42.562 0-16.532 2.437-30.62 7.31-42.267 4.923-11.646 11.938-20.504 21.045-26.573C182.955 3.059 193.859 0 206.511 0c12.651 0 23.531 3.06 32.638 9.179 9.156 6.119 16.196 15.001 21.119 26.648 4.922 11.596 7.359 25.66 7.31 42.192 0 16.63-2.462 30.842-7.384 42.636-4.874 11.794-11.864 20.8-20.971 27.018S219.212 157 206.511 157zm0-26.574c8.664 0 15.58-4.367 20.749-13.102 5.169-8.734 7.729-21.836 7.68-39.305 0-11.498-1.182-21.072-3.545-28.72-2.313-7.65-5.611-13.398-9.894-17.248-4.234-3.849-9.231-5.773-14.99-5.773-8.615 0-15.507 4.318-20.676 12.953-5.169 8.636-7.778 21.566-7.827 38.788 0 11.646 1.157 21.367 3.47 29.164 2.363 7.748 5.686 13.571 9.969 17.47 4.283 3.849 9.304 5.773 15.064 5.773zm81.576-3.405V101.78l63.135-99.707h21.709V37.01h-12.848l-39.801 63.14v1.185H410v25.685H288.087zm72.587 26.648v-34.346l.591-11.177V2.073h29.979v151.596h-30.57z" fill="#2862FF"/></mask><g mask="url(#mask6_664_343)"><path fill="#E72A84" d="M4 93.4h406v31.4H4z"/></g><mask id="mask7_664_343" style="mask-type:alpha" maskUnits="userSpaceOnUse" x="4" y="0" width="406" height="157"><path d="M4 127.021V101.78L67.135 2.073h21.71V37.01h-12.85l-39.8 63.14v1.185h89.718v25.685H4zm72.586 26.648v-34.346l.591-11.177V2.073h29.98v151.596h-30.57zM206.511 157c-12.701-.049-23.63-3.183-32.786-9.401-9.107-6.218-16.122-15.224-21.045-27.018-4.873-11.794-7.285-25.981-7.236-42.562 0-16.532 2.437-30.62 7.31-42.267 4.923-11.646 11.938-20.504 21.045-26.573C182.955 3.059 193.859 0 206.511 0c12.651 0 23.531 3.06 32.638 9.179 9.156 6.119 16.196 15.001 21.119 26.648 4.922 11.596 7.359 25.66 7.31 42.192 0 16.63-2.462 30.842-7.384 42.636-4.874 11.794-11.864 20.8-20.971 27.018S219.212 157 206.511 157zm0-26.574c8.664 0 15.58-4.367 20.749-13.102 5.169-8.734 7.729-21.836 7.68-39.305 0-11.498-1.182-21.072-3.545-28.72-2.313-7.65-5.611-13.398-9.894-17.248-4.234-3.849-9.231-5.773-14.99-5.773-8.615 0-15.507 4.318-20.676 12.953-5.169 8.636-7.778 21.566-7.827 38.788 0 11.646 1.157 21.367 3.47 29.164 2.363 7.748 5.686 13.571 9.969 17.47 4.283 3.849 9.304 5.773 15.064 5.773zm81.576-3.405V101.78l63.135-99.707h21.709V37.01h-12.848l-39.801 63.14v1.185H410v25.685H288.087zm72.587 26.648v-34.346l.591-11.177V2.073h29.979v151.596h-30.57z" fill="#2862FF"/></mask><g mask="url(#mask7_664_343)"><path fill="#E72A84" d="M4 62h406v31.4H4z"/></g><mask id="mask8_664_343" style="mask-type:alpha" maskUnits="userSpaceOnUse" x="4" y="0" width="406" height="157"><path d="M4 127.021V101.78L67.135 2.073h21.71V37.01h-12.85l-39.8 63.14v1.185h89.718v25.685H4zm72.586 26.648v-34.346l.591-11.177V2.073h29.98v151.596h-30.57zM206.511 157c-12.701-.049-23.63-3.183-32.786-9.401-9.107-6.218-16.122-15.224-21.045-27.018-4.873-11.794-7.285-25.981-7.236-42.562 0-16.532 2.437-30.62 7.31-42.267 4.923-11.646 11.938-20.504 21.045-26.573C182.955 3.059 193.859 0 206.511 0c12.651 0 23.531 3.06 32.638 9.179 9.156 6.119 16.196 15.001 21.119 26.648 4.922 11.596 7.359 25.66 7.31 42.192 0 16.63-2.462 30.842-7.384 42.636-4.874 11.794-11.864 20.8-20.971 27.018S219.212 157 206.511 157zm0-26.574c8.664 0 15.58-4.367 20.749-13.102 5.169-8.734 7.729-21.836 7.68-39.305 0-11.498-1.182-21.072-3.545-28.72-2.313-7.65-5.611-13.398-9.894-17.248-4.234-3.849-9.231-5.773-14.99-5.773-8.615 0-15.507 4.318-20.676 12.953-5.169 8.636-7.778 21.566-7.827 38.788 0 11.646 1.157 21.367 3.47 29.164 2.363 7.748 5.686 13.571 9.969 17.47 4.283 3.849 9.304 5.773 15.064 5.773zm81.576-3.405V101.78l63.135-99.707h21.709V37.01h-12.848l-39.801 63.14v1.185H410v25.685H288.087zm72.587 26.648v-34.346l.591-11.177V2.073h29.979v151.596h-30.57z" fill="#2862FF"/></mask><g mask="url(#mask8_664_343)"><path fill="#E72A84" d="M4 30.6h406V62H4z"/></g><mask id="mask9_664_343" style="mask-type:alpha" maskUnits="userSpaceOnUse" x="4" y="0" width="406" height="157"><path d="M4 127.021V101.78L67.135 2.073h21.71V37.01h-12.85l-39.8 63.14v1.185h89.718v25.685H4zm72.586 26.648v-34.346l.591-11.177V2.073h29.98v151.596h-30.57zM206.511 157c-12.701-.049-23.63-3.183-32.786-9.401-9.107-6.218-16.122-15.224-21.045-27.018-4.873-11.794-7.285-25.981-7.236-42.562 0-16.532 2.437-30.62 7.31-42.267 4.923-11.646 11.938-20.504 21.045-26.573C182.955 3.059 193.859 0 206.511 0c12.651 0 23.531 3.06 32.638 9.179 9.156 6.119 16.196 15.001 21.119 26.648 4.922 11.596 7.359 25.66 7.31 42.192 0 16.63-2.462 30.842-7.384 42.636-4.874 11.794-11.864 20.8-20.971 27.018S219.212 157 206.511 157zm0-26.574c8.664 0 15.58-4.367 20.749-13.102 5.169-8.734 7.729-21.836 7.68-39.305 0-11.498-1.182-21.072-3.545-28.72-2.313-7.65-5.611-13.398-9.894-17.248-4.234-3.849-9.231-5.773-14.99-5.773-8.615 0-15.507 4.318-20.676 12.953-5.169 8.636-7.778 21.566-7.827 38.788 0 11.646 1.157 21.367 3.47 29.164 2.363 7.748 5.686 13.571 9.969 17.47 4.283 3.849 9.304 5.773 15.064 5.773zm81.576-3.405V101.78l63.135-99.707h21.709V37.01h-12.848l-39.801 63.14v1.185H410v25.685H288.087zm72.587 26.648v-34.346l.591-11.177V2.073h29.979v151.596h-30.57z" fill="#2862FF"/></mask><g mask="url(#mask9_664_343)"><path fill="#E72A84" d="M4 0h406v31.4H4z"/></g><mask id="mask10_664_343" style="mask-type:alpha" maskUnits="userSpaceOnUse" x="2" y="0" width="406" height="157"><path d="M2 127.021V101.78L65.135 2.073h21.71V37.01h-12.85l-39.8 63.14v1.185h89.718v25.685H2zm72.586 26.648v-34.346l.591-11.177V2.073h29.98v151.596h-30.57zM204.511 157c-12.701-.049-23.63-3.183-32.786-9.401-9.107-6.218-16.122-15.224-21.045-27.018-4.873-11.794-7.285-25.981-7.236-42.562 0-16.532 2.437-30.62 7.31-42.267 4.923-11.646 11.938-20.504 21.045-26.573C180.955 3.059 191.859 0 204.511 0c12.651 0 23.531 3.06 32.638 9.179 9.156 6.119 16.196 15.001 21.119 26.648 4.922 11.596 7.359 25.66 7.31 42.192 0 16.63-2.462 30.842-7.384 42.636-4.874 11.794-11.864 20.8-20.971 27.018S217.212 157 204.511 157zm0-26.574c8.664 0 15.58-4.367 20.749-13.102 5.169-8.734 7.729-21.836 7.68-39.305 0-11.498-1.182-21.072-3.545-28.72-2.313-7.65-5.612-13.398-9.894-17.248-4.234-3.849-9.231-5.773-14.99-5.773-8.615 0-15.507 4.318-20.676 12.953-5.169 8.636-7.778 21.566-7.827 38.788 0 11.646 1.157 21.367 3.47 29.164 2.363 7.748 5.686 13.571 9.969 17.47 4.283 3.849 9.304 5.773 15.064 5.773zm81.576-3.405V101.78l63.135-99.707h21.709V37.01h-12.848l-39.801 63.14v1.185H408v25.685H286.087zm72.587 26.648v-34.346l.59-11.177V2.073h29.98v151.596h-30.57z" fill="#2862FF"/></mask><g mask="url(#mask10_664_343)"><path fill="#000" d="M2 124.6h406V157H2z"/></g><mask id="mask11_664_343" style="mask-type:alpha" maskUnits="userSpaceOnUse" x="2" y="0" width="406" height="157"><path d="M2 127.021V101.78L65.135 2.073h21.71V37.01h-12.85l-39.8 63.14v1.185h89.718v25.685H2zm72.586 26.648v-34.346l.591-11.177V2.073h29.98v151.596h-30.57zM204.511 157c-12.701-.049-23.63-3.183-32.786-9.401-9.107-6.218-16.122-15.224-21.045-27.018-4.873-11.794-7.285-25.981-7.236-42.562 0-16.532 2.437-30.62 7.31-42.267 4.923-11.646 11.938-20.504 21.045-26.573C180.955 3.059 191.859 0 204.511 0c12.651 0 23.531 3.06 32.638 9.179 9.156 6.119 16.196 15.001 21.119 26.648 4.922 11.596 7.359 25.66 7.31 42.192 0 16.63-2.462 30.842-7.384 42.636-4.874 11.794-11.864 20.8-20.971 27.018S217.212 157 204.511 157zm0-26.574c8.664 0 15.58-4.367 20.749-13.102 5.169-8.734 7.729-21.836 7.68-39.305 0-11.498-1.182-21.072-3.545-28.72-2.313-7.65-5.611-13.398-9.894-17.248-4.234-3.849-9.231-5.773-14.99-5.773-8.615 0-15.507 4.318-20.676 12.953-5.169 8.636-7.778 21.566-7.827 38.788 0 11.646 1.157 21.367 3.47 29.164 2.363 7.748 5.686 13.571 9.969 17.47 4.283 3.849 9.304 5.773 15.064 5.773zm81.576-3.405V101.78l63.135-99.707h21.709V37.01h-12.848l-39.801 63.14v1.185H408v25.685H286.087zm72.587 26.648v-34.346l.591-11.177V2.073h29.979v151.596h-30.57z" fill="#2862FF"/></mask><g mask="url(#mask11_664_343)"><path fill="#000" d="M2 93.4h406v31.4H2z"/></g><mask id="mask12_664_343" style="mask-type:alpha" maskUnits="userSpaceOnUse" x="2" y="0" width="406" height="157"><path d="M2 127.021V101.78L65.135 2.073h21.71V37.01h-12.85l-39.8 63.14v1.185h89.718v25.685H2zm72.586 26.648v-34.346l.591-11.177V2.073h29.98v151.596h-30.57zM204.511 157c-12.701-.049-23.63-3.183-32.786-9.401-9.107-6.218-16.122-15.224-21.045-27.018-4.873-11.794-7.285-25.981-7.236-42.562 0-16.532 2.437-30.62 7.31-42.267 4.923-11.646 11.938-20.504 21.045-26.573C180.955 3.059 191.859 0 204.511 0c12.651 0 23.531 3.06 32.638 9.179 9.156 6.119 16.196 15.001 21.119 26.648 4.922 11.596 7.359 25.66 7.31 42.192 0 16.63-2.462 30.842-7.384 42.636-4.874 11.794-11.864 20.8-20.971 27.018S217.212 157 204.511 157zm0-26.574c8.664 0 15.58-4.367 20.749-13.102 5.169-8.734 7.729-21.836 7.68-39.305 0-11.498-1.182-21.072-3.545-28.72-2.313-7.65-5.611-13.398-9.894-17.248-4.234-3.849-9.231-5.773-14.99-5.773-8.615 0-15.507 4.318-20.676 12.953-5.169 8.636-7.778 21.566-7.827 38.788 0 11.646 1.157 21.367 3.47 29.164 2.363 7.748 5.686 13.571 9.969 17.47 4.283 3.849 9.304 5.773 15.064 5.773zm81.576-3.405V101.78l63.135-99.707h21.709V37.01h-12.848l-39.801 63.14v1.185H408v25.685H286.087zm72.587 26.648v-34.346l.591-11.177V2.073h29.979v151.596h-30.57z" fill="#2862FF"/></mask><g mask="url(#mask12_664_343)"><path fill="#000" d="M2 62h406v31.4H2z"/></g><mask id="mask13_664_343" style="mask-type:alpha" maskUnits="userSpaceOnUse" x="2" y="0" width="406" height="157"><path d="M2 127.021V101.78L65.135 2.073h21.71V37.01h-12.85l-39.8 63.14v1.185h89.718v25.685H2zm72.586 26.648v-34.346l.591-11.177V2.073h29.98v151.596h-30.57zM204.511 157c-12.701-.049-23.63-3.183-32.786-9.401-9.107-6.218-16.122-15.224-21.045-27.018-4.873-11.794-7.285-25.981-7.236-42.562 0-16.532 2.437-30.62 7.31-42.267 4.923-11.646 11.938-20.504 21.045-26.573C180.955 3.059 191.859 0 204.511 0c12.651 0 23.531 3.06 32.638 9.179 9.156 6.119 16.196 15.001 21.119 26.648 4.922 11.596 7.359 25.66 7.31 42.192 0 16.63-2.462 30.842-7.384 42.636-4.874 11.794-11.864 20.8-20.971 27.018S217.212 157 204.511 157zm0-26.574c8.664 0 15.58-4.367 20.749-13.102 5.169-8.734 7.729-21.836 7.68-39.305 0-11.498-1.182-21.072-3.545-28.72-2.313-7.65-5.611-13.398-9.894-17.248-4.234-3.849-9.231-5.773-14.99-5.773-8.615 0-15.507 4.318-20.676 12.953-5.169 8.636-7.778 21.566-7.827 38.788 0 11.646 1.157 21.367 3.47 29.164 2.363 7.748 5.686 13.571 9.969 17.47 4.283 3.849 9.304 5.773 15.064 5.773zm81.576-3.405V101.78l63.135-99.707h21.709V37.01h-12.848l-39.801 63.14v1.185H408v25.685H286.087zm72.587 26.648v-34.346l.591-11.177V2.073h29.979v151.596h-30.57z" fill="#2862FF"/></mask><g mask="url(#mask13_664_343)"><path fill="#000" d="M2 30.6h406V62H2z"/></g><mask id="mask14_664_343" style="mask-type:alpha" maskUnits="userSpaceOnUse" x="2" y="0" width="406" height="157"><path d="M2 127.021V101.78L65.135 2.073h21.71V37.01h-12.85l-39.8 63.14v1.185h89.718v25.685H2zm72.586 26.648v-34.346l.591-11.177V2.073h29.98v151.596h-30.57zM204.511 157c-12.701-.049-23.63-3.183-32.786-9.401-9.107-6.218-16.122-15.224-21.045-27.018-4.873-11.794-7.285-25.981-7.236-42.562 0-16.532 2.437-30.62 7.31-42.267 4.923-11.646 11.938-20.504 21.045-26.573C180.955 3.059 191.859 0 204.511 0c12.651 0 23.531 3.06 32.638 9.179 9.156 6.119 16.196 15.001 21.119 26.648 4.922 11.596 7.359 25.66 7.31 42.192 0 16.63-2.462 30.842-7.384 42.636-4.874 11.794-11.864 20.8-20.971 27.018S217.212 157 204.511 157zm0-26.574c8.664 0 15.58-4.367 20.749-13.102 5.169-8.734 7.729-21.836 7.68-39.305 0-11.498-1.182-21.072-3.545-28.72-2.313-7.65-5.611-13.398-9.894-17.248-4.234-3.849-9.231-5.773-14.99-5.773-8.615 0-15.507 4.318-20.676 12.953-5.169 8.636-7.778 21.566-7.827 38.788 0 11.646 1.157 21.367 3.47 29.164 2.363 7.748 5.686 13.571 9.969 17.47 4.283 3.849 9.304 5.773 15.064 5.773zm81.576-3.405V101.78l63.135-99.707h21.709V37.01h-12.848l-39.801 63.14v1.185H408v25.685H286.087zm72.587 26.648v-34.346l.591-11.177V2.073h29.979v151.596h-30.57z" fill="#2862FF"/></mask><g mask="url(#mask14_664_343)"><path fill="#000" d="M2 0h406v31.4H2z"/></g></svg>