<svg width="453" height="178" fill="none" xmlns="http://www.w3.org/2000/svg"><mask id="mask0_664_345" style="mask-type:alpha" maskUnits="userSpaceOnUse" x="0" y="0" width="406" height="157"><path d="M0 127.021V101.78L63.135 2.073h21.71V37.01h-12.85l-39.8 63.14v1.185h89.718v25.685H0zm72.586 26.648v-34.346l.591-11.177V2.073h29.98v151.596h-30.57zM202.511 157c-12.701-.049-23.63-3.183-32.786-9.401-9.107-6.218-16.122-15.224-21.045-27.018-4.873-11.794-7.285-25.981-7.236-42.562 0-16.532 2.437-30.62 7.31-42.267 4.923-11.646 11.938-20.504 21.045-26.573C178.955 3.059 189.859 0 202.511 0c12.651 0 23.531 3.06 32.638 9.179 9.156 6.119 16.196 15.001 21.119 26.648 4.922 11.596 7.359 25.66 7.31 42.192 0 16.63-2.462 30.842-7.384 42.636-4.874 11.794-11.864 20.8-20.971 27.018S215.212 157 202.511 157zm0-26.574c8.664 0 15.58-4.367 20.749-13.102 5.169-8.734 7.729-21.836 7.68-39.305 0-11.498-1.182-21.072-3.545-28.72-2.313-7.65-5.612-13.398-9.894-17.248-4.234-3.849-9.231-5.773-14.99-5.773-8.615 0-15.507 4.318-20.676 12.953-5.169 8.636-7.778 21.566-7.827 38.788 0 11.646 1.157 21.367 3.47 29.164 2.363 7.748 5.686 13.571 9.969 17.47 4.283 3.849 9.304 5.773 15.064 5.773zm81.576-3.405V101.78l63.135-99.707h21.709V37.01h-12.848l-39.801 63.14v1.185H406v25.685H284.087zm72.587 26.648v-34.346l.59-11.177V2.073h29.98v151.596h-30.57z" fill="#2862FF"/></mask><g mask="url(#mask0_664_345)"><path fill="#56EBFF" d="M0 124.6h406V157H0z"/></g><mask id="mask1_664_345" style="mask-type:alpha" maskUnits="userSpaceOnUse" x="39" y="0" width="406" height="157"><path d="M39 127.021V101.78l63.135-99.707h21.709V37.01h-12.848l-39.801 63.14v1.185h89.718v25.685H39zm72.586 26.648v-34.346l.591-11.177V2.073h29.98v151.596h-30.571zM241.511 157c-12.701-.049-23.63-3.183-32.786-9.401-9.107-6.218-16.122-15.224-21.045-27.018-4.873-11.794-7.285-25.981-7.236-42.562 0-16.532 2.437-30.62 7.31-42.267 4.923-11.646 11.938-20.504 21.045-26.573C217.955 3.059 228.859 0 241.511 0c12.651 0 23.531 3.06 32.638 9.179 9.156 6.119 16.196 15.001 21.119 26.648 4.922 11.596 7.359 25.66 7.31 42.192 0 16.63-2.462 30.842-7.384 42.636-4.874 11.794-11.864 20.8-20.971 27.018S254.212 157 241.511 157zm0-26.574c8.664 0 15.58-4.367 20.749-13.102 5.169-8.734 7.729-21.836 7.68-39.305 0-11.498-1.182-21.072-3.545-28.72-2.313-7.65-5.611-13.398-9.894-17.248-4.234-3.849-9.231-5.773-14.99-5.773-8.615 0-15.507 4.318-20.676 12.953-5.169 8.636-7.778 21.566-7.827 38.788 0 11.646 1.157 21.367 3.47 29.164 2.363 7.748 5.686 13.571 9.969 17.47 4.283 3.849 9.304 5.773 15.064 5.773zm81.576-3.405V101.78l63.135-99.707h21.709V37.01h-12.848l-39.801 63.14v1.185H445v25.685H323.087zm72.587 26.648v-34.346l.591-11.177V2.073h29.979v151.596h-30.57z" fill="#2862FF"/></mask><g mask="url(#mask1_664_345)"><path fill="#56EBFF" d="M39 93.4h406v31.4H39z"/></g><mask id="mask2_664_345" style="mask-type:alpha" maskUnits="userSpaceOnUse" x="17" y="0" width="406" height="157"><path d="M17 127.021V101.78L80.135 2.073h21.709V37.01H88.996l-39.801 63.14v1.185h89.718v25.685H17zm72.586 26.648v-34.346l.591-11.177V2.073h29.98v151.596h-30.57zM219.511 157c-12.701-.049-23.63-3.183-32.786-9.401-9.107-6.218-16.122-15.224-21.045-27.018-4.873-11.794-7.285-25.981-7.236-42.562 0-16.532 2.437-30.62 7.31-42.267 4.923-11.646 11.938-20.504 21.045-26.573C195.955 3.059 206.859 0 219.511 0c12.651 0 23.531 3.06 32.638 9.179 9.156 6.119 16.196 15.001 21.119 26.648 4.922 11.596 7.359 25.66 7.31 42.192 0 16.63-2.462 30.842-7.384 42.636-4.874 11.794-11.864 20.8-20.971 27.018S232.212 157 219.511 157zm0-26.574c8.664 0 15.58-4.367 20.749-13.102 5.169-8.734 7.729-21.836 7.68-39.305 0-11.498-1.182-21.072-3.545-28.72-2.313-7.65-5.611-13.398-9.894-17.248-4.234-3.849-9.231-5.773-14.99-5.773-8.615 0-15.507 4.318-20.676 12.953-5.169 8.636-7.778 21.566-7.827 38.788 0 11.646 1.157 21.367 3.47 29.164 2.363 7.748 5.686 13.571 9.969 17.47 4.283 3.849 9.304 5.773 15.064 5.773zm81.576-3.405V101.78l63.135-99.707h21.709V37.01h-12.848l-39.801 63.14v1.185H423v25.685H301.087zm72.587 26.648v-34.346l.591-11.177V2.073h29.979v151.596h-30.57z" fill="#2862FF"/></mask><g mask="url(#mask2_664_345)"><path fill="#56EBFF" d="M17 62h406v31.4H17z"/></g><mask id="mask3_664_345" style="mask-type:alpha" maskUnits="userSpaceOnUse" x="10" y="0" width="406" height="157"><path d="M10 127.021V101.78L73.135 2.073h21.71V37.01h-12.85l-39.8 63.14v1.185h89.718v25.685H10zm72.586 26.648v-34.346l.591-11.177V2.073h29.98v151.596h-30.57zM212.511 157c-12.701-.049-23.63-3.183-32.786-9.401-9.107-6.218-16.122-15.224-21.045-27.018-4.873-11.794-7.285-25.981-7.236-42.562 0-16.532 2.437-30.62 7.31-42.267 4.923-11.646 11.938-20.504 21.045-26.573C188.955 3.059 199.859 0 212.511 0c12.651 0 23.531 3.06 32.638 9.179 9.156 6.119 16.196 15.001 21.119 26.648 4.922 11.596 7.359 25.66 7.31 42.192 0 16.63-2.462 30.842-7.384 42.636-4.874 11.794-11.864 20.8-20.971 27.018S225.212 157 212.511 157zm0-26.574c8.664 0 15.58-4.367 20.749-13.102 5.169-8.734 7.729-21.836 7.68-39.305 0-11.498-1.182-21.072-3.545-28.72-2.313-7.65-5.611-13.398-9.894-17.248-4.234-3.849-9.231-5.773-14.99-5.773-8.615 0-15.507 4.318-20.676 12.953-5.169 8.636-7.778 21.566-7.827 38.788 0 11.646 1.157 21.367 3.47 29.164 2.363 7.748 5.686 13.571 9.969 17.47 4.283 3.849 9.304 5.773 15.064 5.773zm81.576-3.405V101.78l63.135-99.707h21.709V37.01h-12.848l-39.801 63.14v1.185H416v25.685H294.087zm72.587 26.648v-34.346l.591-11.177V2.073h29.979v151.596h-30.57z" fill="#2862FF"/></mask><g mask="url(#mask3_664_345)"><path fill="#56EBFF" d="M10 30.6h406V62H10z"/></g><mask id="mask4_664_345" style="mask-type:alpha" maskUnits="userSpaceOnUse" x="19" y="0" width="406" height="157"><path d="M19 127.021V101.78L82.135 2.073h21.709V37.01H90.996l-39.801 63.14v1.185h89.718v25.685H19zm72.586 26.648v-34.346l.591-11.177V2.073h29.98v151.596h-30.57zM221.511 157c-12.701-.049-23.63-3.183-32.786-9.401-9.107-6.218-16.122-15.224-21.045-27.018-4.873-11.794-7.285-25.981-7.236-42.562 0-16.532 2.437-30.62 7.31-42.267 4.923-11.646 11.938-20.504 21.045-26.573C197.955 3.059 208.859 0 221.511 0c12.651 0 23.531 3.06 32.638 9.179 9.156 6.119 16.196 15.001 21.119 26.648 4.922 11.596 7.359 25.66 7.31 42.192 0 16.63-2.462 30.842-7.384 42.636-4.874 11.794-11.864 20.8-20.971 27.018S234.212 157 221.511 157zm0-26.574c8.664 0 15.58-4.367 20.749-13.102 5.169-8.734 7.729-21.836 7.68-39.305 0-11.498-1.182-21.072-3.545-28.72-2.313-7.65-5.611-13.398-9.894-17.248-4.234-3.849-9.231-5.773-14.99-5.773-8.615 0-15.507 4.318-20.676 12.953-5.169 8.636-7.778 21.566-7.827 38.788 0 11.646 1.157 21.367 3.47 29.164 2.363 7.748 5.686 13.571 9.969 17.47 4.283 3.849 9.304 5.773 15.064 5.773zm81.576-3.405V101.78l63.135-99.707h21.709V37.01h-12.848l-39.801 63.14v1.185H425v25.685H303.087zm72.587 26.648v-34.346l.591-11.177V2.073h29.979v151.596h-30.57z" fill="#2862FF"/></mask><g mask="url(#mask4_664_345)"><path fill="#56EBFF" d="M19 0h406v31.4H19z"/></g><mask id="mask5_664_345" style="mask-type:alpha" maskUnits="userSpaceOnUse" x="11" y="0" width="406" height="157"><path d="M11 127.021V101.78L74.135 2.073h21.71V37.01h-12.85l-39.8 63.14v1.185h89.718v25.685H11zm72.586 26.648v-34.346l.591-11.177V2.073h29.98v151.596h-30.57zM213.511 157c-12.701-.049-23.63-3.183-32.786-9.401-9.107-6.218-16.122-15.224-21.045-27.018-4.873-11.794-7.285-25.981-7.236-42.562 0-16.532 2.437-30.62 7.31-42.267 4.923-11.646 11.938-20.504 21.045-26.573C189.955 3.059 200.859 0 213.511 0c12.651 0 23.531 3.06 32.638 9.179 9.156 6.119 16.196 15.001 21.119 26.648 4.922 11.596 7.359 25.66 7.31 42.192 0 16.63-2.462 30.842-7.384 42.636-4.874 11.794-11.864 20.8-20.971 27.018S226.212 157 213.511 157zm0-26.574c8.664 0 15.58-4.367 20.749-13.102 5.169-8.734 7.729-21.836 7.68-39.305 0-11.498-1.182-21.072-3.545-28.72-2.313-7.65-5.612-13.398-9.894-17.248-4.234-3.849-9.231-5.773-14.99-5.773-8.615 0-15.507 4.318-20.676 12.953-5.169 8.636-7.778 21.566-7.827 38.788 0 11.646 1.157 21.367 3.47 29.164 2.363 7.748 5.686 13.571 9.969 17.47 4.283 3.849 9.304 5.773 15.064 5.773zm81.576-3.405V101.78l63.135-99.707h21.709V37.01h-12.848l-39.801 63.14v1.185H417v25.685H295.087zm72.587 26.648v-34.346l.59-11.177V2.073h29.98v151.596h-30.57z" fill="#2862FF"/></mask><g mask="url(#mask5_664_345)"><path fill="#E72A84" d="M11 124.6h406V157H11z"/></g><mask id="mask6_664_345" style="mask-type:alpha" maskUnits="userSpaceOnUse" x="27" y="0" width="406" height="157"><path d="M27 127.021V101.78L90.135 2.073h21.709V37.01H98.996l-39.801 63.14v1.185h89.718v25.685H27zm72.586 26.648v-34.346l.591-11.177V2.073h29.98v151.596h-30.57zM229.511 157c-12.701-.049-23.63-3.183-32.786-9.401-9.107-6.218-16.122-15.224-21.045-27.018-4.873-11.794-7.285-25.981-7.236-42.562 0-16.532 2.437-30.62 7.31-42.267 4.923-11.646 11.938-20.504 21.045-26.573C205.955 3.059 216.859 0 229.511 0c12.651 0 23.531 3.06 32.638 9.179 9.156 6.119 16.196 15.001 21.119 26.648 4.922 11.596 7.359 25.66 7.31 42.192 0 16.63-2.462 30.842-7.384 42.636-4.874 11.794-11.864 20.8-20.971 27.018S242.212 157 229.511 157zm0-26.574c8.664 0 15.58-4.367 20.749-13.102 5.169-8.734 7.729-21.836 7.68-39.305 0-11.498-1.182-21.072-3.545-28.72-2.313-7.65-5.611-13.398-9.894-17.248-4.234-3.849-9.231-5.773-14.99-5.773-8.615 0-15.507 4.318-20.676 12.953-5.169 8.636-7.778 21.566-7.827 38.788 0 11.646 1.157 21.367 3.47 29.164 2.363 7.748 5.686 13.571 9.969 17.47 4.283 3.849 9.304 5.773 15.064 5.773zm81.576-3.405V101.78l63.135-99.707h21.709V37.01h-12.848l-39.801 63.14v1.185H433v25.685H311.087zm72.587 26.648v-34.346l.591-11.177V2.073h29.979v151.596h-30.57z" fill="#2862FF"/></mask><g mask="url(#mask6_664_345)"><path fill="#E72A84" d="M27 93.4h406v31.4H27z"/></g><mask id="mask7_664_345" style="mask-type:alpha" maskUnits="userSpaceOnUse" x="22" y="0" width="406" height="157"><path d="M22 127.021V101.78L85.135 2.073h21.709V37.01H93.996l-39.801 63.14v1.185h89.718v25.685H22zm72.586 26.648v-34.346l.591-11.177V2.073h29.98v151.596h-30.57zM224.511 157c-12.701-.049-23.63-3.183-32.786-9.401-9.107-6.218-16.122-15.224-21.045-27.018-4.873-11.794-7.285-25.981-7.236-42.562 0-16.532 2.437-30.62 7.31-42.267 4.923-11.646 11.938-20.504 21.045-26.573C200.955 3.059 211.859 0 224.511 0c12.651 0 23.531 3.06 32.638 9.179 9.156 6.119 16.196 15.001 21.119 26.648 4.922 11.596 7.359 25.66 7.31 42.192 0 16.63-2.462 30.842-7.384 42.636-4.874 11.794-11.864 20.8-20.971 27.018S237.212 157 224.511 157zm0-26.574c8.664 0 15.58-4.367 20.749-13.102 5.169-8.734 7.729-21.836 7.68-39.305 0-11.498-1.182-21.072-3.545-28.72-2.313-7.65-5.611-13.398-9.894-17.248-4.234-3.849-9.231-5.773-14.99-5.773-8.615 0-15.507 4.318-20.676 12.953-5.169 8.636-7.778 21.566-7.827 38.788 0 11.646 1.157 21.367 3.47 29.164 2.363 7.748 5.686 13.571 9.969 17.47 4.283 3.849 9.304 5.773 15.064 5.773zm81.576-3.405V101.78l63.135-99.707h21.709V37.01h-12.848l-39.801 63.14v1.185H428v25.685H306.087zm72.587 26.648v-34.346l.591-11.177V2.073h29.979v151.596h-30.57z" fill="#2862FF"/></mask><g mask="url(#mask7_664_345)"><path fill="#E72A84" d="M22 62h406v31.4H22z"/></g><mask id="mask8_664_345" style="mask-type:alpha" maskUnits="userSpaceOnUse" x="12" y="0" width="406" height="157"><path d="M12 127.021V101.78L75.135 2.073h21.71V37.01h-12.85l-39.8 63.14v1.185h89.718v25.685H12zm72.586 26.648v-34.346l.591-11.177V2.073h29.98v151.596h-30.57zM214.511 157c-12.701-.049-23.63-3.183-32.786-9.401-9.107-6.218-16.122-15.224-21.045-27.018-4.873-11.794-7.285-25.981-7.236-42.562 0-16.532 2.437-30.62 7.31-42.267 4.923-11.646 11.938-20.504 21.045-26.573C190.955 3.059 201.859 0 214.511 0c12.651 0 23.531 3.06 32.638 9.179 9.156 6.119 16.196 15.001 21.119 26.648 4.922 11.596 7.359 25.66 7.31 42.192 0 16.63-2.462 30.842-7.384 42.636-4.874 11.794-11.864 20.8-20.971 27.018S227.212 157 214.511 157zm0-26.574c8.664 0 15.58-4.367 20.749-13.102 5.169-8.734 7.729-21.836 7.68-39.305 0-11.498-1.182-21.072-3.545-28.72-2.313-7.65-5.611-13.398-9.894-17.248-4.234-3.849-9.231-5.773-14.99-5.773-8.615 0-15.507 4.318-20.676 12.953-5.169 8.636-7.778 21.566-7.827 38.788 0 11.646 1.157 21.367 3.47 29.164 2.363 7.748 5.686 13.571 9.969 17.47 4.283 3.849 9.304 5.773 15.064 5.773zm81.576-3.405V101.78l63.135-99.707h21.709V37.01h-12.848l-39.801 63.14v1.185H418v25.685H296.087zm72.587 26.648v-34.346l.591-11.177V2.073h29.979v151.596h-30.57z" fill="#2862FF"/></mask><g mask="url(#mask8_664_345)"><path fill="#E72A84" d="M12 30.6h406V62H12z"/></g><mask id="mask9_664_345" style="mask-type:alpha" maskUnits="userSpaceOnUse" x="28" y="0" width="406" height="157"><path d="M28 127.021V101.78L91.135 2.073h21.709V37.01H99.996l-39.801 63.14v1.185h89.718v25.685H28zm72.586 26.648v-34.346l.591-11.177V2.073h29.98v151.596h-30.571zM230.511 157c-12.701-.049-23.63-3.183-32.786-9.401-9.107-6.218-16.122-15.224-21.045-27.018-4.873-11.794-7.285-25.981-7.236-42.562 0-16.532 2.437-30.62 7.31-42.267 4.923-11.646 11.938-20.504 21.045-26.573C206.955 3.059 217.859 0 230.511 0c12.651 0 23.531 3.06 32.638 9.179 9.156 6.119 16.196 15.001 21.119 26.648 4.922 11.596 7.359 25.66 7.31 42.192 0 16.63-2.462 30.842-7.384 42.636-4.874 11.794-11.864 20.8-20.971 27.018S243.212 157 230.511 157zm0-26.574c8.664 0 15.58-4.367 20.749-13.102 5.169-8.734 7.729-21.836 7.68-39.305 0-11.498-1.182-21.072-3.545-28.72-2.313-7.65-5.611-13.398-9.894-17.248-4.234-3.849-9.231-5.773-14.99-5.773-8.615 0-15.507 4.318-20.676 12.953-5.169 8.636-7.778 21.566-7.827 38.788 0 11.646 1.157 21.367 3.47 29.164 2.363 7.748 5.686 13.571 9.969 17.47 4.283 3.849 9.304 5.773 15.064 5.773zm81.576-3.405V101.78l63.135-99.707h21.709V37.01h-12.848l-39.801 63.14v1.185H434v25.685H312.087zm72.587 26.648v-34.346l.591-11.177V2.073h29.979v151.596h-30.57z" fill="#2862FF"/></mask><g mask="url(#mask9_664_345)"><path fill="#E72A84" d="M28 0h406v31.4H28z"/></g><mask id="mask10_664_345" style="mask-type:alpha" maskUnits="userSpaceOnUse" x="13" y="0" width="406" height="157"><path d="M13 127.021V101.78L76.135 2.073h21.71V37.01h-12.85l-39.8 63.14v1.185h89.718v25.685H13zm72.586 26.648v-34.346l.591-11.177V2.073h29.98v151.596h-30.57zM215.511 157c-12.701-.049-23.63-3.183-32.786-9.401-9.107-6.218-16.122-15.224-21.045-27.018-4.873-11.794-7.285-25.981-7.236-42.562 0-16.532 2.437-30.62 7.31-42.267 4.923-11.646 11.938-20.504 21.045-26.573C191.955 3.059 202.859 0 215.511 0c12.651 0 23.531 3.06 32.638 9.179 9.156 6.119 16.196 15.001 21.119 26.648 4.922 11.596 7.359 25.66 7.31 42.192 0 16.63-2.462 30.842-7.384 42.636-4.874 11.794-11.864 20.8-20.971 27.018S228.212 157 215.511 157zm0-26.574c8.664 0 15.58-4.367 20.749-13.102 5.169-8.734 7.729-21.836 7.68-39.305 0-11.498-1.182-21.072-3.545-28.72-2.313-7.65-5.612-13.398-9.894-17.248-4.234-3.849-9.231-5.773-14.99-5.773-8.615 0-15.507 4.318-20.676 12.953-5.169 8.636-7.778 21.566-7.827 38.788 0 11.646 1.157 21.367 3.47 29.164 2.363 7.748 5.686 13.571 9.969 17.47 4.283 3.849 9.304 5.773 15.064 5.773zm81.576-3.405V101.78l63.135-99.707h21.709V37.01h-12.848l-39.801 63.14v1.185H419v25.685H297.087zm72.587 26.648v-34.346l.59-11.177V2.073h29.98v151.596h-30.57z" fill="#2862FF"/></mask><g mask="url(#mask10_664_345)"><path fill="#000" d="M13 124.6h406V157H13z"/></g><mask id="mask11_664_345" style="mask-type:alpha" maskUnits="userSpaceOnUse" x="23" y="0" width="406" height="157"><path d="M23 127.021V101.78L86.135 2.073h21.709V37.01H94.996l-39.801 63.14v1.185h89.718v25.685H23zm72.586 26.648v-34.346l.591-11.177V2.073h29.98v151.596h-30.57zM225.511 157c-12.701-.049-23.63-3.183-32.786-9.401-9.107-6.218-16.122-15.224-21.045-27.018-4.873-11.794-7.285-25.981-7.236-42.562 0-16.532 2.437-30.62 7.31-42.267 4.923-11.646 11.938-20.504 21.045-26.573C201.955 3.059 212.859 0 225.511 0c12.651 0 23.531 3.06 32.638 9.179 9.156 6.119 16.196 15.001 21.119 26.648 4.922 11.596 7.359 25.66 7.31 42.192 0 16.63-2.462 30.842-7.384 42.636-4.874 11.794-11.864 20.8-20.971 27.018S238.212 157 225.511 157zm0-26.574c8.664 0 15.58-4.367 20.749-13.102 5.169-8.734 7.729-21.836 7.68-39.305 0-11.498-1.182-21.072-3.545-28.72-2.313-7.65-5.611-13.398-9.894-17.248-4.234-3.849-9.231-5.773-14.99-5.773-8.615 0-15.507 4.318-20.676 12.953-5.169 8.636-7.778 21.566-7.827 38.788 0 11.646 1.157 21.367 3.47 29.164 2.363 7.748 5.686 13.571 9.969 17.47 4.283 3.849 9.304 5.773 15.064 5.773zm81.576-3.405V101.78l63.135-99.707h21.709V37.01h-12.848l-39.801 63.14v1.185H429v25.685H307.087zm72.587 26.648v-34.346l.591-11.177V2.073h29.979v151.596h-30.57z" fill="#2862FF"/></mask><g mask="url(#mask11_664_345)"><path fill="#000" d="M23 93.4h406v31.4H23z"/></g><mask id="mask12_664_345" style="mask-type:alpha" maskUnits="userSpaceOnUse" x="19" y="0" width="406" height="157"><path d="M19 127.021V101.78L82.135 2.073h21.709V37.01H90.996l-39.801 63.14v1.185h89.718v25.685H19zm72.586 26.648v-34.346l.591-11.177V2.073h29.98v151.596h-30.57zM221.511 157c-12.701-.049-23.63-3.183-32.786-9.401-9.107-6.218-16.122-15.224-21.045-27.018-4.873-11.794-7.285-25.981-7.236-42.562 0-16.532 2.437-30.62 7.31-42.267 4.923-11.646 11.938-20.504 21.045-26.573C197.955 3.059 208.859 0 221.511 0c12.651 0 23.531 3.06 32.638 9.179 9.156 6.119 16.196 15.001 21.119 26.648 4.922 11.596 7.359 25.66 7.31 42.192 0 16.63-2.462 30.842-7.384 42.636-4.874 11.794-11.864 20.8-20.971 27.018S234.212 157 221.511 157zm0-26.574c8.664 0 15.58-4.367 20.749-13.102 5.169-8.734 7.729-21.836 7.68-39.305 0-11.498-1.182-21.072-3.545-28.72-2.313-7.65-5.611-13.398-9.894-17.248-4.234-3.849-9.231-5.773-14.99-5.773-8.615 0-15.507 4.318-20.676 12.953-5.169 8.636-7.778 21.566-7.827 38.788 0 11.646 1.157 21.367 3.47 29.164 2.363 7.748 5.686 13.571 9.969 17.47 4.283 3.849 9.304 5.773 15.064 5.773zm81.576-3.405V101.78l63.135-99.707h21.709V37.01h-12.848l-39.801 63.14v1.185H425v25.685H303.087zm72.587 26.648v-34.346l.591-11.177V2.073h29.979v151.596h-30.57z" fill="#2862FF"/></mask><g mask="url(#mask12_664_345)"><path fill="#000" d="M19 62h406v31.4H19z"/></g><mask id="mask13_664_345" style="mask-type:alpha" maskUnits="userSpaceOnUse" x="16" y="0" width="406" height="157"><path d="M16 127.021V101.78L79.135 2.073h21.709V37.01H87.996l-39.801 63.14v1.185h89.718v25.685H16zm72.586 26.648v-34.346l.591-11.177V2.073h29.98v151.596h-30.57zM218.511 157c-12.701-.049-23.63-3.183-32.786-9.401-9.107-6.218-16.122-15.224-21.045-27.018-4.873-11.794-7.285-25.981-7.236-42.562 0-16.532 2.437-30.62 7.31-42.267 4.923-11.646 11.938-20.504 21.045-26.573C194.955 3.059 205.859 0 218.511 0c12.651 0 23.531 3.06 32.638 9.179 9.156 6.119 16.196 15.001 21.119 26.648 4.922 11.596 7.359 25.66 7.31 42.192 0 16.63-2.462 30.842-7.384 42.636-4.874 11.794-11.864 20.8-20.971 27.018S231.212 157 218.511 157zm0-26.574c8.664 0 15.58-4.367 20.749-13.102 5.169-8.734 7.729-21.836 7.68-39.305 0-11.498-1.182-21.072-3.545-28.72-2.313-7.65-5.611-13.398-9.894-17.248-4.234-3.849-9.231-5.773-14.99-5.773-8.615 0-15.507 4.318-20.676 12.953-5.169 8.636-7.778 21.566-7.827 38.788 0 11.646 1.157 21.367 3.47 29.164 2.363 7.748 5.686 13.571 9.969 17.47 4.283 3.849 9.304 5.773 15.064 5.773zm81.576-3.405V101.78l63.135-99.707h21.709V37.01h-12.848l-39.801 63.14v1.185H422v25.685H300.087zm72.587 26.648v-34.346l.591-11.177V2.073h29.979v151.596h-30.57z" fill="#2862FF"/></mask><g mask="url(#mask13_664_345)"><path fill="#000" d="M16 30.6h406V62H16z"/></g><mask id="mask14_664_345" style="mask-type:alpha" maskUnits="userSpaceOnUse" x="23" y="0" width="406" height="157"><path d="M23 127.021V101.78L86.135 2.073h21.709V37.01H94.996l-39.801 63.14v1.185h89.718v25.685H23zm72.586 26.648v-34.346l.591-11.177V2.073h29.98v151.596h-30.57zM225.511 157c-12.701-.049-23.63-3.183-32.786-9.401-9.107-6.218-16.122-15.224-21.045-27.018-4.873-11.794-7.285-25.981-7.236-42.562 0-16.532 2.437-30.62 7.31-42.267 4.923-11.646 11.938-20.504 21.045-26.573C201.955 3.059 212.859 0 225.511 0c12.651 0 23.531 3.06 32.638 9.179 9.156 6.119 16.196 15.001 21.119 26.648 4.922 11.596 7.359 25.66 7.31 42.192 0 16.63-2.462 30.842-7.384 42.636-4.874 11.794-11.864 20.8-20.971 27.018S238.212 157 225.511 157zm0-26.574c8.664 0 15.58-4.367 20.749-13.102 5.169-8.734 7.729-21.836 7.68-39.305 0-11.498-1.182-21.072-3.545-28.72-2.313-7.65-5.611-13.398-9.894-17.248-4.234-3.849-9.231-5.773-14.99-5.773-8.615 0-15.507 4.318-20.676 12.953-5.169 8.636-7.778 21.566-7.827 38.788 0 11.646 1.157 21.367 3.47 29.164 2.363 7.748 5.686 13.571 9.969 17.47 4.283 3.849 9.304 5.773 15.064 5.773zm81.576-3.405V101.78l63.135-99.707h21.709V37.01h-12.848l-39.801 63.14v1.185H429v25.685H307.087zm72.587 26.648v-34.346l.591-11.177V2.073h29.979v151.596h-30.57z" fill="#2862FF"/></mask><g mask="url(#mask14_664_345)"><path fill="#000" d="M23 0h406v31.4H23z"/></g></svg>