<svg width="453" height="178" fill="none" xmlns="http://www.w3.org/2000/svg"><mask id="mask0_664_349" style="mask-type:alpha" maskUnits="userSpaceOnUse" x="18" y="10" width="406" height="157"><path d="M18 137.021V111.78l63.135-99.707h21.709V47.01H89.996l-39.801 63.14v1.185h89.718v25.685H18zm72.586 26.648v-34.346l.591-11.177V12.073h29.98v151.596h-30.57zM220.511 167c-12.701-.049-23.63-3.183-32.786-9.401-9.107-6.218-16.122-15.224-21.045-27.018-4.873-11.794-7.285-25.981-7.236-42.562 0-16.532 2.437-30.62 7.31-42.267 4.923-11.646 11.938-20.504 21.045-26.573 9.156-6.12 20.06-9.179 32.712-9.179 12.651 0 23.531 3.06 32.638 9.179 9.156 6.119 16.196 15.001 21.119 26.648 4.922 11.596 7.359 25.66 7.31 42.192 0 16.63-2.462 30.842-7.384 42.636-4.874 11.794-11.864 20.8-20.971 27.018S233.212 167 220.511 167zm0-26.574c8.664 0 15.58-4.367 20.749-13.102 5.169-8.734 7.729-21.836 7.68-39.305 0-11.498-1.182-21.072-3.545-28.72-2.313-7.65-5.612-13.398-9.894-17.248-4.234-3.849-9.231-5.773-14.99-5.773-8.615 0-15.507 4.318-20.676 12.953-5.169 8.636-7.778 21.565-7.827 38.788 0 11.646 1.157 21.367 3.47 29.164 2.363 7.748 5.686 13.571 9.969 17.47 4.283 3.849 9.304 5.773 15.064 5.773zm81.576-3.405V111.78l63.135-99.707h21.709V47.01h-12.848l-39.801 63.14v1.185H424v25.685H302.087zm72.587 26.648v-34.346l.59-11.177V12.073h29.98v151.596h-30.57z" fill="#2862FF"/></mask><g mask="url(#mask0_664_349)"><path fill="#56EBFF" d="M18 134.6h406V167H18z"/></g><mask id="mask1_664_349" style="mask-type:alpha" maskUnits="userSpaceOnUse" x="47" y="10" width="406" height="157"><path d="M47 137.021V111.78l63.135-99.707h21.709V47.01h-12.848l-39.801 63.14v1.185h89.718v25.685H47zm72.586 26.648v-34.346l.591-11.177V12.073h29.98v151.596h-30.571zM249.511 167c-12.701-.049-23.63-3.183-32.786-9.401-9.107-6.218-16.122-15.224-21.045-27.018-4.873-11.794-7.285-25.981-7.236-42.562 0-16.532 2.437-30.62 7.31-42.267 4.923-11.646 11.938-20.504 21.045-26.573 9.156-6.12 20.06-9.179 32.712-9.179 12.651 0 23.531 3.06 32.638 9.179 9.156 6.119 16.196 15.001 21.119 26.648 4.922 11.596 7.359 25.66 7.31 42.192 0 16.63-2.462 30.842-7.384 42.636-4.874 11.794-11.864 20.8-20.971 27.018S262.212 167 249.511 167zm0-26.574c8.664 0 15.58-4.367 20.749-13.102 5.169-8.734 7.729-21.836 7.68-39.305 0-11.498-1.182-21.072-3.545-28.72-2.313-7.65-5.611-13.398-9.894-17.248-4.234-3.849-9.231-5.773-14.99-5.773-8.615 0-15.507 4.318-20.676 12.953-5.169 8.636-7.778 21.565-7.827 38.788 0 11.646 1.157 21.367 3.47 29.164 2.363 7.748 5.686 13.571 9.969 17.47 4.283 3.849 9.304 5.773 15.064 5.773zm81.576-3.405V111.78l63.135-99.707h21.709V47.01h-12.848l-39.801 63.14v1.185H453v25.685H331.087zm72.587 26.648v-34.346l.591-11.177V12.073h29.979v151.596h-30.57z" fill="#2862FF"/></mask><g mask="url(#mask1_664_349)"><path fill="#56EBFF" d="M47 103.4h406v31.4H47z"/></g><mask id="mask2_664_349" style="mask-type:alpha" maskUnits="userSpaceOnUse" x="27" y="10" width="406" height="157"><path d="M27 137.021V111.78l63.135-99.707h21.709V47.01H98.996l-39.801 63.14v1.185h89.718v25.685H27zm72.586 26.648v-34.346l.591-11.177V12.073h29.98v151.596h-30.57zM229.511 167c-12.701-.049-23.63-3.183-32.786-9.401-9.107-6.218-16.122-15.224-21.045-27.018-4.873-11.794-7.285-25.981-7.236-42.562 0-16.532 2.437-30.62 7.31-42.267 4.923-11.646 11.938-20.504 21.045-26.573 9.156-6.12 20.06-9.179 32.712-9.179 12.651 0 23.531 3.06 32.638 9.179 9.156 6.119 16.196 15.001 21.119 26.648 4.922 11.596 7.359 25.66 7.31 42.192 0 16.63-2.462 30.842-7.384 42.636-4.874 11.794-11.864 20.8-20.971 27.018S242.212 167 229.511 167zm0-26.574c8.664 0 15.58-4.367 20.749-13.102 5.169-8.734 7.729-21.836 7.68-39.305 0-11.498-1.182-21.072-3.545-28.72-2.313-7.65-5.611-13.398-9.894-17.248-4.234-3.849-9.231-5.773-14.99-5.773-8.615 0-15.507 4.318-20.676 12.953-5.169 8.636-7.778 21.565-7.827 38.788 0 11.646 1.157 21.367 3.47 29.164 2.363 7.748 5.686 13.571 9.969 17.47 4.283 3.849 9.304 5.773 15.064 5.773zm81.576-3.405V111.78l63.135-99.707h21.709V47.01h-12.848l-39.801 63.14v1.185H433v25.685H311.087zm72.587 26.648v-34.346l.591-11.177V12.073h29.979v151.596h-30.57z" fill="#2862FF"/></mask><g mask="url(#mask2_664_349)"><path fill="#56EBFF" d="M27 72h406v31.4H27z"/></g><mask id="mask3_664_349" style="mask-type:alpha" maskUnits="userSpaceOnUse" x="8" y="21" width="406" height="157"><path d="M8 148.021V122.78l63.135-99.707h21.71V58.01h-12.85l-39.8 63.14v1.185h89.718v25.685H8zm72.586 26.648v-34.346l.591-11.177V23.073h29.98v151.596h-30.57zM210.511 178c-12.701-.049-23.63-3.183-32.786-9.401-9.107-6.218-16.122-15.224-21.045-27.018-4.873-11.794-7.285-25.981-7.236-42.562 0-16.532 2.437-30.62 7.31-42.267 4.923-11.646 11.938-20.504 21.045-26.573 9.156-6.12 20.06-9.179 32.712-9.179 12.651 0 23.531 3.06 32.638 9.179 9.156 6.119 16.196 15.001 21.119 26.648 4.922 11.596 7.359 25.66 7.31 42.192 0 16.63-2.462 30.842-7.384 42.636-4.874 11.794-11.864 20.8-20.971 27.018S223.212 178 210.511 178zm0-26.574c8.664 0 15.58-4.367 20.749-13.102 5.169-8.734 7.729-21.836 7.68-39.305 0-11.498-1.182-21.072-3.545-28.72-2.313-7.65-5.611-13.399-9.894-17.248-4.234-3.849-9.231-5.773-14.99-5.773-8.615 0-15.507 4.318-20.676 12.953-5.169 8.636-7.778 21.565-7.827 38.788 0 11.646 1.157 21.367 3.47 29.164 2.363 7.748 5.686 13.571 9.969 17.47 4.283 3.849 9.304 5.773 15.064 5.773zm81.576-3.405V122.78l63.135-99.707h21.709V58.01h-12.848l-39.801 63.14v1.185H414v25.685H292.087zm72.587 26.648v-34.346l.591-11.177V23.073h29.979v151.596h-30.57z" fill="#2862FF"/></mask><g mask="url(#mask3_664_349)"><path fill="#56EBFF" d="M8 51.6h406V83H8z"/></g><mask id="mask4_664_349" style="mask-type:alpha" maskUnits="userSpaceOnUse" x="0" y="10" width="406" height="157"><path d="M0 137.021V111.78l63.135-99.707h21.71V47.01h-12.85l-39.8 63.14v1.185h89.718v25.685H0zm72.586 26.648v-34.346l.591-11.177V12.073h29.98v151.596h-30.57zM202.511 167c-12.701-.049-23.63-3.183-32.786-9.401-9.107-6.218-16.122-15.224-21.045-27.018-4.873-11.794-7.285-25.981-7.236-42.562 0-16.532 2.437-30.62 7.31-42.267 4.923-11.646 11.938-20.504 21.045-26.573 9.156-6.12 20.06-9.179 32.712-9.179 12.651 0 23.531 3.06 32.638 9.179 9.156 6.119 16.196 15.001 21.119 26.648 4.922 11.596 7.359 25.66 7.31 42.192 0 16.63-2.462 30.842-7.384 42.636-4.874 11.794-11.864 20.8-20.971 27.018S215.212 167 202.511 167zm0-26.574c8.664 0 15.58-4.367 20.749-13.102 5.169-8.734 7.729-21.836 7.68-39.305 0-11.498-1.182-21.072-3.545-28.72-2.313-7.65-5.611-13.398-9.894-17.248-4.234-3.849-9.231-5.773-14.99-5.773-8.615 0-15.507 4.318-20.676 12.953-5.169 8.636-7.778 21.565-7.827 38.788 0 11.646 1.157 21.367 3.47 29.164 2.363 7.748 5.686 13.571 9.969 17.47 4.283 3.849 9.304 5.773 15.064 5.773zm81.576-3.405V111.78l63.135-99.707h21.709V47.01h-12.848l-39.801 63.14v1.185H406v25.685H284.087zm72.587 26.648v-34.346l.591-11.177V12.073h29.979v151.596h-30.57z" fill="#2862FF"/></mask><g mask="url(#mask4_664_349)"><path fill="#56EBFF" d="M0 10h406v31.4H0z"/></g><mask id="mask5_664_349" style="mask-type:alpha" maskUnits="userSpaceOnUse" x="14" y="10" width="406" height="157"><path d="M14 137.021V111.78l63.135-99.707h21.71V47.01h-12.85l-39.8 63.14v1.185h89.718v25.685H14zm72.586 26.648v-34.346l.591-11.177V12.073h29.98v151.596h-30.57zM216.511 167c-12.701-.049-23.63-3.183-32.786-9.401-9.107-6.218-16.122-15.224-21.045-27.018-4.873-11.794-7.285-25.981-7.236-42.562 0-16.532 2.437-30.62 7.31-42.267 4.923-11.646 11.938-20.504 21.045-26.573 9.156-6.12 20.06-9.179 32.712-9.179 12.651 0 23.531 3.06 32.638 9.179 9.156 6.119 16.196 15.001 21.119 26.648 4.922 11.596 7.359 25.66 7.31 42.192 0 16.63-2.462 30.842-7.384 42.636-4.874 11.794-11.864 20.8-20.971 27.018S229.212 167 216.511 167zm0-26.574c8.664 0 15.58-4.367 20.749-13.102 5.169-8.734 7.729-21.836 7.68-39.305 0-11.498-1.182-21.072-3.545-28.72-2.313-7.65-5.612-13.398-9.894-17.248-4.234-3.849-9.231-5.773-14.99-5.773-8.615 0-15.507 4.318-20.676 12.953-5.169 8.636-7.778 21.565-7.827 38.788 0 11.646 1.157 21.367 3.47 29.164 2.363 7.748 5.686 13.571 9.969 17.47 4.283 3.849 9.304 5.773 15.064 5.773zm81.576-3.405V111.78l63.135-99.707h21.709V47.01h-12.848l-39.801 63.14v1.185H420v25.685H298.087zm72.587 26.648v-34.346l.59-11.177V12.073h29.98v151.596h-30.57z" fill="#2862FF"/></mask><g mask="url(#mask5_664_349)"><path fill="#E72A84" d="M14 134.6h406V167H14z"/></g><mask id="mask6_664_349" style="mask-type:alpha" maskUnits="userSpaceOnUse" x="35" y="10" width="406" height="157"><path d="M35 137.021V111.78l63.135-99.707h21.709V47.01h-12.848l-39.801 63.14v1.185h89.718v25.685H35zm72.586 26.648v-34.346l.591-11.177V12.073h29.98v151.596h-30.571zM237.511 167c-12.701-.049-23.63-3.183-32.786-9.401-9.107-6.218-16.122-15.224-21.045-27.018-4.873-11.794-7.285-25.981-7.236-42.562 0-16.532 2.437-30.62 7.31-42.267 4.923-11.646 11.938-20.504 21.045-26.573 9.156-6.12 20.06-9.179 32.712-9.179 12.651 0 23.531 3.06 32.638 9.179 9.156 6.119 16.196 15.001 21.119 26.648 4.922 11.596 7.359 25.66 7.31 42.192 0 16.63-2.462 30.842-7.384 42.636-4.874 11.794-11.864 20.8-20.971 27.018S250.212 167 237.511 167zm0-26.574c8.664 0 15.58-4.367 20.749-13.102 5.169-8.734 7.729-21.836 7.68-39.305 0-11.498-1.182-21.072-3.545-28.72-2.313-7.65-5.611-13.398-9.894-17.248-4.234-3.849-9.231-5.773-14.99-5.773-8.615 0-15.507 4.318-20.676 12.953-5.169 8.636-7.778 21.565-7.827 38.788 0 11.646 1.157 21.367 3.47 29.164 2.363 7.748 5.686 13.571 9.969 17.47 4.283 3.849 9.304 5.773 15.064 5.773zm81.576-3.405V111.78l63.135-99.707h21.709V47.01h-12.848l-39.801 63.14v1.185H441v25.685H319.087zm72.587 26.648v-34.346l.591-11.177V12.073h29.979v151.596h-30.57z" fill="#2862FF"/></mask><g mask="url(#mask6_664_349)"><path fill="#E72A84" d="M35 103.4h406v31.4H35z"/></g><mask id="mask7_664_349" style="mask-type:alpha" maskUnits="userSpaceOnUse" x="25" y="10" width="406" height="157"><path d="M25 137.021V111.78l63.135-99.707h21.709V47.01H96.996l-39.801 63.14v1.185h89.718v25.685H25zm72.586 26.648v-34.346l.591-11.177V12.073h29.98v151.596h-30.57zM227.511 167c-12.701-.049-23.63-3.183-32.786-9.401-9.107-6.218-16.122-15.224-21.045-27.018-4.873-11.794-7.285-25.981-7.236-42.562 0-16.532 2.437-30.62 7.31-42.267 4.923-11.646 11.938-20.504 21.045-26.573 9.156-6.12 20.06-9.179 32.712-9.179 12.651 0 23.531 3.06 32.638 9.179 9.156 6.119 16.196 15.001 21.119 26.648 4.922 11.596 7.359 25.66 7.31 42.192 0 16.63-2.462 30.842-7.384 42.636-4.874 11.794-11.864 20.8-20.971 27.018S240.212 167 227.511 167zm0-26.574c8.664 0 15.58-4.367 20.749-13.102 5.169-8.734 7.729-21.836 7.68-39.305 0-11.498-1.182-21.072-3.545-28.72-2.313-7.65-5.611-13.398-9.894-17.248-4.234-3.849-9.231-5.773-14.99-5.773-8.615 0-15.507 4.318-20.676 12.953-5.169 8.636-7.778 21.565-7.827 38.788 0 11.646 1.157 21.367 3.47 29.164 2.363 7.748 5.686 13.571 9.969 17.47 4.283 3.849 9.304 5.773 15.064 5.773zm81.576-3.405V111.78l63.135-99.707h21.709V47.01h-12.848l-39.801 63.14v1.185H431v25.685H309.087zm72.587 26.648v-34.346l.591-11.177V12.073h29.979v151.596h-30.57z" fill="#2862FF"/></mask><g mask="url(#mask7_664_349)"><path fill="#E72A84" d="M25 72h406v31.4H25z"/></g><mask id="mask8_664_349" style="mask-type:alpha" maskUnits="userSpaceOnUse" x="10" y="10" width="406" height="157"><path d="M10 137.021V111.78l63.135-99.707h21.71V47.01h-12.85l-39.8 63.14v1.185h89.718v25.685H10zm72.586 26.648v-34.346l.591-11.177V12.073h29.98v151.596h-30.57zM212.511 167c-12.701-.049-23.63-3.183-32.786-9.401-9.107-6.218-16.122-15.224-21.045-27.018-4.873-11.794-7.285-25.981-7.236-42.562 0-16.532 2.437-30.62 7.31-42.267 4.923-11.646 11.938-20.504 21.045-26.573 9.156-6.12 20.06-9.179 32.712-9.179 12.651 0 23.531 3.06 32.638 9.179 9.156 6.119 16.196 15.001 21.119 26.648 4.922 11.596 7.359 25.66 7.31 42.192 0 16.63-2.462 30.842-7.384 42.636-4.874 11.794-11.864 20.8-20.971 27.018S225.212 167 212.511 167zm0-26.574c8.664 0 15.58-4.367 20.749-13.102 5.169-8.734 7.729-21.836 7.68-39.305 0-11.498-1.182-21.072-3.545-28.72-2.313-7.65-5.611-13.398-9.894-17.248-4.234-3.849-9.231-5.773-14.99-5.773-8.615 0-15.507 4.318-20.676 12.953-5.169 8.636-7.778 21.565-7.827 38.788 0 11.646 1.157 21.367 3.47 29.164 2.363 7.748 5.686 13.571 9.969 17.47 4.283 3.849 9.304 5.773 15.064 5.773zm81.576-3.405V111.78l63.135-99.707h21.709V47.01h-12.848l-39.801 63.14v1.185H416v25.685H294.087zm72.587 26.648v-34.346l.591-11.177V12.073h29.979v151.596h-30.57z" fill="#2862FF"/></mask><g mask="url(#mask8_664_349)"><path fill="#E72A84" d="M10 40.6h406V72H10z"/></g><mask id="mask9_664_349" style="mask-type:alpha" maskUnits="userSpaceOnUse" x="16" y="10" width="406" height="157"><path d="M16 137.021V111.78l63.135-99.707h21.709V47.01H87.996l-39.801 63.14v1.185h89.718v25.685H16zm72.586 26.648v-34.346l.591-11.177V12.073h29.98v151.596h-30.57zM218.511 167c-12.701-.049-23.63-3.183-32.786-9.401-9.107-6.218-16.122-15.224-21.045-27.018-4.873-11.794-7.285-25.981-7.236-42.562 0-16.532 2.437-30.62 7.31-42.267 4.923-11.646 11.938-20.504 21.045-26.573 9.156-6.12 20.06-9.179 32.712-9.179 12.651 0 23.531 3.06 32.638 9.179 9.156 6.119 16.196 15.001 21.119 26.648 4.922 11.596 7.359 25.66 7.31 42.192 0 16.63-2.462 30.842-7.384 42.636-4.874 11.794-11.864 20.8-20.971 27.018S231.212 167 218.511 167zm0-26.574c8.664 0 15.58-4.367 20.749-13.102 5.169-8.734 7.729-21.836 7.68-39.305 0-11.498-1.182-21.072-3.545-28.72-2.313-7.65-5.611-13.398-9.894-17.248-4.234-3.849-9.231-5.773-14.99-5.773-8.615 0-15.507 4.318-20.676 12.953-5.169 8.636-7.778 21.565-7.827 38.788 0 11.646 1.157 21.367 3.47 29.164 2.363 7.748 5.686 13.571 9.969 17.47 4.283 3.849 9.304 5.773 15.064 5.773zm81.576-3.405V111.78l63.135-99.707h21.709V47.01h-12.848l-39.801 63.14v1.185H422v25.685H300.087zm72.587 26.648v-34.346l.591-11.177V12.073h29.979v151.596h-30.57z" fill="#2862FF"/></mask><g mask="url(#mask9_664_349)"><path fill="#E72A84" d="M16 10h406v31.4H16z"/></g><mask id="mask10_664_349" style="mask-type:alpha" maskUnits="userSpaceOnUse" x="31" y="20" width="406" height="157"><path d="M31 147.021V121.78l63.135-99.707h21.709V57.01h-12.848l-39.801 63.14v1.185h89.718v25.685H31zm72.586 26.648v-34.346l.591-11.177V22.073h29.98v151.596h-30.571zM233.511 177c-12.701-.049-23.63-3.183-32.786-9.401-9.107-6.218-16.122-15.224-21.045-27.018-4.873-11.794-7.285-25.981-7.236-42.562 0-16.532 2.437-30.62 7.31-42.267 4.923-11.646 11.938-20.504 21.045-26.573 9.156-6.12 20.06-9.179 32.712-9.179 12.651 0 23.531 3.06 32.638 9.179 9.156 6.119 16.196 15.001 21.119 26.648 4.922 11.596 7.359 25.66 7.31 42.192 0 16.63-2.462 30.842-7.384 42.636-4.874 11.794-11.864 20.8-20.971 27.018S246.212 177 233.511 177zm0-26.574c8.664 0 15.58-4.367 20.749-13.102 5.169-8.734 7.729-21.836 7.68-39.305 0-11.498-1.182-21.072-3.545-28.72-2.313-7.65-5.612-13.399-9.894-17.248-4.234-3.849-9.231-5.773-14.99-5.773-8.615 0-15.507 4.318-20.676 12.953-5.169 8.636-7.778 21.565-7.827 38.788 0 11.646 1.157 21.367 3.47 29.164 2.363 7.748 5.686 13.571 9.969 17.47 4.283 3.849 9.304 5.773 15.064 5.773zm81.576-3.405V121.78l63.135-99.707h21.709V57.01h-12.848l-39.801 63.14v1.185H437v25.685H315.087zm72.587 26.648v-34.346l.59-11.177V22.073h29.98v151.596h-30.57z" fill="#2862FF"/></mask><g mask="url(#mask10_664_349)"><path fill="#000" d="M31 144.6h406V177H31z"/></g><mask id="mask11_664_349" style="mask-type:alpha" maskUnits="userSpaceOnUse" x="21" y="10" width="406" height="157"><path d="M21 137.021V111.78l63.135-99.707h21.709V47.01H92.996l-39.801 63.14v1.185h89.718v25.685H21zm72.586 26.648v-34.346l.591-11.177V12.073h29.98v151.596h-30.57zM223.511 167c-12.701-.049-23.63-3.183-32.786-9.401-9.107-6.218-16.122-15.224-21.045-27.018-4.873-11.794-7.285-25.981-7.236-42.562 0-16.532 2.437-30.62 7.31-42.267 4.923-11.646 11.938-20.504 21.045-26.573 9.156-6.12 20.06-9.179 32.712-9.179 12.651 0 23.531 3.06 32.638 9.179 9.156 6.119 16.196 15.001 21.119 26.648 4.922 11.596 7.359 25.66 7.31 42.192 0 16.63-2.462 30.842-7.384 42.636-4.874 11.794-11.864 20.8-20.971 27.018S236.212 167 223.511 167zm0-26.574c8.664 0 15.58-4.367 20.749-13.102 5.169-8.734 7.729-21.836 7.68-39.305 0-11.498-1.182-21.072-3.545-28.72-2.313-7.65-5.611-13.398-9.894-17.248-4.234-3.849-9.231-5.773-14.99-5.773-8.615 0-15.507 4.318-20.676 12.953-5.169 8.636-7.778 21.565-7.827 38.788 0 11.646 1.157 21.367 3.47 29.164 2.363 7.748 5.686 13.571 9.969 17.47 4.283 3.849 9.304 5.773 15.064 5.773zm81.576-3.405V111.78l63.135-99.707h21.709V47.01h-12.848l-39.801 63.14v1.185H427v25.685H305.087zm72.587 26.648v-34.346l.591-11.177V12.073h29.979v151.596h-30.57z" fill="#2862FF"/></mask><g mask="url(#mask11_664_349)"><path fill="#000" d="M21 103.4h406v31.4H21z"/></g><mask id="mask12_664_349" style="mask-type:alpha" maskUnits="userSpaceOnUse" x="37" y="10" width="406" height="157"><path d="M37 137.021V111.78l63.135-99.707h21.709V47.01h-12.848l-39.801 63.14v1.185h89.718v25.685H37zm72.586 26.648v-34.346l.591-11.177V12.073h29.98v151.596h-30.571zM239.511 167c-12.701-.049-23.63-3.183-32.786-9.401-9.107-6.218-16.122-15.224-21.045-27.018-4.873-11.794-7.285-25.981-7.236-42.562 0-16.532 2.437-30.62 7.31-42.267 4.923-11.646 11.938-20.504 21.045-26.573 9.156-6.12 20.06-9.179 32.712-9.179 12.651 0 23.531 3.06 32.638 9.179 9.156 6.119 16.196 15.001 21.119 26.648 4.922 11.596 7.359 25.66 7.31 42.192 0 16.63-2.462 30.842-7.384 42.636-4.874 11.794-11.864 20.8-20.971 27.018S252.212 167 239.511 167zm0-26.574c8.664 0 15.58-4.367 20.749-13.102 5.169-8.734 7.729-21.836 7.68-39.305 0-11.498-1.182-21.072-3.545-28.72-2.313-7.65-5.611-13.398-9.894-17.248-4.234-3.849-9.231-5.773-14.99-5.773-8.615 0-15.507 4.318-20.676 12.953-5.169 8.636-7.778 21.565-7.827 38.788 0 11.646 1.157 21.367 3.47 29.164 2.363 7.748 5.686 13.571 9.969 17.47 4.283 3.849 9.304 5.773 15.064 5.773zm81.576-3.405V111.78l63.135-99.707h21.709V47.01h-12.848l-39.801 63.14v1.185H443v25.685H321.087zm72.587 26.648v-34.346l.591-11.177V12.073h29.979v151.596h-30.57z" fill="#2862FF"/></mask><g mask="url(#mask12_664_349)"><path fill="#000" d="M37 72h406v31.4H37z"/></g><mask id="mask13_664_349" style="mask-type:alpha" maskUnits="userSpaceOnUse" x="4" y="10" width="406" height="157"><path d="M4 137.021V111.78l63.135-99.707h21.71V47.01h-12.85l-39.8 63.14v1.185h89.718v25.685H4zm72.586 26.648v-34.346l.591-11.177V12.073h29.98v151.596h-30.57zM206.511 167c-12.701-.049-23.63-3.183-32.786-9.401-9.107-6.218-16.122-15.224-21.045-27.018-4.873-11.794-7.285-25.981-7.236-42.562 0-16.532 2.437-30.62 7.31-42.267 4.923-11.646 11.938-20.504 21.045-26.573 9.156-6.12 20.06-9.179 32.712-9.179 12.651 0 23.531 3.06 32.638 9.179 9.156 6.119 16.196 15.001 21.119 26.648 4.922 11.596 7.359 25.66 7.31 42.192 0 16.63-2.462 30.842-7.384 42.636-4.874 11.794-11.864 20.8-20.971 27.018S219.212 167 206.511 167zm0-26.574c8.664 0 15.58-4.367 20.749-13.102 5.169-8.734 7.729-21.836 7.68-39.305 0-11.498-1.182-21.072-3.545-28.72-2.313-7.65-5.611-13.398-9.894-17.248-4.234-3.849-9.231-5.773-14.99-5.773-8.615 0-15.507 4.318-20.676 12.953-5.169 8.636-7.778 21.565-7.827 38.788 0 11.646 1.157 21.367 3.47 29.164 2.363 7.748 5.686 13.571 9.969 17.47 4.283 3.849 9.304 5.773 15.064 5.773zm81.576-3.405V111.78l63.135-99.707h21.709V47.01h-12.848l-39.801 63.14v1.185H410v25.685H288.087zm72.587 26.648v-34.346l.591-11.177V12.073h29.979v151.596h-30.57z" fill="#2862FF"/></mask><g mask="url(#mask13_664_349)"><path fill="#000" d="M4 40.6h406V72H4z"/></g><mask id="mask14_664_349" style="mask-type:alpha" maskUnits="userSpaceOnUse" x="41" y="0" width="406" height="157"><path d="M41 127.021V101.78l63.135-99.707h21.709V37.01h-12.848l-39.801 63.14v1.185h89.718v25.685H41zm72.586 26.648v-34.346l.591-11.177V2.073h29.98v151.596h-30.571zM243.511 157c-12.701-.049-23.63-3.183-32.786-9.401-9.107-6.218-16.122-15.224-21.045-27.018-4.873-11.794-7.285-25.981-7.236-42.562 0-16.532 2.437-30.62 7.31-42.267 4.923-11.646 11.938-20.504 21.045-26.573C219.955 3.059 230.859 0 243.511 0c12.651 0 23.531 3.06 32.638 9.179 9.156 6.119 16.196 15.001 21.119 26.648 4.922 11.596 7.359 25.66 7.31 42.192 0 16.63-2.462 30.842-7.384 42.636-4.874 11.794-11.864 20.8-20.971 27.018S256.212 157 243.511 157zm0-26.574c8.664 0 15.58-4.367 20.749-13.102 5.169-8.734 7.729-21.836 7.68-39.305 0-11.498-1.182-21.072-3.545-28.72-2.313-7.65-5.611-13.398-9.894-17.248-4.234-3.849-9.231-5.773-14.99-5.773-8.615 0-15.507 4.318-20.676 12.953-5.169 8.636-7.778 21.566-7.827 38.788 0 11.646 1.157 21.367 3.47 29.164 2.363 7.748 5.686 13.571 9.969 17.47 4.283 3.849 9.304 5.773 15.064 5.773zm81.576-3.405V101.78l63.135-99.707h21.709V37.01h-12.848l-39.801 63.14v1.185H447v25.685H325.087zm72.587 26.648v-34.346l.591-11.177V2.073h29.979v151.596h-30.57z" fill="#2862FF"/></mask><g mask="url(#mask14_664_349)"><path fill="#000" d="M41 0h406v31.4H41z"/></g></svg>