<svg width="453" height="178" fill="none" xmlns="http://www.w3.org/2000/svg"><mask id="mask0_664_352" style="mask-type:alpha" maskUnits="userSpaceOnUse" x="10" y="0" width="406" height="157"><path d="M10 127.021V101.78L73.135 2.073h21.71V37.01h-12.85l-39.8 63.14v1.185h89.718v25.685H10zm72.586 26.648v-34.346l.591-11.177V2.073h29.98v151.596h-30.57zM212.511 157c-12.701-.049-23.63-3.183-32.786-9.401-9.107-6.218-16.122-15.224-21.045-27.018-4.873-11.794-7.285-25.981-7.236-42.562 0-16.532 2.437-30.62 7.31-42.267 4.923-11.646 11.938-20.504 21.045-26.573C188.955 3.059 199.859 0 212.511 0c12.651 0 23.531 3.06 32.638 9.179 9.156 6.119 16.196 15.001 21.119 26.648 4.922 11.596 7.359 25.66 7.31 42.192 0 16.63-2.462 30.842-7.384 42.636-4.874 11.794-11.864 20.8-20.971 27.018S225.212 157 212.511 157zm0-26.574c8.664 0 15.58-4.367 20.749-13.102 5.169-8.734 7.729-21.836 7.68-39.305 0-11.498-1.182-21.072-3.545-28.72-2.313-7.65-5.612-13.398-9.894-17.248-4.234-3.849-9.231-5.773-14.99-5.773-8.615 0-15.507 4.318-20.676 12.953-5.169 8.636-7.778 21.566-7.827 38.788 0 11.646 1.157 21.367 3.47 29.164 2.363 7.748 5.686 13.571 9.969 17.47 4.283 3.849 9.304 5.773 15.064 5.773zm81.576-3.405V101.78l63.135-99.707h21.709V37.01h-12.848l-39.801 63.14v1.185H416v25.685H294.087zm72.587 26.648v-34.346l.59-11.177V2.073h29.98v151.596h-30.57z" fill="#2862FF"/></mask><g mask="url(#mask0_664_352)"><path fill="#56EBFF" d="M10 124.6h406V157H10z"/></g><mask id="mask1_664_352" style="mask-type:alpha" maskUnits="userSpaceOnUse" x="9" y="0" width="406" height="157"><path d="M9 127.021V101.78L72.135 2.073h21.71V37.01h-12.85l-39.8 63.14v1.185h89.718v25.685H9zm72.586 26.648v-34.346l.591-11.177V2.073h29.98v151.596h-30.57zM211.511 157c-12.701-.049-23.63-3.183-32.786-9.401-9.107-6.218-16.122-15.224-21.045-27.018-4.873-11.794-7.285-25.981-7.236-42.562 0-16.532 2.437-30.62 7.31-42.267 4.923-11.646 11.938-20.504 21.045-26.573C187.955 3.059 198.859 0 211.511 0c12.651 0 23.531 3.06 32.638 9.179 9.156 6.119 16.196 15.001 21.119 26.648 4.922 11.596 7.359 25.66 7.31 42.192 0 16.63-2.462 30.842-7.384 42.636-4.874 11.794-11.864 20.8-20.971 27.018S224.212 157 211.511 157zm0-26.574c8.664 0 15.58-4.367 20.749-13.102 5.169-8.734 7.729-21.836 7.68-39.305 0-11.498-1.182-21.072-3.545-28.72-2.313-7.65-5.611-13.398-9.894-17.248-4.234-3.849-9.231-5.773-14.99-5.773-8.615 0-15.507 4.318-20.676 12.953-5.169 8.636-7.778 21.566-7.827 38.788 0 11.646 1.157 21.367 3.47 29.164 2.363 7.748 5.686 13.571 9.969 17.47 4.283 3.849 9.304 5.773 15.064 5.773zm81.576-3.405V101.78l63.135-99.707h21.709V37.01h-12.848l-39.801 63.14v1.185H415v25.685H293.087zm72.587 26.648v-34.346l.591-11.177V2.073h29.979v151.596h-30.57z" fill="#2862FF"/></mask><g mask="url(#mask1_664_352)"><path fill="#56EBFF" d="M9 93.4h406v31.4H9z"/></g><mask id="mask2_664_352" style="mask-type:alpha" maskUnits="userSpaceOnUse" x="29" y="0" width="406" height="157"><path d="M29 127.021V101.78L92.135 2.073h21.709V37.01h-12.848l-39.801 63.14v1.185h89.718v25.685H29zm72.586 26.648v-34.346l.591-11.177V2.073h29.98v151.596h-30.571zM231.511 157c-12.701-.049-23.63-3.183-32.786-9.401-9.107-6.218-16.122-15.224-21.045-27.018-4.873-11.794-7.285-25.981-7.236-42.562 0-16.532 2.437-30.62 7.31-42.267 4.923-11.646 11.938-20.504 21.045-26.573C207.955 3.059 218.859 0 231.511 0c12.651 0 23.531 3.06 32.638 9.179 9.156 6.119 16.196 15.001 21.119 26.648 4.922 11.596 7.359 25.66 7.31 42.192 0 16.63-2.462 30.842-7.384 42.636-4.874 11.794-11.864 20.8-20.971 27.018S244.212 157 231.511 157zm0-26.574c8.664 0 15.58-4.367 20.749-13.102 5.169-8.734 7.729-21.836 7.68-39.305 0-11.498-1.182-21.072-3.545-28.72-2.313-7.65-5.611-13.398-9.894-17.248-4.234-3.849-9.231-5.773-14.99-5.773-8.615 0-15.507 4.318-20.676 12.953-5.169 8.636-7.778 21.566-7.827 38.788 0 11.646 1.157 21.367 3.47 29.164 2.363 7.748 5.686 13.571 9.969 17.47 4.283 3.849 9.304 5.773 15.064 5.773zm81.576-3.405V101.78l63.135-99.707h21.709V37.01h-12.848l-39.801 63.14v1.185H435v25.685H313.087zm72.587 26.648v-34.346l.591-11.177V2.073h29.979v151.596h-30.57z" fill="#2862FF"/></mask><g mask="url(#mask2_664_352)"><path fill="#56EBFF" d="M29 62h406v31.4H29z"/></g><mask id="mask3_664_352" style="mask-type:alpha" maskUnits="userSpaceOnUse" x="0" y="11" width="406" height="157"><path d="M0 138.021V112.78l63.135-99.707h21.71V48.01h-12.85l-39.8 63.14v1.185h89.718v25.685H0zm72.586 26.648v-34.346l.591-11.177V13.073h29.98v151.596h-30.57zM202.511 168c-12.701-.049-23.63-3.183-32.786-9.401-9.107-6.218-16.122-15.224-21.045-27.018-4.873-11.794-7.285-25.981-7.236-42.562 0-16.532 2.437-30.62 7.31-42.267 4.923-11.646 11.938-20.504 21.045-26.573 9.156-6.12 20.06-9.179 32.712-9.179 12.651 0 23.531 3.06 32.638 9.179 9.156 6.119 16.196 15.001 21.119 26.648 4.922 11.596 7.359 25.66 7.31 42.192 0 16.63-2.462 30.842-7.384 42.636-4.874 11.794-11.864 20.8-20.971 27.018S215.212 168 202.511 168zm0-26.574c8.664 0 15.58-4.367 20.749-13.102 5.169-8.734 7.729-21.836 7.68-39.305 0-11.498-1.182-21.072-3.545-28.72-2.313-7.65-5.611-13.398-9.894-17.248-4.234-3.849-9.231-5.773-14.99-5.773-8.615 0-15.507 4.318-20.676 12.953-5.169 8.636-7.778 21.565-7.827 38.788 0 11.646 1.157 21.367 3.47 29.164 2.363 7.748 5.686 13.571 9.969 17.47 4.283 3.849 9.304 5.773 15.064 5.773zm81.576-3.405V112.78l63.135-99.707h21.709V48.01h-12.848l-39.801 63.14v1.185H406v25.685H284.087zm72.587 26.648v-34.346l.591-11.177V13.073h29.979v151.596h-30.57z" fill="#2862FF"/></mask><g mask="url(#mask3_664_352)"><path fill="#56EBFF" d="M0 41.6h406V73H0z"/></g><mask id="mask4_664_352" style="mask-type:alpha" maskUnits="userSpaceOnUse" x="12" y="0" width="406" height="157"><path d="M12 127.021V101.78L75.135 2.073h21.71V37.01h-12.85l-39.8 63.14v1.185h89.718v25.685H12zm72.586 26.648v-34.346l.591-11.177V2.073h29.98v151.596h-30.57zM214.511 157c-12.701-.049-23.63-3.183-32.786-9.401-9.107-6.218-16.122-15.224-21.045-27.018-4.873-11.794-7.285-25.981-7.236-42.562 0-16.532 2.437-30.62 7.31-42.267 4.923-11.646 11.938-20.504 21.045-26.573C190.955 3.059 201.859 0 214.511 0c12.651 0 23.531 3.06 32.638 9.179 9.156 6.119 16.196 15.001 21.119 26.648 4.922 11.596 7.359 25.66 7.31 42.192 0 16.63-2.462 30.842-7.384 42.636-4.874 11.794-11.864 20.8-20.971 27.018S227.212 157 214.511 157zm0-26.574c8.664 0 15.58-4.367 20.749-13.102 5.169-8.734 7.729-21.836 7.68-39.305 0-11.498-1.182-21.072-3.545-28.72-2.313-7.65-5.611-13.398-9.894-17.248-4.234-3.849-9.231-5.773-14.99-5.773-8.615 0-15.507 4.318-20.676 12.953-5.169 8.636-7.778 21.566-7.827 38.788 0 11.646 1.157 21.367 3.47 29.164 2.363 7.748 5.686 13.571 9.969 17.47 4.283 3.849 9.304 5.773 15.064 5.773zm81.576-3.405V101.78l63.135-99.707h21.709V37.01h-12.848l-39.801 63.14v1.185H418v25.685H296.087zm72.587 26.648v-34.346l.591-11.177V2.073h29.979v151.596h-30.57z" fill="#2862FF"/></mask><g mask="url(#mask4_664_352)"><path fill="#56EBFF" d="M12 0h406v31.4H12z"/></g><mask id="mask5_664_352" style="mask-type:alpha" maskUnits="userSpaceOnUse" x="36" y="0" width="406" height="157"><path d="M36 127.021V101.78L99.135 2.073h21.709V37.01h-12.848l-39.801 63.14v1.185h89.718v25.685H36zm72.586 26.648v-34.346l.591-11.177V2.073h29.98v151.596h-30.571zM238.511 157c-12.701-.049-23.63-3.183-32.786-9.401-9.107-6.218-16.122-15.224-21.045-27.018-4.873-11.794-7.285-25.981-7.236-42.562 0-16.532 2.437-30.62 7.31-42.267 4.923-11.646 11.938-20.504 21.045-26.573C214.955 3.059 225.859 0 238.511 0c12.651 0 23.531 3.06 32.638 9.179 9.156 6.119 16.196 15.001 21.119 26.648 4.922 11.596 7.359 25.66 7.31 42.192 0 16.63-2.462 30.842-7.384 42.636-4.874 11.794-11.864 20.8-20.971 27.018S251.212 157 238.511 157zm0-26.574c8.664 0 15.58-4.367 20.749-13.102 5.169-8.734 7.729-21.836 7.68-39.305 0-11.498-1.182-21.072-3.545-28.72-2.313-7.65-5.612-13.398-9.894-17.248-4.234-3.849-9.231-5.773-14.99-5.773-8.615 0-15.507 4.318-20.676 12.953-5.169 8.636-7.778 21.566-7.827 38.788 0 11.646 1.157 21.367 3.47 29.164 2.363 7.748 5.686 13.571 9.969 17.47 4.283 3.849 9.304 5.773 15.064 5.773zm81.576-3.405V101.78l63.135-99.707h21.709V37.01h-12.848l-39.801 63.14v1.185H442v25.685H320.087zm72.587 26.648v-34.346l.59-11.177V2.073h29.98v151.596h-30.57z" fill="#2862FF"/></mask><g mask="url(#mask5_664_352)"><path fill="#E72A84" d="M36 124.6h406V157H36z"/></g><mask id="mask6_664_352" style="mask-type:alpha" maskUnits="userSpaceOnUse" x="37" y="0" width="406" height="157"><path d="M37 127.021V101.78l63.135-99.707h21.709V37.01h-12.848l-39.801 63.14v1.185h89.718v25.685H37zm72.586 26.648v-34.346l.591-11.177V2.073h29.98v151.596h-30.571zM239.511 157c-12.701-.049-23.63-3.183-32.786-9.401-9.107-6.218-16.122-15.224-21.045-27.018-4.873-11.794-7.285-25.981-7.236-42.562 0-16.532 2.437-30.62 7.31-42.267 4.923-11.646 11.938-20.504 21.045-26.573C215.955 3.059 226.859 0 239.511 0c12.651 0 23.531 3.06 32.638 9.179 9.156 6.119 16.196 15.001 21.119 26.648 4.922 11.596 7.359 25.66 7.31 42.192 0 16.63-2.462 30.842-7.384 42.636-4.874 11.794-11.864 20.8-20.971 27.018S252.212 157 239.511 157zm0-26.574c8.664 0 15.58-4.367 20.749-13.102 5.169-8.734 7.729-21.836 7.68-39.305 0-11.498-1.182-21.072-3.545-28.72-2.313-7.65-5.611-13.398-9.894-17.248-4.234-3.849-9.231-5.773-14.99-5.773-8.615 0-15.507 4.318-20.676 12.953-5.169 8.636-7.778 21.566-7.827 38.788 0 11.646 1.157 21.367 3.47 29.164 2.363 7.748 5.686 13.571 9.969 17.47 4.283 3.849 9.304 5.773 15.064 5.773zm81.576-3.405V101.78l63.135-99.707h21.709V37.01h-12.848l-39.801 63.14v1.185H443v25.685H321.087zm72.587 26.648v-34.346l.591-11.177V2.073h29.979v151.596h-30.57z" fill="#2862FF"/></mask><g mask="url(#mask6_664_352)"><path fill="#E72A84" d="M37 93.4h406v31.4H37z"/></g><mask id="mask7_664_352" style="mask-type:alpha" maskUnits="userSpaceOnUse" x="37" y="0" width="406" height="157"><path d="M37 127.021V101.78l63.135-99.707h21.709V37.01h-12.848l-39.801 63.14v1.185h89.718v25.685H37zm72.586 26.648v-34.346l.591-11.177V2.073h29.98v151.596h-30.571zM239.511 157c-12.701-.049-23.63-3.183-32.786-9.401-9.107-6.218-16.122-15.224-21.045-27.018-4.873-11.794-7.285-25.981-7.236-42.562 0-16.532 2.437-30.62 7.31-42.267 4.923-11.646 11.938-20.504 21.045-26.573C215.955 3.059 226.859 0 239.511 0c12.651 0 23.531 3.06 32.638 9.179 9.156 6.119 16.196 15.001 21.119 26.648 4.922 11.596 7.359 25.66 7.31 42.192 0 16.63-2.462 30.842-7.384 42.636-4.874 11.794-11.864 20.8-20.971 27.018S252.212 157 239.511 157zm0-26.574c8.664 0 15.58-4.367 20.749-13.102 5.169-8.734 7.729-21.836 7.68-39.305 0-11.498-1.182-21.072-3.545-28.72-2.313-7.65-5.611-13.398-9.894-17.248-4.234-3.849-9.231-5.773-14.99-5.773-8.615 0-15.507 4.318-20.676 12.953-5.169 8.636-7.778 21.566-7.827 38.788 0 11.646 1.157 21.367 3.47 29.164 2.363 7.748 5.686 13.571 9.969 17.47 4.283 3.849 9.304 5.773 15.064 5.773zm81.576-3.405V101.78l63.135-99.707h21.709V37.01h-12.848l-39.801 63.14v1.185H443v25.685H321.087zm72.587 26.648v-34.346l.591-11.177V2.073h29.979v151.596h-30.57z" fill="#2862FF"/></mask><g mask="url(#mask7_664_352)"><path fill="#E72A84" d="M37 62h406v31.4H37z"/></g><mask id="mask8_664_352" style="mask-type:alpha" maskUnits="userSpaceOnUse" x="12" y="0" width="406" height="157"><path d="M12 127.021V101.78L75.135 2.073h21.71V37.01h-12.85l-39.8 63.14v1.185h89.718v25.685H12zm72.586 26.648v-34.346l.591-11.177V2.073h29.98v151.596h-30.57zM214.511 157c-12.701-.049-23.63-3.183-32.786-9.401-9.107-6.218-16.122-15.224-21.045-27.018-4.873-11.794-7.285-25.981-7.236-42.562 0-16.532 2.437-30.62 7.31-42.267 4.923-11.646 11.938-20.504 21.045-26.573C190.955 3.059 201.859 0 214.511 0c12.651 0 23.531 3.06 32.638 9.179 9.156 6.119 16.196 15.001 21.119 26.648 4.922 11.596 7.359 25.66 7.31 42.192 0 16.63-2.462 30.842-7.384 42.636-4.874 11.794-11.864 20.8-20.971 27.018S227.212 157 214.511 157zm0-26.574c8.664 0 15.58-4.367 20.749-13.102 5.169-8.734 7.729-21.836 7.68-39.305 0-11.498-1.182-21.072-3.545-28.72-2.313-7.65-5.611-13.398-9.894-17.248-4.234-3.849-9.231-5.773-14.99-5.773-8.615 0-15.507 4.318-20.676 12.953-5.169 8.636-7.778 21.566-7.827 38.788 0 11.646 1.157 21.367 3.47 29.164 2.363 7.748 5.686 13.571 9.969 17.47 4.283 3.849 9.304 5.773 15.064 5.773zm81.576-3.405V101.78l63.135-99.707h21.709V37.01h-12.848l-39.801 63.14v1.185H418v25.685H296.087zm72.587 26.648v-34.346l.591-11.177V2.073h29.979v151.596h-30.57z" fill="#2862FF"/></mask><g mask="url(#mask8_664_352)"><path fill="#E72A84" d="M12 30.6h406V62H12z"/></g><mask id="mask9_664_352" style="mask-type:alpha" maskUnits="userSpaceOnUse" x="28" y="0" width="406" height="157"><path d="M28 127.021V101.78L91.135 2.073h21.709V37.01H99.996l-39.801 63.14v1.185h89.718v25.685H28zm72.586 26.648v-34.346l.591-11.177V2.073h29.98v151.596h-30.571zM230.511 157c-12.701-.049-23.63-3.183-32.786-9.401-9.107-6.218-16.122-15.224-21.045-27.018-4.873-11.794-7.285-25.981-7.236-42.562 0-16.532 2.437-30.62 7.31-42.267 4.923-11.646 11.938-20.504 21.045-26.573C206.955 3.059 217.859 0 230.511 0c12.651 0 23.531 3.06 32.638 9.179 9.156 6.119 16.196 15.001 21.119 26.648 4.922 11.596 7.359 25.66 7.31 42.192 0 16.63-2.462 30.842-7.384 42.636-4.874 11.794-11.864 20.8-20.971 27.018S243.212 157 230.511 157zm0-26.574c8.664 0 15.58-4.367 20.749-13.102 5.169-8.734 7.729-21.836 7.68-39.305 0-11.498-1.182-21.072-3.545-28.72-2.313-7.65-5.611-13.398-9.894-17.248-4.234-3.849-9.231-5.773-14.99-5.773-8.615 0-15.507 4.318-20.676 12.953-5.169 8.636-7.778 21.566-7.827 38.788 0 11.646 1.157 21.367 3.47 29.164 2.363 7.748 5.686 13.571 9.969 17.47 4.283 3.849 9.304 5.773 15.064 5.773zm81.576-3.405V101.78l63.135-99.707h21.709V37.01h-12.848l-39.801 63.14v1.185H434v25.685H312.087zm72.587 26.648v-34.346l.591-11.177V2.073h29.979v151.596h-30.57z" fill="#2862FF"/></mask><g mask="url(#mask9_664_352)"><path fill="#E72A84" d="M28 0h406v31.4H28z"/></g><mask id="mask10_664_352" style="mask-type:alpha" maskUnits="userSpaceOnUse" x="23" y="10" width="406" height="157"><path d="M23 137.021V111.78l63.135-99.707h21.709V47.01H94.996l-39.801 63.14v1.185h89.718v25.685H23zm72.586 26.648v-34.346l.591-11.177V12.073h29.98v151.596h-30.57zM225.511 167c-12.701-.049-23.63-3.183-32.786-9.401-9.107-6.218-16.122-15.224-21.045-27.018-4.873-11.794-7.285-25.981-7.236-42.562 0-16.532 2.437-30.62 7.31-42.267 4.923-11.646 11.938-20.504 21.045-26.573 9.156-6.12 20.06-9.179 32.712-9.179 12.651 0 23.531 3.06 32.638 9.179 9.156 6.119 16.196 15.001 21.119 26.648 4.922 11.596 7.359 25.66 7.31 42.192 0 16.63-2.462 30.842-7.384 42.636-4.874 11.794-11.864 20.8-20.971 27.018S238.212 167 225.511 167zm0-26.574c8.664 0 15.58-4.367 20.749-13.102 5.169-8.734 7.729-21.836 7.68-39.305 0-11.498-1.182-21.072-3.545-28.72-2.313-7.65-5.612-13.398-9.894-17.248-4.234-3.849-9.231-5.773-14.99-5.773-8.615 0-15.507 4.318-20.676 12.953-5.169 8.636-7.778 21.565-7.827 38.788 0 11.646 1.157 21.367 3.47 29.164 2.363 7.748 5.686 13.571 9.969 17.47 4.283 3.849 9.304 5.773 15.064 5.773zm81.576-3.405V111.78l63.135-99.707h21.709V47.01h-12.848l-39.801 63.14v1.185H429v25.685H307.087zm72.587 26.648v-34.346l.59-11.177V12.073h29.98v151.596h-30.57z" fill="#2862FF"/></mask><g mask="url(#mask10_664_352)"><path fill="#000" d="M23 134.6h406V167H23z"/></g><mask id="mask11_664_352" style="mask-type:alpha" maskUnits="userSpaceOnUse" x="23" y="0" width="406" height="157"><path d="M23 127.021V101.78L86.135 2.073h21.709V37.01H94.996l-39.801 63.14v1.185h89.718v25.685H23zm72.586 26.648v-34.346l.591-11.177V2.073h29.98v151.596h-30.57zM225.511 157c-12.701-.049-23.63-3.183-32.786-9.401-9.107-6.218-16.122-15.224-21.045-27.018-4.873-11.794-7.285-25.981-7.236-42.562 0-16.532 2.437-30.62 7.31-42.267 4.923-11.646 11.938-20.504 21.045-26.573C201.955 3.059 212.859 0 225.511 0c12.651 0 23.531 3.06 32.638 9.179 9.156 6.119 16.196 15.001 21.119 26.648 4.922 11.596 7.359 25.66 7.31 42.192 0 16.63-2.462 30.842-7.384 42.636-4.874 11.794-11.864 20.8-20.971 27.018S238.212 157 225.511 157zm0-26.574c8.664 0 15.58-4.367 20.749-13.102 5.169-8.734 7.729-21.836 7.68-39.305 0-11.498-1.182-21.072-3.545-28.72-2.313-7.65-5.611-13.398-9.894-17.248-4.234-3.849-9.231-5.773-14.99-5.773-8.615 0-15.507 4.318-20.676 12.953-5.169 8.636-7.778 21.566-7.827 38.788 0 11.646 1.157 21.367 3.47 29.164 2.363 7.748 5.686 13.571 9.969 17.47 4.283 3.849 9.304 5.773 15.064 5.773zm81.576-3.405V101.78l63.135-99.707h21.709V37.01h-12.848l-39.801 63.14v1.185H429v25.685H307.087zm72.587 26.648v-34.346l.591-11.177V2.073h29.979v151.596h-30.57z" fill="#2862FF"/></mask><g mask="url(#mask11_664_352)"><path fill="#000" d="M23 93.4h406v31.4H23z"/></g><mask id="mask12_664_352" style="mask-type:alpha" maskUnits="userSpaceOnUse" x="39" y="0" width="406" height="157"><path d="M39 127.021V101.78l63.135-99.707h21.709V37.01h-12.848l-39.801 63.14v1.185h89.718v25.685H39zm72.586 26.648v-34.346l.591-11.177V2.073h29.98v151.596h-30.571zM241.511 157c-12.701-.049-23.63-3.183-32.786-9.401-9.107-6.218-16.122-15.224-21.045-27.018-4.873-11.794-7.285-25.981-7.236-42.562 0-16.532 2.437-30.62 7.31-42.267 4.923-11.646 11.938-20.504 21.045-26.573C217.955 3.059 228.859 0 241.511 0c12.651 0 23.531 3.06 32.638 9.179 9.156 6.119 16.196 15.001 21.119 26.648 4.922 11.596 7.359 25.66 7.31 42.192 0 16.63-2.462 30.842-7.384 42.636-4.874 11.794-11.864 20.8-20.971 27.018S254.212 157 241.511 157zm0-26.574c8.664 0 15.58-4.367 20.749-13.102 5.169-8.734 7.729-21.836 7.68-39.305 0-11.498-1.182-21.072-3.545-28.72-2.313-7.65-5.611-13.398-9.894-17.248-4.234-3.849-9.231-5.773-14.99-5.773-8.615 0-15.507 4.318-20.676 12.953-5.169 8.636-7.778 21.566-7.827 38.788 0 11.646 1.157 21.367 3.47 29.164 2.363 7.748 5.686 13.571 9.969 17.47 4.283 3.849 9.304 5.773 15.064 5.773zm81.576-3.405V101.78l63.135-99.707h21.709V37.01h-12.848l-39.801 63.14v1.185H445v25.685H323.087zm72.587 26.648v-34.346l.591-11.177V2.073h29.979v151.596h-30.57z" fill="#2862FF"/></mask><g mask="url(#mask12_664_352)"><path fill="#000" d="M39 62h406v31.4H39z"/></g><mask id="mask13_664_352" style="mask-type:alpha" maskUnits="userSpaceOnUse" x="6" y="0" width="406" height="157"><path d="M6 127.021V101.78L69.135 2.073h21.71V37.01h-12.85l-39.8 63.14v1.185h89.718v25.685H6zm72.586 26.648v-34.346l.591-11.177V2.073h29.98v151.596h-30.57zM208.511 157c-12.701-.049-23.63-3.183-32.786-9.401-9.107-6.218-16.122-15.224-21.045-27.018-4.873-11.794-7.285-25.981-7.236-42.562 0-16.532 2.437-30.62 7.31-42.267 4.923-11.646 11.938-20.504 21.045-26.573C184.955 3.059 195.859 0 208.511 0c12.651 0 23.531 3.06 32.638 9.179 9.156 6.119 16.196 15.001 21.119 26.648 4.922 11.596 7.359 25.66 7.31 42.192 0 16.63-2.462 30.842-7.384 42.636-4.874 11.794-11.864 20.8-20.971 27.018S221.212 157 208.511 157zm0-26.574c8.664 0 15.58-4.367 20.749-13.102 5.169-8.734 7.729-21.836 7.68-39.305 0-11.498-1.182-21.072-3.545-28.72-2.313-7.65-5.611-13.398-9.894-17.248-4.234-3.849-9.231-5.773-14.99-5.773-8.615 0-15.507 4.318-20.676 12.953-5.169 8.636-7.778 21.566-7.827 38.788 0 11.646 1.157 21.367 3.47 29.164 2.363 7.748 5.686 13.571 9.969 17.47 4.283 3.849 9.304 5.773 15.064 5.773zm81.576-3.405V101.78l63.135-99.707h21.709V37.01h-12.848l-39.801 63.14v1.185H412v25.685H290.087zm72.587 26.648v-34.346l.591-11.177V2.073h29.979v151.596h-30.57z" fill="#2862FF"/></mask><g mask="url(#mask13_664_352)"><path fill="#000" d="M6 30.6h406V62H6z"/></g><mask id="mask14_664_352" style="mask-type:alpha" maskUnits="userSpaceOnUse" x="33" y="0" width="406" height="157"><path d="M33 127.021V101.78L96.135 2.073h21.709V37.01h-12.848l-39.801 63.14v1.185h89.718v25.685H33zm72.586 26.648v-34.346l.591-11.177V2.073h29.98v151.596h-30.571zM235.511 157c-12.701-.049-23.63-3.183-32.786-9.401-9.107-6.218-16.122-15.224-21.045-27.018-4.873-11.794-7.285-25.981-7.236-42.562 0-16.532 2.437-30.62 7.31-42.267 4.923-11.646 11.938-20.504 21.045-26.573C211.955 3.059 222.859 0 235.511 0c12.651 0 23.531 3.06 32.638 9.179 9.156 6.119 16.196 15.001 21.119 26.648 4.922 11.596 7.359 25.66 7.31 42.192 0 16.63-2.462 30.842-7.384 42.636-4.874 11.794-11.864 20.8-20.971 27.018S248.212 157 235.511 157zm0-26.574c8.664 0 15.58-4.367 20.749-13.102 5.169-8.734 7.729-21.836 7.68-39.305 0-11.498-1.182-21.072-3.545-28.72-2.313-7.65-5.611-13.398-9.894-17.248-4.234-3.849-9.231-5.773-14.99-5.773-8.615 0-15.507 4.318-20.676 12.953-5.169 8.636-7.778 21.566-7.827 38.788 0 11.646 1.157 21.367 3.47 29.164 2.363 7.748 5.686 13.571 9.969 17.47 4.283 3.849 9.304 5.773 15.064 5.773zm81.576-3.405V101.78l63.135-99.707h21.709V37.01h-12.848l-39.801 63.14v1.185H439v25.685H317.087zm72.587 26.648v-34.346l.591-11.177V2.073h29.979v151.596h-30.57z" fill="#2862FF"/></mask><g mask="url(#mask14_664_352)"><path fill="#000" d="M33 0h406v31.4H33z"/></g></svg>