<svg width="298" height="106" fill="none" xmlns="http://www.w3.org/2000/svg"><g clip-path="url(#clip0_57_1614)" fill="#fff"><path d="M177.65 49.08s-.9.76-1.92 1.66c-2.54 2.21-6.43 5.07-8.97 6.6-1.98 1.19-2.71 1.49-2.71 1.1 0-.28 2.11-2.98 3.84-4.91 2.78-3.1 6.64-6.41 8.71-7.47l.81-.41.14 1.7c.08.94.12 1.72.09 1.74m15.95-10.18c0-.75-1.46-2.55-2.23-2.75-.66-.17-1.58.63-5.38 4.71-1.92 2.06-3.64 3.77-3.82 3.81-.2.04-.49-.25-.7-.7-.53-1.11-1.66-2.32-2.79-2.98-2.13-1.25-5.26-.25-9.81 3.11-4.37 3.24-7.3 6.42-9.5 10.31-1.13 2-1.25 2.13-3.52 3.72-2.19 1.53-4.65 2.9-5.83 3.25-.39.12-.5.06-.5-.27 0-.72 1.81-4.03 4.74-8.69 4.66-7.42 4.92-8.17 3.35-9.75-.95-.95-1.47-1.06-2.56-.5-1.05.54-3.96 2.59-6.75 4.77-3.48 2.71-3.7 2.79-2.39.84 1.3-1.92 2.04-3.35 2.04-3.89 0-1-1.53-2.53-2.53-2.53-.17 0-1.22.83-2.32 1.85-3.32 3.06-12.52 9.78-18.31 13.37-2.77 1.72-5.85 3.29-6.05 3.09-.18-.18 1.01-2.01 4.49-6.9 3.35-4.69 4.35-6.27 4.35-6.79 0-.58-.84-1.26-1.55-1.26-1.56 0-7.75 5.09-10.31 8.47-.62.82-1.55 2.32-2.06 3.34-1.62 3.24-1.39 5.13.92 7.29 1.83 1.71 3.21 1.79 5.84.31 1.72-.97 5.49-3.49 8.35-5.6 1.33-.98 2.46-1.73 2.52-1.67.06.06-.44 1.02-1.1 2.15-1.58 2.68-1.79 3.22-1.62 4.17.22 1.15 2.02 3.01 3.07 3.18.7.11.89.04 1.34-.5 2.99-3.57 7.92-8.47 12.86-12.79 4.42-3.87 5.07-4.19 3.32-1.66-3.07 4.47-4.36 8.57-3.33 10.62.46.9 1.8 2.33 2.59 2.75 1.61.85 4.15-.04 7.64-2.67 1.09-.82 2.06-1.49 2.17-1.49.11 0 .25.2.33.44.24.74 2.16 2.46 3.07 2.73.65.19 1.07.19 1.72 0 1.67-.5 7.1-4.39 12.95-9.28 1.63-1.36 3.11-2.5 3.28-2.52.53-.08-13.68 19.17-19.74 26.74-8.51 10.63-16.07 17.71-20.81 19.51-1.82.69-3.61.81-4.85.34-.86-.33-1.09-.56-1.62-1.65-.54-1.1-.62-1.53-.61-3.29 0-1.46.15-2.48.52-3.69.83-2.69 2.85-6.42 4.36-8.04.93-1 2.57-2.04 2.96-1.89.49.19.38-.55-.12-.81-.69-.37-1.19-.28-2.7.47-2.95 1.48-5.35 4.65-6.72 8.88-1.63 5.03-.85 8.67 2.54 11.82 1.43 1.33 2.88 2.15 4.68 2.66 2.32.65 5.69.14 8.69-1.33 7.63-3.74 16.91-14.31 30.86-35.16 9.98-14.91 16.57-25.91 16.57-27.64M96.52 55.03c.58-.67 1.1-1.17 1.17-1.1.07.07-.12.71-.4 1.44-.29.73-1 2.92-1.59 4.88-.99 3.28-1.05 3.62-.81 4.45.31 1.03 1.92 2.86 2.98 3.38 1.28.63 1.23.67 3.4-2.54 3.29-4.88 6.65-9 12.16-14.92 3.51-3.77 6.87-6.86 13.03-11.99 8.74-7.28 12.75-10.36 15.7-12.04 1.48-.84 1.63-1.05 1.05-1.42-1.23-.77-11.35 6.03-24.19 16.25-5.83 4.64-7.79 6.3-11.75 9.98-1.39 1.28-2.58 2.28-2.65 2.21-.07-.07.73-2.58 1.78-5.57 2.19-6.26 2.65-7.9 2.7-9.52.03-1.07-.04-1.24-.85-2.07-1.53-1.56-1.76-1.43-4.11 2.28-2.63 4.16-5.05 7.61-7.17 10.23-2.17 2.68-7.27 7.95-8.62 8.92-.92.66-1.04.69-1.04.3 0-.24 1.16-2.74 2.57-5.55 1.69-3.35 2.57-5.35 2.57-5.83 0-.75-.79-1.91-1.61-2.34-.61-.33-1.01-.03-4.61 3.46-5.08 4.92-12.43 11.04-13.03 10.85-.38-.13 4.48-7.14 7.26-10.48.46-.55 1.58-1.79 2.49-2.75.91-.96 1.65-1.84 1.65-1.96 0-1.04-1.87-3.19-3.03-3.48-.81-.2-1.39.12-3.1 1.71-4.1 3.83-8.93 9.99-10.91 13.92-2.42 4.8-2.33 7.08.38 9.31 1.22 1.01 2.09 1.12 3.28.42 1.1-.64 5.38-4.27 9.07-7.68 2.42-2.24 3.17-2.75 2.87-1.96-.08.21-.26 1.05-.4 1.88-.35 2.04-.03 3.06 1.38 4.47 1.4 1.4 2.36 1.62 3.76.87 1.72-.91 5.56-4.49 8.61-8.04"/><path d="M131.99 42.98c2.21-1.15 3.64-2.37 3.64-3.1 0-.83-1.33-2.09-2.2-2.09-.87 0-2.4 1.16-3.35 2.57-.6.89-.72 1.27-.66 2.01.04.5.15 1.04.25 1.19.26.42.57.35 2.32-.57m68.77 5.71c2.24-2.18 4.48-3.86 4.94-3.71.48.16-2.45 3.04-4.36 4.3-2.77 1.82-2.91 1.68-.58-.59zm77.87 25.99c7.28-3.43 15.27-8.76 17.87-11.91 1.2-1.45 1.48-2.31 1.34-4.07-.26-3.23-3.09-6-5.76-5.64-1.11.15-3.58 1.27-3.58 1.62 0 .66.63.85 1.94.59 1.55-.31 2.77-.32 3.53-.04.49.19.57.36.57 1.14 0 1.32-.57 2.37-2.12 3.9-2.93 2.9-8.71 6.09-16.76 9.26-17.94 7.06-33.62 9.55-44.5 7.09-4.27-.97-6.14-2.08-6.9-4.09-.42-1.12-.47-1.62-.39-3.75.14-3.35 1.03-5.95 4.45-12.9 1.87-3.8 2.66-5.65 2.66-6.2 0-1.11-.7-2.43-2.15-4.03-1.12-1.24-1.24-1.46-1.12-2.11.19-1.01 1.57-3.28 3.13-5.14 1.64-1.95 1.67-2.37.29-3.67-.56-.53-1.12-.97-1.23-.97-.37 0-2.37 1.71-3.32 2.83-1.15 1.37-2.19 3.06-2.54 4.16-.49 1.52-6.3 6.54-12.01 10.36-6.46 4.33-13.73 7.49-17.22 7.49-.53 0-.58-.06-.45-.62.08-.34.54-1.43 1.02-2.42l.88-1.8 1.41.09c1.32.08 1.55.02 3.33-.89 2.83-1.46 6.61-4.51 8.08-6.54 1.74-2.4-.34-5.73-3.59-5.73-4.6 0-12.55 5.91-15.21 11.3-1.49 3.02-1.44 5.18.16 7.67 1.5 2.31 3.84 3.84 6.18 4.03 1.72.14 4.43-.52 6.75-1.64 4.34-2.09 11.64-7.88 18.25-14.5l3-3 1.04 1.19c.58.65 1.05 1.33 1.05 1.51 0 .18-.78 1.42-1.73 2.76-6.91 9.75-8.42 15.79-5.48 21.88 2.89 6 8.87 9.95 16.94 11.2 2.46.38 9.61.44 12.6.11 9.19-1.01 20.7-4.33 29.57-8.51M88.28 22.12c3.62-4.08 13.03-13.57 13.03-13.14 0 .88-7.42 9.21-13.56 15.22-2.32 2.26-4.37 4.12-4.57 4.12-.37 0-.01-.43 5.1-6.19M1.45 105.12c.44.39 1 .7 1.24.7s2.07-.92 4.08-2.05c4.57-2.57 11.66-6.12 16.62-8.31 3.99-1.76 12.43-5.19 13.37-5.42.38-.1.8.03 1.4.44 1.54 1.05 2.37.67 4.04-1.86.54-.81.7-.89 5.19-2.33 18.53-5.93 36.62-9.32 49.78-9.33h3.96l-.02.7c-.01.53.16.87.69 1.34.61.55.89.63 2.06.63 1.35 0 2.85-.45 3.17-.96.84-1.33-1.1-4.39-3.95-6.25-2.33-1.51-3.9-1.86-8.18-1.83-11.48.08-28.91 3.51-45.83 9-1.88.61-3.41 1.01-3.41.9 0-1.03 16.23-25.06 24.04-35.58 3.15-4.25 3.3-4.39 7.75-7.58 14.61-10.48 29-24.88 31.91-31.96.88-2.13.66-3.08-1.04-4.62-.8-.72-1.05-.83-1.69-.73-1.31.21-6.31 3.72-11.73 8.21-8.35 6.92-18.99 17.44-26.72 26.42-8.47 9.83-21.64 27.78-26.6 36.25-2.49 4.25-5.45 10.56-5.87 12.49-.19.87 0 .77-5.64 2.92-6.6 2.53-11.92 4.86-17.87 7.85C3.51 98.53 0 100.91 0 102.45c0 .92.48 1.8 1.45 2.65m199.31-29.93c4.61.4 9.13 1.41 10.44 2.34.43.3.46.43.25 1.11-.46 1.51.79 2.46 2.55 1.93 1.64-.49 1.7-1.91.21-4.22-1.91-2.95-5.44-4.84-11.2-5.99-2.53-.5-11.74-.69-16.65-.33-7.54.55-12.85 1.39-28.34 4.48-11.71 2.34-25.11 5.29-35.58 7.84-4.12 1-9.71 2.26-12.42 2.81-6.76 1.35-9.78 2.01-13.32 2.91-1.66.42-3.12.77-3.24.77-.12 0 .17-.4.65-.88.85-.87.95-1.45.29-1.71-.16-.06-1.6.35-3.19.91-4.27 1.51-5.63 2.41-5.35 3.53.18.71 1.58 2.37 2.21 2.62.77.31 1.48.24 3.6-.36 2.93-.82 21.14-5.37 24.59-6.13 1.62-.36 5.31-1.1 8.2-1.66 2.89-.55 9.19-1.76 13.99-2.69 21.04-4.06 27.26-5.07 39.17-6.39 10.45-1.16 17.25-1.42 23.16-.91"/></g><defs><clipPath id="clip0_57_1614"><path fill="#fff" d="M0 0h297.87v105.82H0z"/></clipPath></defs></svg>