<svg width="203" height="165" fill="none" xmlns="http://www.w3.org/2000/svg"><g clip-path="url(#clip0_216_2449)"><path d="M.832 27.943s42.816-38.92 91.395-23.577c48.579 15.343 45.285 66.393 37.875 84.507-7.41 18.114-23.054 39.522-35.405 35.405-12.35-4.117.338-37.274 39.691-54.454 38.744-16.916 68.22 42.099 65.145 91.86" stroke="#FC1684" stroke-linecap="round" stroke-dasharray="1.65 1.65"/><path d="M199.525 161.416c.729-.646 2.108-.889 3.051-.856-1.322.865-2.504 2.021-3.212 3.462-.502-1.519-1.601-2.758-2.762-3.833 1.004.145 2.215.466 2.923 1.227z" fill="#FC1684"/></g><defs><clipPath id="clip0_216_2449"><path fill="#fff" transform="translate(.42 .373)" d="M0 0h202.155v163.646H0z"/></clipPath></defs></svg>