<svg width="513" height="321" viewBox="0 0 513 321" fill="none" xmlns="http://www.w3.org/2000/svg">
<g clip-path="url(#clip0_146_299)">
<path d="M512 172.19C512 172.19 501.48 249.83 421.01 265.34C336.02 281.73 226.03 266.2 162.04 230.84C90.99 191.58 46.05 132.51 34.05 96.29C22.05 60.06 32.05 6.58002 74.04 1.41002C116.04 -3.76998 136.03 41.09 134.03 72.14C132.03 103.19 122.03 146.32 82.04 187.72C43.09 228.03 -11.48 249.04 7.85997 315.44" stroke="#FC1684" stroke-width="2" stroke-linecap="round" stroke-dasharray="4 4"/>
<path d="M7.7 314.82C8.8 312.73 11.72 310.98 13.89 310.24C11.63 313.34 9.95 316.99 9.58 320.87C7.13 317.86 3.57 315.98 0 314.55C2.4 314.01 5.43 313.7 7.7 314.81V314.82Z" fill="#FC1684"/>
</g>
<defs>
<clipPath id="clip0_146_299">
<rect width="513" height="320.87" fill="white"/>
</clipPath>
</defs>
</svg>
