<svg width="231" height="215" fill="none" xmlns="http://www.w3.org/2000/svg"><g clip-path="url(#clip0_220_2486)"><path d="M.648.649s.59 43.455 37.24 61.61c36.648 18.163 70.341 1.945 83.351-8.432 13.002-10.378 38.425-35.022 60.885-36.967 34.198-2.962 54.338 33.92 44.926 58.37-11.233 29.182-41.232 38.561-89.853 41.588-50.838 3.164-95.2 17.437-102.856 38.834-11.187 31.243 36.449 50.76 49.983 55.609" stroke="#FC1684" stroke-linecap="round" stroke-dasharray="2.59 2.59"/><path d="M83.935 211.092c-.668-1.381-.447-3.572 0-4.991.745 2.372 1.996 4.654 3.883 6.346-2.515.116-4.862 1.251-6.981 2.56.641-1.458 1.646-3.157 3.104-3.909l-.006-.006z" fill="#FC1684"/></g><defs><clipPath id="clip0_220_2486"><path fill="#fff" d="M0 0h230.019v215H0z"/></clipPath></defs></svg>