<svg width="231" height="70" viewBox="0 0 231 70" fill="none" xmlns="http://www.w3.org/2000/svg">
<path d="M54.4594 17.1743C51.5762 17.1743 50.0338 15.8638 48.9048 14.9061C48.0378 14.1702 47.5942 13.7972 46.5055 13.7972C45.4168 13.7972 44.9732 14.1702 44.1063 14.9061C42.9772 15.8638 41.4348 17.1743 38.5617 17.1743C35.6887 17.1743 34.1362 15.8638 33.0072 14.9061C32.1402 14.1702 31.6966 13.7972 30.6079 13.7972V8.93823C33.4911 8.93823 35.0334 10.2487 36.1625 11.2064C37.0295 11.9423 37.473 12.3153 38.5617 12.3153C39.6505 12.3153 40.0941 11.9423 40.961 11.2064C42.0901 10.2487 43.6324 8.93823 46.5156 8.93823C49.3987 8.93823 50.9411 10.2487 52.0702 11.2064C52.9371 11.9423 53.3807 12.3153 54.4694 12.3153C55.5582 12.3153 56.0017 11.9423 56.8687 11.2064C57.9977 10.2487 59.5401 8.93823 62.4233 8.93823V13.7972C61.3245 13.7972 60.891 14.1702 60.024 14.9061C58.895 15.8638 57.3526 17.1743 54.4694 17.1743" fill="white"/>
<path d="M54.4594 8.60549C51.5762 8.60549 50.0338 7.29497 48.9048 6.33729C48.0378 5.60138 47.5942 5.22838 46.5055 5.22838C45.4168 5.22838 44.9732 5.60138 44.1063 6.33729C42.9772 7.29497 41.4348 8.60549 38.5617 8.60549C35.6887 8.60549 34.1362 7.29497 33.0072 6.33729C32.1402 5.60138 31.6966 5.22838 30.6079 5.22838V0.369385C33.4911 0.369385 35.0334 1.6799 36.1625 2.63759C37.0295 3.3735 37.473 3.74649 38.5617 3.74649C39.6505 3.74649 40.0941 3.3735 40.961 2.63759C42.0901 1.6799 43.6324 0.369385 46.5156 0.369385C49.3987 0.369385 50.9411 1.6799 52.0702 2.63759C52.9371 3.3735 53.3807 3.74649 54.4694 3.74649C55.5582 3.74649 56.0017 3.3735 56.8687 2.63759C57.9977 1.6799 59.5401 0.369385 62.4233 0.369385V5.22838C61.3245 5.22838 60.891 5.60138 60.024 6.33729C58.895 7.29497 57.3526 8.60549 54.4694 8.60549" fill="white"/>
<path d="M212.064 57.2662H221.298V43.7679C221.298 39.4331 223.183 37.6085 227.649 37.6085C228.486 37.6085 229.433 37.7193 230.331 37.8202V30.2695C229.645 30.1587 228.808 30.1083 227.861 30.1083C224.393 30.1083 221.661 31.1264 219.776 33.1124L218.828 30.7534H212.054V57.2662H212.064ZM184.614 49.4434C184.614 55.3307 187.709 57.9013 195.007 57.9013C198.102 57.9013 200.834 57.0949 202.719 55.3811L203.344 57.2562H210.008V41.6207C210.008 33.4753 206.076 30.1083 196.57 30.1083C193.263 30.1083 190.118 30.5921 187.073 31.3986V38.5258C190.017 37.6689 192.9 37.2455 195.42 37.2455C199.513 37.2455 201.197 38.2637 201.197 40.8848V42.0642C199.463 41.6408 197.628 41.419 195.793 41.419C188.082 41.419 184.614 43.9897 184.614 49.4535M193.646 49.4031C193.646 48.012 194.856 47.3668 197.326 47.3668C198.798 47.3668 200.108 47.5281 201.207 47.9011V48.4858C201.207 50.5221 199.896 51.4294 196.902 51.4294C194.594 51.4294 193.646 50.7842 193.646 49.393M183.676 30.7534H176.327V22.2855L167.093 23.8379V30.7434H162.738V37.8706H167.093V47.3567C167.093 54.8569 170.349 57.9114 178.384 57.9114C180.218 57.9114 182.003 57.7501 183.686 57.3771V50.1995C182.426 50.4717 181.166 50.6229 179.906 50.6229C177.386 50.6229 176.337 49.5543 176.337 46.9232V37.8706H183.686V30.7434L183.676 30.7534ZM139.744 38.8988C139.744 49.9878 153.081 45.7034 153.081 49.1309C153.081 50.3608 152.133 50.8951 149.824 50.8951C146.73 50.8951 143.524 50.4112 140.318 49.4535V56.6311C143.463 57.488 146.881 57.9114 150.611 57.9114C159.008 57.9114 162.526 55.2299 162.526 48.9092C162.526 37.6084 149.189 41.8928 149.189 38.7274C149.189 37.5984 150.087 37.1246 152.183 37.1246C155.067 37.1246 158.01 37.548 160.843 38.304V31.1768C157.899 30.4812 154.704 30.1083 151.447 30.1083C143.201 30.1083 139.744 32.7293 139.744 38.8887M120.267 57.2662H129.501V43.7679C129.501 39.4331 131.386 37.6085 135.852 37.6085C136.689 37.6085 137.637 37.7193 138.524 37.8202V30.2695C137.838 30.1587 137.002 30.1083 136.054 30.1083C132.586 30.1083 129.854 31.1264 127.969 33.1124L127.021 30.7534H120.247V57.2662H120.267ZM105.62 36.6407C108.19 36.6407 109.4 37.931 109.501 40.8243H101.053C101.366 37.931 102.787 36.6407 105.62 36.6407ZM92.0205 44.03C92.0205 53.8286 96.5368 57.9013 107.293 57.9013C110.963 57.9013 114.219 57.5283 117.112 56.6211V49.5543C114.067 50.4112 110.973 50.8346 108.029 50.8346C103.462 50.8346 101.466 49.6551 101.043 46.7619H118.211C118.322 45.7942 118.372 44.776 118.372 43.5965C118.372 34.06 114.642 30.0982 105.62 30.0982C96.063 30.0982 92.0205 34.1709 92.0205 44.03ZM80.8408 44.03C80.8408 48.6874 79.4799 50.6128 76.1128 50.6128C72.7458 50.6128 71.5966 49.01 71.5966 45.149V42.9009C71.5966 38.9895 72.9071 37.3867 76.1128 37.3867C79.3186 37.3867 80.8408 39.3726 80.8408 44.03ZM62.3625 57.2562H69.3384L70.0744 55.1694C72.2216 56.9941 75.0644 57.9013 78.5826 57.9013C86.8288 57.9013 90.2362 53.8286 90.2362 44.03C90.2362 34.2313 86.8288 30.0982 78.5826 30.0982C75.8507 30.0982 73.5926 30.7434 71.5966 31.9732V19.5435H62.3625V57.2562ZM61.2636 30.7434H51.6565L46.9891 46.2176L41.4748 30.7434H31.4443L42.7853 57.6291L42.4224 58.8086C41.7369 60.845 40.1643 61.7522 36.9082 61.7522C35.6984 61.7522 34.2367 61.5405 32.8153 61.218V68.5065C34.3879 68.8794 36.0714 69.0407 37.6945 69.0407C44.8317 69.0407 48.2996 66.6314 50.7089 59.9881L61.2636 30.7434ZM0.939453 39.2718C0.939453 52.4476 6.39323 57.9114 19.5186 57.9114C23.4602 57.9114 27.1801 57.4275 30.6479 56.5202V48.8588C27.3918 49.766 24.1961 50.2499 21.0408 50.2499C13.7422 50.2499 10.7482 47.0341 10.7482 39.2718C10.7482 31.5095 13.7422 28.2937 21.0408 28.2937C24.186 28.2937 27.3918 28.7776 30.6479 29.6849V22.0234C27.1801 21.1161 23.4602 20.6322 19.5186 20.6322C6.39323 20.6322 0.939453 26.0961 0.939453 39.2718Z" fill="white"/>
</svg>
