<svg width="110" height="39" viewBox="0 0 110 39" fill="none" xmlns="http://www.w3.org/2000/svg">
<path d="M50.9914 17.299H37.0696C37.1099 16.4623 37.3317 15.6558 37.735 14.8896C38.1281 14.1235 38.6624 13.4481 39.3176 12.8735C39.9729 12.2988 40.7491 11.8452 41.6262 11.5226C42.5032 11.19 43.471 11.0287 44.5295 11.0287C46.6868 11.0287 48.2997 11.6436 49.3783 12.8735C50.457 14.1033 50.9914 15.5751 50.9914 17.299ZM60.9614 22.7729V21.4523C60.9614 18.6398 60.5581 16.1296 59.7416 13.932C58.925 11.7343 57.7959 9.85927 56.3443 8.32697C54.8926 6.78459 53.1588 5.61521 51.1325 4.79865C49.1063 3.9821 46.8884 3.57886 44.4689 3.57886C42.0495 3.57886 39.6302 4.00226 37.4729 4.8289C35.3155 5.66561 33.4505 6.84508 31.8678 8.35722C30.2851 9.87943 29.0351 11.7242 28.1076 13.9017C27.1802 16.0792 26.7266 18.5087 26.7266 21.1902C26.7266 23.8717 27.2004 26.4222 28.148 28.5795C29.0956 30.7368 30.396 32.5514 32.0392 34.0232C33.6925 35.495 35.6078 36.6241 37.8156 37.3902C40.0132 38.1564 42.342 38.5395 44.8118 38.5395C48.1586 38.5395 51.0922 37.9346 53.6225 36.7249C56.1528 35.5152 58.1891 33.7914 59.7214 31.5433L52.201 26.7952C51.4551 27.8033 50.4873 28.6299 49.2977 29.265C48.1082 29.9001 46.6566 30.2227 44.9428 30.2227C43.9751 30.2227 43.0375 30.0715 42.1403 29.759C41.233 29.4566 40.4265 29.0231 39.7007 28.4686C38.9749 27.9243 38.3801 27.269 37.9164 26.523C37.4526 25.777 37.1805 24.9403 37.0898 24.0129H60.911C60.9513 23.6197 60.9815 23.1963 60.9815 22.7628" fill="white"/>
<path d="M0.969727 37.4912H25.7183V28.247H11.9881V0.333008H0.969727V37.4912Z" fill="white"/>
<path d="M89.4599 20.9281C89.4599 21.9866 89.2986 23.0149 88.9659 24.033C88.6332 25.0512 88.1393 25.9585 87.484 26.775C86.8288 27.5916 86.0122 28.2368 85.0444 28.7207C84.0766 29.2045 82.9577 29.4465 81.6774 29.4465C80.3971 29.4465 79.2782 29.2045 78.3104 28.7207C77.3427 28.2368 76.5261 27.5916 75.8708 26.775C75.2055 25.9585 74.7115 25.0512 74.3889 24.033C74.0663 23.0149 73.895 21.9866 73.895 20.9281C73.895 19.8696 74.0563 18.8414 74.3889 17.8232C74.7216 16.8151 75.2054 15.9179 75.8405 15.1518C76.4756 14.3856 77.2821 13.7505 78.2499 13.2666C79.2176 12.7827 80.3367 12.5408 81.617 12.5408C82.8973 12.5408 84.0162 12.7827 84.984 13.2666C85.9518 13.7505 86.7684 14.3755 87.4236 15.1518C88.0789 15.9179 88.5929 16.8151 88.9457 17.8232C89.2985 18.8414 89.4699 19.8696 89.4699 20.9281M99.8937 20.9281C99.8937 18.2466 99.4097 15.8272 98.442 13.6699C97.4742 11.5125 96.1537 9.68789 94.4802 8.19592C92.8068 6.70394 90.8713 5.55472 88.6736 4.76841C86.476 3.97202 84.1171 3.57886 81.6069 3.57886C79.0968 3.57886 76.7982 3.97202 74.5804 4.76841C72.3626 5.56481 70.4272 6.70394 68.7739 8.19592C67.1207 9.68789 65.8101 11.5226 64.8423 13.6699C63.8746 15.8272 63.3906 18.2466 63.3906 20.9281C63.3906 23.6096 63.8746 26.0391 64.8423 28.2166C65.8101 30.3941 67.1207 32.2389 68.7739 33.7611C70.4272 35.2833 72.3626 36.4527 74.5804 37.2894C76.7982 38.1261 79.1472 38.5395 81.6069 38.5395C84.0666 38.5395 86.4659 38.1161 88.6736 37.2894C90.8713 36.4527 92.8068 35.2732 94.4802 33.7611C96.1537 32.2389 97.4742 30.3941 98.442 28.2166C99.4097 26.0391 99.8937 23.6096 99.8937 20.9281Z" fill="white"/>
<path d="M109.43 31.765C109.168 31.1803 108.805 30.6763 108.352 30.2731C107.898 29.8698 107.374 29.5573 106.769 29.3355C106.164 29.1238 105.529 29.0129 104.844 29.0129C104.158 29.0129 103.533 29.1238 102.928 29.3355C102.323 29.5472 101.799 29.8597 101.345 30.2731C100.892 30.6763 100.539 31.1803 100.277 31.765C100.015 32.3497 99.8838 33.0151 99.8838 33.7409C99.8838 34.4667 100.015 35.132 100.277 35.7268C100.539 36.3216 100.892 36.8256 101.345 37.239C101.789 37.6523 102.323 37.9749 102.928 38.1967C103.533 38.4285 104.168 38.5394 104.844 38.5394C105.519 38.5394 106.164 38.4285 106.769 38.1967C107.364 37.9749 107.898 37.6523 108.352 37.239C108.805 36.8256 109.168 36.3216 109.43 35.7268C109.692 35.132 109.824 34.4768 109.824 33.7409C109.824 33.005 109.692 32.3497 109.43 31.765Z" fill="white"/>
</svg>
