<svg width="250" height="50" viewBox="0 0 250 50" fill="none" xmlns="http://www.w3.org/2000/svg">
<path d="M1.40125 21.9371H23.8212V27.6429C23.8212 27.6429 22.1276 29.6691 18.2263 34.3064C13.7504 39.6291 17.9642 34.5886 11.1697 42.855C12.9237 42.8751 12.0669 42.855 23.8111 42.855V49.206H0V42.855L12.3693 28.53C12.3693 28.3989 13.0145 27.8143 13.0145 27.8143C13.0145 27.8143 12.4298 27.8546 12.3693 27.8445H1.40125V21.927V21.9371Z" fill="white"/>
<path d="M54.1647 21.937H62.0983V42.8549H72.3708V49.2261C66.2718 49.2261 60.0116 49.2865 53.9429 49.2059C54.0336 38.9536 53.9328 48.9337 54.1647 21.937Z" fill="white"/>
<path d="M74.4675 21.937H82.4113C82.4113 28.913 82.4113 35.8789 82.4315 42.8549H92.6838C92.6434 45.4961 92.7039 46.8268 92.6535 49.2261H74.4675C74.4474 43.5404 74.4675 47.0183 74.4675 30.4252C74.4675 28.0763 74.4373 25.2536 74.4675 21.937Z" fill="white"/>
<path d="M43.4586 35.526C43.4183 39.135 43.1058 41.1411 42.259 42.4012C41.2811 43.621 38.2367 44.2561 35.8576 43.1976C34.9805 42.6734 34.3253 41.8669 34.0027 40.9193C33.4785 38.4797 33.3172 35.9796 33.539 33.4997C33.6902 31.5037 34.0329 29.7295 34.5571 28.9936C34.9705 28.4391 35.0209 28.2275 36.1096 27.794C37.2387 27.2093 39.9202 27.3605 40.6259 27.8545C42.884 28.8726 43.63 30.546 43.4586 35.526ZM52.7129 33.8324C52.3903 29.3162 51.2511 27.4008 49.8801 25.6266C48.8821 24.437 47.6623 23.439 46.3014 22.6829C44.255 21.6849 42.7529 21.322 40.3234 21.0801C39.023 20.9591 38.0855 21.0599 36.654 21.1002C31.8353 21.6043 27.5005 23.3483 25.2625 28.6004C24.8291 29.7698 24.5266 30.9896 24.3452 32.2195C24.1335 34.4474 24.2544 36.4636 24.3452 38.5906C25.8674 46.4336 29.8292 48.4397 34.1438 49.6091C39.9202 50.6776 44.7893 49.1453 42.8638 49.6091C46.4022 48.7723 48.3377 47.3509 50.112 44.9718C51.5233 42.9456 52.5314 40.4455 52.6524 38.0059C52.7431 36.6147 52.7532 35.2337 52.6927 33.8425" fill="white"/>
<path d="M113.995 49.2162V27.4615H109.458V24.2961H118.4V49.2162H113.995Z" fill="white"/>
<path d="M239.513 24.3061H235.127V49.2059H239.513V35.1733C239.513 30.899 242.154 27.1287 246.327 27.1287C247.295 27.1287 248.273 27.4412 249.271 27.7336L248.858 24.0137C248.223 23.8524 247.567 23.7617 246.912 23.7617C243.142 23.7617 240.924 25.3746 239.624 27.9856L239.523 28.0864V24.3162L239.513 24.3061Z" fill="white"/>
<path d="M226.165 49.206H230.55V30.1934C230.55 26.2719 228.121 23.7517 220.53 23.7517C217.334 23.782 214.148 24.2154 211.074 25.0622L210.56 28.4797C213.523 27.0986 216.78 26.3828 220.066 26.3728C222.495 26.3728 226.155 26.9272 226.155 29.9414C226.155 36.625 207.717 33.006 207.717 42.6635C207.717 47.6939 211.386 49.7504 216.749 49.7504C218.705 49.7706 220.661 49.5992 222.586 49.2463L223.312 46.2321C221.598 46.8067 219.804 47.1092 217.989 47.1394C215.358 47.1394 212.102 46.2321 212.102 43.0667C212.102 37.2299 223.151 37.6331 226.145 34.7701V49.206H226.165Z" fill="white"/>
<path d="M171.184 24.3062H166.778V49.206H171.184V35.375C171.184 30.5967 173.976 27.1289 178.21 27.1289C181.718 27.1289 183.422 29.0341 183.422 31.8669V49.2161H187.807V35.3851C187.807 30.6068 190.6 27.1389 194.834 27.1389C198.352 27.1389 200.055 29.0543 200.055 31.877V49.2262H204.441V30.5664C204.441 25.8889 200.781 23.782 196.285 23.782C192.313 23.782 189.108 25.3445 187.505 28.8628C186.376 25.2437 183.17 23.782 179.551 23.782C175.932 23.782 172.625 25.647 171.284 28.52L171.184 28.4192V24.3163V24.3062Z" fill="white"/>
<path d="M157.665 49.206H162.051V30.1934C162.051 26.2719 159.621 23.7517 152.03 23.7517C148.834 23.782 145.659 24.2154 142.574 25.0622L142.06 28.4797C145.024 27.0986 148.27 26.3828 151.566 26.3728C153.996 26.3728 157.655 26.9272 157.655 29.9414C157.655 36.625 139.217 33.006 139.217 42.6635C139.217 47.6939 142.887 49.7504 148.25 49.7504C150.205 49.7706 152.161 49.5992 154.087 49.2463L154.812 46.2321C153.099 46.8067 151.304 47.1092 149.49 47.1394C146.859 47.1394 143.602 46.2321 143.602 43.0667C143.602 37.2299 154.651 37.6331 157.645 34.7701V49.206H157.665Z" fill="white"/>
<path d="M129.64 24.3059V18.8723L125.255 19.7796V24.3059H122.049V27.431H125.255V43.7722C125.255 48.1473 127.372 49.7602 131.767 49.7602C133.35 49.73 134.923 49.5283 136.465 49.1554L136.979 45.7783C135.709 46.1311 134.409 46.3327 133.088 46.3831C130.245 46.3831 129.63 44.4879 129.63 42.1088V27.4209H136.606V24.2959H129.65L129.64 24.3059Z" fill="white"/>
<path d="M84.1758 14.1847C84.1657 16.6646 86.2122 18.6808 88.7626 18.6909H93.0269C92.9865 20.2131 93.0269 21.7252 93.1579 23.2474C93.1781 23.4995 93.2184 23.7414 93.2789 23.9833C93.4099 24.81 93.8434 25.5559 94.4987 26.1003C96.3032 27.8443 99.2165 27.8443 101.011 26.0903C101.868 25.2435 102.352 24.1144 102.352 22.9248V18.7009C102.352 13.7512 98.2286 9.73901 93.1377 9.73901H88.5106C88.6013 9.73901 88.6921 9.73901 88.7828 9.73901C88.5308 9.73901 88.2687 9.75917 88.0166 9.7995C85.7988 10.1624 84.1758 12.0274 84.1758 14.225M94.3575 25.9693L94.4483 26.06C94.4483 26.06 94.3878 25.9995 94.3575 25.9693ZM93.672 25.0217C93.8535 25.3544 94.0652 25.6568 94.3172 25.929C94.0551 25.6669 93.8333 25.3544 93.672 25.0217Z" fill="white"/>
<path d="M111.586 13.3178C111.586 10.8479 109.519 8.84184 106.989 8.84184H102.745C102.785 7.31963 102.745 5.80748 102.603 4.29534C102.593 4.04332 102.553 3.8014 102.482 3.55946C102.351 2.73282 101.918 1.97675 101.263 1.44246C99.4582 -0.30154 96.5448 -0.301551 94.7504 1.46261C93.8935 2.29932 93.4097 3.43848 93.4097 4.62803V8.88218C93.4097 13.8319 97.5328 17.8441 102.614 17.8441H106.968C107.221 17.8441 107.483 17.8239 107.735 17.7836C109.952 17.4207 111.575 15.5557 111.575 13.3581M101.384 1.57351C101.384 1.57351 101.323 1.51303 101.293 1.48279C101.323 1.51303 101.353 1.54327 101.384 1.57351ZM102.069 2.52112C101.888 2.18845 101.676 1.88603 101.424 1.61385C101.686 1.88603 101.908 2.18845 102.069 2.52112Z" fill="white"/>
</svg>
