<svg width="212" height="68" viewBox="0 0 212 68" fill="none" xmlns="http://www.w3.org/2000/svg">
<path d="M140.1 0.801025C139.979 1.06313 138.618 1.29499 138.497 1.55709C136.491 6.05318 139.072 9.22868 141.048 13.8861C140.725 13.755 140.503 13.876 140.181 13.7449C137.398 12.6259 136.108 11.4767 133.326 10.3477C127.247 7.89799 123.608 6.00278 117.045 5.86165C114.061 5.80116 111.168 3.79506 109.454 7.17217C110.795 10.3174 112.559 11.4868 115.432 13.3719L117.68 14.2389L120.654 15.4385C114.666 18.0696 104.575 14.501 101.994 20.2774C101.268 21.9105 106.43 23.6444 108.144 24.34C111.712 25.7815 113.89 26.2957 117.71 26.9509L118.376 27.4247C112.609 30.4087 100.906 29.7333 104.091 35.3987C110.311 37.9089 117.509 35.7012 124.273 36.2455C122.6 39.9956 115.533 42.4453 118.819 46.5482C123.678 46.9515 126.884 46.0038 130.795 43.2618C132.56 41.9916 133.316 40.3182 135.473 40.1468C138.749 39.9049 145.262 42.1429 147.913 40.2476C150.735 38.2113 148.004 33.0599 151.048 31.2655C153.417 29.8744 154.032 30.57 156.582 31.5982C160.383 33.1305 162.571 34.1185 165.675 36.7294C166.139 35.4592 166.028 34.4713 165.716 33.2112C161.361 31.447 158.901 30.4591 154.536 28.6949C148.649 26.3158 152.943 19.2592 151.854 13.2409C150.665 6.82941 144.788 6.01286 140.11 0.801025" fill="white"/>
<path d="M79.0002 1.7688C79.0607 2.05106 80.341 2.54502 80.4015 2.82728C81.3793 7.6258 78.1635 10.2166 75.2199 14.38C75.5626 14.3195 75.7542 14.4808 76.0969 14.4103C79.0607 13.8659 80.5829 12.9989 83.5467 12.4445C90.0288 11.2448 94.0006 10.1259 100.452 11.2751C103.386 11.8094 106.652 10.4182 107.59 14.0574C105.594 16.87 103.618 17.6563 100.382 18.9366L97.9927 19.3398L94.8272 19.9245C100.11 23.6847 110.765 22.1826 112.025 28.3521C112.378 30.0961 106.955 30.7716 105.12 31.1042C101.309 31.8099 99.0713 31.8805 95.2003 31.7696L94.4442 32.1022C99.4342 36.1548 111.027 37.8181 106.672 42.7275C100.049 43.9473 93.4764 40.3787 86.7424 39.5722C87.5589 43.5743 93.9401 47.3547 89.8271 50.7217C84.9883 50.1471 82.0547 48.5946 78.8288 45.1369C77.3772 43.5542 77.0042 41.7598 74.9376 41.1751C71.7823 40.298 64.9273 41.1952 62.7498 38.8161C60.4312 36.2657 64.2317 31.7595 61.651 29.4107C59.6348 27.586 58.8787 28.1405 56.167 28.6445C52.1144 29.3905 49.7555 29.9248 46.1465 31.8603C45.9752 30.5196 46.2977 29.582 46.8724 28.4026C51.5197 27.5457 54.1407 27.0618 58.788 26.1948C65.0684 25.0355 62.407 17.2732 64.7861 11.6179C67.3467 5.57939 73.2743 5.95238 78.9901 1.7688" fill="white"/>
<path d="M11.9418 66.4177V60.6918C11.9418 56.8509 8.79654 54.7944 5.07668 54.7944H4.46176C3.23189 54.7944 2.02218 55.0162 0.29834 55.3287L1.19556 57.9599C2.52624 57.234 4.10893 56.9215 5.05653 56.9215C7.21385 56.9215 8.37316 58.5647 8.37316 60.5708V66.4177H11.9519H11.9418ZM4.32061 59.6333H0.933442V66.4177H4.32061V59.6333Z" fill="white"/>
<path d="M25.9947 66.4177V64.0991H24.8354V60.6918C24.8354 56.9014 21.9926 54.7944 18.2021 54.7944H17.5872C16.3573 54.7944 15.571 54.8952 13.8472 55.2078L14.7444 57.8389C16.065 57.113 17.2243 56.9215 18.1719 56.9215C20.3292 56.9215 21.2466 58.5345 21.2466 60.5708V64.0991H13.9077V66.4177H25.9846H25.9947Z" fill="white"/>
<path d="M31.1963 60.0366V55.0566H27.8091V61.1959L31.1963 60.0366Z" fill="white"/>
<path d="M45.2491 66.4177V64.0991H44.0898V60.6918C44.0898 56.9014 41.2469 54.7944 37.4565 54.7944H36.8416C35.6117 54.7944 34.8355 54.8952 33.1016 55.2078L33.9987 57.8389C35.3294 57.113 36.4887 56.9215 37.4363 56.9215C39.5937 56.9215 40.511 58.5345 40.511 60.5708V64.0991H33.1721V66.4177H45.2491Z" fill="white"/>
<path d="M60.0576 60.6918C60.0576 56.8308 56.4789 54.7944 52.88 54.7944C50.7529 54.7944 49.4525 54.9658 47.0532 55.7118V60.6414C47.0532 64.1193 49.6138 66.6798 53.3739 66.6798C57.1341 66.6798 60.0475 64.3411 60.0475 60.6918M56.4688 60.601C56.4688 62.466 55.4708 64.6132 53.5554 64.6132C51.4989 64.6132 50.6219 62.9196 50.6219 60.9639V57.1433C51.4082 56.9215 51.9223 56.9215 52.8699 56.9215C55.2389 56.9215 56.4688 58.3933 56.4688 60.591" fill="white"/>
<path d="M72.9311 66.4177V60.6918C72.9311 56.8509 69.7858 54.7944 66.0659 54.7944H65.451C64.2211 54.7944 63.0114 55.0162 61.2876 55.3287L62.1848 57.9599C63.5155 57.234 65.0982 56.9215 66.0458 56.9215C68.2031 56.9215 69.3624 58.5647 69.3624 60.5708V66.4177H72.9411H72.9311ZM65.3099 59.6333H61.9227V66.4177H65.3099V59.6333Z" fill="white"/>
<path d="M94.625 66.4177V60.6918C94.625 56.8308 91.4999 54.7944 87.7599 54.7944C86.2679 54.7944 84.7961 55.1069 82.79 55.6211L83.5763 57.0223L83.5965 62.5567C83.5965 63.333 83.6872 64.5427 82.5783 64.5427C81.9633 64.5427 81.5803 64.3713 80.9956 64.2503V66.1355C82.0642 66.4984 82.6489 66.6899 83.5057 66.6899C86.4695 66.6899 86.9635 64.7141 86.9635 62.6576V56.9518C87.2256 56.9316 87.4877 56.9518 87.7397 56.9518C89.897 56.9518 91.0563 58.5748 91.0563 60.601V66.4177H94.6351H94.625Z" fill="white"/>
<path d="M102.811 66.4177V58.8268C102.811 56.7703 102.287 54.7944 99.3328 54.7944C98.476 54.7944 97.6695 55.0364 96.611 55.3993V57.234C97.2058 57.1131 97.8006 56.9417 98.4155 56.9417C99.5042 56.9417 99.4336 58.101 99.4336 58.8469V64.089H96.4497V66.4076H102.821L102.811 66.4177Z" fill="white"/>
<path d="M111.461 66.4179V58.8269C111.461 56.7704 110.937 54.7744 107.983 54.7744C107.126 54.7744 106.32 55.0164 105.261 55.3793V57.2442C105.856 57.1232 106.441 56.9519 107.066 56.9519C108.154 56.9519 108.084 58.0406 108.084 58.7866V61.0347C107.539 62.2141 106.259 63.2323 104.626 63.8371V67.1235C106.4 66.3977 107.187 65.813 108.064 64.7041V66.4179H111.471H111.461Z" fill="white"/>
<path d="M124.788 66.4177V60.6918C124.788 56.8509 121.643 54.7944 117.923 54.7944H117.308C116.078 54.7944 114.868 55.0162 113.134 55.3287L114.031 57.9599C115.362 57.234 116.945 56.9215 117.892 56.9215C120.05 56.9215 121.209 58.5647 121.209 60.5708V66.4177H124.788ZM117.167 59.6333H113.779V66.4177H117.167V59.6333Z" fill="white"/>
<path d="M137.469 57.8388V55.0565H130.463V52.2742H126.884V57.3751H134.082V58.6756C134.082 59.1393 133.558 59.6635 133.185 59.9861C131.501 61.3571 129.203 62.5265 129.203 65.087V66.4177H132.59V64.1898C132.59 63.3934 134.253 62.3551 134.818 61.9216C136.028 61.0042 137.469 59.7744 137.469 57.8388Z" fill="white"/>
<path d="M156.059 57.3752V55.0566H145.504V57.3752H150.998V66.4178H154.375V57.3752H156.059Z" fill="white"/>
<path d="M167.984 66.4177V60.6918C167.984 56.8509 164.839 54.7944 161.119 54.7944H160.504C159.295 54.7944 158.468 54.986 157.167 55.2279L158.065 57.859C159.395 57.1131 160.172 56.9215 161.099 56.9215C163.256 56.9215 164.416 58.5647 164.416 60.5708V66.4177H167.994H167.984Z" fill="white"/>
<path d="M178.649 56.4579V55.0566H175.262C175.262 56.2159 175.313 57.3752 175.121 58.5144C174.93 59.5326 175.222 59.5023 174.244 60.833L175.454 62.5468C176.381 62.1838 176.502 62.0629 177.016 61.6294C178.649 60.2987 178.649 58.1011 178.649 56.4579ZM183.831 55.0566H180.323C180.252 57.2543 180.162 59.0487 179.95 60.7624C179.708 62.7181 178.72 64.0992 176.583 64.0992H174.073L173.387 55.0667H170L170.877 66.4279H176.089C180.02 66.4279 182.863 65.7222 183.307 61.327C183.498 59.4217 183.639 57.5063 183.831 55.0667" fill="white"/>
<path d="M198.912 60.6918C198.912 56.8509 195.646 54.7944 191.977 54.7944C191.029 54.7944 189.96 55.0868 189.184 55.5505C188.378 54.9658 187.38 54.8952 186.513 54.8952H186.16L185.263 56.6594C187.178 56.6392 187.299 57.0223 187.299 58.3026C187.299 59.2704 187.228 60.2583 187.037 61.2059C186.684 62.9398 186.513 64.4217 186.14 66.4278H189.194C189.547 64.5931 189.759 63.091 190.051 61.4478C190.243 60.4095 190.364 59.3712 190.364 58.3026C190.364 57.4558 191.473 56.6393 192.38 56.6393C194.698 56.6393 195.717 58.474 195.717 60.601C195.717 62.8995 194.487 64.6838 192.047 64.6838C191.805 64.6838 190.908 64.3008 190.626 64.1999L190.172 66.3976C191.069 66.569 191.694 66.6899 192.299 66.6899C196.039 66.6899 198.932 64.5427 198.932 60.7019" fill="white"/>
<path d="M211.786 66.4177V60.6918C211.786 56.8509 208.641 54.7944 204.921 54.7944H204.306C203.076 54.7944 201.866 55.0162 200.143 55.3287L201.04 57.9599C202.37 57.234 203.953 56.9215 204.901 56.9215C207.058 56.9215 208.217 58.5647 208.217 60.5708V66.4177H211.796H211.786ZM204.165 59.6333H200.778V66.4177H204.165V59.6333Z" fill="white"/>
</svg>
