<svg width="166" height="38" viewBox="0 0 166 38" fill="none" xmlns="http://www.w3.org/2000/svg">
<path d="M62.5885 18.7984C62.5885 15.9757 62.2659 13.516 61.6106 11.278C60.8848 8.97957 59.6751 6.88272 57.911 4.86654C55.9149 2.73947 53.8988 1.47937 51.56 0.884599C50.0781 0.400716 47.6688 0.148682 44.4026 0.148682H35.6221V13.8386H44.4026C45.7736 13.8386 46.9631 13.8386 47.2655 13.8991L47.3462 13.9394H47.4873C48.3946 14.0503 49.0398 14.3426 49.6043 14.9072C50.3704 15.6733 50.7837 17.0241 50.7837 18.8085V24.0102H35.9749V37.5791H65.4112V24.0102H62.5885V18.8085V18.7984Z" fill="white"/>
<path d="M88.9398 5.9352C86.8833 3.61659 84.7864 2.08427 82.5283 1.25764C80.6734 0.521732 78.123 0.138672 74.9475 0.138672H67.3364V13.8285H74.9475C76.1371 13.8285 77.1854 13.8991 78.0726 14.0503C78.7782 14.2318 79.4537 14.6854 80.0686 15.4012C81.0162 16.8326 81.4396 17.9113 81.4396 18.9194V37.5691H93.2544V18.7984C93.2544 16.2278 92.9621 13.8386 92.3875 11.8527C91.7423 9.92723 90.5931 7.9413 88.9398 5.9352Z" fill="white"/>
<path d="M117.872 18.5665C117.872 20.2299 117.469 21.6009 116.662 22.619C115.947 23.3247 115.271 23.7078 114.364 23.9094C114.052 23.99 113.174 24.0001 111.935 24.0001V0.148682H100.241V24.0001H95.543V37.569H109.616C113.588 37.569 116.471 37.317 118.165 36.8432C121.017 36.0972 123.376 34.5145 125.403 31.9842C128.286 28.3753 129.687 23.9901 129.687 18.5665V0.148682H117.872V18.5665Z" fill="white"/>
<path d="M133.145 37.5894L145.02 37.5692V16.8328H133.145V37.5894Z" fill="white"/>
<path d="M164.375 11.2781C163.65 8.97964 162.45 6.89287 160.676 4.86661C158.72 2.77986 156.674 1.46937 154.456 0.894757C152.843 0.400793 150.454 0.148749 147.177 0.148749L133.044 0.0681152V13.8386H147.167C149.567 13.8386 151.25 14.4032 152.177 15.5221C152.994 16.6512 153.417 17.7803 153.417 18.7984V37.5691H165.232V18.7984C165.232 15.6532 164.96 13.2741 164.375 11.2781Z" fill="white"/>
<path d="M0.883301 37.5894L12.7586 37.5692V16.8328H0.883301V37.5894Z" fill="white"/>
<path d="M28.4039 4.86631C26.4483 2.77957 24.4018 1.46908 22.184 0.894463C20.561 0.400498 18.1819 0.158545 14.9056 0.158545L0.782227 0.0778809V13.8484H14.9056C17.3049 13.8484 18.9883 14.413 19.9158 15.5319C20.7323 16.661 21.1558 17.7901 21.1558 18.8082V37.5789H32.9706V18.8082C32.9706 15.6731 32.6984 13.2839 32.1137 11.2879C31.3879 8.98943 30.1781 6.90267 28.414 4.87641" fill="white"/>
</svg>
