<svg width="210" height="30" viewBox="0 0 210 30" fill="none" xmlns="http://www.w3.org/2000/svg">
<path d="M28.0966 26.4216L27.512 19.3145L24.3667 19.627C24.2256 17.4697 24.0945 14.0522 23.6913 9.51584C23.288 5.29194 22.3001 2.36848 16.5842 2.36848H10.6063C8.17676 2.36848 6.20089 0.886595 5.6162 0.523682L2.65241 6.90489C3.1867 7.2678 5.43479 9.19324 10.5156 9.19324H14.1144C15.556 9.19324 16.3221 10.3122 16.4028 11.6227C16.4935 12.6107 17.0278 20.3427 17.0278 20.3427L0.979004 22.0464L1.56371 28.972L28.0866 26.4115L28.0966 26.4216Z" fill="white"/>
<path d="M49.7002 26.6938L45.9299 3.86057L36.9881 0.715332L34.9619 7.49977L39.8209 9.25384L40.6778 15.4536L31.373 22.6514C32.986 26.5124 32.2703 24.8994 33.4397 27.46L42.1596 21.8348L43.2887 27.8531L49.7203 26.6837L49.7002 26.6938Z" fill="white"/>
<path d="M66.5253 27.0567V4.30411L57.1299 1.06812L54.2971 7.54008L59.4686 9.43529V20.9376L54.0249 21.6634L53.0874 28.5386L66.5253 27.0567Z" fill="white"/>
<path d="M79.9533 15.01H72.8967V27.4196H79.9533V15.01ZM96.234 27.4196V9.65704C96.234 5.47346 95.6493 2.37862 90.256 2.37862H81.7578C78.9251 2.37862 76.1831 1.34027 74.429 -0.000488281C73.6628 1.75359 71.687 5.97751 71.3745 6.69325C72.9068 8.31628 76.1831 9.21348 78.6529 9.21348H89.1673V27.4196H96.2239H96.234Z" fill="white"/>
<path d="M143.927 27.4197V8.49783C143.927 6.30019 143.655 2.42913 138.171 2.42913H127.203C124.37 2.42913 121.628 1.40089 119.874 0.0500488C119.108 1.80413 117.081 6.02801 116.769 6.74376C117.575 7.55023 118.876 8.22567 120.368 8.81036V20.6756L116.184 21.3913L115.105 28.5387L127.424 26.6032V9.2035H136.86V27.4096H143.917L143.927 27.4197Z" fill="white"/>
<path d="M180.652 27.4198L179.442 2.37881H173.373C165.369 2.37881 160.066 7.14706 160.066 7.14706L153.635 1.39087L148.423 6.83456L155.479 13.1755L150.177 26.3915L156.972 28.821L160.923 18.972C163.222 13.3569 164.472 11.875 168.786 10.3427C171.075 9.53625 172.567 9.75801 172.567 9.75801L173.242 21.3108L164.613 22.2079L165.288 29.0025L180.662 27.4299L180.652 27.4198Z" fill="white"/>
<path d="M209.372 27.4196V10.0199C209.372 5.83636 208.425 2.37862 203.031 2.37862H194.896C192.063 2.37862 189.321 1.34027 187.567 -0.000488281C186.801 1.75359 184.825 5.97751 184.513 6.69325C186.045 8.31628 189.321 9.21348 191.791 9.21348H202.316V27.4196H209.372Z" fill="white"/>
</svg>
