<svg width="152" height="74" viewBox="0 0 152 74" fill="none" xmlns="http://www.w3.org/2000/svg">
<path d="M94.2199 56.7383C91.5585 65.3877 87.4757 65.3877 86.1652 64.3393C84.5825 63.0288 85.0765 61.4158 86.1652 60.1355C87.254 58.8552 93.8369 53.6535 88.7561 38.0684C84.2096 24.1265 81.2458 14.0859 80.2881 11.606C80.1268 11.2532 80.0361 11.0515 80.0361 11.0515C80.0965 11.1322 80.1772 11.3237 80.2881 11.606C81.5381 14.348 87.0423 26.4653 88.0101 29.0561C89.1089 31.9997 96.9316 49.5909 94.2199 56.7383ZM93.5142 28.0076C90.3085 23.2595 83.2921 9.81161 80.7114 3.22878L79.653 0.5271L78.6752 3.25902C76.9917 7.95672 72.8685 16.5255 66.6183 27.0399C66.1143 27.8968 64.9852 29.7617 63.715 32.2517C62.4347 34.7619 61.0033 37.9172 59.9045 41.3246C57.7069 48.0888 56.6584 56.2745 61.0637 62.5146C65.6909 69.0773 72.6467 73.15 79.3505 73.15C86.0543 73.15 96.5788 69.914 100.379 60.0549C104.19 50.1957 100.984 39.1067 93.5243 28.0177" fill="white"/>
<path d="M148.273 28.9551C147.699 28.5922 147.275 28.4208 147.023 28.4208C146.58 28.4208 146.166 28.693 145.804 29.2273L142.799 33.431C145.007 34.6811 146.116 37.1005 146.116 40.6893C146.116 44.7116 144.604 47.2822 141.58 48.3811L140.935 48.623L139.019 36.5259C138.354 32.2919 136.469 29.5902 133.374 28.4208C132.89 28.2293 132.446 28.441 132.063 29.0559L129.372 33.5722C130.612 34.2375 131.529 34.923 132.104 35.6287C132.769 36.4251 133.313 37.5743 133.727 39.0764L136.882 49.7722V49.873C135.551 50.4779 133.091 51.2037 129.503 52.0505L129.412 52.2017L131.408 56.1837C131.841 57.0305 132.608 57.3127 133.717 57.0406C136.549 56.3047 139.543 55.105 142.699 53.4518C145.763 51.8086 148.052 49.6714 149.564 47.0504C151.046 44.5402 151.792 41.8889 151.792 39.0865C151.792 33.8948 150.612 30.5177 148.253 28.9753M126.055 31.5358C125.289 30.6386 124.432 29.8624 123.505 29.187C122.577 28.5217 121.861 28.189 121.357 28.189C121.015 28.189 120.561 28.6224 119.976 29.4894L117.577 33.0278V33.2194C118.595 33.8545 119.381 34.4089 119.936 34.8827C121.236 35.8101 121.892 36.9896 121.892 38.4211C121.892 38.9252 121.66 39.9736 121.206 41.5764C120.571 43.2499 120.047 44.6209 119.623 45.6793L119.714 46.0019C120.067 46.0019 120.732 45.76 121.7 45.266C122.668 44.7821 123.222 44.4495 123.353 44.2882C124.745 42.5341 125.712 40.9615 126.267 39.6006C127.023 37.6348 127.396 35.9613 127.396 34.5903C127.396 33.6125 126.942 32.5943 126.045 31.5358M115.5 37.0299C115.5 34.1972 114.512 31.8786 112.547 30.064C111.448 29.0761 110.52 28.4713 109.764 28.2797C109.331 28.1487 108.928 28.3906 108.545 29.0156L105.722 33.1689C108.595 34.5399 110.036 36.5763 110.036 39.278V64.9541H110.994L114.553 62.2927C115.188 61.8088 115.51 61.0023 115.51 59.8934V37.0299H115.5ZM54.5007 31.5358C53.7345 30.6386 52.8777 29.8624 51.9503 29.187C51.0228 28.5217 50.3071 28.189 49.803 28.189C49.4603 28.189 49.0066 28.6224 48.422 29.4894L46.0227 33.0278V33.2194C47.0409 33.8545 47.8271 34.4089 48.3816 34.8827C49.682 35.8101 50.3374 36.9896 50.3374 38.4211C50.3374 38.9252 50.1054 39.9736 49.6518 41.5764C49.0167 43.2499 48.4925 44.6209 48.0691 45.6793L48.1598 46.0019C48.5127 46.0019 49.178 45.76 50.1458 45.266C51.1135 44.7821 51.668 44.4495 51.799 44.2882C53.1902 42.5341 54.1681 40.9615 54.7124 39.6006C55.4685 37.6348 55.8415 35.9613 55.8415 34.5903C55.8415 33.6125 55.3879 32.5943 54.4806 31.5358M29.6715 39.651L28.9859 39.3788L25.4778 41.4756C24.6612 41.9797 24.2579 42.9374 24.2579 44.3386V54.9437H25.1652L28.4819 52.4033C29.2783 51.7985 29.6814 51.113 29.6814 50.3468V39.651H29.6715ZM44.3694 38.1388C44.3694 32.4028 41.9096 29.5398 36.9901 29.5398H28.4819C27.9778 29.5398 27.5343 29.3281 27.1513 28.9148C26.7682 28.5015 26.3851 28.068 25.9919 27.6345H25.6995L23.2096 32.2314C23.0886 32.5036 23.0281 32.7456 23.0281 32.9371C23.0281 33.2496 23.1188 33.5319 23.2902 33.794C24.1672 35.0642 25.3669 35.6993 26.8891 35.6993H34.984C36.3449 35.6993 37.343 36.0118 37.9681 36.6267C38.5931 37.2416 38.9055 38.3505 38.9055 39.9534V54.9538H39.8633L43.3714 52.3126C44.0368 51.7783 44.3694 51.0726 44.3694 50.2158V38.1489V38.1388ZM21.3849 48.6936H17.8062C17.6147 48.6936 17.5037 48.6129 17.4735 48.4516C17.4735 48.2903 17.5038 48.1593 17.5643 48.0585C18.6026 46.7278 19.1167 45.0241 19.1167 42.9474V36.284C19.1167 31.7879 16.9795 29.5398 12.6951 29.5398H6.86834C6.34413 29.5398 5.8905 29.3281 5.49735 28.9148C5.10419 28.5015 4.71111 28.068 4.30787 27.6345H4.03567L1.59604 32.2314C1.43475 32.5036 1.35411 32.7456 1.35411 32.9371C1.35411 33.2496 1.44488 33.5319 1.64649 33.794C2.22111 34.5904 2.69493 35.1146 3.05785 35.3464C3.42076 35.5783 4.00545 35.6993 4.82201 35.6993H11.0218C12.0097 35.6993 12.7255 35.9513 13.1489 36.4452C13.5722 36.9392 13.784 37.8263 13.784 39.0965V45.0543C13.784 46.4556 13.6629 47.3629 13.431 47.7863C13.1084 48.3911 12.3827 48.6936 11.2536 48.6936H3.43084C2.82598 48.6936 2.42268 48.9758 2.23114 49.5504L0.960938 54.1675V54.6514H18.8143C19.4797 54.6514 19.9131 54.2884 20.1248 53.5525L21.395 49.0565V48.6936H21.3849Z" fill="white"/>
</svg>
