<svg width="182" height="57" viewBox="0 0 182 57" fill="none" xmlns="http://www.w3.org/2000/svg">
<path d="M27.5039 56.3203H23.1993V41.9953H4.34801V56.3304H0.0636193L0.043457 26.3699H4.34801V39.1626H23.1993L23.1892 26.3599H27.4938L27.5039 56.3203Z" fill="white"/>
<path d="M38.8848 26.3093H43.1792L43.1994 56.3202H38.8948L38.8848 26.3093Z" fill="white"/>
<path d="M80.5795 56.3002H75.4987L62.6052 41.2695L58.9358 44.5358V56.3204H54.6514V26.2893H58.9358L58.9458 40.947H59.1575C60.1354 39.7977 61.214 38.709 62.202 37.7211L74.2083 26.2893H79.4807L65.6194 39.0618L80.5896 56.3002H80.5795Z" fill="white"/>
<path d="M105.741 43.9613L101.85 35.0598C101.013 33.0134 100.348 31.1283 99.8339 29.354H99.6726C99.1585 31.1585 98.4326 33.0436 97.7169 34.9388L93.7753 43.9512H105.741V43.9613ZM115.429 56.2802H110.862L106.618 46.5521H92.8881L88.7449 56.2802H84.3496L97.3842 26.2693H102.354L115.419 56.2701L115.429 56.2802Z" fill="white"/>
<path d="M133.131 40.4835C138.625 40.4835 142.134 38.1044 142.134 34.4954C142.134 30.0396 137.728 28.6686 132.91 28.6686C130.591 28.6686 128.928 28.8299 128.061 28.9912V40.4935H133.131V40.4835ZM139.129 41.8746C142.194 42.6307 144.009 44.8787 144.936 48.1349C146.176 52.4697 147.053 55.1109 147.839 56.25H143.384C142.759 55.3931 141.882 52.7419 140.853 49.0119C139.714 44.8384 137.537 42.9835 132.869 42.9835H128.061V56.2601H123.766V26.6928C126.186 26.2895 129.603 26.0577 132.708 26.0476C137.829 26.0476 141.196 26.844 143.535 28.4872C145.39 29.7977 146.488 31.8441 146.488 34.0821C146.488 38.0641 143.333 40.6145 139.15 41.7637V41.8746H139.129Z" fill="white"/>
<path d="M160.481 26.249H156.176V56.2599H160.481V26.249Z" fill="white"/>
<path d="M178.395 25.8156C178.345 25.3317 178.022 24.5958 177.72 24.2127L177.669 24.1321L177.619 24.0615L177.568 23.9809L177.498 23.8801L177.417 23.7893L177.337 23.6785L177.236 23.5575L177.125 23.4365L177.004 23.3055L176.873 23.1643L176.722 23.0232L176.56 22.872L176.389 22.7208L176.187 22.5595L175.986 22.3881L175.804 22.2671L175.623 22.126L175.421 21.9849L175.21 21.8538L175.008 21.7228L174.806 21.5816L174.625 21.4506L174.443 21.3397L174.292 21.2288L174.161 21.128L174.03 21.0272L173.889 20.9163L173.768 20.8054L173.647 20.7046L173.536 20.5937L173.385 20.4425L173.244 20.2812L173.093 20.1098L172.941 19.9183L172.77 19.7167L172.578 19.4445L172.387 19.1521L172.195 18.8497L172.024 18.5473L171.853 18.2348L171.711 17.9223L171.59 17.6097L171.47 17.2972L171.379 16.9747L171.308 16.6319L171.248 16.3093L171.207 15.9766L171.177 15.6541V15.3113V14.9786V14.6359L171.248 14.3032L171.328 13.9806L171.419 13.658L171.53 13.3354L171.651 13.033L171.792 12.7306L171.953 12.4282L172.125 12.1358L172.306 11.8535L172.508 11.5814L172.72 11.3092L172.961 11.0471L173.203 10.8051L173.455 10.5531L173.718 10.3313L173.98 10.1196L174.171 9.95832L174.363 9.8172L174.554 9.67605L174.736 9.55509L174.907 9.44421L175.048 9.37364L175.189 9.29298L175.341 9.22243L175.502 9.15186L175.653 9.09138L175.804 9.03089L175.986 8.96032L176.177 8.88974L176.389 8.80911L176.621 8.72845L176.853 8.64781L177.085 8.56715L177.316 8.48651L177.528 8.39579L177.73 8.30507L177.982 8.19416L178.214 8.09337L178.425 7.98247L178.617 7.88165L178.788 7.78084L178.95 7.69011L179.101 7.58933L179.232 7.49857L179.353 7.40785L179.464 7.32722L179.564 7.24655L179.655 7.17601L179.736 7.10543L179.806 7.04495L179.857 6.99453L179.897 6.96429C181.45 5.66385 181.681 3.36541 180.391 1.80286C179.101 0.220161 176.792 -0.0217798 175.21 1.26858C174.816 1.55084 174.322 2.2061 174.151 2.64966L174.111 2.73032L174.08 2.81096L174.03 2.91177L173.99 3.01259L173.939 3.14364L173.879 3.25452L173.828 3.39567L173.768 3.55696L173.718 3.71823L173.657 3.90977L173.607 4.10131L173.556 4.32309L173.516 4.55496L173.476 4.7969L173.435 5.0691L173.415 5.28079L173.385 5.51263L173.365 5.7546L173.345 5.99653V6.23846L173.324 6.48042L173.304 6.71226L173.274 6.91389V7.11553L173.244 7.28688L173.224 7.43809L173.193 7.61957L173.163 7.78084L173.133 7.93208L173.103 8.09337L173.032 8.30507L172.972 8.50667L172.901 8.71839L172.82 8.94017L172.73 9.1821L172.588 9.48452L172.437 9.78696L172.266 10.0995L172.095 10.412L171.903 10.7043L171.701 10.9866L171.49 11.2588L171.268 11.5108L171.036 11.7527L170.794 11.9745L170.542 12.1862L170.28 12.3979L170.008 12.5895L169.705 12.7508L169.413 12.9121L169.111 13.0633L168.788 13.1741L168.475 13.2749L168.143 13.3455L167.82 13.406L167.488 13.4665L167.155 13.4967H166.822L166.5 13.5169L166.157 13.4967L165.834 13.4463L165.481 13.406L165.129 13.3253L164.796 13.2447L164.463 13.1439L164.141 13.0431L163.818 12.9221L163.586 12.8213L163.375 12.7205L163.173 12.6298L162.961 12.529L162.77 12.4282L162.639 12.3475L162.498 12.2467L162.366 12.166L162.215 12.0652L162.094 11.9644L161.953 11.8535L161.812 11.7326L161.651 11.6015L161.489 11.4604L161.298 11.3092L161.116 11.158L160.925 10.9967L160.743 10.8454L160.562 10.7043L160.381 10.5632L160.169 10.4019L159.967 10.2608L159.776 10.1297L159.584 10.0188L159.403 9.91802L159.231 9.82726L159.07 9.74663L158.919 9.67605L158.788 9.61557L158.657 9.56518L158.536 9.51476L158.425 9.47445L158.334 9.44421L158.243 9.41397L158.183 9.38373H158.122C156.227 8.67807 154.12 9.63575 153.415 11.5209C152.699 13.4161 153.657 15.5432 155.552 16.269C155.995 16.4706 156.802 16.5714 157.276 16.4908H157.366L157.457 16.4706H157.558L157.679 16.4504L157.8 16.4303L157.941 16.4101L158.092 16.3799L158.243 16.3597L158.425 16.3093L158.606 16.269L158.798 16.2085L159.02 16.148L159.241 16.0774L159.473 15.9968L159.715 15.896L159.917 15.7952L160.128 15.7045L160.35 15.6036L160.562 15.4827L160.794 15.3819L160.995 15.271L161.207 15.1803L161.389 15.0996L161.56 15.019L161.721 14.9585L161.872 14.8879L162.034 14.8375L162.195 14.777L162.336 14.7165L162.498 14.6863L162.699 14.6359L162.921 14.5955L163.143 14.5452L163.375 14.5048L163.627 14.4645L163.959 14.4242L164.302 14.404H164.645L164.998 14.3939H165.36L165.703 14.4342L166.046 14.4847L166.369 14.5552L166.691 14.6359L167.014 14.7367L167.326 14.8375L167.639 14.9585L167.941 15.1097L168.223 15.271L168.516 15.4423L168.788 15.6339L169.05 15.8456L169.292 16.0875L169.524 16.3194L169.736 16.5714L169.947 16.8335L170.139 17.0956L170.32 17.3879L170.482 17.6702L170.633 17.9626L170.774 18.2751L170.895 18.5977L170.996 18.9304L171.097 19.2731L171.177 19.6159L171.238 19.9384L171.298 20.2812L171.338 20.5231L171.359 20.7651L171.389 20.9969V21.2086L171.399 21.4304V21.5716V21.7329V21.9042L171.369 22.0756V22.2369L171.328 22.4083L171.298 22.5998L171.268 22.8014L171.228 23.0232L171.187 23.255L171.127 23.497L171.086 23.7389L171.046 23.9607L171.016 24.2027L170.986 24.4143L170.945 24.6866L170.925 24.9386V25.1704L170.905 25.3821V25.5837V25.7753V25.9567L170.925 26.118L170.945 26.2592L170.965 26.4003L170.986 26.5213L171.006 26.6322L171.026 26.733L171.046 26.8237L171.066 26.8943V26.9548C171.419 28.9407 173.294 30.2814 175.29 29.9588C177.296 29.6363 178.667 27.7411 178.335 25.735" fill="white"/>
</svg>
