<svg width="200" height="45" viewBox="0 0 200 45" fill="none" xmlns="http://www.w3.org/2000/svg">
<path d="M11.5412 30.8264C12.257 30.8264 12.9727 30.776 13.6985 30.6651C14.4143 30.5542 15.0594 30.3627 15.6139 30.0804C16.1784 29.7982 16.632 29.405 16.995 28.8909C17.3478 28.3767 17.5292 27.7114 17.5292 26.9049C17.5292 26.2799 17.3579 25.7456 17.0151 25.292C16.6724 24.8384 16.2389 24.425 15.7046 24.052C15.1703 23.679 14.5856 23.3363 13.9304 23.0238C13.2751 22.7113 12.6199 22.3685 11.9646 21.9955C11.1279 21.5015 10.3315 20.9673 9.57542 20.4027C8.82943 19.8382 8.18426 19.2132 7.66005 18.5075C7.12576 17.8019 6.70237 17.0256 6.39994 16.1687C6.08743 15.3119 5.93619 14.324 5.93619 13.1949C5.93619 11.7634 6.20841 10.4226 6.75278 9.19277C7.29715 7.9629 8.11367 6.89433 9.18225 5.98705C10.2609 5.07977 11.6017 4.37409 13.2247 3.85996C14.8477 3.34583 16.753 3.08374 18.9305 3.08374C19.9285 3.08374 20.8963 3.17445 21.8338 3.34582C22.7713 3.5172 23.6383 3.7289 24.4549 3.98093C25.2613 4.23295 26.0073 4.51523 26.6827 4.8479C27.3481 5.18057 27.9227 5.49306 28.3864 5.80557L25.342 11.1888C24.5657 10.594 23.608 10.1 22.4891 9.68673C21.3701 9.28349 20.1503 9.08187 18.8398 9.08187C18.124 9.08187 17.4385 9.14237 16.7833 9.26335C16.128 9.38432 15.5534 9.59599 15.0493 9.89842C14.5453 10.1908 14.1522 10.5739 13.8598 11.0477C13.5675 11.5114 13.4162 12.0961 13.4162 12.7816C13.4162 13.4066 13.5372 13.9308 13.7691 14.3441C14.0009 14.7675 14.3034 15.1304 14.6865 15.4429C15.0594 15.7554 15.4929 16.0377 15.997 16.2897C16.4909 16.5417 17.0252 16.8038 17.5898 17.0861C18.5575 17.5902 19.4951 18.1144 20.3923 18.6789C21.2995 19.2434 22.0959 19.8886 22.7814 20.6245C23.4669 21.3604 24.0113 22.1871 24.4145 23.1246C24.8178 24.0621 25.0194 25.171 25.0194 26.4412C25.0194 28.2154 24.6968 29.7679 24.0314 31.0784C23.3762 32.3889 22.4588 33.4777 21.2693 34.3547C20.0797 35.2318 18.6684 35.8769 17.0353 36.3003C15.4022 36.7237 13.5775 36.9354 11.5815 36.9354C10.271 36.9354 9.05122 36.8246 7.91208 36.6028C6.77293 36.381 5.74468 36.129 4.82732 35.8366C3.90996 35.5443 3.11357 35.2217 2.43815 34.8789C1.76273 34.5362 1.22843 34.2237 0.825195 33.9414L3.90995 28.3767C4.28295 28.6288 4.73659 28.8909 5.27088 29.1731C5.80517 29.4554 6.39992 29.7175 7.07534 29.9695C7.75076 30.2215 8.45644 30.4332 9.20243 30.6046C9.94842 30.776 10.7347 30.8667 11.5412 30.8667" fill="white"/>
<path d="M34.7472 30.8265C35.2815 30.9475 35.9368 31.008 36.713 31.008C37.9328 31.008 39.0417 30.7862 40.0397 30.3326C41.0377 29.879 41.8845 29.2539 42.5901 28.4374C43.2958 27.6309 43.8402 26.6531 44.2232 25.5139C44.6164 24.3748 44.808 23.1247 44.808 21.7436C44.808 20.3626 44.5156 19.2637 43.9208 18.3262C43.3261 17.3887 42.2978 16.925 40.8361 16.925C39.8381 16.925 38.9005 17.0157 38.0235 17.2072L34.7472 30.8265ZM51.7335 21.2396C51.7335 23.5179 51.3605 25.5946 50.6145 27.4898C49.8686 29.3749 48.8302 31.008 47.4995 32.379C46.1689 33.75 44.5861 34.8186 42.7313 35.5847C40.8764 36.3509 38.8501 36.734 36.6727 36.734C35.6142 36.734 34.5456 36.6432 33.4871 36.4517L31.3802 44.9197H24.4546L32.2169 12.5398C33.4669 12.1668 34.8883 11.8341 36.5013 11.5317C38.1041 11.2394 39.8481 11.0881 41.7131 11.0881C43.4571 11.0881 44.9692 11.3502 46.2293 11.8845C47.4895 12.4188 48.5278 13.1446 49.3444 14.062C50.1508 14.9793 50.7557 16.058 51.1488 17.2879C51.542 18.5178 51.7335 19.8383 51.7335 21.2396Z" fill="white"/>
<path d="M62.0766 8.64839C61.1089 8.64839 60.2318 8.35606 59.4556 7.78145C58.6794 7.20684 58.2862 6.31969 58.2862 5.14022C58.2862 4.48496 58.4173 3.87004 58.6794 3.29543C58.9415 2.72082 59.2943 2.21676 59.7278 1.80344C60.1613 1.38005 60.6754 1.04737 61.25 0.795352C61.8246 0.543329 62.4395 0.422363 63.0948 0.422363C64.0626 0.422363 64.9295 0.714726 65.7158 1.28934C66.4921 1.86395 66.8852 2.75107 66.8852 3.93053C66.8852 4.58579 66.7542 5.20071 66.482 5.77533C66.2199 6.34994 65.8671 6.854 65.4336 7.2774C65.0001 7.7008 64.486 8.03347 63.9114 8.28549C63.3367 8.53752 62.7218 8.65848 62.0666 8.65848M58.6995 36.26H51.7739L57.6209 11.6525H64.5868L58.6894 36.26H58.6995Z" fill="white"/>
<path d="M68.8508 12.7716C69.3851 12.6204 69.9698 12.439 70.6049 12.2373C71.24 12.0357 71.9658 11.8442 72.7622 11.6728C73.5586 11.5014 74.4457 11.3603 75.4236 11.2494C76.4115 11.1385 77.5204 11.0881 78.7704 11.0881C82.45 11.0881 84.9803 12.1466 86.3513 14.2737C87.7223 16.3907 87.9541 19.294 87.0569 22.9735L83.8714 36.2602H76.8954L79.9802 23.2558C80.1616 22.4493 80.3128 21.663 80.4237 20.8968C80.5346 20.1307 80.5245 19.4654 80.4036 18.8908C80.2826 18.3161 79.9902 17.8423 79.5366 17.4895C79.083 17.1367 78.3874 16.9552 77.4498 16.9552C76.5123 16.9552 75.6252 17.0459 74.6877 17.2375L70.1513 36.2803H63.1753L68.8408 12.7918L68.8508 12.7716Z" fill="white"/>
<path d="M194.953 36.3608L195.619 33.4676H183.844L185.911 24.7778H195.609L196.274 21.9552H186.536L188.29 14.4852H199.258L199.923 11.592H185.598L179.782 36.3608H194.943H194.953ZM174.57 26.3706C173.985 29.5965 173.34 32.9333 172.644 36.3608H176.042C176.838 32.1873 177.564 28.0239 178.229 23.8706C178.894 19.7172 179.429 15.6244 179.822 11.592H176.566C175.8 12.6404 174.923 13.8703 173.955 15.2917C172.987 16.7131 171.989 18.195 170.961 19.7575C169.933 21.3201 168.914 22.8726 167.896 24.425C166.878 25.9775 165.951 27.3888 165.114 28.6792C164.922 27.419 164.701 26.0077 164.428 24.4653C164.156 22.9129 163.864 21.3604 163.551 19.7979C163.239 18.2353 162.916 16.7434 162.604 15.3119C162.291 13.8804 161.989 12.6404 161.706 11.592H158.38C157.775 13.3764 157.15 15.2715 156.505 17.2776C155.86 19.2837 155.224 21.3403 154.579 23.4472C153.934 25.5541 153.309 27.7013 152.684 29.8788C152.069 32.0563 151.474 34.2237 150.91 36.3608H154.277C155.164 33.0039 156.071 29.6873 157.009 26.421C157.946 23.1548 158.904 19.9894 159.882 16.9147C160.003 17.439 160.134 18.1144 160.305 18.9309C160.467 19.7576 160.648 20.6648 160.85 21.6629C161.051 22.6609 161.243 23.7093 161.444 24.7879C161.646 25.8767 161.838 26.9251 162.019 27.9332C162.2 28.9514 162.372 29.8889 162.523 30.7558C162.674 31.6228 162.795 32.3486 162.886 32.9132H165.618C165.971 32.3688 166.424 31.653 166.989 30.7861C167.553 29.9191 168.158 28.9715 168.814 27.9634C169.469 26.9553 170.144 25.9069 170.85 24.8182C171.556 23.7395 172.231 22.6911 172.876 21.6931C173.531 20.6951 174.136 19.7777 174.701 18.941C175.265 18.1043 175.729 17.4289 176.102 16.9047C175.658 19.9793 175.144 23.1246 174.56 26.3606M136.172 27.1973C137.714 24.4754 139.095 22.1669 140.305 20.2414C141.514 18.3261 142.533 16.7534 143.349 15.5437C143.682 17.57 143.964 19.5358 144.206 21.4411C144.448 23.3464 144.67 25.2617 144.851 27.1973H136.161H136.172ZM145.174 29.9897C145.295 30.9877 145.396 32.0361 145.486 33.1148C145.577 34.2035 145.688 35.2822 145.799 36.3507H149.226C148.944 33.7499 148.672 31.3304 148.42 29.0925C148.158 26.8545 147.896 24.7375 147.613 22.7314C147.331 20.7253 147.049 18.82 146.756 16.9954C146.464 15.1707 146.142 13.3663 145.799 11.5819H142.472C140.043 15.1808 137.583 19.0015 135.093 23.054C132.603 27.1065 130.052 31.5422 127.441 36.3507H131.151L134.589 29.9897H145.164H145.174ZM124.004 15.1203C124.992 15.695 125.496 16.6426 125.496 17.9833C125.496 19.2233 125.234 20.2213 124.71 20.9673C124.185 21.7133 123.51 22.2979 122.673 22.7213C121.847 23.1347 120.929 23.4169 119.921 23.5581C118.913 23.6992 117.935 23.7698 116.977 23.7698H114.911L117.119 14.4046C117.471 14.3139 118.469 14.2635 120.133 14.2635C121.796 14.2635 123.016 14.5457 124.004 15.1203ZM117.441 11.4408C116.342 11.5114 115.304 11.6626 114.326 11.9045L108.58 36.3507H111.977L114.256 26.5924H116.957C117.26 26.5924 117.562 26.5924 117.865 26.5723C118.167 26.5622 118.469 26.542 118.772 26.5219C119.074 27.0965 119.407 27.7517 119.77 28.5078C120.133 29.2639 120.496 30.0602 120.859 30.9171C121.222 31.774 121.574 32.6712 121.927 33.5986C122.28 34.5261 122.613 35.4435 122.945 36.3507H126.413C126.131 35.3931 125.808 34.4152 125.435 33.397C125.062 32.3889 124.679 31.4111 124.276 30.4635C123.883 29.526 123.49 28.6691 123.117 27.8928C122.744 27.1166 122.411 26.4815 122.139 25.9775C124.306 25.3525 126 24.3444 127.2 22.923C128.399 21.5016 129.004 19.7475 129.004 17.6506C129.004 15.5538 128.248 14.0014 126.726 12.9328C125.204 11.8642 123.157 11.3198 120.556 11.3198C119.578 11.3198 118.54 11.3602 117.441 11.4307M94.3257 36.3407L97.0274 24.8686H106.594L107.259 22.0459H97.6625L99.4468 14.4651H110.274L110.939 11.5718H96.7552L90.9385 36.3407H94.3357H94.3257Z" fill="white"/>
</svg>
