<svg width="195" height="36" viewBox="0 0 195 36" fill="none" xmlns="http://www.w3.org/2000/svg">
<path d="M175.412 29.8608C174.434 29.8608 173.395 29.5584 172.327 28.9737L171.813 28.7015L169.434 33.9335L169.877 34.1653C171.914 35.2742 173.758 35.738 176.027 35.738C180.24 35.738 182.68 33.6815 184.726 28.4192L194.908 2.08789H187.801C187.801 2.08789 182.539 17.1589 181.712 19.5379C180.805 17.1891 175.029 2.08789 175.029 2.08789H167.76C167.76 2.08789 178.174 27.0684 178.355 27.5019C177.468 29.4475 176.591 29.8608 175.412 29.8608Z" fill="white"/>
<path d="M109.432 23.2376L109.774 22.8545L105.581 18.7214L105.198 19.1044C103.212 21.1408 101.337 22.0481 99.129 22.0481C95.1874 22.0481 92.2236 18.8423 92.2236 14.5781V14.4874C92.2236 10.3441 95.137 7.10814 98.8569 7.10814C101.73 7.10814 103.474 8.51947 104.926 10.0417L105.319 10.455L109.583 5.85811L109.25 5.48512C106.448 2.39028 103.252 1.01929 98.8972 1.01929C91.3567 1.01929 85.4492 6.967 85.4492 14.568V14.6688C85.4492 22.1892 91.3365 28.0765 98.8569 28.0765C104.361 28.0765 107.295 25.6268 109.442 23.2275" fill="white"/>
<path d="M117.98 14.3967C117.98 10.1224 120.904 7.01751 124.936 7.01751C128.968 7.01751 132.033 10.2333 132.033 14.4976V14.5983C132.033 18.2577 129.624 21.9675 125.027 21.9675C121.065 21.9675 117.98 18.6912 117.98 14.4976V14.3967ZM124.936 27.9959C132.719 27.9959 138.817 22.0683 138.817 14.4976V14.3967C138.817 6.84614 132.769 0.938721 125.037 0.938721C117.305 0.938721 111.196 6.88647 111.196 14.4976V14.5983C111.196 22.1086 117.234 27.9959 124.936 27.9959Z" fill="white"/>
<path d="M74.2493 1.82576L74.2796 2.34996V16.5842C74.2796 19.4774 72.4045 21.4936 69.7028 21.4936C67.0011 21.4936 65.0152 19.3565 65.0152 16.5137V1.81567H57.8779V16.5842C57.8779 23.036 63.0393 27.27 69.6322 27.27C71.6484 27.27 73.5336 26.524 75.1768 25.6873C75.338 25.6066 75.4893 25.526 75.6405 25.4352L75.7212 26.7458V27.2498H81.4269V1.81567H74.2594L74.2493 1.82576Z" fill="white"/>
<path d="M149.826 27.29L149.796 26.7658V12.5315C149.796 9.62822 151.671 7.61204 154.382 7.61204C157.094 7.61204 159.08 9.7492 159.08 12.6021V27.3001H166.217V12.5315C166.217 6.07974 161.056 1.83569 154.453 1.83569C152.437 1.83569 150.552 2.58167 148.918 3.42846C148.757 3.50911 148.606 3.58976 148.445 3.68049L148.374 2.35989V1.83569H142.658V27.29H149.836H149.826Z" fill="white"/>
<path d="M39.3293 21.8767C35.0449 21.8767 31.5771 18.4593 31.5771 14.2454C31.5771 10.0316 35.055 6.62427 39.3293 6.62427C43.6036 6.62427 47.0816 10.0417 47.0816 14.2454C47.0816 18.4492 43.6137 21.8767 39.3293 21.8767ZM46.265 2.25922V3.35803C44.2085 2.18865 41.7689 0.989014 39.0874 0.989014C31.184 0.989014 24.9741 6.5033 24.9741 14.2454V14.3462C24.9741 22.0178 31.1336 27.4615 38.9866 27.4615C41.6681 27.4615 44.148 26.2316 46.2549 25.0219V26.8062H52.6362V1.6443H46.2549V2.24913L46.265 2.25922Z" fill="white"/>
<path d="M12.5845 5.39443C14.3184 5.39443 16.7176 6.23114 19.7016 7.87433L19.9435 8.00538L22.615 3.16653L22.3932 3.02541C19.4899 1.23101 15.8305 0.152344 12.6248 0.152344C7.68512 0.152344 2.69509 2.79353 2.69509 8.71103V8.81184C2.69509 13.6507 7.14078 15.5762 11.0219 16.7052C13.5926 17.4613 16.0926 18.3686 16.0926 20.2638V20.3646C16.0926 21.1811 15.7297 23.3284 12.3123 23.3284C9.913 23.3284 6.87866 21.9271 3.75357 19.8202L3.53176 19.6589L0.547852 24.2558L0.749482 24.407C4.08626 26.8668 8.11859 28.5503 12.1106 28.5503C18.8144 28.5503 22.5141 25.2942 22.5141 19.9513V19.4069C22.5141 16.0298 19.8124 13.4894 14.2478 11.6345L13.5724 11.4026C10.9917 10.5458 9.12672 9.92074 9.12672 7.95496V7.84409C9.12672 6.65454 10.2154 5.36419 12.6147 5.36419" fill="white"/>
</svg>
