<svg width="156" height="88" viewBox="0 0 156 88" fill="none" xmlns="http://www.w3.org/2000/svg">
<path d="M78.4578 0.130396C78.6191 0.0900724 78.7098 0.160657 78.8106 0.180819C78.982 0.321952 79.0122 0.372349 79.0525 0.614291C78.9719 1.72319 79.1533 2.43894 79.6473 3.10428C80.232 3.89059 81.351 4.2535 81.7341 5.24143L81.8046 6.04789C81.8651 6.32007 81.845 6.88463 81.8046 7.429C81.7946 7.6911 81.724 7.86246 81.6635 8.1044C81.5526 8.2657 81.482 8.37658 81.3711 8.22537C81.2905 8.03383 81.2501 7.64069 81.0586 7.54996C80.9981 7.50964 80.8973 7.45922 80.7461 7.57011C80.6755 7.70117 80.6655 7.80199 80.726 7.93304C81.0385 8.3262 81.2098 8.83025 81.3409 9.3847C81.4316 9.77785 81.2804 10.2315 81.3207 10.5037C81.5627 11.0279 82.349 10.4533 83.1051 10.665C83.599 10.8061 84.3148 11.3706 84.9499 11.2597C85.5951 11.1388 86.4318 10.6448 87.2685 10.8464C87.833 10.9875 88.3572 11.1388 88.7503 11.4412C89.0729 11.6831 89.3149 12.3182 89.6476 12.0964C89.7988 11.8243 90.0407 11.5319 90.1214 11.1992C90.3835 10.2214 89.5064 9.87865 88.8713 9.71735C87.7523 9.41493 84.6373 9.39477 84.2946 8.46733C84.0224 8.1649 84.1031 7.43906 84.4156 7.21728C85.2321 6.64266 86.6838 6.70316 87.8027 6.44106L88.9318 6.38057C89.2342 6.26968 89.3048 5.95718 89.5266 5.7858C89.9702 5.43297 90.2726 5.21117 90.8976 5.00955C90.9984 4.97931 91.3613 4.84826 91.4924 4.88859C92.3694 5.15069 91.1194 6.92495 90.8976 7.14673C90.3431 7.13665 89.3955 6.93501 88.9923 7.02574C88.5084 7.13663 87.8632 7.21728 87.3894 7.31809C87.1374 7.37858 86.7442 7.33825 86.5527 7.37857C85.9479 7.51971 84.9297 7.49954 85.1817 8.03383C86.2402 8.5782 87.9439 8.46731 89.1939 8.89071C90.1314 9.20322 91.4722 10.2718 90.948 11.8041C90.7564 12.3586 90.2625 12.7315 90.1214 13.2658C90.0609 13.5178 90.2928 13.9916 90.1819 14.3344C89.9903 14.9393 89.6072 15.3929 89.5871 16.1792C89.9197 16.4817 90.2121 16.8748 90.6557 17.0663C91.0387 17.2377 91.5125 17.147 91.6637 17.5402C91.7343 17.6611 91.9762 18.8103 91.9057 19.0321C91.7343 19.5563 91.079 19.8688 90.7766 20.2822C90.5548 20.5745 90.5145 20.9072 90.3028 21.2298C90.0911 21.5624 89.7685 21.6632 89.708 22.1773C89.8996 22.5806 91.5024 22.3689 92.3291 22.3588C92.3895 22.3084 92.3493 22.3387 92.4501 22.2983C92.6416 21.8548 92.6517 21.4011 92.8029 20.8668C93.1255 19.7882 93.4682 18.5382 93.811 17.4797C93.942 17.0764 93.942 16.2296 93.811 15.8163C93.0952 13.6187 91.8351 11.8646 90.9682 9.77784C90.7363 9.22339 90.0206 8.22538 90.2323 8.08425C90.3129 7.76166 91.7343 7.56003 92.5509 7.24752C93.3069 6.96525 94.1638 6.45114 95.0509 6.35033C95.2929 6.33017 95.5651 7.20719 95.9481 7.81205C96.0691 8.00358 96.4017 8.74959 96.6134 8.84032C96.8151 8.84032 96.9965 8.75965 97.1881 8.75965C97.8232 8.66893 98.549 8.54795 98.8917 8.53787C99.3151 8.53787 98.9623 7.11646 99.0329 6.29991C99.0833 6.23942 99.053 6.27975 99.0934 6.17894C99.1337 6.17894 99.1337 6.12855 99.174 6.12855C99.7386 6.02774 100.434 6.16888 100.928 6.16888C102.551 6.18905 104.023 6.16888 105.656 6.19913C105.898 6.19913 105.898 6.32009 105.918 6.38057C106.049 6.61244 105.636 8.04391 105.626 8.56812C106.12 8.86046 107.077 9.15282 107.723 9.21331C108.035 8.67902 109.033 6.79388 109.396 6.74347C109.557 6.7838 110.717 7.05599 111.322 7.22737C111.936 7.39874 112.814 7.59028 114.104 7.85238C114.426 7.88262 114.426 8.0036 114.386 8.14473C113.822 8.73951 113.499 9.54598 113.015 10.2214C112.158 11.421 111.473 12.409 110.666 13.6993C110.434 14.0723 110.082 14.6872 109.92 15.161C109.487 16.4212 109.749 19.3345 110.041 20.635L110.162 22.4193C110.828 25.1512 111.372 28.488 111.765 30.474C111.926 31.2905 112.108 32.349 112.178 33.1252C112.249 33.8914 112.34 34.7684 112.471 36.0487C112.632 37.5306 112.592 39.9299 112.592 41.573C112.592 44.436 112.531 47.0369 112.531 50.1922V55.2529C112.531 56.1601 112.531 56.9968 112.551 57.9545C112.551 58.2066 112.501 58.5594 112.521 58.7106C112.551 58.9425 112.521 59.4767 112.521 59.6179C112.491 60.1219 112.521 60.8578 112.511 61.2913C112.491 62.7127 112.652 64.9708 112.481 65.1725C112.42 65.1926 112.32 65.2834 112.259 65.3035C111.997 65.3438 111.18 65.2733 110.697 65.3035H107.42C104.497 65.3035 102.037 65.3741 99.0934 65.364C98.055 65.364 97.0268 65.364 95.8776 65.364L94.8695 65.3035C94.3755 65.3942 90.1819 65.6059 89.0427 65.4245C88.6395 65.364 87.9237 65.4951 87.5608 65.4245C87.2685 65.364 83.2361 65.5858 82.5002 65.4245C82.0667 65.3237 81.4921 65.4648 81.1292 65.485C80.0505 65.5455 78.7803 65.5152 77.8025 65.4245C77.8025 65.4245 72.9435 65.4245 71.7338 65.4245H69.768L69.3547 65.364C68.5684 65.5152 67.4897 65.2531 66.6227 65.4245C66.0683 65.5354 65.2517 65.2632 64.4856 65.4245C63.4674 65.6463 61.7335 65.485 60.3222 65.485C60.3222 65.485 59.7072 65.4446 59.3141 65.4245C58.6386 65.4043 57.8221 65.3741 57.5903 65.4245C56.9148 65.5757 55.9571 65.4245 54.9087 65.4245C52.4086 65.4245 48.8198 65.364 48.4872 65.4245C47.9932 65.5152 46.975 65.4245 46.2895 65.4245C45.0496 65.4245 43.5475 65.5757 42.4285 65.364V65.243C42.2773 65.0011 42.4285 64.618 42.4285 64.2954L42.4891 61.9163L42.5496 52.5814C42.4084 51.8959 42.5496 50.666 42.5496 49.789C42.5496 48.8414 42.3379 47.5813 42.4891 46.7546C42.5496 46.4018 42.6806 44.8393 42.61 44.4965C42.4488 43.7505 42.479 42.3593 42.6705 41.5226C42.7915 41.0085 42.6302 40.3028 42.731 39.8593V38.5488C42.9528 37.581 42.7108 36.3511 42.9729 35.3934C43.3762 33.8813 43.5476 32.3087 44.0415 30.8167C44.4649 29.5263 44.9689 28.0444 45.352 26.7138C45.5133 26.1492 45.5536 25.4839 45.6544 24.8891C45.9972 22.7822 46.1686 21.6431 46.5517 20.0503C46.7432 19.2237 46.6121 18.397 46.7936 17.6107V16.895C46.8944 16.4716 47.0456 15.4937 46.8541 14.9897C46.7835 14.8082 46.592 14.6066 46.5013 14.4554L46.0879 13.5078C45.6948 12.8626 45.2915 12.3081 45.0193 11.542C44.2431 9.425 42.9528 8.29596 43.5274 8.09434C44.1826 7.94313 44.8379 7.60036 45.4327 7.37857C46.0476 7.14671 46.5315 7.10639 47.1565 6.90477C47.469 6.80396 48.1848 6.32007 48.588 6.55193C48.9106 6.73339 49.5155 8.64876 49.9691 8.82014C50.201 8.86046 51.6627 8.58828 52.1566 8.56812C52.4994 8.61852 52.3482 6.95518 52.3381 6.18903C52.3885 6.12855 52.3582 6.16888 52.3986 6.06807C52.4389 6.06807 52.449 5.93701 52.4893 5.93701C52.7817 5.96725 53.8301 6.00759 54.2938 6.00759L58.931 6.18903C58.8101 6.18903 59.0419 6.22934 59.0419 6.26967C59.1024 6.56202 58.81 8.07416 58.7596 8.44715C59.2939 8.77982 60.3928 9.23349 61.1388 9.10243C61.3101 8.70928 62.1771 6.84429 62.5098 6.7838C62.7819 6.96526 63.1449 6.85436 63.5179 6.96525C64.3546 7.19711 65.2215 7.26768 66.1389 7.49954C66.3102 7.53986 66.7034 7.73143 66.9151 7.68102C67.3183 7.58021 67.6409 6.86444 68.4575 7.02574C69.143 7.16687 69.8688 7.43907 70.3628 7.80199C70.9172 8.20522 71.26 8.91089 71.8447 9.28388L72.379 9.46533C72.7217 9.67703 73.1048 10.0702 73.3266 10.4129C73.75 10.2113 73.881 9.78792 74.2238 9.52581C74.5262 9.29395 75.2117 8.86047 75.4133 8.57821C75.746 8.1044 75.625 7.57011 74.9395 7.57011C74.7278 7.77173 73.9717 8.34636 73.6895 8.40685C73.6189 8.31612 73.629 8.35642 73.5685 8.22537C73.4274 8.00359 73.6189 7.47939 73.629 7.09631C73.4778 7.01566 73.4173 6.98543 73.1552 6.97534C72.8629 6.82413 72.3286 7.09631 72.0866 7.15679C71.9354 7.19712 71.6632 7.06607 71.5523 7.03583C70.6753 6.82413 70.3023 6.93503 69.889 6.25961C69.5059 5.63459 69.5059 4.37447 69.889 3.75953L70.3023 3.34621C70.4636 3.13451 70.7761 2.79176 71.0785 2.93289C71.2701 3.01354 71.2398 2.98331 71.26 3.23533C70.514 3.65873 70.1108 4.16277 70.1309 5.37248C70.514 5.80596 70.6753 6.12855 71.3205 6.32009C72.1068 6.55195 72.9939 6.08821 73.0443 5.54384C72.6512 5.28174 72.2782 4.75755 72.2681 4.11237L72.6209 3.69905C73.5886 3.05387 73.9919 3.73937 74.2843 2.15667C74.5766 1.98529 74.879 1.65263 75.2319 1.50142C75.7863 1.26956 76.3911 1.3502 76.9557 1.14858C77.2581 1.03769 77.4295 0.715103 77.6714 0.553808C77.9335 0.372351 78.2662 0.332024 78.5082 0.140487M76.6029 1.86431C76.3912 1.9248 76.0484 2.11633 76.25 2.45908C76.5121 2.56997 76.9153 2.62038 77.0262 2.93289C77.1573 3.13451 77.0262 3.38655 76.9658 3.58817C76.9053 3.65874 76.7944 3.75953 76.7339 3.62847C76.7238 3.37645 76.6432 3.07403 76.4315 3.41678C76.3307 3.57808 76.1996 4.00149 76.0181 4.09222C75.9577 4.1023 75.8569 4.1023 75.8166 4.06198C75.4637 3.90068 75.625 3.10429 75.1512 2.92283C74.6774 2.69097 74.6572 3.61842 74.3447 3.8402C73.9516 4.12246 73.1753 4.02164 72.9939 4.52569C72.9435 4.60634 72.9838 4.70715 72.9738 4.84829C73.0746 5.10031 73.4072 4.96925 73.7499 4.96925L74.2843 5.1507C74.375 5.32208 74.506 5.50353 74.6371 5.62451C74.6169 6.02774 74.4657 6.04789 74.3951 6.40073C74.8891 6.82412 75.998 6.85436 76.24 7.52978C76.6331 7.96326 76.3004 8.89073 76.0585 9.25364C75.242 10.5037 73.9717 11.3706 73.5584 13.0037C73.135 14.6772 74.3447 15.524 74.3951 16.9252C73.3266 17.9434 72.4999 19.2438 71.6027 20.4334C71.391 20.7156 70.897 20.8265 70.6551 21.0886C69.5865 20.9878 69.2337 20.8668 68.5179 21.5624C68.5583 21.6632 68.4675 21.6834 68.5179 21.7439C68.5986 21.8951 68.4978 21.7842 68.6389 21.8648C68.9212 22.006 69.3749 21.5423 69.8285 21.6834C70.2418 21.8144 70.2822 22.1874 70.8366 22.2177C71.0987 22.006 71.4817 21.9657 71.6733 21.6834C71.7741 21.5322 71.764 21.3104 71.9152 21.2096L72.2076 21.1491C72.4092 21.0584 72.6209 20.8668 72.8023 20.7358C73.4878 20.2217 74.0121 19.395 74.7076 18.891C75.1512 18.5684 75.5746 18.2559 75.9577 17.8829L76.371 17.3486C76.5424 17.2075 76.7843 17.1167 76.9053 16.9353C77.248 16.4212 76.8549 15.3828 77.0262 14.6772C77.0968 14.3546 77.2481 14.0723 77.3791 13.8404C77.5202 13.6086 77.4698 13.417 77.7319 13.3062C77.7924 13.2658 77.7924 13.2658 77.9134 13.2457C78.5686 14.2134 78.0747 13.8404 77.9738 15.03C78.3569 15.4433 78.5283 15.9272 79.1029 16.1591C80.1009 16.5724 83.1958 15.8667 83.8006 15.4433C84.3047 15.0905 84.4257 13.8606 84.9297 13.659C85.0406 13.5582 85.0809 13.5582 85.2825 13.538C85.595 13.8808 85.7463 14.1026 85.8773 14.6671V15.1409C85.9882 15.4836 86.3107 15.9776 86.5325 16.2699C87.1777 17.1369 88.1758 17.5502 89.0931 18.1753C89.2947 18.3164 89.3955 18.5986 89.5669 18.77C89.5669 19.8184 89.2342 20.0201 88.6193 20.4334L88.2665 20.8467C87.7423 21.2096 87.0669 21.2499 87.0165 22.0967C87.1677 22.2278 87.1676 22.2882 87.4297 22.3386C87.7624 21.9757 88.1858 21.9152 88.9117 21.9253C89.4661 20.9777 90.1213 20.2116 90.7564 19.3648C90.9177 19.143 91.3714 18.7902 91.2303 18.2962C91.1496 18.0039 90.7464 18.0341 90.5145 17.8829L90.3331 17.6409C90.0508 17.4494 89.708 17.4192 89.4459 17.2276L89.0326 16.6934C89.0226 16.3405 88.831 16.1187 88.9117 15.7458C89.1133 14.8082 89.0326 13.4473 88.5588 12.8324C88.337 12.5501 87.1172 12.0259 86.4821 12.1771C86.1898 12.2477 85.4237 12.409 85.0507 12.3585C84.3652 12.2477 83.7906 12.036 83.1252 11.9251C82.8531 11.8848 82.7018 11.9049 82.4498 11.8646C82.1877 11.8142 81.7643 11.8142 81.482 11.7638C81.0788 11.6831 80.8066 11.9553 80.5646 12.0259C80.3227 12.0965 79.9094 12.1973 79.8187 11.9957C79.8187 11.542 79.9598 10.7759 79.7683 10.544C79.365 10.2012 79.0324 10.1307 79.1937 9.3847C79.2441 9.29397 79.3046 9.21331 79.3449 9.21331C79.4961 9.18307 79.5364 9.2637 79.6977 9.2637C79.8792 9.46532 79.9094 9.77785 80.2521 9.81817C80.5445 9.81817 80.5949 9.59638 80.6453 9.46533C80.6856 9.25363 80.6453 9.2234 80.6453 8.97138L79.8086 8.02377C79.3045 7.65077 78.7702 7.57011 78.74 6.71323C78.7904 6.65275 78.7602 6.69307 78.8005 6.59227C79.4961 6.19911 79.728 6.38056 80.5243 6.23943C80.5848 6.10838 80.6151 6.06808 80.6453 5.88662C80.484 5.70516 80.4336 5.43295 80.2925 5.23134C79.8893 4.67689 79.0424 4.39462 78.8106 3.68896C78.6694 3.27564 78.5787 2.10626 78.2763 1.96513C77.7824 1.96513 77.3186 1.94498 76.8247 1.94498C76.744 1.92482 76.7339 1.92481 76.6129 1.90465M54.0216 7.53987C53.8603 7.52979 53.7293 7.45924 53.6789 7.5903C53.5781 7.88264 53.7293 9.21332 53.6587 9.63672C53.6587 9.75769 52.4792 9.82825 51.6526 9.93914C50.7856 10.05 49.838 10.2718 49.2634 10.3525C49.0719 10.292 48.9913 10.0803 48.9106 9.93914C48.6082 9.43509 48.3562 8.09433 47.842 8.39676C47.4791 8.70927 45.5536 9.0117 45.5335 9.44518C45.6746 9.72745 45.9367 10.2516 46.1182 10.6549C46.4408 11.3807 46.8339 12.1368 47.2371 12.8223C47.5295 13.3263 47.4892 14.0017 48.1646 13.8102C49.1727 13.5582 49.5255 13.5481 50.1606 13.3364C51.5921 12.8626 53.3966 12.7315 55.1607 12.7416C55.9168 12.7416 56.7637 12.8122 57.3584 12.8626C58.1851 12.9231 58.4572 12.8928 59.1226 13.0844C59.667 13.2457 60.2919 13.2658 60.8968 13.4574C61.2597 13.5683 61.8242 13.8001 62.2275 13.8606C63.2255 12.7719 63.8202 11.5521 64.6166 10.2416C64.8787 9.81815 65.2921 9.44518 65.3324 8.81008C64.6167 8.6387 63.5582 8.29595 62.8928 8.39676C62.7013 8.74959 61.9049 10.5541 61.6428 10.6549C61.5218 10.7254 60.9674 10.675 60.7456 10.5944C60.0399 10.3323 59.0822 10.1408 58.306 9.87865C58.0136 9.77784 57.6608 9.83831 57.5298 9.57621C57.3987 9.33426 57.9733 8.2657 57.7717 7.7919C57.6911 7.64068 57.802 7.75158 57.6508 7.67093C57.429 7.62053 54.7273 7.56004 54.0317 7.53987M100.454 7.64069C100.384 7.73142 100.384 7.82213 100.323 7.9431C100.273 8.41691 100.353 9.14273 100.404 9.57621C100.293 9.81815 100.061 9.81817 99.5672 9.81817L95.8776 10.4129C95.7163 10.1408 94.7485 8.48749 94.688 8.33627C94.567 8.01368 92.1577 8.90079 92.3089 9.11249C92.44 9.73751 92.8129 10.3222 93.0851 10.8363C93.3876 11.421 93.6194 12.0461 93.9219 12.6207C94.1235 13.0138 94.2142 13.6388 94.7586 13.6892C95.2021 13.3062 96.4219 13.3062 97.0772 13.0945C98.8918 12.5299 102.108 12.5299 104.094 12.913L104.507 12.8525C104.971 12.8827 105.696 12.8525 106.17 12.9735C107.108 13.2154 107.884 13.8203 108.902 13.9816C109.87 12.8727 110.686 11.5823 111.523 10.3525C111.715 10.0803 112.441 9.3242 112.34 9.02177C112.259 8.87055 112.32 8.95121 112.178 8.87056C111.987 8.73951 110.011 8.27579 109.93 8.30603C109.507 8.53789 108.993 10.0601 108.489 10.7456C108.317 10.9775 107.592 10.6649 107.299 10.5843C106.432 10.3323 105.333 10.0198 104.386 9.98953C104.174 9.97945 104.093 9.86857 104.194 9.49557C104.335 9.30404 104.376 8.28587 104.376 7.89271C104.396 7.80198 104.366 7.75156 104.325 7.75156C103.932 7.63059 101.18 7.69109 100.454 7.64069ZM68.2962 8.03383C68.1853 8.1548 68.1248 8.14474 68.0543 8.33627C68.0139 8.39676 68.0139 8.39675 67.9938 8.51772C68.2055 8.72942 68.3264 9.21332 68.5885 9.35446C68.8305 9.50567 69.6168 9.42502 69.899 9.47542C70.1006 9.79801 70.4132 10.1004 70.6148 10.423C70.8265 10.7658 71.1995 11.6731 71.3306 12.0259L71.391 12.4392L71.6834 12.6811C71.9051 13.0138 71.8648 13.3666 72.2782 13.5178C72.3387 13.538 72.2983 13.5683 72.3386 13.5178C72.5302 13.3465 72.4697 12.7517 72.4596 12.3888C72.6108 12.1973 72.8729 11.4714 72.7015 11.1992C72.4798 10.5137 71.512 9.94922 70.9777 9.5359C70.7559 9.36453 70.6753 8.99151 70.4434 8.82014C69.9999 8.49755 69.0321 8.04392 68.3063 8.04392M66.9353 8.93104C66.149 10.3121 65.3626 11.7033 64.4957 13.034C63.9412 13.8909 63.3767 14.6368 63.0642 15.7659C62.9634 16.1389 63.165 17.2175 63.2456 17.5502L63.3666 18.9817C63.5985 19.9394 63.7598 21.1491 63.8404 22.1975C64.2437 22.4496 65.0804 22.3891 65.7457 22.379C65.9876 22.2479 67.0663 22.379 67.53 22.379C67.9232 22.2782 67.6813 20.7459 69.1329 20.1813L70.6249 20.0604C70.9172 19.4253 71.3507 18.8507 71.8749 18.4575C72.0362 18.3365 72.2278 18.266 72.3487 18.1047C72.4798 17.9333 72.5201 17.7519 72.6512 17.5704C72.9032 17.2276 73.2459 17.0664 73.3064 16.5018C73.0544 16.1591 73.0745 15.6046 72.8326 15.2518C72.6411 14.9796 72.2781 14.9695 71.9959 14.778L70.6854 12.9937C70.3628 12.1872 70.4333 10.544 69.6168 10.2617C69.2337 9.89882 68.6894 10.2113 68.2458 10.2617C68.1752 10.1408 68.0644 10.0399 68.0039 9.90889V9.66696C67.8728 9.4351 67.4696 9.44516 67.2276 8.95119H66.9252L66.9353 8.93104ZM54.445 13.9312C53.689 13.9211 53.1849 13.9312 52.7514 13.9917C51.6425 14.1328 50.8562 14.1429 49.8179 14.4554C49.3239 14.5965 48.4973 14.6167 48.2956 15.03C48.2452 15.1006 48.336 15.1611 48.3158 15.3022C48.5174 15.524 48.5174 15.7256 48.709 15.7256C49.0114 15.6752 49.3945 15.6147 49.6868 15.534C49.8985 15.4735 50.3925 15.3727 50.6243 15.3122C50.9973 15.2921 51.2695 15.2014 51.6425 15.1812C53.0236 14.8687 55.191 14.7074 56.5217 14.8788C56.935 14.8989 57.2979 14.909 57.9733 15.03C58.6488 15.2215 59.0217 15.2417 59.6468 15.4232C59.8484 15.4433 60.302 15.6248 60.7052 15.7155C61.1186 15.8667 61.3202 15.9575 61.8747 15.9978C61.8948 15.9575 61.9452 15.9776 61.9653 15.9373C62.1166 15.7558 62.046 15.4635 61.9855 15.2215C60.0097 14.1126 57.187 14.0925 54.4349 13.911M102.077 13.911C101.099 13.9211 100.263 13.7699 99.2143 13.9312C98.4683 14.0421 97.7425 14.0925 96.9058 14.3344C96.3514 14.4856 95.7465 14.6772 95.1719 14.8183C95.061 14.8788 95.0308 14.8687 95.061 15.0502C95.1013 15.151 95.0711 15.1711 95.1215 15.2417C95.1719 15.4635 95.1618 15.534 95.3634 15.6046C95.6255 15.7659 96.059 15.4937 96.311 15.4131C97.2082 15.1106 98.0147 15.1107 99.1639 14.9897C101.896 14.6973 104.92 15.1006 106.674 15.7054C106.866 15.776 108.398 16.1692 108.438 16.1893C108.549 16.2397 108.569 16.1893 108.62 16.0986C108.852 15.7356 108.721 15.3526 108.66 15.3022C107.067 14.3042 104.577 13.9514 102.077 13.9211M85.1313 16.0078C84.8692 16.2699 84.4055 16.7034 84.0628 16.8446L82.9337 17.0865C82.6918 17.2377 82.5103 17.6813 82.3389 17.9232C82.1978 18.1249 81.8248 18.5785 81.9861 19.0523C82.0768 19.3043 82.2482 19.2942 82.2784 19.7075C81.8853 20.0805 81.724 20.7761 81.2703 21.0785C80.6755 21.4616 79.6069 21.2398 79.5465 22.1471C79.6473 22.1874 79.6069 22.1572 79.6674 22.2076C79.99 22.1169 80.3832 21.7641 80.857 21.9153C81.1393 22.006 81.5425 22.4395 81.7441 22.2076C81.8449 22.0463 82.0264 21.9153 82.097 21.7338L82.2179 21.0785L82.4599 20.9576L83.2966 20.1209C83.5688 19.9293 83.962 19.8084 84.1333 19.5261C84.2745 19.2842 84.1333 18.3668 84.3753 17.9837C84.6474 17.5301 85.5043 17.0159 85.5648 16.5018C85.4035 16.3204 85.4136 16.1187 85.1514 16.028M53.9208 16.149C53.5377 16.3708 52.8926 16.2095 52.4389 16.3304C51.7131 16.5119 50.9671 16.5522 50.2312 16.8042C50.0397 16.8748 49.5255 17.0663 49.3239 17.1369C48.7594 17.3385 48.3461 17.1671 48.3259 17.9333C48.2957 18.4676 48.0739 19.1833 47.9327 19.7579C47.6908 20.7459 47.5799 22.2983 47.2674 23.6492L47.086 25.494C46.7735 26.6029 46.6626 27.8227 46.3097 28.9417C46.1988 29.2844 46.0174 29.7078 45.9065 30.0001C45.6444 30.6756 45.5537 31.1695 45.3016 31.8752C44.9186 32.9539 44.7673 33.9015 44.4447 35.1011C44.3338 35.585 44.3137 35.9781 44.2734 36.4419C44.1625 37.2987 44.102 38.4278 44.0919 39.5367C44.0717 39.7988 44.1927 39.7585 44.2834 39.7081C45.0194 39.4661 45.8057 39.1032 46.6726 38.8613C47.348 38.6798 48.3561 38.4379 49.1928 38.206C49.3541 38.206 49.7674 38.0951 49.9287 38.0951C51.5114 37.6717 54.5861 37.3189 56.935 37.5004C57.308 37.5608 57.4592 37.5508 57.923 37.6213C59.5863 38.0145 60.6851 38.2766 62.167 38.831C62.8122 39.073 63.3566 39.3149 64.032 39.6073C64.405 39.7686 64.9493 40.1718 65.3122 40.202C65.3122 40.1617 65.3828 40.1617 65.3828 40.1214C65.4332 39.0629 65.2921 38.6496 65.3223 38.0951C65.403 36.6435 65.282 34.8491 64.9695 33.5184C64.6469 32.1474 64.6267 30.857 64.2537 29.5364C63.669 27.4497 63.0843 25.1109 62.5299 22.9334C62.3383 22.1572 62.419 21.1693 62.2879 20.4334L62.3484 20.0805C62.2073 19.3245 62.0158 18.4877 61.9956 17.5805L61.6428 17.278C61.2497 17.1268 60.9875 17.2176 60.5742 17.0966C59.7979 16.8647 58.9108 16.5421 58.0741 16.3203L56.9451 16.2599C56.0075 16.0482 55.0297 16.149 53.9107 16.1389M100.716 16.2599C100.424 16.2599 99.174 16.3304 98.4583 16.5018C97.5006 16.7236 96.4824 16.8042 95.5247 17.0059C95.5247 17.0462 95.3836 16.9857 95.4139 17.4897C95.2828 17.9232 95.1215 18.4273 94.9602 19.4757C94.8796 20.0402 94.1235 22.5201 93.6295 23.881C93.5086 24.2137 93.5489 24.4557 93.438 24.8085C93.4077 24.9093 93.317 25.0908 93.2767 25.1916C93.2565 25.373 93.2666 25.4335 93.1759 25.7259C93.1356 25.8267 93.0247 25.9275 92.9843 26.0283C92.8734 26.2803 92.8835 26.5424 92.7928 26.8549C92.6718 27.2884 92.4299 27.7521 92.2787 28.1755C92.1073 28.6392 92.1274 28.861 91.9662 29.3046C91.946 29.355 91.8956 29.6876 91.8856 29.738C91.8049 29.9296 91.8049 29.9901 91.6738 30.3026C91.4521 31.0385 91.1194 32.3389 90.7968 33.3571C90.6758 33.7301 90.6254 34.1333 90.5549 34.4862C90.575 34.6071 90.5549 34.6878 90.4843 35.0205C90.3532 35.8975 90.0811 38.2867 90.2424 40.0004C90.2726 40.071 90.323 40.1617 90.6053 40.0206C91.1194 39.5871 92.9541 39.2343 93.7102 38.9419C96.0389 38.0246 100.626 37.6717 103.993 38.3572C104.527 38.3976 104.92 38.4782 105.737 38.5689C107.864 38.9923 108.479 39.3048 109.709 39.8391C109.92 39.9299 110.505 40.2928 111.14 40.4641C111.221 39.8996 111.231 39.4964 111.201 38.8411C111.18 38.3673 111.251 37.7221 111.17 37.1778C111.009 35.958 111.201 35.212 110.959 34.1232C110.727 33.1151 110.928 32.0264 110.666 31.0284C110.122 29.0122 109.638 26.5626 109.094 24.5666C108.922 23.7802 108.983 23.5282 108.942 22.9939C108.953 22.9032 108.912 22.4193 108.902 22.2479C108.751 20.4737 108.6 19.4051 108.59 17.9434C106.342 16.4212 104.265 16.3002 100.737 16.28M78.0142 16.9958C77.8932 17.2377 78.0041 17.52 77.8328 17.772C77.611 18.1047 77.2279 18.2156 76.8852 18.4273C76.2702 18.8104 75.6754 19.2942 75.1008 19.7378L74.748 20.2116C74.2843 20.5745 73.8508 20.8668 73.4374 21.2802L73.0846 21.754C72.9233 21.8749 72.7318 21.7237 72.5503 21.8749C71.27 22.9334 70.8164 22.7721 70.7861 22.8125C70.766 23.0443 71.3205 24.6976 71.5927 24.7883C71.8649 24.9597 73.5786 24.8589 73.9113 24.7883C74.1935 24.2742 74.879 22.6209 75.5141 22.5907C76.1694 22.1975 78.6493 22.7621 79.0122 22.3487C79.0828 21.6632 78.9013 21.4112 79.4457 21.0483C79.9296 20.7257 80.8167 20.8971 81.0486 20.3326C81.1796 20.0705 80.9275 19.6269 80.988 19.264C81.109 18.5986 81.23 18.0946 81.4619 17.6006L81.3409 17.4797C80.8066 17.6006 79.7683 17.7418 79.1433 17.5402C78.7602 17.4192 78.4275 17.1168 78.0142 17.0059M86.0386 17.6611C85.7765 17.9031 85.3934 17.9434 85.2624 18.3164C85.0708 18.6591 85.5245 19.0321 85.3229 19.3849L85.0809 19.5664L84.9599 19.9797C84.6978 20.141 83.6595 20.8064 83.2966 21.2903C82.8127 21.9354 82.3994 22.762 81.8046 23.3165C81.6837 24.0121 82.1877 24.4758 82.48 25.0202C82.722 25.1714 83.5688 25.0807 83.8208 25.0504C84.4559 24.9496 85.2826 25.242 85.958 25.1109C86.2402 24.5968 86.8653 23.6492 86.9661 23.0847C86.583 22.8528 86.2705 22.5504 86.2503 21.9556C86.3914 21.7842 86.4217 21.5423 86.5527 21.3608C86.6434 21.2398 87.5608 20.3729 87.6818 20.2922C87.8128 20.2015 87.9943 20.2217 88.0951 20.1108C88.206 19.9999 88.1858 19.8285 88.2766 19.6975C88.3774 19.5563 88.6294 19.395 88.7503 19.2841C88.71 19.1833 88.7403 19.2237 88.6899 19.1632C88.5386 18.8103 88.1455 18.8406 87.8027 18.6894C87.1979 18.4172 86.8451 17.7014 86.0185 17.6813M97.3191 20.5342L100.112 20.5947C100.424 21.0786 100.364 22.0362 100.353 22.8528C100.606 23.2661 100.303 24.1633 100.414 24.6976C100.535 25.2621 100.364 26.0787 100.474 26.7239C100.565 27.2481 100.616 28.5787 100.474 29.2844C100.374 29.3449 100.374 29.355 100.233 29.4054C99.9906 29.5465 99.6478 29.3449 99.2849 29.4054C98.8212 29.486 97.9542 29.4659 97.3191 29.4659C97.1578 29.2239 97.0772 29.1534 97.0772 28.6896C97.2284 28.4275 97.0772 27.0465 97.0772 26.492C97.0772 24.4859 96.9764 22.7217 96.9562 20.7862C97.0469 20.4939 97.2183 20.635 97.309 20.5442M50.3219 20.7862C51.0981 20.8669 52.1163 20.8467 53.1143 20.8467C53.5277 21.0281 53.4268 23.4778 53.3563 24.4758C53.3059 25.121 53.2655 26.0283 53.4168 26.7339C53.5478 27.3388 53.5377 28.4477 53.4168 29.0525C53.3159 29.113 53.316 29.1231 53.1748 29.1735C52.4188 29.2743 50.332 29.3751 50.2412 29.1332C50.09 28.8913 50.0699 28.8005 50.08 28.3368C50.332 27.9235 50.0598 26.8751 50.08 26.4315C50.1405 25.3024 50.1606 24.1431 50.1606 22.8225C50.1606 22.1673 49.9792 20.9475 50.3219 20.7761M103.438 20.7761C104.547 20.7761 105.344 20.7761 106.473 20.7761C106.795 20.8366 106.664 21.2297 106.654 21.6733C106.775 21.8749 106.715 23.2157 106.715 23.6996C106.715 24.9093 106.775 26.1291 106.775 27.5102C106.775 27.9436 106.876 28.8408 106.775 29.0525C106.715 29.234 106.715 29.2239 106.533 29.2945C106.342 29.3953 106.029 29.2743 105.465 29.2945C104.829 29.3147 104.275 29.355 103.559 29.355C103.408 29.2945 103.368 29.1836 103.317 28.9417C103.418 28.7804 103.358 26.8952 103.307 26.3307C103.327 25.6956 103.358 25.1815 103.378 24.5464C103.206 23.7298 103.196 21.5221 103.317 20.8568C103.418 20.8164 103.378 20.8467 103.438 20.7963M56.6326 20.8568C57.5903 20.8568 58.7597 20.7459 59.6065 20.9172C59.6669 21.018 59.677 21.0181 59.7274 21.1592C59.8988 21.4314 59.7274 22.9032 59.7274 23.4173L59.6669 29.0626C59.4653 29.1937 59.4754 29.2844 59.1326 29.3046C58.437 29.2138 56.9854 29.234 56.4612 29.2441C56.2898 28.9719 56.2697 28.609 56.2798 28.115C56.5217 27.7219 56.3402 26.5726 56.3402 26.0283L56.4007 23.3568C56.4007 22.5806 56.3302 21.6532 56.4612 20.9777C56.5318 20.9374 56.5822 20.9172 56.6427 20.8568M105.233 22.5201C105.142 22.5806 104.91 22.5403 104.739 22.5403C104.557 22.8225 104.628 23.256 104.638 23.7702C104.759 24.375 104.719 26.2904 104.719 27.4194C104.89 27.5102 105.243 27.3993 105.535 27.3993C105.565 26.4315 105.535 25.1815 105.535 24.244C105.323 23.9012 105.585 22.9536 105.475 22.7016C105.404 22.5504 105.414 22.5806 105.233 22.5201ZM57.8524 22.6411C57.5197 23.1855 57.7012 24.5262 57.7112 25.373C57.5499 25.9678 57.681 26.9255 57.6911 27.3993C57.8927 27.5303 57.9935 27.4598 58.3665 27.4598C58.6387 27.4598 58.5278 25.2823 58.548 24.8992C58.5782 24.254 58.6185 23.629 58.6084 22.8125L58.427 22.631H57.8524V22.6411ZM51.582 22.7016C51.4106 23.0242 51.4611 23.6794 51.4611 24.1835C51.33 24.4153 51.4107 26.7843 51.3401 27.3993C51.3603 27.6916 51.703 27.5807 52.1163 27.5807C52.3885 27.6211 52.3381 27.3892 52.3583 27.0464C52.1667 26.7339 52.3583 26.0989 52.3583 25.7359C52.3583 25.7359 52.3986 23.3568 52.3986 22.9435C52.3078 22.7016 52.1869 22.7318 51.9147 22.7318C51.703 22.7318 51.7131 22.7318 51.582 22.7117M98.3474 22.8125C98.1861 23.1149 98.2667 23.7197 98.2667 24.1935C98.4381 24.4758 98.2466 26.8247 98.3676 27.6816C98.5793 27.8126 98.7002 27.7118 99.0934 27.7017C99.3555 27.7823 99.2849 26.8348 99.2748 26.2702C99.2748 25.6654 99.3151 25.5746 99.2748 25.3226C99.174 24.5968 99.3152 23.4778 99.1841 22.8125C99.1438 22.8125 98.9623 22.8024 98.922 22.8024C98.7204 22.7621 98.549 22.8024 98.3373 22.8125M64.1832 23.9617C64.0017 24.4859 64.3444 25.0908 64.4856 25.5041C64.8787 26.6735 65.0904 27.8731 65.4332 29.0122C66.4312 32.349 66.8042 35.9177 66.8647 40.192C66.8446 40.6355 68.2055 40.4339 69.0019 40.4339H73.5786C73.7399 40.5246 74.254 40.4339 74.5867 40.4339L76.6129 40.4944L77.3892 40.4339C78.7703 40.7162 80.7763 40.6254 82.2078 40.6153C83.1756 40.6053 84.3047 40.7867 85.2422 40.6153L85.837 40.6758C86.6939 40.696 87.7624 40.7565 88.5185 40.6153V40.4944C88.7806 40.071 88.6294 39.0327 88.6395 38.4177C88.6395 37.9842 88.7403 37.46 88.8209 37.1072L88.9419 35.0809C89.3754 33.2059 89.7282 31.4216 90.2524 29.728C90.4036 29.2441 90.3734 28.8812 90.5448 28.4174C91.0085 27.2077 91.815 25.5847 91.9158 24.133C91.7948 24.0625 91.8049 24.0524 91.6133 24.0121C91.3311 24.1935 90.4843 24.0524 90.1819 24.0121C89.7081 23.9415 88.7403 24.0625 88.2161 24.0726C87.8733 24.6371 87.46 25.2621 87.1475 25.8569C87.0265 26.0787 86.9559 26.5323 86.7342 26.6331H86.3814C86.0789 26.4416 85.2119 26.5726 84.7785 26.5726C84.0224 26.5726 83.3974 26.4416 82.8127 26.5122C82.4801 26.5525 81.8752 26.5827 81.5022 26.5122C81.2401 25.998 80.9881 25.3125 80.7865 24.7883C80.6856 24.5363 80.7158 24.1835 80.484 24.0726H79.2944C79.113 23.9617 76.4819 23.9415 76.1996 24.133C75.4637 24.4052 75.2621 26.0182 74.5968 26.2702C74.3044 26.4718 73.8609 26.3307 73.4072 26.3307C72.4193 26.3307 71.1995 26.4517 70.3124 26.2702C70.2015 25.7561 69.768 23.5484 69.3043 23.9516H64.1933L64.1832 23.9617ZM77.4497 30.2623C79.98 30.232 82.2583 31.9861 81.9155 35.0205C81.855 35.5245 81.855 35.8672 81.6736 36.2705C81.0183 37.7826 79.6372 38.6092 77.9738 38.7504C76.8851 38.8411 76.2903 38.5891 75.8972 38.3875C74.5867 37.702 73.387 36.2705 73.6391 34.1938C73.6391 33.9519 73.76 33.5688 73.76 33.3269C73.9616 32.5305 74.7379 31.4619 75.625 30.8873C76.1996 30.5143 76.8851 30.3732 77.4396 30.2724M77.621 32.591C77.4698 32.6918 77.2984 32.6313 77.0867 32.7119C76.7843 32.8329 76.1895 33.2765 76.0181 33.5486C75.4133 34.4963 75.9678 35.9781 76.6129 36.4015C77.0867 36.714 78.2864 36.7846 78.7904 36.4519C79.234 36.1596 79.6171 35.837 79.8288 35.1515C79.859 33.468 79.2038 32.6111 77.6311 32.591M53.7192 39.4258C52.6909 39.5266 51.7131 39.5065 50.9973 39.6778C50.1001 39.8895 49.2029 39.8593 48.3057 40.1415C47.3682 40.444 46.3299 40.8472 45.5134 41.2706C45.1303 41.4722 44.2633 41.7142 44.0818 42.1073V43.4178C43.8802 43.7404 44.0213 44.6881 44.0213 45.1417C44.0213 46.4321 43.9609 47.8131 43.9609 49.1841L43.9004 56.2609C43.9004 57.5009 43.7189 58.7106 43.9004 59.5876C44.0314 60.2227 43.7189 61.2409 43.8399 61.8457C43.9407 62.3296 43.9609 62.9647 43.9609 63.5091C44.2532 63.6906 44.7169 63.6402 45.2109 63.6906C45.7149 63.741 46.1283 63.6906 46.5214 63.7511C47.2775 63.8619 48.2856 63.8115 49.1425 63.8115C49.4247 63.3881 49.3945 62.995 49.3844 62.2692C49.2634 62.1986 49.213 62.1784 49.0921 62.1482C48.84 62.0877 48.6485 62.3498 48.4368 62.2087C48.2755 62.1079 48.2654 61.9667 48.1948 61.7954C48.0537 61.4224 48.1948 61.13 48.1948 60.7873C48.1948 60.0312 48.1243 59.1642 48.2553 58.4686L48.4368 58.4082C48.5981 58.3073 49.0114 58.3376 49.2735 58.3477C49.4348 58.1057 49.5054 58.0755 49.5255 57.6723C49.5457 57.1985 49.5457 56.9061 49.5961 56.6339C49.6768 56.1299 49.6263 55.7266 49.6263 55.2024C49.3037 55.0109 48.83 54.7992 48.7896 54.3052C49.2836 53.7911 49.7876 52.7729 50.2211 52.1681C50.4631 51.8253 50.5236 51.3314 51.0579 51.2709C51.1284 51.2608 51.6929 51.906 51.834 51.6842C52.207 51.1398 53.447 50.4846 53.4974 49.7789C53.2454 49.5168 52.9732 48.9825 52.9631 48.5289C53.7091 48.0853 56.1688 47.4603 57.3685 47.9341C57.8523 48.1256 58.2959 47.9744 58.3161 48.6498C58.0439 48.8414 57.7818 49.3958 57.7213 49.7789C58.2859 50.3838 58.6387 51.2003 59.2032 51.8052C59.304 51.7648 59.3343 51.7548 59.4149 51.7245C59.6669 51.6036 59.8081 51.4624 59.9693 51.2709C60.0702 51.3112 60.0298 51.281 60.0903 51.3314C60.4532 51.4624 60.5339 51.8152 60.7456 52.1076C61.169 52.6923 62.1267 53.5996 62.1771 54.4867C61.8646 54.779 61.542 55.0815 61.2295 55.3839C61.2295 56.3617 61.4512 57.138 61.4714 58.1158C61.7234 58.2872 61.8142 58.3578 62.3081 58.3578C62.5299 58.6904 62.4694 59.1541 62.5501 59.6683C62.6912 60.5856 62.792 61.5534 62.792 62.0474L62.4392 62.3397C61.9956 62.501 61.4311 62.1784 61.2496 62.5817V63.6502C61.3 63.7107 61.2698 63.7309 61.3101 63.7712C61.3706 63.8418 61.5118 63.872 61.5118 63.872C61.7537 63.9325 62.2476 63.8922 62.5602 63.8821C63.3364 63.8821 64.2033 63.8317 65.0602 63.8216C65.1812 63.6402 65.2618 63.6503 65.3021 63.3478C65.3021 62.5817 65.3021 62.0877 65.3021 61.624L65.3626 57.8739L65.4232 51.6842C65.4232 50.8676 65.3728 49.8999 65.4836 49.1841C65.534 48.8313 65.5038 48.2769 65.5038 48.0047C65.5038 46.7446 65.4534 45.807 65.4836 44.6578C65.4937 43.9723 65.6147 43.0146 65.4836 42.3392C65.4433 42.2081 63.0843 40.7968 62.0359 40.3734C59.7375 39.446 56.6729 39.4964 53.7696 39.4258M98.791 39.7786C98.0954 39.8089 97.1579 39.9097 96.5328 40.0811C94.6679 40.575 92.8835 41.2101 91.4218 42.1073C90.9984 42.3594 90.2222 42.5106 90.0508 42.9945C89.8492 43.3171 89.9903 44.2646 89.9903 44.7183L89.9299 48.9422C89.9299 53.7609 89.8088 58.8517 89.8088 63.4587C89.6879 63.751 91.7444 63.6502 92.6013 63.6402C92.8835 63.5998 93.0348 63.5696 93.2565 63.5797C93.3977 63.6099 93.6698 63.0555 93.559 62.8337C93.4783 62.6825 93.4279 62.8135 93.2868 62.7329C92.8634 62.7329 92.7021 62.7329 92.4198 62.7329C92.3089 62.5615 92.2585 62.5615 92.2384 62.2591C92.3896 62.0171 92.2283 61.5232 92.2988 61.1905C92.4501 60.4647 92.4399 59.6884 92.4601 58.9021C92.4601 58.4183 92.5912 58.4787 92.813 58.4384C92.9138 58.519 93.2363 58.4687 93.4077 58.4888C93.5589 57.4908 93.8513 56.886 94.0832 55.6561C93.6699 55.1319 92.8836 55.0916 93.1356 54.5875C93.5287 54.2548 93.9924 53.2064 94.315 52.7225C94.5267 52.3999 94.7989 51.7346 95.061 51.5834C95.1215 51.5431 95.1618 51.5229 95.2828 51.5028C95.4945 51.7245 95.7566 52.0572 96.1498 52.0773C96.4119 51.8152 96.6437 51.4927 96.9058 51.2406C97.1478 50.9281 97.3796 50.6358 97.6619 50.3737C97.6619 49.5974 97.0066 49.1841 97.1075 48.7809C98.0047 47.9442 100.263 48.0248 101.533 48.4079C102.007 48.549 102.733 48.5894 102.541 48.9422C102.269 49.2245 101.966 50.0712 102.067 50.3737C102.501 50.7971 103.025 51.4322 103.479 51.7749C103.882 51.5632 104.043 51.2003 104.446 51.1802C104.91 51.9261 105.404 52.8132 105.878 53.5895C106.12 53.9826 106.563 54.3859 106.654 54.9C106.604 54.9605 106.634 54.9202 106.594 55.021C106.19 55.1823 105.626 55.2629 105.585 55.7972C105.767 56.0996 105.838 57.8537 105.928 58.3174C106.009 58.4989 106.059 58.4888 106.12 58.509C106.301 58.6299 106.624 58.5392 106.836 58.509C107.148 58.5392 107.088 59.0634 107.077 59.5473L107.017 62.9446C107.017 63.0857 106.805 63.0151 106.432 63.0151C106.17 62.9547 105.999 62.9547 105.827 62.995C105.827 63.0353 105.767 63.1865 105.767 63.2268C105.727 63.4184 105.727 63.499 105.767 63.6603C105.807 63.6603 105.878 63.7712 105.918 63.7712C106.311 63.7914 106.846 63.7712 107.208 63.7712C108.378 63.7914 109.567 63.7712 110.767 63.7712C110.949 63.7107 110.989 63.5494 110.989 63.1966C111.019 62.6825 110.979 62.4405 111.009 61.9264C111.059 60.9889 111.069 59.4868 111.069 58.2973V57.1077C111.16 55.2125 111.19 54.5976 111.19 53.5391C111.17 53.277 111.201 52.8032 111.18 52.5511C111.18 51.412 111.19 50.6358 111.19 49.4361C111.17 49.1236 111.211 48.549 111.19 48.2265C111.231 47.3595 111.231 46.3514 111.251 45.4744C111.271 44.5167 111.301 43.4078 111.311 42.6013C109.799 41.3714 107.309 40.7263 104.708 40.1012C104.708 40.1012 103.973 39.9702 103.499 39.9097C102.964 39.8391 102.612 39.829 102.128 39.7887C100.958 39.6879 99.8091 39.7081 98.8212 39.7988M67.1167 42.3594C66.8042 42.2686 66.9353 43.6396 66.9353 44.3251C66.9353 45.7768 66.8748 47.0571 66.8748 48.4986C66.8748 49.3152 66.8748 51.1398 66.8748 51.7548C66.8748 54.5472 66.8143 57.4908 66.8143 60.0211V62.5212C66.8143 62.8236 66.7437 63.378 66.8647 63.5797C66.9454 63.8619 67.0865 63.8418 67.4595 63.8418C68.155 63.8418 68.2861 63.8216 68.5986 63.8317C68.901 63.8317 68.7901 63.0656 68.7801 62.5212C68.8405 61.624 68.8909 61.2611 68.901 60.9183C68.9212 60.8175 68.9515 60.7066 68.5482 60.7368C68.1248 60.8377 67.7518 60.8477 67.6813 60.7772V60.505C67.7216 60.0614 67.7619 59.9203 67.772 59.6884C67.8224 58.4787 67.8224 58.2771 67.8224 57.39C67.8324 56.8255 67.9837 56.8859 68.2256 56.8759C68.6591 56.9666 68.9313 56.9464 69.2035 56.9363C69.385 56.9363 69.4051 56.8355 69.3849 56.4625C69.5059 55.5754 69.5966 55.6057 69.7176 55.1621C69.899 54.5472 70.0805 53.902 70.3326 53.156C70.0503 52.904 68.8305 52.3092 68.7297 52.027C68.6893 51.9665 68.6893 51.9665 68.7297 51.8253C69.4051 50.9483 69.8487 50.3636 70.3225 49.6478C70.5745 49.2748 70.9878 48.2769 71.2902 48.67C71.4717 48.9321 71.9959 49.4563 72.2378 49.2043C72.8427 48.5188 73.2056 48.166 73.7197 47.7728L74.496 46.8857C74.617 46.3514 74.2742 46.1599 74.1935 45.6961C74.2036 45.5953 74.1935 45.5248 74.385 45.4542C74.9697 45.3433 75.0101 45.2929 75.4032 45.1921C76.8146 44.8393 78.5082 44.7183 79.7179 45.2727C80.5546 45.6659 81.0889 45.2123 80.9074 45.928C80.7562 46.1296 80.6857 46.5127 80.6655 46.8252C81.1796 47.3696 82.4095 49.2346 82.8631 49.4563C83.3873 49.2648 83.7906 48.9422 84.1736 48.9119C84.6978 49.7487 85.2623 50.6459 85.7765 51.4725C85.968 51.785 86.0588 52.1076 86.3108 52.3596C86.2705 52.4604 86.3007 52.4201 86.2503 52.4806C85.9479 52.8334 84.96 53.0351 84.8188 53.4887C84.7886 53.5794 84.9499 54.2951 85.0003 54.4363C85.1817 55.0008 85.6152 57.0775 86.1293 57.1682C86.2705 57.0775 86.7241 57.0674 86.9056 57.0473C87.0165 57.2489 87.0265 57.521 87.0265 57.884C86.8148 58.2267 87.0165 60.5151 86.9056 61.0998H86.7846C86.5628 61.251 86.1596 61.1199 85.8874 61.0998V61.2207C85.7866 61.382 85.9378 63.2571 86.0084 63.5998C86.0789 63.6402 86.1293 63.6603 86.1898 63.7208C86.714 63.62 87.4701 63.6603 88.0951 63.6603C88.3169 63.2974 88.2866 62.6119 88.2766 61.997C88.458 61.7046 88.3371 60.8679 88.3371 60.4546L88.3975 56.644L88.458 50.6963C88.458 49.9503 88.5185 49.1539 88.5185 48.4986L88.458 47.6619C88.5992 46.9865 88.3774 46.0389 88.5185 45.2828C88.6294 44.678 88.6596 43.3473 88.5185 42.6114C88.4177 42.5711 88.458 42.6013 88.3975 42.5509C87.702 42.6819 86.341 42.6517 85.6051 42.4904H81.976L67.1067 42.3694L67.1167 42.3594ZM76.0988 46.4018C75.9174 46.5329 75.9879 46.5732 75.9778 46.8151C75.9778 47.1074 76.2601 47.9946 76.2803 48.4785C76.371 48.9019 76.7137 48.791 77.238 48.7809C77.994 48.791 78.2158 48.8313 78.4779 48.7809C78.8408 47.9341 79.0424 47.3595 79.0626 46.6236C78.8307 46.432 78.6291 46.4421 78.2964 46.4421C77.5505 46.3615 76.5928 46.4119 76.0988 46.4119M74.627 48.5894C74.1128 49.164 73.7802 49.416 73.3064 49.8394C73.0745 50.0813 73.1754 50.1116 73.2258 50.1721C73.629 50.5652 73.9314 50.7064 74.2036 50.9886C74.3044 50.9483 74.3548 50.9684 74.4153 50.918C74.8387 50.535 75.2218 49.8898 75.5646 49.5571C75.6956 49.4462 75.5646 49.3555 75.5646 49.2648L74.9697 48.549C74.8891 48.549 74.8488 48.418 74.627 48.5894ZM80.4336 48.6801C80.0606 49.0329 79.6473 49.2345 79.2642 49.5874C79.1332 49.6882 79.1332 49.7991 79.1836 49.8596C79.5263 50.293 80.2824 50.9987 80.3933 50.9584C81.351 50.6963 81.8349 50.3939 81.8349 50.2729C81.3913 49.7386 81.0888 49.1438 80.615 48.6498C80.5546 48.6095 80.5243 48.6095 80.4235 48.6801M54.9188 49.2648C54.8482 49.3858 54.8382 49.3757 54.7978 49.5571C55.1103 50.0309 55.2616 51.654 55.8059 51.7548C56.1386 51.3717 56.4713 50.0813 56.5217 49.4361C56.5217 49.4361 56.5519 49.3051 56.3402 49.2547C55.8261 49.1236 54.9087 49.2547 54.9087 49.2547M99.1035 49.4361C99.0127 49.5672 99.0027 49.547 98.9825 49.789C99.3152 50.1821 99.4664 51.7749 99.9301 51.8657C100.263 51.2709 100.616 50.4443 100.646 49.6075H100.525C100.313 49.4765 99.4361 49.4261 99.0934 49.4261M77.0867 50.2628C76.744 50.6156 76.25 50.8878 75.9577 51.2709C74.8387 52.7528 73.7701 54.4665 73.1653 56.4424C72.883 57.3497 73.0947 58.388 72.8729 59.4162C72.6007 60.6159 72.7015 62.5111 72.9334 63.7006L73.1148 63.7611C73.4173 63.9527 74.9395 63.8216 75.4335 63.8216L81.8147 63.8014C81.976 63.5494 81.9256 61.8256 81.9356 61.4022C81.976 60.2429 81.9256 59.6582 81.9155 58.64C81.9054 57.511 81.5627 56.6642 81.3207 55.8476C81.2199 55.4948 81.3207 55.2831 81.1997 54.9605C80.7864 53.8012 80.0303 52.6721 79.3549 51.7447C78.8408 51.039 78.3166 50.2527 77.0968 50.2527M71.5725 50.6963C71.4314 50.5249 70.9071 51.3314 70.8063 51.5632C71.4213 51.9766 72.9132 53.025 73.135 53.1661C73.4778 52.7427 73.6693 52.5915 73.6895 52.2185C73.2157 51.7749 72.8427 51.4725 71.5624 50.6963M83.2058 51.0289C82.7724 51.4523 81.4417 51.7951 81.4216 52.5108C81.5526 52.8133 81.6635 53.2367 82.1373 53.2871C82.7018 52.7225 83.5083 52.3899 84.1031 51.8556C84.0627 51.7548 84.093 51.7951 84.0426 51.7346C83.9518 51.4422 83.7805 51.2104 83.5688 51.0189C83.468 50.9281 83.2159 51.0189 83.2159 51.0189M57.1669 51.5531C56.935 51.9261 56.7636 51.9866 56.7535 52.5108C57.0358 52.8133 57.2173 53.3072 57.7314 53.3879C58.0036 53.1459 58.2355 53.1056 58.2355 52.5713C57.923 52.3596 57.55 51.8757 57.3483 51.5632C57.3483 51.5632 57.2274 51.4624 57.1669 51.5632M53.6587 51.6842C53.2454 51.9564 52.9027 52.1479 52.822 52.6318C53.0539 52.8435 53.326 53.0552 53.5377 53.2871C53.6385 53.2467 53.5982 53.277 53.6587 53.2266C54.0014 53.0854 54.2333 52.5814 54.4954 52.3294C54.4551 52.2286 54.4853 52.2689 54.4349 52.2084C54.3543 51.9564 54.1526 51.8757 54.0216 51.6741C54.0216 51.6741 53.8603 51.5431 53.6688 51.6741M98.176 51.664C97.8534 52.0169 97.7829 52.1681 97.4301 52.4907C97.0268 52.9947 97.1578 53.035 97.1982 53.0955C97.3191 53.4282 97.4603 53.3274 97.672 53.5492C97.9341 53.8214 98.0349 53.5592 98.0954 53.5088C98.3978 53.2064 98.6196 52.9544 98.6801 52.5612C98.4684 52.2891 98.5188 51.8253 98.1659 51.654M101.362 52.1378C101.17 52.4302 101.039 52.4604 100.999 52.9241C101.18 53.0955 101.17 53.2467 101.422 53.3475C101.493 53.398 101.634 53.4988 101.775 53.5189C102.047 53.2467 102.511 53.0653 102.37 52.6217L101.775 52.027C101.674 52.027 101.573 51.785 101.372 52.1378M51.3401 53.5189C51.1183 53.7609 50.9268 53.9121 50.8663 54.2851L51.582 55.0008C51.8744 55.2024 52.197 55.4242 52.3684 55.525C52.4389 55.5653 52.4691 55.6359 52.5901 55.4847C52.8825 55.0109 53.0438 55.0815 53.074 54.7085C52.6204 54.4262 51.8844 53.9524 51.582 53.5189C51.582 53.5189 51.451 53.408 51.3401 53.5189ZM59.8484 53.5189C59.4552 53.9121 58.558 54.2246 58.5379 54.9504C58.7597 55.1319 58.7193 55.2831 59.1326 55.3032C59.5359 54.9303 60.3424 54.6984 60.4432 54.0532C60.4432 54.0532 60.2617 53.7911 60.0298 53.5189C59.9895 53.4685 59.8484 53.5189 59.8484 53.5189ZM55.564 53.5794C54.2434 55.0109 53.3059 56.4323 52.7111 58.6299L52.5901 61.009C52.449 61.6744 52.5195 63.0857 52.6506 63.741C52.7514 63.8015 52.7514 63.8115 52.8925 63.8619C53.1244 64.0131 54.1426 63.993 54.4954 63.9224C55.4632 63.7208 56.814 63.872 58.0036 63.8619C58.1144 63.6906 58.1144 63.5797 58.185 63.3881C58.558 62.2389 58.3665 61.0292 58.3665 60.2933C58.3665 58.761 58.2354 57.4102 57.7717 56.3113C57.6407 56.0089 57.3584 55.7166 57.2374 55.4242C56.8846 54.6077 56.562 53.7206 55.5741 53.5794M95.6659 53.6399C95.424 53.8818 95.0207 54.0633 95.1921 54.4161C95.5146 54.6278 95.7465 54.9303 96.432 55.5049C96.6941 56.0392 96.8554 55.6158 96.8554 55.5956C97.0873 55.2629 97.1377 55.1823 97.1579 54.8294C96.7345 54.4363 96.2405 54.0633 95.8473 53.6399H95.6659ZM103.942 53.6197C103.64 53.9322 102.481 54.5472 102.632 55.0109C102.854 55.2629 102.944 55.9182 103.287 55.6057C103.63 55.1722 104.416 54.9101 104.477 54.2347C104.255 53.9927 104.315 53.7205 103.952 53.6197M71.3003 53.9423C71.1894 54.0633 71.1088 53.9625 71.0281 54.2649C70.9878 54.6984 70.9172 55.3637 70.766 55.9384C70.7257 56.0896 70.5644 56.5029 70.5745 56.6742C70.5745 56.7851 70.635 56.8658 70.7559 56.9162C71.139 56.9767 71.4818 56.9162 71.764 56.9162C72.0161 56.9565 71.9656 56.7448 72.006 56.4424C72.2781 54.9202 72.7721 54.527 72.4596 54.2851C72.1471 54.1036 71.9455 54.2347 71.3104 53.9423M99.6579 54.1842C98.8514 55.0512 98.2466 55.6863 97.5913 56.9767C96.8655 58.388 96.7647 61.8054 97.1579 63.7511C97.5107 63.8015 97.6317 63.8216 98.1156 63.8115C98.5188 63.8115 99.3857 63.7712 99.7386 63.7712C100.676 63.7712 101.271 63.7611 102.229 63.7511C102.551 63.7511 102.471 63.4083 102.471 62.9143C102.511 61.7147 102.531 61.0494 102.531 60.4748C102.531 57.4102 101.634 55.6561 100.152 54.1137C100.031 54.1137 99.9402 53.9625 99.6579 54.1842ZM83.4982 54.2347C83.2361 54.4867 82.7522 54.5875 82.6615 55.0109C83.0647 55.5956 82.6817 56.9767 83.6696 56.9767C83.8712 57.0271 83.8712 56.9767 83.972 56.9162C84.0829 56.7347 84.1434 56.7146 84.1535 56.3819C84.0022 55.8678 83.8107 54.8899 83.8006 54.4161C83.7805 54.2145 83.841 54.1943 83.4982 54.2347ZM50.7252 56.0795C50.6546 56.4424 50.7756 56.9263 50.8461 57.3295C50.8965 57.6319 50.7856 58.0856 50.8461 58.3981C50.8461 58.4485 50.8965 58.4787 50.9671 58.4586L51.6224 58.2771C51.7837 58.257 51.8038 58.1259 51.8038 58.0352C51.8139 57.4202 51.7938 56.8859 51.6224 56.4928C51.4409 56.3819 51.33 56.2408 51.0276 56.0795C50.7453 55.9283 50.7252 56.0795 50.7252 56.0795ZM59.9996 56.4323C59.6165 56.7146 59.3847 56.6037 59.4048 57.3194C59.4351 57.6319 59.5157 57.7428 59.5258 57.9747C59.7576 58.1158 59.8988 58.1561 60.3625 58.1561C60.5339 58.1561 60.4734 57.9848 60.4835 57.7428C60.3928 57.2993 60.3625 56.9263 60.3625 56.6138C60.3625 56.6138 60.2819 56.4625 60.1811 56.4323C60.1105 56.4121 59.9996 56.4323 59.9996 56.4323ZM95.3332 56.4323C95.2828 56.523 95.2223 56.6037 95.1518 56.6742C95.1316 57.2388 94.9501 57.8537 95.0509 58.3578C96.2001 59.2146 95.9279 57.3396 95.9279 56.6742C95.7263 56.5533 95.6457 56.4625 95.3332 56.4323ZM103.7 56.5634C103.589 56.7751 103.65 57.0775 103.66 57.4505C103.821 57.7227 103.589 58.0654 103.892 58.2166C103.983 58.2771 104.285 58.267 104.456 58.267C104.567 58.015 104.507 57.2892 104.497 56.7952C104.477 56.5533 104.386 56.6138 104.083 56.5936C103.952 56.5734 103.841 56.5734 103.71 56.5634M69.4152 58.0956C69.274 58.3174 69.2337 58.4586 69.2337 58.8719C69.2438 58.9525 69.264 58.9425 69.2942 58.9929L69.4958 59.0634C69.889 59.1441 71.0584 59.0634 71.5019 59.0533C71.643 58.8316 71.7338 58.7912 71.7438 58.3981C71.4918 58.2368 71.1591 58.2368 70.7861 58.1763C70.2619 58.0957 69.8083 58.0956 69.4253 58.0956M83.4579 58.4485C83.3671 58.5594 83.3369 58.5291 83.2764 58.6904C83.1655 58.8618 83.2563 59.0937 83.2764 59.3457C83.3369 59.5272 83.5184 59.5272 83.8712 59.5272C84.5265 59.3558 85.4539 59.9102 85.7765 59.0533C85.8269 58.9727 85.8269 58.9021 85.837 58.761C85.8269 58.3376 84.4458 58.4586 83.4579 58.4586M49.7171 59.8699C49.6465 59.9606 49.6264 60.0413 49.5961 60.1623C49.5255 60.3941 49.5557 60.4848 49.5557 60.7772C49.5961 60.9486 50.4933 60.9183 51.0377 60.9183C51.2292 60.9183 51.2695 60.9385 51.4006 60.9586C51.5518 60.7167 51.5921 60.4647 51.582 60.011C51.1687 59.8699 50.6546 59.88 50.0498 59.88C49.9187 59.88 49.7776 59.8296 49.7171 59.88M60.0802 59.89C59.8685 59.9001 59.7375 59.9505 59.546 59.9505C59.425 60.1723 59.4149 60.5151 59.425 60.8981C59.4754 60.9586 59.4452 60.9788 59.4855 61.0191C59.546 61.0796 59.5762 61.0897 59.6871 61.0695C60.3021 60.9586 60.8565 60.8981 61.5118 60.8981C61.6226 60.7167 61.7033 60.5856 61.6932 60.3639C61.6831 60.2227 61.6025 60.132 61.5722 60.011C61.5722 60.011 61.5017 60.011 61.4513 60.011C60.917 60.011 60.6145 59.8598 60.0802 59.89ZM93.8614 60.1824C93.8009 60.4445 93.7404 60.6865 93.7404 61.0796C93.9521 61.4224 93.9824 61.2611 94.3352 61.2611C94.5973 61.4425 95.2626 61.3921 95.5852 61.3216C95.7566 61.0594 95.9784 60.5252 95.5852 60.3739C95.313 60.2026 94.315 60.1925 93.8614 60.1925M103.912 60.3135C103.852 60.3538 103.781 60.3336 103.62 60.4143C103.509 60.5857 103.569 60.5453 103.549 60.8477C103.66 61.1502 103.892 61.0796 104.164 61.1099C105.112 61.1502 105.303 61.0897 105.727 61.0796C106.079 61.0595 105.999 61.0191 106.039 60.8477C106.019 60.7268 105.979 60.5352 105.958 60.4143C105.868 60.2429 105.081 60.2933 104.577 60.3034C104.194 60.3034 104.104 60.3034 103.892 60.3034M84.0224 60.7772C83.9115 60.8477 83.4881 60.7368 83.4277 60.8981C83.2563 61.6038 83.0648 62.8538 83.1857 63.5797C83.4579 63.741 83.6696 63.8317 84.2543 63.7611C84.5769 63.7208 84.5466 63.4083 84.5466 63.4083C84.5466 62.501 84.6071 61.7349 84.6071 60.9082L84.4861 60.7873H84.0123L84.0224 60.7772ZM70.1611 60.8981C69.9192 60.7873 69.9797 62.5514 69.9797 63.5192C70.0503 63.9023 70.6652 63.8216 71.2902 63.8115C71.5624 63.8015 71.4818 63.4083 71.4717 62.9748C71.5221 62.4506 71.4717 61.9869 71.5523 61.6038C71.5826 61.4425 71.5725 61.2913 71.5927 61.0695C71.5826 61.0191 71.6733 60.8578 71.2398 60.8578C70.8265 60.8578 70.5845 60.8981 70.1712 60.8981M51.078 62.3296C50.8864 62.6321 50.8864 63.0958 50.8965 63.6402C50.9469 63.7006 50.9369 63.7107 50.9772 63.7309C51.0074 63.751 51.078 63.7611 51.078 63.7611C51.3401 63.9224 51.4712 63.6603 51.6123 63.5192C51.6123 63.0756 51.5619 62.753 51.4913 62.4506L51.3099 62.3901C51.2393 62.3397 51.209 62.3397 51.0679 62.3296M59.4552 62.5111C59.304 62.7934 59.3242 63.3075 59.3342 63.7611C59.4653 63.8317 59.546 63.8619 59.6871 63.8821C59.7778 63.8821 59.798 63.872 60.0399 63.7914C60.0802 63.4587 60.1105 63.3377 60.1004 62.874C60.0097 62.7732 59.929 62.622 59.8585 62.5212H59.4451L59.4552 62.5111ZM95.3533 62.7631C95.2021 62.7631 95.2022 62.7732 95.1518 62.9043C95.1215 63.1361 95.1013 63.4688 95.1114 63.7107C95.1215 63.8115 95.313 63.7309 95.5751 63.741C95.7264 63.6906 95.807 63.741 95.807 63.5998C95.8271 63.499 95.8272 63.4486 95.8272 63.1966C95.807 63.0454 95.8271 63.0555 95.7969 62.8639C95.7364 62.8034 95.7264 62.8035 95.6659 62.7833C95.5651 62.7531 95.4844 62.7833 95.3634 62.7631M103.892 62.8438C103.821 62.9345 103.872 63.0454 103.811 63.1663C103.791 63.4587 103.821 63.5595 103.862 63.7309C103.922 63.751 103.993 63.7309 104.174 63.7611C104.325 63.7208 104.295 63.7712 104.467 63.741C104.467 63.7006 104.517 63.5595 104.517 63.5192C104.517 63.1462 104.517 63.0555 104.477 62.874C104.436 62.874 104.356 62.8438 104.315 62.8438C104.235 62.7934 104.043 62.8438 103.892 62.8438Z" fill="white"/>
<path d="M6.33936 73.8722C5.69418 73.8722 4.44419 74.0839 4.24258 74.2654C4.14177 74.3662 4.12159 74.477 4.10143 74.6988C4.02078 75.596 3.96028 77.5316 3.96028 79.3058C3.96028 82.3906 3.98042 84.4067 4.2526 85.5358C4.29293 85.7072 4.39374 85.808 4.56511 85.8685C5.01875 86.0399 5.64379 86.1608 6.22849 86.1608C7.14585 86.1608 8.34546 85.9491 9.67614 85.1023C11.3597 83.9934 12.1863 82.0176 12.1863 79.8905C12.1863 77.6424 11.2085 76.1202 10.2911 75.2634C8.96044 74.0335 7.33739 73.8722 6.35954 73.8722H6.33936ZM14.4243 80.0417C14.4243 81.2111 13.9303 83.0861 12.5291 84.4975C11.0976 85.9088 10.1802 86.3322 9.0814 86.6649C8.08339 86.9774 7.3777 86.9976 5.96637 86.9976C4.90788 86.9976 2.9522 86.9169 2.45823 86.9169C1.96427 86.9169 1.22838 86.9371 0.895705 86.9371C0.875543 86.8363 0.83518 86.312 0.855342 86.1911C1.81303 85.8584 2.0348 85.7072 2.04488 85.314C2.14569 83.691 2.14573 80.1728 2.14573 77.6021C2.14573 75.2936 2.12557 74.8904 2.08525 74.6484C2.04492 74.2956 1.75259 74.1444 0.905796 73.9831C0.845311 73.9831 0.784768 73.8823 0.784768 73.7109L0.764648 73.1665C1.55096 73.1665 2.32716 73.1464 3.31509 73.1061C4.68609 73.0859 5.41191 73.0254 6.38975 73.0254C7.80108 73.0254 10.4222 73.2573 12.2468 75.0013C13.6985 76.4126 14.4243 78.1263 14.4243 80.0215V80.0417Z" fill="white"/>
<path d="M19.8878 78.9734C19.6156 78.9734 19.162 79.1448 18.8293 79.4976C18.2648 80.1227 18.043 80.9392 18.043 82.3707C18.043 83.7014 18.5672 84.6591 19.0208 85.2034C19.7265 86.02 20.4321 86.2014 20.9563 86.2014C21.2285 86.2014 21.6822 86.1006 21.9745 85.8083C22.4483 85.3244 22.8314 84.5179 22.8314 83.2881C22.8314 82.0582 22.4988 80.5763 21.6217 79.7295C21.2084 79.3363 20.543 78.9835 19.8979 78.9835H19.8777L19.8878 78.9734ZM20.7648 78.0359C22.2769 78.0359 24.6964 79.4976 24.6964 82.5824C24.6964 84.8103 23.3455 85.9796 23.033 86.1913C22.1761 86.7357 21.158 87.149 20.2104 87.149C19.4039 87.149 17.8212 86.645 17.0349 85.5462C16.3897 84.6691 16.1377 83.4796 16.1377 82.7134C16.1377 81.8162 16.4502 80.7174 16.9845 80.0218C17.4583 79.3767 17.8111 79.0641 18.3958 78.7315C19.0813 78.3786 20.0793 78.046 20.7447 78.046H20.7648V78.0359Z" fill="white"/>
<path d="M35.5941 86.8971C33.5779 86.8971 32.5194 86.8971 31.6424 86.9979C31.602 86.9979 31.5819 86.9777 31.5819 86.9374C31.5819 86.8769 31.602 86.4636 31.602 86.393C31.602 86.393 31.6424 86.2721 31.7028 86.2519C32.4892 85.9797 32.5799 85.9192 32.6202 85.5664C32.6807 84.9615 32.7411 83.651 32.7411 81.9373C32.7411 80.7477 32.6807 80.4755 32.4286 80.163C32.1968 79.8908 31.7835 79.5985 31.1584 79.5985C30.5737 79.5985 29.9084 79.8707 29.2632 80.3243C29.0717 80.5159 28.9911 80.6167 28.9709 80.8485C28.9507 81.2417 28.9104 82.5119 28.9104 83.5401C28.9104 85.9192 28.9709 85.9797 29.8681 86.1007C29.9891 86.1208 30.0395 86.1612 30.0395 86.2217C30.0395 86.393 29.9991 86.887 29.9588 86.887C29.7874 86.887 28.5878 86.9072 28.1745 86.9072C27.6302 86.9072 26.7632 86.9677 26.4507 87.008C26.37 86.9878 26.3499 86.5946 26.3499 86.3023C26.5112 86.2217 26.8438 86.0906 26.9749 86.0301C27.1463 85.9696 27.2068 85.889 27.2269 85.6168C27.2672 85.3245 27.3277 84.6389 27.3277 82.9252C27.3277 81.4231 27.3075 81.0098 27.2672 80.6973C27.2269 80.3646 27.1463 80.3445 26.7934 80.2638C26.4608 80.2235 26.3801 80.1428 26.3196 80.0521C26.2994 79.9916 26.1785 79.6186 26.2389 79.5481C27.3781 78.7517 28.0435 78.3182 28.2955 78.1468C28.4568 78.046 28.5072 78.0259 28.6887 78.0259C28.8096 78.0259 28.8499 78.0662 28.8499 78.2376L28.8297 79.7598C29.4346 79.4473 30.4528 78.7215 31.1584 78.3384C31.3701 78.2174 31.6525 78.1468 31.9045 78.1468C33.0033 78.1468 33.6081 78.792 34.1928 79.6691C35.3521 78.9634 35.7957 78.6912 36.3299 78.4594C36.7029 78.288 37.1365 78.167 37.5599 78.167C37.9833 78.167 38.5175 78.3585 38.8704 78.7114C39.203 79.0239 39.6163 79.5279 39.6566 81.5038C39.697 82.6933 39.697 83.7317 39.697 84.5684C39.697 85.4051 39.7171 85.6067 39.7978 85.7378C39.9389 85.9696 40.2313 86.01 41.068 86.1511C41.1486 86.1713 41.189 86.2519 41.189 86.3829C41.189 86.4837 41.0882 86.9475 41.0277 86.9475H39.576C38.7696 86.9475 38.0337 86.9878 37.5599 87.0483C37.4994 87.0483 37.459 87.0483 37.4389 86.9878C37.4389 86.9273 37.3986 86.635 37.3784 86.5241C37.3784 86.4636 37.3784 86.4031 37.459 86.3829C37.6909 86.262 37.9328 86.0503 37.9631 85.8386C38.1243 85.0019 38.1244 83.4796 38.1244 82.9252C38.1244 81.1913 37.9329 80.5965 37.6304 80.1933C37.3179 79.7598 36.8844 79.6086 36.2796 79.6086C35.6747 79.6086 35.0698 79.8808 34.4952 80.2336C34.3238 80.3546 34.2836 80.4251 34.2836 80.6872C34.2634 81.9171 34.2633 84.7297 34.3642 85.5664C34.4246 85.9192 34.4852 85.9394 35.463 86.1108C35.5437 86.1108 35.584 86.1713 35.584 86.2821V86.887L35.5941 86.8971Z" fill="white"/>
<path d="M45.1104 85.909C45.2818 85.909 45.8564 85.7376 46.3604 85.4755C46.6124 85.284 46.8141 85.1429 46.8544 84.911C46.8745 84.6388 46.8947 83.7214 46.8947 83.3888C46.8947 83.2174 46.8342 83.1367 46.7536 83.1367C45.564 83.3484 44.7777 83.5904 44.3241 83.9533C44.1628 84.0541 44.072 84.2053 44.072 84.6388C44.072 85.4755 44.4047 85.909 45.0902 85.909H45.1104ZM43.1547 80.8685C42.9934 80.9089 42.8825 80.9291 42.7615 80.9291C42.6809 80.9291 42.4692 80.7375 42.4692 80.6367C42.4692 80.4653 42.5499 80.304 42.6607 80.0923C43.0741 79.4673 44.5559 78.5298 45.1507 78.3181C45.6245 78.1467 46.0278 78.0459 46.3302 78.0459C47.2476 78.0459 47.7617 78.4391 48.0944 78.8121C48.4472 79.1851 48.5278 79.6488 48.5278 79.9411C48.5278 81.5037 48.4875 83.046 48.4875 84.4574C48.4875 85.536 48.6488 85.9998 48.9613 85.9998C49.2537 85.9998 49.8988 85.6872 50.0198 85.6671C50.0803 85.6469 50.2113 85.8082 50.2113 85.8788L50.171 86.3627C50.1509 86.4433 50.1105 86.5038 50.0299 86.5743C49.7779 86.7659 48.3867 87.1792 47.7415 87.1994C47.308 87.1994 46.9955 86.9675 46.8645 86.0501C46.0076 86.4433 44.5156 87.1792 44.1225 87.1792C43.8301 87.1792 43.3765 87.0784 42.9128 86.6348C42.6003 86.3425 42.2676 85.7376 42.2676 84.9009C42.2676 84.2961 42.5801 83.9231 43.1648 83.5904C44.2435 82.9654 45.6346 82.5924 46.925 82.3404C46.9451 81.9674 46.9451 81.423 46.9451 81.0097C46.9451 80.1931 46.7838 79.679 46.6124 79.5076C46.4411 79.3363 45.9471 79.1548 45.3422 79.1548C45.0096 79.1548 44.7374 79.2354 44.6164 79.2959C44.5358 79.3564 44.4551 79.4875 44.4551 80.1931C44.4551 80.3645 44.435 80.425 44.314 80.4653L43.1547 80.8585V80.8685Z" fill="white"/>
<path d="M53.437 73.3884C53.9813 73.3884 54.3543 73.9328 54.3543 74.4973C54.3543 75.2937 53.7898 75.7474 53.195 75.7474C52.6708 75.7474 52.2574 75.3139 52.2574 74.6385C52.2574 73.8017 52.9631 73.3884 53.4168 73.3884H53.437ZM52.1869 80.0922C52.1668 79.9914 52.0156 79.9208 51.1083 79.7394C51.0276 79.7192 50.9873 79.6789 51.0478 79.4269C51.1889 79.0539 51.2091 79.0136 51.2998 78.9934C52.2172 78.7011 52.8321 78.4289 53.8099 78.0357C53.8503 78.0156 53.8704 78.0156 53.9107 78.0156C53.9511 78.0156 53.9712 78.0559 53.9712 78.187C53.9107 79.8301 53.8099 82.2697 53.7999 83.8927C53.7797 84.9512 53.7999 85.3545 53.82 85.5762C53.8604 85.8888 53.9208 85.9896 54.1728 85.9896C54.6971 85.9694 54.939 85.9694 54.9995 85.9694C55.0801 85.9694 55.191 86.0904 55.1708 86.1609L55.1104 86.8061C55.0902 86.9271 55.0499 86.9472 54.9188 86.9472C54.314 86.9472 53.689 86.9069 53.0438 86.9069C52.0861 86.9069 51.2594 87.0078 51.199 87.0078C51.0982 87.0078 51.0377 86.9876 51.0276 86.9069C50.9873 86.7658 50.9873 86.5339 50.9873 86.3222C50.9873 86.2416 51.0276 86.2214 51.1083 86.2214C51.8946 86.1408 52.0256 86.0803 52.1265 85.4754C52.1869 85.1226 52.2978 83.6609 52.2675 82.31L52.2071 80.1023L52.1869 80.0922Z" fill="white"/>
<path d="M56.4714 86.3527C57.1368 86.0603 57.3686 85.9192 57.4492 85.3144C57.5299 84.649 57.5702 83.4595 57.5702 82.4413C57.5702 81.5643 57.5299 80.8384 57.4895 80.405C57.4694 80.1126 57.4089 80.0521 56.4714 79.8203C56.3908 79.7598 56.3706 79.7195 56.4512 79.2759C56.4512 79.2154 56.5117 79.1751 56.663 79.0844C57.5198 78.6912 58.3464 78.2073 58.5077 78.1267C58.6085 78.0662 58.6993 78.0259 58.8001 78.0259C58.9009 78.0259 58.9816 78.0864 58.9816 78.2174C59.0219 78.5299 59.0622 78.9634 59.0622 79.3263C59.0622 79.3868 59.1428 79.4473 59.2235 79.4271C60.0804 78.9432 60.4735 78.7416 61.0078 78.4694C61.3607 78.2981 61.7941 78.1771 62.1873 78.1771C62.772 78.1771 63.1651 78.3182 63.5986 78.6811C64.1429 79.1348 64.4454 79.9513 64.5361 80.8889C64.5765 81.3425 64.5764 81.9272 64.5764 82.8446V85.889C64.5764 86.0604 64.6168 86.0805 64.6974 86.0805C64.8688 86.0805 65.4636 86.02 65.8567 85.9999C65.9172 85.9999 65.9575 86.0805 65.9575 86.2317C65.9575 86.4031 65.8971 86.7559 65.8567 86.8567C65.8164 86.9575 65.7761 86.9576 65.6954 86.9576C63.7397 86.9576 63.0542 87.0584 62.2478 87.0584C62.1469 87.0584 62.0562 87.0382 62.036 86.9374L61.9353 86.4535C62.5603 86.1813 62.7417 86.0402 62.8325 85.4152C62.9131 84.6893 62.9736 83.4796 62.9736 82.3909C62.9736 81.161 62.9333 80.5965 62.4292 80.032C62.0965 79.6993 61.6631 79.5279 61.1187 79.5279C60.5743 79.5279 59.8485 79.8404 59.4553 80.0925C59.2436 80.2336 59.2235 80.3445 59.2033 80.5965C59.163 81.4332 59.163 84.4877 59.163 85.637C59.163 85.9495 59.2235 86.0099 60.3223 86.2015C60.4432 86.2418 60.4836 86.2821 60.4433 86.4132L60.3022 86.9374H58.4573C57.6004 86.9374 56.9351 87.0382 56.5218 87.0382C56.4815 87.0382 56.4412 86.9979 56.4613 86.8971L56.5016 86.3729L56.4714 86.3527Z" fill="white"/>
<path d="M72.2184 80.7274C72.2184 80.0822 71.4925 78.9935 70.5752 78.9935C70.4139 78.9935 70.2223 79.0741 70.0308 79.2051C69.4259 79.6386 69.0731 80.6467 69.0932 81.7456C70.1114 81.4935 71.0893 81.3121 71.9764 81.0802C72.1478 81.0399 72.2284 80.9794 72.2284 80.7475V80.7274H72.2184ZM71.301 78.0862C72.0469 78.0862 72.7526 78.4793 73.1055 78.812C73.5188 79.2052 73.7506 79.7092 73.9522 80.435C74.1841 80.3947 74.5571 80.3141 74.6176 80.3745C74.6983 80.4552 74.6982 80.5157 74.6579 80.6064C74.5974 80.8383 74.4462 81.2919 74.2043 81.3322C72.8333 81.7052 70.0711 82.2698 69.2142 82.5218C69.0932 82.5621 69.0227 82.6629 69.0227 82.9149C69.0831 84.8505 70.2022 85.7073 71.5127 85.7073C72.4704 85.7073 73.3575 85.3142 74.0934 84.6287C74.1942 84.5279 74.4664 84.548 74.4462 84.6085C74.426 85.294 74.3858 85.4251 74.2345 85.5461C73.297 86.3626 72.3191 86.7961 71.6135 87.0279C71.3413 87.1086 71.0489 87.1288 70.807 87.1288C69.2949 87.1288 68.3775 86.1711 68.1053 85.8787C67.7727 85.4654 67.188 84.4875 67.188 83.1065C67.188 81.1709 68.2464 79.6487 69.4158 78.7918C69.94 78.3785 70.7062 78.0862 71.2909 78.0862H71.311H71.301Z" fill="white"/>
<path d="M84.1942 79.2255C83.8011 79.2255 83.1559 79.4372 82.7627 79.8706C82.3292 80.284 82.0369 81.0199 82.0369 81.9574C82.0369 82.5219 82.1175 84.1046 83.1559 85.0623C83.7607 85.6067 84.3152 85.6873 84.8596 85.6873C85.3132 85.6873 86.0894 85.4353 86.4423 85.2034C86.6136 85.0825 86.6741 85.0119 86.6943 84.8506C86.7749 83.9534 86.7951 81.2013 86.6741 80.3747C86.6338 80.163 86.5935 80.0823 86.3213 79.8706C85.7164 79.4573 84.9503 79.2255 84.2043 79.2255H84.1841H84.1942ZM80.3735 83.1873C80.3735 82.038 80.7062 80.8082 81.8857 79.6489C82.6115 78.9432 83.9825 78.0863 85.1015 78.0863C85.5955 78.0863 86.2608 78.2073 86.5128 78.3182C86.6136 78.3383 86.7245 78.298 86.7447 78.1972C86.7648 77.8847 86.785 77.2798 86.785 76.7556C86.785 75.7173 86.785 75.1729 86.7245 74.6487C86.7043 74.3362 86.6035 74.2354 85.7265 74.0439C85.6055 74.0237 85.5652 73.9632 85.535 73.8725L85.4947 73.6608C85.4745 73.56 85.4745 73.5398 85.5954 73.4692C86.5531 73.0559 87.2992 72.6326 88.1056 72.1386C88.1661 72.0983 88.3173 72.0781 88.3778 72.1184C88.4786 72.1587 88.5189 72.3503 88.5189 72.5116C88.4988 73.5902 88.3778 78.0964 88.3778 80.5763V83.4695C88.3778 84.2155 88.3979 85.153 88.4987 85.6772C88.5592 85.9696 88.6399 86.0099 88.7508 86.0099C88.9625 86.0099 89.4363 85.8386 89.769 85.7176C89.8496 85.6773 89.9403 85.6974 89.9605 85.7781C90.021 85.9898 90.0815 86.2619 90.0815 86.4434C90.0815 86.6248 89.9403 86.6753 89.8093 86.7156C89.0028 86.9273 87.4403 87.3204 87.2084 87.3204C87.037 87.3204 86.8556 87.1491 86.7951 86.9273C86.7749 86.6148 86.7548 86.1107 86.7548 85.8688C85.1721 86.6349 84.1539 87.1188 83.6599 87.1188C82.8534 87.0785 82.0168 86.6148 81.543 86.141C80.7566 85.3244 80.3836 84.1651 80.3836 83.2074V83.1873H80.3735Z" fill="white"/>
<path d="M93.2467 78.0762C93.408 78.0762 93.4382 78.1971 93.4785 78.4492C93.4987 78.6205 93.4785 79.0742 93.4382 79.9714C93.3979 81.0299 93.3373 83.0158 93.3373 84.3667C93.3373 85.3848 94.3757 85.8284 95.041 85.8082C95.7265 85.7881 96.3717 85.4756 96.8859 85.0622C97.027 84.9211 97.0976 84.8102 97.1379 84.538C97.2185 83.9533 97.279 83.0763 97.279 81.9977C97.279 80.6065 97.279 80.0823 97.0472 79.7496C96.906 79.5379 96.6943 79.4774 96.0088 79.2758C95.8878 79.2556 95.8475 79.1951 95.8375 79.1347C95.7971 79.0338 95.7568 78.7415 95.7568 78.681C95.7568 78.6205 95.7568 78.6004 95.8173 78.5802C95.8979 78.5601 97.6822 78.3282 98.5794 78.3282C98.8113 78.3282 98.892 78.4088 98.9121 78.5802C98.9524 78.7919 98.9524 78.9331 98.9524 79.5581C98.9323 80.2032 98.8516 80.9492 98.8516 82.3303V84.4372C98.8516 85.1429 98.9323 85.6268 98.9524 85.7478C98.9726 85.8687 99.0331 85.8889 99.144 85.8687C99.2448 85.8687 99.7287 85.7478 100.182 85.6167C100.263 85.5764 100.475 85.7578 100.434 85.8687C100.263 86.6147 100.223 86.6853 100.102 86.6853C99.0432 86.8063 97.9242 87.1692 97.5915 87.2297C97.4202 87.2498 97.2992 87.2498 97.2185 87.1288C97.0976 86.9877 97.0472 86.9171 97.0472 86.776L97.0673 85.899C96.5935 86.1308 95.8576 86.5441 95.3233 86.8365C94.8697 87.0683 94.4059 87.1893 94.0329 87.1893C93.2668 87.1893 92.4704 86.9373 91.9966 86.1308C91.7648 85.7578 91.7446 85.1731 91.7446 84.6892C91.7446 82.5622 91.8051 81.1307 91.7849 80.3948C91.7849 80.0016 91.7043 79.8907 90.9785 79.4573C90.8776 79.3968 90.8071 79.2859 90.7466 78.9734C90.7264 78.7415 90.7466 78.7012 90.918 78.681C91.2305 78.6004 93.0148 78.0963 93.2265 78.0963H93.2467V78.0762Z" fill="white"/>
<path d="M106.191 80.1429C106.191 78.661 106.544 76.7255 107.875 75.1831C108.933 73.9331 110.344 73.4492 111.554 73.1165C112.471 72.8846 113.651 72.7637 114.488 72.7637C115.324 72.7637 116.363 72.9754 116.837 73.1568C117.089 73.2173 117.29 73.1367 117.663 72.9451C117.703 72.925 117.764 72.9451 117.935 73.0056C118.127 73.0863 118.167 73.1266 118.147 73.177C117.734 74.2355 117.693 75.3242 117.814 76.5138C117.814 76.5541 117.623 76.5944 117.462 76.5944C117.189 76.6549 117.129 76.6146 117.089 76.4936C117.008 76.2214 116.857 75.5762 116.716 75.1831C116.595 74.8303 116.504 74.5984 116.201 74.3464C115.768 74.0338 114.83 73.6407 113.52 73.6407C112.109 73.6407 110.818 74.2052 109.78 75.5157C108.863 76.7255 108.409 78.4493 108.409 80.2437C108.409 82.5724 109.619 86.3427 113.974 86.3427C115.304 86.3427 116.282 85.6572 116.907 84.8608C117.26 84.4475 117.451 84.0442 117.653 83.6914C117.693 83.6107 117.754 83.5906 117.925 83.7115C118.107 83.8527 118.177 83.9635 118.157 84.0845C117.945 85.1229 117.492 86.2721 117.22 86.7056C117.099 86.9173 117.028 86.9374 116.826 86.9374C116.242 86.9374 115.042 87.2903 113.691 87.2903C108.308 87.2903 106.171 83.4797 106.171 80.1429V80.1227L106.191 80.1429Z" fill="white"/>
<path d="M122.663 85.909C122.845 85.909 123.409 85.7376 123.913 85.4755C124.165 85.284 124.367 85.1429 124.407 84.911C124.427 84.6388 124.447 83.7214 124.447 83.3888C124.447 83.2174 124.387 83.1367 124.306 83.1367C123.117 83.3484 122.33 83.5904 121.877 83.9533C121.716 84.0541 121.625 84.2053 121.625 84.6388C121.625 85.4755 121.958 85.909 122.643 85.909H122.663ZM120.707 80.8685C120.546 80.9089 120.435 80.9291 120.314 80.9291C120.234 80.9291 120.022 80.7375 120.022 80.6367C120.022 80.4653 120.103 80.304 120.213 80.0923C120.627 79.4673 122.109 78.5298 122.703 78.3181C123.177 78.1467 123.581 78.0459 123.883 78.0459C124.8 78.0459 125.314 78.4391 125.647 78.8121C126 79.1851 126.081 79.6488 126.081 79.9411C126.081 81.5037 126.04 83.046 126.04 84.4574C126.04 85.536 126.202 85.9998 126.514 85.9998C126.806 85.9998 127.452 85.6872 127.573 85.6671C127.633 85.6469 127.764 85.8082 127.764 85.8788L127.724 86.3627C127.704 86.4433 127.663 86.5038 127.583 86.5743C127.331 86.7659 125.939 87.1792 125.294 87.1994C124.861 87.1994 124.548 86.9675 124.417 86.0501C123.55 86.4433 122.068 87.1792 121.675 87.1792C121.383 87.1792 120.929 87.0784 120.466 86.6348C120.153 86.3425 119.82 85.7376 119.82 84.9009C119.82 84.2961 120.133 83.9231 120.718 83.5904C121.796 82.9654 123.187 82.5924 124.478 82.3404C124.498 81.9674 124.498 81.423 124.498 81.0097C124.498 80.1931 124.337 79.679 124.165 79.5076C123.994 79.3363 123.5 79.1548 122.895 79.1548C122.562 79.1548 122.29 79.2354 122.169 79.2959C122.088 79.3564 122.008 79.4875 122.008 80.1931C122.008 80.3645 121.988 80.425 121.867 80.4653L120.707 80.8585V80.8685Z" fill="white"/>
<path d="M134.739 84.6791C134.739 85.3243 134.447 85.9695 133.721 86.4937C133.076 86.9473 132.269 87.1187 131.513 87.1187C130.929 87.1187 130.021 86.9675 129.709 86.907C129.356 86.8263 129.255 86.8061 128.963 86.9473C128.923 86.9674 128.842 86.9473 128.791 86.907C128.711 86.8465 128.711 86.7658 128.731 86.655C128.832 85.8182 128.812 85.0723 128.731 84.1952C128.731 84.1347 128.731 84.0541 128.791 84.0238C128.872 83.9835 128.983 83.923 129.336 83.8525C129.507 84.4372 129.84 85.0823 130.294 85.5864C130.818 86.1912 131.372 86.3525 131.664 86.3525C132.189 86.3525 133.015 85.9191 133.015 85.1428C133.015 83.9331 131.765 83.4795 131.12 83.1266C130.576 82.794 129.023 82.0883 129.023 80.6467C129.023 79.9209 129.336 79.316 129.981 78.7717C130.545 78.2878 131.332 78.0862 131.856 78.0862C132.38 78.0862 132.834 78.1668 133.267 78.1668C133.459 78.1668 133.58 78.1467 133.64 78.1063C133.701 78.0862 133.741 78.0862 133.802 78.1265C133.862 78.187 133.862 78.2273 133.862 78.2676C133.882 78.933 134.034 79.6588 134.255 80.5157C134.276 80.5963 134.114 80.7274 134.064 80.7274C133.751 80.7274 133.61 80.6871 133.419 80.4149C133.086 79.8503 132.552 78.8725 131.533 78.8725C131.12 78.8725 130.576 79.185 130.576 79.931C130.576 80.9088 131.473 81.3726 132.34 81.8262C132.904 82.1185 134.749 82.8645 134.749 84.6388V84.6589L134.739 84.6791Z" fill="white"/>
<path d="M138.832 76.6648C138.832 76.6648 138.873 76.7253 138.873 76.8362C138.873 77.1487 138.792 78.2979 138.792 78.4995C139.79 78.4995 141.04 78.3785 141.746 78.3785C141.978 78.3785 141.998 78.3987 141.978 78.6104C141.957 78.8221 141.917 79.064 141.836 79.3362C141.776 79.6286 141.675 79.6689 141.504 79.6689C140.919 79.6891 139.971 79.6891 138.842 79.7294C138.802 79.7294 138.782 79.7697 138.742 80.0419C138.661 81.0802 138.661 83.2476 138.661 84.417C138.661 85.3949 139.306 85.8989 140.193 85.8989C140.667 85.8989 141.04 85.7275 141.463 85.415C141.605 85.3142 141.655 85.3142 141.695 85.415C141.756 85.536 141.796 85.7477 141.796 85.8989C141.796 85.9997 141.756 86.0703 141.605 86.1509C140.748 86.6953 139.961 87.1691 138.963 87.1691C138.55 87.1691 137.784 86.9776 137.361 86.4231C137.068 86.0501 137.008 85.657 137.048 84.8404C137.108 83.55 137.108 80.6165 137.169 80.052C137.169 79.9108 137.048 79.7596 136.937 79.7395C136.665 79.7193 136.252 79.7193 136.09 79.7193C136.01 79.6991 135.899 79.4471 135.949 79.4068C136.715 78.7213 138.046 77.4108 138.55 76.8462C138.631 76.7253 138.742 76.6749 138.802 76.6749H138.822L138.832 76.6648Z" fill="white"/>
<path d="M147.986 80.7274C147.986 80.0822 147.26 78.9935 146.342 78.9935C146.181 78.9935 145.99 79.0741 145.798 79.2051C145.193 79.6386 144.84 80.6467 144.86 81.7456C145.879 81.4935 146.856 81.3121 147.744 81.0802C147.915 81.0399 147.996 80.9794 147.996 80.7475V80.7274H147.986ZM147.068 78.0862C147.814 78.0862 148.52 78.4793 148.873 78.812C149.286 79.2052 149.518 79.7092 149.719 80.435C149.951 80.3947 150.324 80.3141 150.385 80.3745C150.465 80.4552 150.465 80.5157 150.425 80.6064C150.365 80.8383 150.213 81.2919 149.971 81.3322C148.6 81.7052 145.838 82.2698 144.981 82.5218C144.86 82.5621 144.79 82.6629 144.79 82.9149C144.85 84.8505 145.969 85.7073 147.28 85.7073C148.238 85.7073 149.125 85.3142 149.861 84.6287C149.961 84.5279 150.234 84.548 150.213 84.6085C150.193 85.294 150.153 85.4251 150.002 85.5461C149.064 86.3626 148.086 86.7961 147.381 87.0279C147.108 87.1086 146.816 87.1288 146.574 87.1288C145.062 87.1288 144.145 86.1711 143.872 85.8787C143.54 85.4654 142.955 84.4875 142.955 83.1065C142.955 81.1709 144.014 79.6487 145.183 78.7918C145.707 78.3785 146.473 78.0862 147.058 78.0862H147.078H147.068Z" fill="white"/>
<path d="M151.212 86.6246C151.212 86.5037 151.253 86.3323 151.293 86.292C151.414 86.2315 151.646 86.171 151.797 86.1206C152.21 85.9795 152.271 85.8484 152.291 85.4351C152.432 82.8342 152.482 78.8321 152.482 77.8139C152.482 76.5235 152.462 75.3743 152.422 74.83C152.382 74.1848 152.23 74.1445 151.283 74.0134C151.202 74.0134 151.182 73.9731 151.323 73.4892C151.343 73.4086 151.384 73.3682 151.515 73.3178C152.241 73.0255 153.178 72.6525 154.136 72.1686C154.156 72.1485 154.196 72.1484 154.216 72.1484C154.277 72.1484 154.317 72.2089 154.297 72.34C154.105 74.7997 154.045 79.0438 154.045 83.0661C154.045 85.6266 154.065 85.9996 154.63 85.9996C154.882 85.9996 155.376 85.9593 155.466 85.9593C155.557 85.9593 155.587 85.9996 155.567 86.1307C155.547 86.4028 155.527 86.6347 155.487 86.8162C155.466 86.8968 155.406 86.8968 155.345 86.8968C154.64 86.8968 152.039 86.917 151.273 86.9976C151.192 86.9976 151.172 86.9976 151.172 86.8968L151.192 86.6045L151.212 86.6246Z" fill="white"/>
</svg>
