<svg width="234" height="65" viewBox="0 0 234 65" fill="none" xmlns="http://www.w3.org/2000/svg">
<path d="M153.158 52.1286L156.575 35.7169C156.868 35.6464 157.442 35.5657 158.279 35.4951C159.126 35.4246 160.023 35.3843 160.981 35.3843C162.19 35.3843 163.269 35.4246 164.206 35.4951C165.144 35.5657 165.809 35.6464 166.213 35.7169L157.291 64.0745C156.666 64.256 155.991 64.377 155.255 64.4375C154.519 64.4879 153.783 64.5181 153.057 64.5181C152.331 64.5181 151.575 64.4879 150.829 64.4375C150.073 64.387 149.297 64.2661 148.49 64.0745L144.468 48.6608C143.772 51.1206 143.067 53.7114 142.351 56.4231C141.635 59.145 140.95 61.6954 140.284 64.0745C139.518 64.256 138.752 64.377 137.996 64.4375C137.24 64.4879 136.504 64.5181 135.768 64.5181C135.032 64.5181 134.296 64.4879 133.571 64.4375C132.835 64.387 132.159 64.2661 131.534 64.0745L122.885 35.7169C123.288 35.6464 123.994 35.5657 125.002 35.4951C126.01 35.4246 127.119 35.3843 128.339 35.3843C129.296 35.3843 130.214 35.4246 131.121 35.4951C132.018 35.5657 132.613 35.6464 132.915 35.7169L136.494 52.5621L140.456 35.7169C141.081 35.5355 141.766 35.4145 142.522 35.3641C143.278 35.3137 144.014 35.2834 144.75 35.2834C145.486 35.2834 146.222 35.3137 146.978 35.3641C147.734 35.4145 148.49 35.5355 149.267 35.7169L153.178 52.1286H153.158Z" fill="white"/>
<path d="M177.896 56.6449C178.048 56.6449 178.239 56.6651 178.471 56.6953C178.713 56.7356 179.066 56.7457 179.539 56.7457C181.596 56.7457 183.128 56.1711 184.136 55.0118C185.144 53.8525 185.649 51.9573 185.649 49.3161C185.649 46.9672 185.155 45.2535 184.157 44.1647C183.169 43.0861 181.747 42.5417 179.923 42.5417C179.479 42.5417 179.076 42.5619 178.713 42.5921C178.35 42.6324 178.068 42.6627 177.886 42.703V56.6348L177.896 56.6449ZM178.34 34.729C181.314 34.729 183.854 35.0818 185.961 35.7774C188.068 36.473 189.802 37.4508 191.163 38.721C192.524 39.9912 193.512 41.5235 194.137 43.3179C194.762 45.1123 195.074 47.1184 195.074 49.3161C195.074 51.6246 194.752 53.7214 194.106 55.5965C193.461 57.4715 192.453 59.0643 191.082 60.3849C189.701 61.7055 187.927 62.7237 185.739 63.4394C183.552 64.1552 180.921 64.5181 177.836 64.5181C176.031 64.5181 174.428 64.4576 173.017 64.3266C171.606 64.1955 170.124 64.0241 168.582 63.8024V35.5052C170.124 35.3238 171.757 35.1524 173.481 34.981C175.205 34.8197 176.818 34.729 178.33 34.729" fill="white"/>
<path d="M15.5631 46.0196C16.6619 46.3119 17.6599 46.6748 18.5672 47.0982C19.4644 47.5216 20.2406 48.066 20.8757 48.7212C21.5209 49.3765 22.0249 50.1931 22.3878 51.1407C22.7508 52.0983 22.9423 53.2577 22.9423 54.6085C22.9423 55.9593 22.66 57.3102 22.0854 58.5199C21.5108 59.7296 20.6741 60.778 19.5551 61.6551C18.4361 62.5321 17.055 63.2378 15.4219 63.7519C13.7888 64.266 11.9037 64.5281 9.77664 64.5281C8.01248 64.5281 6.37936 64.3971 4.8773 64.145C3.37524 63.8829 1.77238 63.4495 0.0888672 62.8244C0.270324 60.3244 0.945734 57.7941 2.1252 55.2234C3.30467 55.7779 4.53454 56.1912 5.81482 56.4634C7.09509 56.7356 8.38546 56.8767 9.66574 56.8767C10.1093 56.8767 10.563 56.8565 11.0368 56.8162C11.5106 56.786 11.9339 56.6952 12.3069 56.5743C12.6698 56.4432 12.9723 56.2718 13.2142 56.0501C13.4561 55.8283 13.5771 55.5359 13.5771 55.173C13.5771 54.6992 13.3352 54.3363 12.8614 54.0944C12.3876 53.8524 11.8331 53.6508 11.2081 53.4593L7.4681 52.4109C5.52249 51.8564 3.90954 50.929 2.61919 49.6084C1.33891 48.2878 0.693728 46.4833 0.693728 44.2151C0.693728 42.7836 0.98607 41.4831 1.57076 40.3037C2.15546 39.1343 2.98208 38.1262 4.05066 37.2996C5.11924 36.4729 6.36929 35.8378 7.82094 35.3943C9.27259 34.9507 10.8755 34.739 12.6396 34.739C14.0308 34.739 15.553 34.8902 17.2063 35.1826C18.8595 35.4749 20.4926 35.8983 22.1056 36.4528C22.035 37.6222 21.7931 38.8823 21.3898 40.223C20.9866 41.5638 20.5229 42.7433 20.0188 43.7715C19.0309 43.3683 17.8313 42.9953 16.4401 42.6727C15.0489 42.34 13.7586 42.1787 12.5892 42.1787C10.8654 42.1787 9.99842 42.6525 9.99842 43.6102C9.99842 44.0135 10.2 44.326 10.6033 44.5477C11.0065 44.7695 11.4601 44.951 11.9743 45.1022L15.553 46.0397L15.5631 46.0196Z" fill="white"/>
<path d="M44.1628 53.6106H36.0174V64.0746C35.0597 64.2258 34.2028 64.3266 33.4266 64.4073C32.6504 64.4778 31.9548 64.5181 31.3298 64.5181C30.7048 64.5181 30.0092 64.4778 29.233 64.4073C28.4567 64.3367 27.62 64.2258 26.7026 64.0746V35.6666C27.5091 35.4851 28.3055 35.3541 29.1019 35.2835C29.8882 35.2129 30.6543 35.1726 31.3903 35.1726C32.1262 35.1726 32.8419 35.2129 33.6484 35.2835C34.4549 35.3541 35.2412 35.4851 36.0174 35.6666V45.3543H44.1628V35.6666C44.9693 35.4851 45.7657 35.3541 46.562 35.2835C47.3484 35.2129 48.1145 35.1726 48.8504 35.1726C49.546 35.1726 50.3021 35.2129 51.1085 35.2835C51.915 35.3541 52.7013 35.4851 53.4775 35.6666V64.0746C52.5199 64.2258 51.663 64.3266 50.8868 64.4073C50.1206 64.4778 49.4149 64.5181 48.8 64.5181C48.1851 64.5181 47.4794 64.4778 46.7032 64.4073C45.9269 64.3367 45.0902 64.2258 44.1729 64.0746V53.6106H44.1628Z" fill="white"/>
<path d="M67.9134 64.0746C66.9557 64.2157 66.0988 64.3266 65.3226 64.4073C64.5464 64.4778 63.8508 64.5181 63.2258 64.5181C62.6008 64.5181 61.9052 64.4778 61.1289 64.4073C60.3527 64.3367 59.516 64.2258 58.5986 64.0746V35.6666C59.4051 35.4851 60.2015 35.3541 60.9979 35.2835C61.7842 35.2129 62.5503 35.1726 63.2863 35.1726C64.0222 35.1726 64.7379 35.2129 65.5444 35.2835C66.3508 35.3541 67.1372 35.4851 67.9134 35.6666V64.0746Z" fill="white"/>
<path d="M83.1659 50.3645C83.3474 50.4048 83.5792 50.4249 83.8514 50.4451C84.1236 50.4653 84.3555 50.4753 84.5369 50.4753C85.8172 50.4753 86.8757 50.1528 87.7023 49.5076C88.529 48.8624 88.9423 47.7737 88.9423 46.2313C88.9423 44.9107 88.529 43.8925 87.7023 43.1768C86.8757 42.461 85.8575 42.0981 84.6478 42.0981H84.0127C83.7405 42.0981 83.4482 42.1183 83.1558 42.1485V50.3544L83.1659 50.3645ZM74.083 35.7774C75.7665 35.5254 77.5004 35.3237 79.2848 35.2028C81.0691 35.0717 82.7829 35.0112 84.4361 35.0112C86.0894 35.0112 87.7729 35.1725 89.3959 35.485C91.0089 35.7975 92.4605 36.3621 93.7408 37.1887C95.0211 38.0153 96.0594 39.1545 96.8558 40.6061C97.6421 42.0578 98.0353 43.9328 98.0353 46.2514C98.0353 48.3483 97.6824 50.1024 96.9566 51.5338C96.2409 52.9653 95.2933 54.1246 94.1239 55.0017C92.9444 55.8787 91.6238 56.5138 90.1318 56.907C88.6499 57.2901 87.1277 57.4816 85.5853 57.4816C84.9603 57.4816 84.426 57.4614 83.9926 57.4312C83.549 57.4009 83.2768 57.3606 83.1659 57.3203V64.0947C82.2082 64.2761 81.3614 64.3971 80.6054 64.4576C79.8493 64.508 79.184 64.5382 78.5993 64.5382C77.9743 64.5382 77.3089 64.508 76.5932 64.4576C75.8774 64.3971 75.0407 64.2862 74.0931 64.0947V35.7975L74.083 35.7774Z" fill="white"/>
<path d="M111.755 49.407C114.719 45.6972 118.046 38.0357 118.046 35.6868C117.28 35.5054 116.05 35.3844 115.254 35.3038C114.447 35.2332 113.691 35.1929 112.995 35.1929C112.26 35.1929 111.503 35.2332 110.707 35.3038C109.921 35.3743 109.124 35.5054 108.308 35.6868V35.8078C106.433 41.1003 103.751 45.3948 100.011 49.4271V56.6955H100.041V58.6411H112.381V64.0041C113.298 64.1453 114.145 64.2561 114.911 64.3368C115.677 64.4074 116.383 64.4477 117.008 64.4477C117.633 64.4477 118.328 64.4074 119.104 64.3368C119.871 64.2662 120.738 64.1553 121.695 64.0041V63.7118H121.715V49.407H111.755Z" fill="white"/>
<path d="M206.254 10.918V0.574951L203.209 1.59312C201.385 2.19798 199.439 2.95405 197.181 3.82101L195.336 4.52667C189.509 6.75455 185.265 8.70017 182.665 10.928H206.244L206.254 10.918Z" fill="white"/>
<path d="M205.931 39.0839L208.935 38.1363C211.183 37.4307 214.581 36.3218 217.978 35.0717C223.623 32.985 227.776 31.1402 230.367 29.0232H205.931V39.094V39.0839Z" fill="white"/>
<path d="M233.462 22.027C232.545 14.8192 223.159 14.2345 218.109 13.922C216.899 13.8413 180.235 14.0026 180.235 14.0026C179.731 15.1418 179.549 16.3817 179.721 17.7729C180.638 24.9808 190.033 25.5654 195.074 25.878C197.735 26.0493 232.907 25.9284 232.907 25.9284C233.452 24.759 233.643 23.4787 233.452 22.017" fill="white"/>
</svg>
