<svg width="174" height="44" viewBox="0 0 174 44" fill="none" xmlns="http://www.w3.org/2000/svg">
<g clip-path="url(#clip0_146_302)">
<path d="M160.03 41.84C160.55 39.77 161.1 37.59 161.66 35.3C162.22 33.01 162.71 30.95 163.13 29.13H163.39C163.91 30.95 164.46 33.01 165.02 35.3C165.58 37.59 166.11 39.77 166.6 41.84H173.8C172.82 38.58 171.86 35.39 170.91 32.25C169.96 29.12 169 26.04 168.02 23.03C168.65 21.17 169.27 19.29 169.89 17.38C170.5 15.47 171.12 13.54 171.73 11.58C172.34 9.62 172.95 7.64 173.54 5.64H166.34C165.92 7.85 165.46 10.01 164.98 12.13C164.49 14.25 164.02 16.27 163.56 18.2H163.35C162.86 16.28 162.33 14.25 161.77 12.13C161.21 10.01 160.68 7.85 160.2 5.64H153.06C154.01 8.65 154.95 11.6 155.9 14.49C156.85 17.38 157.79 20.24 158.74 23.08C157.83 26.06 156.87 29.12 155.85 32.27C154.83 35.42 153.85 38.61 152.91 41.83H160.05L160.03 41.84ZM151.21 5.65H144.54V41.84H151.21V5.65ZM129.31 11.27H131.25C132.68 11.27 133.71 11.61 134.32 12.29C134.93 12.97 135.24 14.24 135.24 16.1V18.04C135.24 19.23 135.11 20.17 134.85 20.85C134.59 21.53 134.17 22.03 133.59 22.35C133.01 22.67 132.23 22.82 131.25 22.82H129.31V11.27ZM142.7 41.84C142.14 40.05 141.57 38.28 140.99 36.51C140.41 34.74 139.82 32.96 139.2 31.18C138.59 29.39 137.96 27.64 137.33 25.93L131.34 27.08C131.83 28.66 132.32 30.27 132.81 31.91C133.3 33.56 133.78 35.2 134.25 36.85C134.72 38.5 135.19 40.16 135.64 41.84H142.68H142.7ZM129.31 41.84V28.45H131.2C133.58 28.45 135.56 28.16 137.14 27.58C138.72 27 139.92 25.98 140.74 24.51C141.56 23.04 141.97 20.99 141.97 18.37V15.8C141.97 13.14 141.56 11.07 140.74 9.6C139.92 8.13 138.71 7.11 137.12 6.53C135.53 5.95 133.58 5.66 131.26 5.66H122.65V41.84H129.32H129.31ZM120.28 41.84V36.06H110.93V26.5H119.49V20.72H110.93V11.48H120.28V5.65H104.26V41.84H120.28ZM87.19 41.84V29.08C87.19 28.17 87.19 27.2 87.16 26.17C87.14 25.14 87.13 24.09 87.11 23.05C87.09 22 87.07 20.98 87.03 20H87.19C87.44 20.77 87.72 21.64 88.03 22.6C88.35 23.56 88.69 24.52 89.05 25.46C89.42 26.4 89.74 27.3 90.02 28.14L95.33 41.85H100.95V5.65H94.8V20.96C94.8 22.03 94.82 23.09 94.85 24.14C94.89 25.19 94.9 26.21 94.9 27.19H94.74C94.53 26.38 94.26 25.5 93.93 24.54C93.6 23.58 93.25 22.61 92.88 21.65C92.51 20.69 92.17 19.84 91.86 19.1L86.76 5.65H81.04V41.84H87.18H87.19ZM78.68 41.84V36.06H69.33V26.5H77.89V20.72H69.33V11.48H78.68V5.65H62.66V41.84H78.68ZM60.3 41.84V36.06H50.95V26.5H59.51V20.72H50.95V11.48H60.3V5.65H44.28V41.84H60.3ZM29.15 11.27H31.09C32.53 11.27 33.55 11.61 34.16 12.29C34.77 12.97 35.08 14.24 35.08 16.1V18.04C35.08 19.23 34.95 20.17 34.69 20.85C34.43 21.53 34.01 22.03 33.43 22.35C32.85 22.67 32.07 22.82 31.09 22.82H29.15V11.27ZM42.54 41.84C41.98 40.05 41.41 38.28 40.83 36.51C40.25 34.74 39.66 32.96 39.04 31.18C38.43 29.39 37.8 27.64 37.17 25.93L31.18 27.08C31.67 28.66 32.16 30.27 32.65 31.91C33.14 33.56 33.62 35.2 34.09 36.85C34.56 38.5 35.03 40.16 35.48 41.84H42.52H42.54ZM29.15 41.84V28.45H31.04C33.42 28.45 35.4 28.16 36.98 27.58C38.56 27 39.76 25.98 40.58 24.51C41.4 23.04 41.81 20.99 41.81 18.37V15.8C41.81 13.14 41.4 11.07 40.58 9.6C39.76 8.13 38.55 7.11 36.96 6.53C35.37 5.95 33.41 5.66 31.1 5.66H22.49V41.84H29.16H29.15ZM14.66 41.45C15.96 40.91 17.01 40.13 17.81 39.11C18.58 38.09 19.12 36.85 19.44 35.38C19.75 33.91 19.91 32.09 19.91 29.92V22.3H9.87V27.71H15.23L13.34 25.82V31.18C13.34 32.23 13.29 33.03 13.18 33.57C13.07 34.11 12.9 34.58 12.65 34.96C12.44 35.2 12.21 35.43 11.97 35.62C11.73 35.81 11.44 35.96 11.13 36.07C10.82 36.18 10.45 36.23 10.03 36.23C9.68 36.23 9.34 36.19 9.01 36.1C8.68 36.01 8.39 35.87 8.14 35.68C7.89 35.49 7.68 35.25 7.51 34.97C7.23 34.55 7.03 34.04 6.91 33.45C6.79 32.86 6.73 31.94 6.73 30.72V16.75C6.73 15.53 6.79 14.61 6.91 13.99C7.03 13.38 7.23 12.84 7.51 12.39C7.75 12.04 8.07 11.78 8.46 11.6C8.85 11.43 9.32 11.34 9.88 11.34C10.41 11.34 10.86 11.43 11.25 11.6C11.63 11.78 11.95 12.05 12.19 12.44C12.4 12.76 12.56 13.12 12.66 13.54C12.77 13.96 12.84 14.56 12.87 15.33C12.9 16.1 12.92 17.19 12.92 18.59L19.7 18.64C19.7 15.94 19.55 13.83 19.25 12.29C18.95 10.75 18.4 9.45 17.59 8.4C16.75 7.38 15.69 6.61 14.41 6.06C13.13 5.52 11.62 5.25 9.87 5.25C8.12 5.25 6.6 5.52 5.33 6.06C4.05 6.6 3.01 7.38 2.2 8.4C1.36 9.45 0.78 10.75 0.47 12.29C0.16 13.83 0 15.72 0 17.96V29.57C0 31.85 0.16 33.76 0.47 35.3C0.79 36.84 1.35 38.12 2.15 39.14C2.96 40.16 4.01 40.93 5.3 41.48C6.6 42.02 8.15 42.29 9.98 42.29C11.81 42.29 13.36 42.02 14.66 41.48" fill="black"/>
<path d="M29.15 11.27H31.09C32.53 11.27 33.55 11.61 34.16 12.29C34.77 12.97 35.08 14.24 35.08 16.1V18.04C35.08 19.23 34.95 20.17 34.69 20.85C34.43 21.53 34.01 22.03 33.43 22.35C32.85 22.67 32.07 22.82 31.09 22.82H29.15V11.27ZM22.48 5.64998V41.84H29.15V28.45H31.04C31.23 28.45 31.43 28.45 31.62 28.45C31.97 29.59 32.32 30.75 32.67 31.92C33.16 33.57 33.64 35.21 34.11 36.86C34.58 38.51 35.05 40.17 35.5 41.85H42.54C41.98 40.06 41.41 38.29 40.83 36.52C40.25 34.75 39.66 32.97 39.04 31.19C38.59 29.87 38.13 28.57 37.67 27.29C38.9 26.68 39.87 25.76 40.57 24.52C41.39 23.05 41.8 21 41.8 18.37V15.8C41.8 13.14 41.39 11.07 40.57 9.59998C39.75 8.12998 38.54 7.09998 36.95 6.52998C35.36 5.94998 33.4 5.65998 31.09 5.65998H22.48V5.64998ZM44.28 5.64998V41.84H60.3V36.06H50.95V26.5H59.51V20.72H50.95V11.48H60.3V5.64998H44.28ZM62.66 5.64998V41.84H78.68V36.06H69.33V26.5H77.89V20.72H69.33V11.48H78.68V5.64998H62.66ZM94.8 5.64998V20.96C94.8 22.03 94.82 23.09 94.85 24.14C94.88 25.19 94.9 26.21 94.9 27.19H94.74C94.53 26.38 94.26 25.5 93.93 24.54C93.6 23.58 93.25 22.61 92.88 21.65C92.51 20.69 92.17 19.84 91.86 19.1L86.76 5.64998H81.04V41.84H87.18V29.08C87.18 28.17 87.18 27.2 87.15 26.16C87.13 25.13 87.12 24.09 87.1 23.03C87.08 21.98 87.06 20.96 87.02 19.98H87.18C87.43 20.75 87.71 21.62 88.02 22.58C88.33 23.54 88.68 24.5 89.04 25.44C89.41 26.39 89.73 27.28 90.01 28.12L95.32 41.83H100.94V5.64998H94.8ZM104.25 5.64998V41.84H120.27V36.06H110.92V26.5H119.48V20.72H110.92V11.48H120.27V5.64998H104.25ZM129.3 11.27H131.24C132.68 11.27 133.7 11.61 134.31 12.29C134.92 12.97 135.23 14.24 135.23 16.1V18.04C135.23 19.23 135.1 20.17 134.83 20.85C134.57 21.53 134.15 22.03 133.57 22.35C132.99 22.67 132.21 22.82 131.23 22.82H129.29V11.27H129.3ZM122.63 5.64998V41.84H129.3V28.45H131.19C131.39 28.45 131.58 28.45 131.77 28.45C132.12 29.59 132.47 30.75 132.82 31.92C133.31 33.57 133.79 35.21 134.26 36.86C134.73 38.51 135.2 40.17 135.65 41.85H142.69C142.13 40.06 141.56 38.29 140.98 36.52C140.4 34.75 139.81 32.97 139.19 31.19C138.74 29.87 138.28 28.57 137.82 27.29C139.05 26.68 140.02 25.76 140.72 24.52C141.54 23.05 141.95 21 141.95 18.37V15.8C141.95 13.14 141.54 11.07 140.72 9.59998C139.9 8.12998 138.69 7.09998 137.1 6.52998C135.51 5.94998 133.55 5.65998 131.24 5.65998H122.63V5.64998ZM144.53 41.84H151.2V5.64998H144.53V41.84ZM166.33 5.64998C165.91 7.85998 165.45 10.02 164.97 12.14C164.48 14.26 164.01 16.28 163.55 18.21H163.34C162.85 16.28 162.32 14.26 161.76 12.14C161.2 10.02 160.67 7.85998 160.19 5.64998H153.05C154 8.65998 154.94 11.61 155.89 14.5C156.83 17.39 157.78 20.25 158.73 23.09C157.82 26.07 156.86 29.13 155.84 32.28C154.83 35.43 153.85 38.62 152.9 41.84H160.04C160.57 39.77 161.11 37.59 161.67 35.3C162.23 33.01 162.72 30.95 163.14 29.13H163.4C163.92 30.95 164.47 33.01 165.03 35.3C165.59 37.59 166.11 39.77 166.61 41.84H173.81C172.83 38.58 171.87 35.39 170.92 32.25C169.98 29.12 169.01 26.04 168.03 23.03C168.66 21.18 169.28 19.29 169.89 17.38C170.5 15.47 171.12 13.54 171.73 11.58C172.34 9.61998 172.95 7.63998 173.54 5.64998H166.34H166.33ZM9.88 5.22998C8.13 5.22998 6.62 5.49998 5.34 6.03998C4.06 6.57998 3.02 7.35998 2.21 8.37998C1.37 9.42998 0.79 10.73 0.48 12.27C0.16 13.81 0 15.7 0 17.94V29.55C0 31.83 0.16 33.74 0.47 35.28C0.78 36.82 1.34 38.1 2.15 39.11C2.95 40.13 4.01 40.91 5.3 41.45C6.6 41.99 8.15 42.26 9.97 42.26C11.79 42.26 13.35 41.99 14.65 41.45C15.95 40.91 17 40.13 17.8 39.11C18.57 38.1 19.11 36.85 19.43 35.38C19.75 33.91 19.9 32.09 19.9 29.92V22.3H9.88V27.71H13.35V31.18C13.35 32.23 13.3 33.03 13.19 33.57C13.08 34.11 12.91 34.58 12.67 34.96C12.46 35.2 12.23 35.43 11.99 35.62C11.75 35.81 11.47 35.96 11.15 36.07C10.84 36.18 10.47 36.23 10.05 36.23C9.7 36.23 9.36 36.19 9.03 36.1C8.7 36.01 8.41 35.87 8.16 35.68C7.92 35.49 7.71 35.25 7.53 34.97C7.25 34.55 7.05 34.04 6.93 33.45C6.81 32.86 6.75 31.94 6.75 30.72V16.75C6.75 15.52 6.81 14.61 6.93 13.99C7.05 13.38 7.25 12.84 7.53 12.39C7.77 12.04 8.09 11.78 8.48 11.6C8.87 11.43 9.34 11.34 9.9 11.34C10.42 11.34 10.88 11.43 11.27 11.6C11.65 11.78 11.97 12.06 12.21 12.44C12.42 12.75 12.58 13.12 12.68 13.54C12.78 13.96 12.85 14.56 12.89 15.33C12.92 16.1 12.94 17.19 12.94 18.59L19.72 18.64C19.72 15.94 19.57 13.83 19.27 12.28C18.97 10.74 18.42 9.44998 17.62 8.38998C16.78 7.37998 15.72 6.59998 14.44 6.04998C13.16 5.50998 11.65 5.23998 9.9 5.23998L9.88 5.22998Z" fill="white"/>
</g>
<defs>
<clipPath id="clip0_146_302">
<rect width="173.79" height="43.44" fill="white"/>
</clipPath>
</defs>
</svg>
