<svg width="197" height="43" viewBox="0 0 197 43" fill="none" xmlns="http://www.w3.org/2000/svg">
<path d="M23.9607 33.2633L11.3697 5.03678C9.74665 5.03678 8.11354 4.9259 6.5006 4.9259C4.59531 4.9259 2.62953 4.64362 0.724234 4.47225V6.26668C3.74851 6.54895 5.38161 7.61754 5.38161 10.2487V37.8501C5.38161 39.8764 3.52673 40.2091 0.673828 40.4409V42.2253C2.12548 42.1043 3.75859 41.8825 6.89375 41.8825C7.79096 41.8825 8.62767 41.8826 9.52487 41.943C10.412 41.9935 11.3193 42.0539 12.156 42.1043V40.4309C8.01273 40.1386 7.00464 39.695 7.00464 37.8401V12.3656H7.11553L20.9465 42.1547H21.6724L35.1707 10.4603H35.2816V38.1223C35.2816 40.3603 34.1626 40.6426 30.5839 40.6426V42.316C33.1545 42.2051 35.7352 41.8624 38.2454 41.8624C39.3644 41.8624 41.1084 41.9229 42.7213 41.9733C44.4048 42.0337 45.917 42.1446 46.5319 42.2051V40.6426C43.6185 40.5317 42.4995 39.8059 42.4995 38.1223V8.50461C42.6104 7.27474 43.2254 6.71023 46.6428 6.25659V4.46216C45.1911 4.74442 43.679 4.85533 42.1669 4.91581C40.0398 4.9763 37.9026 5.02669 35.7857 5.02669L23.9607 33.2532V33.2633Z" fill="white"/>
<path d="M73.3578 28.6661C73.3578 21.6598 68.9322 17.3452 62.2688 17.3452C54.8694 17.3452 49.1636 23.172 49.1636 30.6218C49.1636 38.4647 54.819 42.7793 62.1579 42.7793C67.4806 42.7793 71.8356 39.251 73.4183 34.2106L72.2388 33.8275C70.4444 37.7389 67.8133 40.7732 63.67 40.7732C56.7243 40.7732 55.444 34.8356 55.444 28.6762H73.3678L73.3578 28.6661ZM55.6053 27.3153C55.6053 23.4543 57.7828 18.5851 62.2688 18.5851C65.6257 18.5851 67.7629 23.172 67.7629 25.8031C67.7629 26.8717 67.2588 26.9826 66.9766 26.9826L55.6154 27.3153H55.6053Z" fill="white"/>
<path d="M105.899 39.6343H104.205C102.36 39.6343 102.017 39.4126 102.017 37.9508L102.421 0.328857C97.2088 0.722013 94.0132 0.893386 91.2812 0.893386V2.57688C93.6805 2.63737 95.3136 2.74826 95.7471 3.52449C96.362 4.58299 96.4225 5.8129 96.4225 12.7082V21.277H96.3116C94.9104 18.6963 91.4425 17.3555 88.4183 17.3555C81.5935 17.3555 77.168 23.4041 77.168 29.9567C77.168 37.1847 81.7548 42.7796 88.9828 42.7796C92.118 42.7796 94.9205 41.0457 96.7149 38.465L97.1584 42.1042L105.899 41.3279V39.6444V39.6343ZM96.604 33.3035C96.604 36.6605 94.6382 40.5315 90.8276 40.5315C84.9504 40.5315 83.4383 34.2108 83.4383 29.3317C83.4383 24.9666 85.2327 19.0289 90.384 19.0289C94.5273 19.0289 96.604 23.0613 96.604 26.751V33.3035Z" fill="white"/>
<path d="M107.512 41.8723H121.01V40.5315L117.421 40.3097C117.25 38.9085 117.139 37.0032 117.139 35.108V28.8881C117.139 24.0694 117.31 20.037 117.31 18.414C117.31 18.0209 116.978 17.7991 116.756 17.7991C115.294 17.7991 113.117 18.6963 107.623 18.9282V20.6016L110.486 20.8234C111.494 20.8839 111.554 21.4383 111.554 22.4464V37.3964C111.554 38.4045 111.383 39.4126 111.332 40.4308H107.522V41.8723H107.512ZM111.544 9.0589C111.544 11.1356 113.107 12.5368 115.012 12.5368C116.917 12.5368 118.49 11.1356 118.49 9.0589C118.49 6.98223 116.927 5.59106 115.012 5.59106C113.097 5.59106 111.544 6.99231 111.544 9.0589Z" fill="white"/>
<path d="M123.198 41.8725H136.071V40.4309H132.996C132.936 38.6869 132.775 36.963 132.775 35.3299V26.489C132.775 22.9607 135.013 19.4828 139.156 19.4828C141.505 19.4828 143.299 20.4908 143.299 23.7369V39.1406C143.299 40.3704 142.735 40.4309 141.505 40.4309H139.327V41.8725H152.211V40.4309H148.894V27.0435C148.894 21.7308 146.656 17.3557 140.718 17.3557C137.13 17.3557 134.004 19.4828 132.543 23.122H132.432V20.2086C132.432 18.9283 132.311 18.2428 131.867 18.2428C129.075 18.2428 126.162 18.9283 123.359 18.9283V20.6017L126.162 20.9445C126.726 21.005 127.17 21.3881 127.17 22.6885V39.1406C127.17 40.3704 126.615 40.4309 125.375 40.4309H123.198V41.8725Z" fill="white"/>
<path d="M167.654 42.7692C175.043 42.7692 180.537 37.5574 180.537 30.0572C180.537 22.557 175.043 17.3452 167.654 17.3452C160.265 17.3452 154.771 22.557 154.771 30.0572C154.771 37.5574 160.265 42.7692 167.654 42.7692ZM167.654 41.5394C162.724 41.5394 161.041 35.3195 161.041 30.0572C161.041 24.795 162.724 18.5851 167.654 18.5851C172.583 18.5851 174.267 24.8555 174.267 30.0572C174.267 35.259 172.644 41.5394 167.654 41.5394Z" fill="white"/>
<path d="M196.607 40.4308H193.129V15.8938C193.129 10.7525 193.582 5.14752 193.582 1.00426C193.582 0.560701 193.3 0.328857 193.018 0.328857C192.342 0.328857 190.498 1.16557 183.108 1.33695V3.01035L185.85 3.23217C186.747 3.29265 187.524 3.6757 187.524 11.0146V25.8537C187.524 30.7228 187.352 35.5314 187.241 40.4207H183.098V41.8723H196.596V40.4207L196.607 40.4308Z" fill="white"/>
</svg>
