<svg width="127" height="53" viewBox="0 0 127 53" fill="none" xmlns="http://www.w3.org/2000/svg">
<path d="M76.1869 44.8603C80.6023 44.8603 84.1407 43.9329 86.3686 42.6223V33.2975C85.1186 34.2249 81.9531 36.2412 76.4591 36.2412C70.965 36.2412 66.9326 32.7532 66.9326 26.5937C66.9326 20.9787 71.1262 16.9967 76.4591 16.9967C79.4027 16.9967 82.9915 17.9241 85.8242 19.8294V10.7264C83.808 9.52675 80.2192 8.43799 76.0256 8.43799C64.6946 8.43799 56.8013 16.0692 56.8013 26.7046C56.8013 37.34 63.7672 44.8603 76.1869 44.8603ZM100.149 44.8603C108.698 44.8603 113.113 40.6566 113.113 33.9024C113.113 22.017 100.421 23.6501 100.421 18.6903C100.421 17.3293 101.288 16.2406 103.365 16.2406C105.926 16.2406 109.081 17.5511 111.208 18.9121V10.1316C110.069 9.52672 107.014 8.43799 102.659 8.43799C94.7055 8.43799 90.411 12.6417 90.411 19.0733C90.411 31.2309 103.042 29.7087 103.042 34.6685C103.042 36.0295 101.843 37.0174 99.8266 37.0174C96.2277 37.0174 92.8002 35.5455 90.2397 33.8015V42.7434C92.1954 43.6708 95.6329 44.8704 100.149 44.8704M116.379 44.326H126.239V8.99243H116.379V44.326Z" fill="white"/>
<path d="M26.1452 3.98222C13.7154 3.98222 3.60429 14.1035 3.60429 26.5534C3.60429 39.0033 13.7154 49.1245 26.1452 49.1245C38.575 49.1245 48.6861 39.0033 48.6861 26.5534C48.6861 14.1035 38.575 3.98222 26.1452 3.98222ZM26.1452 52.2093C12.0118 52.2093 0.519531 40.6969 0.519531 26.5534C0.519531 12.4099 12.0118 0.897461 26.1452 0.897461C40.2786 0.897461 51.7709 12.4099 51.7709 26.5534C51.7709 40.6969 40.2786 52.2093 26.1452 52.2093Z" fill="white"/>
<path d="M17.5359 23.7407H13.312V24.7286H17.5359V23.7407Z" fill="white"/>
<path d="M24.8948 23.7407H20.6709V24.7286H24.8948V23.7407Z" fill="white"/>
<path d="M32.2542 23.7407H28.0303V24.7286H32.2542V23.7407Z" fill="white"/>
<path d="M39.6233 23.7407H35.3994V24.7286H39.6233V23.7407Z" fill="white"/>
<path d="M10.9834 20.8779L12.4451 21.8759H40.5507L42.0024 20.8779H10.9834Z" fill="white"/>
<path d="M42.0026 19.7386L40.5509 18.7507L26.4981 10.4944L12.4453 18.7507L10.9937 19.7386H42.0126H42.0026ZM27.9094 15.8171C27.9094 16.6034 27.2743 17.2285 26.4981 17.2285C25.7219 17.2285 25.0868 16.5934 25.0868 15.8171C25.0868 15.0409 25.7219 14.4058 26.4981 14.4058C27.2743 14.4058 27.9094 15.0409 27.9094 15.8171Z" fill="white"/>
<path d="M26.1451 46.8058C14.9956 46.8058 5.92277 37.723 5.92277 26.5533C5.92277 15.3837 14.9956 6.30073 26.1451 6.30073C37.2946 6.30073 46.3674 15.3837 46.3674 26.5533C46.3674 37.723 37.2946 46.8058 26.1451 46.8058ZM26.1451 5.27246C14.4311 5.27246 4.89453 14.8191 4.89453 26.5533C4.89453 38.2875 14.4311 47.8341 26.1451 47.8341C37.8591 47.8341 47.3957 38.2875 47.3957 26.5533C47.3957 14.8191 37.8591 5.27246 26.1451 5.27246Z" fill="white"/>
<path d="M17.3846 45.939L16.5378 23.7307H14.32L13.564 43.691C14.7535 44.568 16.0338 45.3241 17.3846 45.939Z" fill="white"/>
<path d="M24.8143 47.7938L23.8969 23.7407H21.6791L20.792 47.1486C22.0924 47.4914 23.4332 47.703 24.8143 47.7938Z" fill="white"/>
<path d="M32.1436 46.9772L31.2564 23.7407H29.0487L28.1313 47.7434C29.5124 47.6123 30.8532 47.3503 32.1436 46.9672" fill="white"/>
<path d="M39.3514 43.207L38.6055 23.7407H36.3977L35.561 45.6264C36.9119 44.951 38.1821 44.1445 39.3514 43.207Z" fill="white"/>
</svg>
