<svg width="154" height="38" viewBox="0 0 154 38" fill="none" xmlns="http://www.w3.org/2000/svg">
<path d="M39.7254 2.56295L39.7859 2.29074C39.8666 0.808848 38.4351 0.355225 37.3464 0.355225H31.207C29.9772 0.355225 28.5356 1.44397 28.5356 2.75449C28.5356 4.06501 30.1586 4.99248 31.2675 4.99248C31.7313 4.99248 32.1547 4.97229 32.5276 4.96221C32.9006 4.96221 33.1628 4.96221 33.3644 5.02269C33.6366 5.10334 33.8886 5.27474 33.8886 6.24251V14.4483C33.8886 15.7084 34.806 16.6258 36.2072 16.6258C37.6891 16.6258 38.3343 15.517 38.4653 14.4383L39.7153 2.56295H39.7254Z" fill="white"/>
<path d="M64.2217 21.1927V2.96642C64.2217 1.25266 62.3668 0.466309 60.9454 0.466309C59.524 0.466309 58.3042 1.32319 57.8203 2.55307L53.6468 13.6522C53.5158 14.0151 53.4452 14.388 53.4452 14.761C53.4452 16.1925 54.6045 17.2611 56.0663 17.2611C57.2457 17.2611 57.5784 16.6966 58.0018 15.6885L59.1611 13.4707V21.2028C59.1611 23.723 57.8405 25.346 54.9271 25.346C53.7376 25.346 52.6085 25.3964 51.4694 25.3964C50.8645 25.3964 50.31 25.2956 49.8866 25.0033C49.6649 24.7815 49.4532 24.1464 49.312 23.2895C49.1709 22.4629 49.1104 21.5859 49.0902 21.1121L47.4773 2.98654C47.4067 1.84739 46.6708 0.839297 45.2192 0.839297C43.6466 0.839297 43.082 2.09942 43.082 3.17808V27.8461C43.082 29.4994 44.8764 30.2454 46.1769 30.2454H54.9876C60.4716 30.2454 64.2217 25.9206 64.2217 21.2028" fill="white"/>
<path d="M76.9846 27.6241L79.1318 2.55286V2.40168C79.2124 0.889543 77.8918 0.355225 76.6922 0.355225H69.5448C68.2242 0.355225 66.8633 1.51452 66.8633 2.80488C66.8633 4.09524 68.4561 5.15375 69.5952 5.15375H72.801C72.811 5.21423 72.8211 5.27473 72.8211 5.35538V5.59731V27.6342C72.8211 28.7028 73.2546 29.8722 74.8474 29.8722C76.4402 29.8722 76.8636 28.5818 76.9846 27.6241Z" fill="white"/>
<path d="M100.745 0.355225H85.7345C84.2324 0.355225 82.6396 1.42383 82.6396 2.96621C82.6396 4.59932 84.1518 5.68801 85.7345 5.68801H94.9686C96.4606 5.68801 97.5493 6.89772 97.6501 8.14775L99.0816 23.3901C99.0816 23.7127 99.1421 24.0353 99.1421 24.2974C99.1421 25.7289 98.3457 26.3136 97.4283 26.8075L96.7227 27.1604C96.4908 27.2814 96.259 27.4124 96.0573 27.5535C95.6339 27.8559 95.2811 28.2693 95.2811 28.9145C95.2811 29.8822 96.1581 30.6181 97.1259 30.6181C97.4183 30.6181 97.7106 30.5476 97.9526 30.477C98.1743 30.4064 98.4163 30.3258 98.6179 30.2754C101.834 29.1967 103.618 26.3438 103.618 23.3397V2.80488C103.618 1.32298 102.217 0.355225 100.765 0.355225" fill="white"/>
<path d="M86.2787 14.7812C84.9783 14.7812 83.4057 15.7289 83.4864 17.2007L84.7364 34.9733C84.807 36.0923 85.3614 37.2919 86.934 37.2919C88.5067 37.2919 88.9603 36.0016 88.9603 35.0036V17.2309C88.9603 15.8801 87.5993 14.7812 86.2787 14.7812Z" fill="white"/>
<path d="M123.599 0.355225H112.872C109.334 0.355225 107.459 0.597181 107.459 4.52874V21.2025C107.459 26.4245 112.419 30.2452 117.883 30.2452C123.347 30.2452 128.367 26.4245 128.367 21.2025V5.16384C128.367 2.30086 127.087 0.355225 123.609 0.355225M122.832 7.63368C122.832 12.1902 122.772 16.6964 122.772 21.2025C122.772 23.7933 120.484 26.0414 117.53 26.0414C114.576 26.0414 112.338 23.7933 112.338 21.2025V8.6014C112.338 6.56506 112.62 5.15375 114.959 5.15375H120.796C122.127 5.15375 122.5 5.37555 122.651 5.61749C122.742 5.75863 122.792 5.97028 122.812 6.32311C122.832 6.68602 122.822 7.11955 122.822 7.63368" fill="white"/>
<path d="M153.065 27.7957V2.86553C153.065 1.44412 151.623 0.365479 150.212 0.365479H134.838C133.387 0.365479 132.167 1.48444 132.167 2.86553C132.167 4.24661 133.568 5.26479 134.959 5.26479H143.417C145.161 5.26479 147.47 6.1015 147.47 7.53299V27.8561C147.47 29.2876 148.942 30.2554 150.262 30.2554C151.663 30.2554 153.055 29.2876 153.055 27.8057" fill="white"/>
<path d="M137.52 17.5031C137.399 16.4749 136.905 15.2651 135.323 15.2651C133.74 15.2651 133.004 16.5555 133.004 17.7753V27.6949C133.004 29.1365 134.415 30.0337 135.736 30.0337C138.367 30.0337 138.649 27.7655 138.649 26.1929C138.649 24.7513 138.448 23.2795 138.216 21.8077C137.984 20.3661 137.692 18.9245 137.52 17.5031Z" fill="white"/>
<path d="M26.2874 27.6342V2.75449C26.2874 1.09114 24.493 0.355225 23.1926 0.355225H8.60548C7.15383 0.355225 5.74247 1.2625 5.74247 2.80488V23.2389C5.74247 24.3276 5.06708 25.8196 3.9481 26.1624C3.686 26.243 3.38359 26.3438 3.08116 26.4547C2.75857 26.5757 2.42589 26.7067 2.12346 26.8781C1.52869 27.2209 0.923828 27.7552 0.923828 28.602C0.923828 29.3177 1.42787 29.7411 1.93192 29.9629C2.43597 30.1846 3.03072 30.2552 3.48436 30.2552H8.01068C9.40184 30.2552 10.8031 29.3479 10.8031 27.8055V5.70819C10.8031 5.56705 10.7931 5.41584 10.7628 5.26462H18.8477C19.6844 5.26462 20.1078 5.86947 20.1582 6.70619L22.124 27.8862C22.1945 28.7532 22.7288 30.0838 24.1401 30.0838C25.6825 30.0838 26.2773 28.6322 26.2773 27.6342" fill="white"/>
</svg>
