<svg width="202" height="31" viewBox="0 0 202 31" fill="none" xmlns="http://www.w3.org/2000/svg">
<path d="M16.8086 30.4148H0.961426L6.28412 3.08545H10.2157L5.42726 27.8341H17.3429L16.8086 30.4148Z" fill="white"/>
<path d="M36.5975 18.2069C35.7003 18.2069 34.0572 18.4085 32.7063 18.6605L23.079 20.3843C22.6657 21.9368 22.5044 23.0457 22.5044 24.3562C22.5044 27.2696 24.0165 28.822 26.8896 28.822C29.551 28.822 31.8091 27.4309 33.5632 24.7695L35.2467 26.8966C32.6257 29.5983 30.045 30.7878 26.7283 30.7878C21.9399 30.7878 18.8652 27.6728 18.8652 22.8441C18.8652 16.0394 24.319 9.68848 30.2163 9.68848C34.1882 9.68848 36.7689 12.3095 36.7689 16.2814C36.7689 16.7753 36.7286 17.2693 36.6076 18.2069M29.8937 11.4929C28.0892 11.4929 26.3251 12.6825 25.2263 14.608C24.4904 15.8782 24.2484 16.4125 23.5831 18.4589L32.9684 16.7754C33.0894 16.0798 33.1297 15.7874 33.1297 15.3036C33.1297 12.9245 31.8998 11.4929 29.8937 11.4929Z" fill="white"/>
<path d="M55.368 18.2069C54.4708 18.2069 52.8277 18.4085 51.4768 18.6605L41.8496 20.3843C41.4362 21.9368 41.2749 23.0457 41.2749 24.3562C41.2749 27.2696 42.787 28.822 45.6601 28.822C48.3215 28.822 50.5796 27.4309 52.3337 24.7695L54.0172 26.8966C51.3962 29.5983 48.8155 30.7878 45.4988 30.7878C40.7104 30.7878 37.6357 27.6728 37.6357 22.8441C37.6357 16.0394 43.0895 9.68848 48.9868 9.68848C52.9587 9.68848 55.5394 12.3095 55.5394 16.2814C55.5394 16.7753 55.4991 17.2693 55.3781 18.2069M48.6643 11.4929C46.8598 11.4929 45.0956 12.6825 43.9968 14.608C43.2609 15.8782 43.019 16.4125 42.3637 18.4589L51.749 16.7754C51.87 16.0798 51.9103 15.7874 51.9103 15.3036C51.9103 12.9245 50.6804 11.4929 48.6743 11.4929" fill="white"/>
<path d="M98.1915 30.4147H88.3929L92.8184 7.51087L80.3886 26.1202L74.8844 7.51087L70.4085 30.4147H65.7612L71.5678 0.575195H82.5762L85.6206 11.6238L92.9091 0.575195H103.998L98.1915 30.4147Z" fill="white"/>
<path d="M119.755 16.4025L119.221 18.9428L118.364 23.1667C117.91 25.4249 117.628 26.695 117.587 26.937C117.507 27.4713 117.466 28.0459 117.466 28.7415C117.466 29.3161 117.507 29.6387 117.587 30.425H113.978C113.858 29.7294 113.858 29.4371 113.858 29.0338C113.858 28.6608 113.858 28.3786 113.978 27.5217C112.093 29.9008 110.37 30.798 107.628 30.798C104.19 30.798 102.053 28.9532 102.053 26.0398C102.053 24.437 102.789 22.9248 103.978 21.9066C105.41 20.6767 106.892 20.0215 110.49 19.1243C114.956 17.9751 116.68 16.6646 116.68 14.3762C116.68 12.6927 115.41 11.6745 113.243 11.6745C111.075 11.6745 109.23 12.4911 107.265 14.2955L105.621 12.1281C108.121 10.4043 110.369 9.70874 113.404 9.70874C117.416 9.70874 119.997 11.4326 119.997 14.0939C119.997 14.7895 119.916 15.5657 119.755 16.4327M112.547 20.3643L110.047 21.1808C107.345 22.078 106.075 23.5599 106.075 25.8886C106.075 27.7737 107.063 28.8423 108.736 28.8423C110.047 28.8423 111.438 28.1467 112.426 27.0781C113.777 25.5257 114.432 23.9631 115.168 20.5255C115.249 20.1525 115.37 19.6687 115.541 18.963C114.392 19.6586 113.989 19.8602 112.547 20.3542" fill="white"/>
<path d="M136.217 12.753C135.562 12.38 134.987 12.2591 134.251 12.2591C133.102 12.2591 131.671 12.8741 130.642 13.8217C129.039 15.2935 128.435 17.0576 127.205 23.2473L125.773 30.4148H122.124L126.096 10.0513H129.493L129.08 13.489C130.511 11.0292 132.971 9.51709 135.511 9.51709C136.005 9.51709 136.247 9.55739 136.782 9.67836L136.207 12.753H136.217Z" fill="white"/>
<path d="M150.028 13.9022C148.717 12.3497 147.195 11.6441 145.068 11.6441C142.568 11.6441 140.683 12.995 140.683 14.7591C140.683 16.2713 141.459 16.8862 145.552 18.3277C149.564 19.7592 150.794 20.9488 150.794 23.5295C150.794 27.6223 146.701 30.7776 141.368 30.7776C138.294 30.7776 135.793 29.9611 133.747 28.2776L135.552 25.3642C136.902 27.7433 138.707 28.8018 141.449 28.8018C144.645 28.8018 146.812 27.078 146.812 24.5779C146.812 23.0154 145.915 22.2391 142.88 21.221C140.179 20.3238 139.403 19.9911 138.455 19.2552C137.386 18.4386 136.892 17.4507 136.892 16.0998C136.892 12.4506 140.542 9.66821 145.33 9.66821C147.991 9.66821 150.038 10.4042 151.923 11.9264L149.997 13.8921L150.028 13.9022Z" fill="white"/>
<path d="M171.409 16.483L168.707 30.4149H165.058L167.639 17.1786C167.971 15.4951 168.052 15.0113 168.052 14.4366C168.052 12.9245 167.024 12.0172 165.27 12.0172C163.919 12.0172 162.77 12.4305 161.661 13.3681C159.977 14.7189 159.282 15.9891 158.505 19.1041C158.263 20.0416 158.092 20.9892 157.89 21.9268L156.207 30.4048H152.558L157.88 3.07544H161.53L159.524 13.3177C161.489 10.8176 163.697 9.66833 166.691 9.66833C169.685 9.66833 171.893 11.1402 171.893 13.3177C171.893 13.9729 171.772 14.5072 171.399 16.473" fill="white"/>
<path d="M191.53 18.2069C190.623 18.2069 188.99 18.4085 187.639 18.6605L178.012 20.3843C177.598 21.9368 177.437 23.0457 177.437 24.3562C177.437 27.2696 178.949 28.822 181.822 28.822C184.484 28.822 186.742 27.4309 188.496 24.7695L190.179 26.8966C187.558 29.5983 184.978 30.7878 181.661 30.7878C176.873 30.7878 173.798 27.6728 173.798 22.8441C173.798 16.0394 179.242 9.68848 185.149 9.68848C189.121 9.68848 191.702 12.3095 191.702 16.2814C191.702 16.7753 191.661 17.2693 191.54 18.2069M184.816 11.4929C183.012 11.4929 181.248 12.6825 180.149 14.608C179.413 15.8782 179.161 16.4125 178.506 18.4589L187.891 16.7754C188.012 16.0798 188.052 15.7874 188.052 15.3036C188.052 12.9245 186.822 11.4929 184.816 11.4929Z" fill="white"/>
<path d="M196.078 30.4148H192.429L197.762 3.08545H201.401L196.078 30.4148Z" fill="white"/>
</svg>
