<svg width="117" height="62" viewBox="0 0 117 62" fill="none" xmlns="http://www.w3.org/2000/svg">
<path d="M112.43 53.2087C114.981 53.2087 116.483 54.8318 116.483 56.8379C116.443 58.8843 114.981 60.467 112.43 60.467C109.88 60.467 108.378 58.8843 108.378 56.8379C108.378 54.7915 109.88 53.2087 112.39 53.2087H112.43ZM116.352 51.1221H108.459V30.5771H116.352V51.1221Z" fill="white"/>
<path d="M90.7864 36.9786C91.2098 36.8879 92.0566 36.8073 93.4074 36.8073C96.5728 36.8073 98.1353 38.2186 98.1353 40.3658C98.1353 43.0473 95.9377 44.499 92.863 44.499C91.8448 44.499 91.2602 44.4587 90.7965 44.3679V36.9786H90.7864ZM82.893 60.5377H90.7864V50.6483C91.2905 50.6887 92.0566 50.7794 92.9437 50.7794C97.3289 50.7794 100.797 49.7713 103.236 47.5233C105.091 45.8498 106.019 43.1683 106.019 40.3154C106.019 37.1097 104.547 34.4685 102.561 33.0168C100.575 31.5249 97.581 30.6478 93.3167 30.6478C88.2964 30.6478 85.0906 30.9603 82.893 31.3031V60.5377ZM66.5216 54.6505C62.2574 54.6505 59.5558 50.8701 59.5558 45.7691C59.5558 40.6682 62.2574 36.8073 66.5216 36.8073C70.7858 36.8073 73.4875 40.6783 73.4875 45.7691C73.4875 50.86 70.9169 54.6505 66.572 54.6505H66.5317H66.5216ZM66.189 61.072C75.9372 61.072 81.9757 54.5194 81.9757 45.5575C81.9757 36.5956 76.2799 30.3958 66.6627 30.3958C57.0455 30.3958 51.0878 36.9484 51.0878 46.001C51.0878 54.5295 56.7834 61.0821 66.1486 61.0821H66.189V61.072ZM23.4862 30.92V60.5478H31.4601V48.8136H42.1762V60.5478H50.1502V30.92H42.1762V41.6864H31.4601V30.92H23.4862ZM0.320312 59.0458C2.13488 60.0135 5.80425 61.072 9.56443 61.072C18.6373 61.072 22.3873 56.4953 22.3873 51.5355C22.3873 47.0495 19.7764 44.2873 14.242 42.4324C10.5322 41.2025 8.71767 40.6783 8.71767 39.0956C8.71767 37.8254 10.0686 37.029 12.4275 37.029C15.6736 37.029 18.0828 37.9968 19.4337 38.5714L21.2483 32.0692C19.0507 31.1015 16.4396 30.3958 12.5584 30.3958C5.16912 30.3958 0.531972 34.3475 0.531972 39.7106C0.531972 45.0736 4.54422 47.4426 9.39313 48.854C12.8509 49.8621 14.1614 50.6987 14.1614 51.979C14.1614 53.471 12.8106 54.3581 10.1492 54.3581C6.90315 54.3581 3.85872 53.2593 1.96351 52.2915L0.320312 59.0659V59.0458Z" fill="white"/>
<path d="M93.6792 4.4676L86.179 25.3855L91.7537 24.5488L97.6309 8.14715C98.6692 7.15922 99.3547 6.62493 100.524 6.44348C101.683 6.2721 100.151 9.11487 102.319 8.79229C104.214 8.51002 105.514 6.6148 105.756 5.19339C106.018 3.65101 105.141 2.75384 103.407 3.01594C101.784 3.25788 100.081 4.38695 98.4978 5.72771L99.264 3.63086L93.6893 4.4676H93.6792ZM88.2355 9.24594C87.7113 12.1392 84.6568 15.7179 81.0882 16.2925C82.5398 12.3509 85.0903 7.50194 87.2577 7.16927C88.417 6.9979 88.3766 8.38906 88.2355 9.24594ZM80.0397 20.0527C80.1204 19.5688 80.2615 18.9539 80.4531 18.2885C84.2133 17.2502 89.7678 13.6513 90.5944 8.6915C91.0682 5.84868 89.5158 4.72969 86.3403 5.21357C79.2937 6.27207 75.6847 15.6373 74.8178 20.7987C74.2331 24.2867 75.7554 26.9581 79.4652 26.4037C84.4653 25.6577 88.8706 21.0003 91.7739 16.484L90.0299 16.7461C88.1751 19.9519 84.5257 22.7947 82.6204 23.077C81.1082 23.2988 79.576 22.7443 80.0296 20.0627M71.5516 2.32036L69.4548 8.0967L68.1745 8.28824L67.5898 9.96171L68.8701 9.77017C67.6302 13.359 64.1724 22.2705 63.8095 24.4278C63.2954 27.4722 64.8882 28.5811 67.8721 28.1376C70.8964 27.6839 76.1787 21.6253 78.2655 19.4982L76.9449 19.6998C75.1808 21.2321 72.7815 23.8028 71.2391 24.0346C69.6866 24.2665 69.4043 23.712 69.5555 22.7846C69.5858 22.583 69.616 22.1798 74.4347 8.94352L76.7634 8.60075L77.3481 6.92734L75.0194 7.27012C76.3703 3.49986 77.4086 0.656982 77.4086 0.656982L71.5415 2.33045L71.5516 2.32036ZM60.2408 4.01394L58.144 9.79035L56.8637 9.98183L56.2791 11.6553L57.5592 11.4638C56.3193 15.0526 52.8616 23.9641 52.4987 26.1214C51.9846 29.1658 53.5773 30.2747 56.5612 29.8311C59.5855 29.3775 64.868 23.3189 66.9547 21.1919L65.6341 21.3934C63.8699 22.9257 61.4707 25.4964 59.9284 25.7283C58.3759 25.9601 58.0936 25.4056 58.2448 24.4782C58.275 24.2766 58.3052 23.8733 63.1239 10.6371L65.4527 10.2944L66.0373 8.62093L63.7087 8.96371C65.0595 5.19344 66.0979 2.35063 66.0979 2.35063L60.2307 4.02403L60.2408 4.01394ZM52.6197 14.5788C52.0955 17.472 49.0409 21.0507 45.4722 21.6253C46.9239 17.6837 49.4743 12.8347 51.6417 12.5021C52.8011 12.3307 52.7608 13.7219 52.6197 14.5788ZM44.434 25.3855C44.5146 24.9016 44.6557 24.2867 44.8371 23.6213C48.5973 22.583 54.152 18.9841 54.9786 14.0243C55.4524 11.1815 53.9 10.0625 50.7245 10.5464C43.6779 11.6049 40.0689 20.97 39.2019 26.1315C38.6172 29.6195 40.1394 32.2909 43.8492 31.7365C48.8494 30.9905 53.2547 26.3331 56.158 21.8169L54.414 22.0789C52.5591 25.2847 48.9098 28.1275 47.0046 28.4098C45.4924 28.6315 43.9602 28.067 44.4138 25.3855M27.4476 8.99392L17.8606 35.6176L23.4354 34.7809L29.2117 18.7522C29.9174 18.5708 30.6634 18.4196 31.1675 18.3389C33.728 17.9559 34.3026 20.1636 33.859 22.8048C33.2844 26.2525 30.9054 30.5368 28.7783 30.8493C28.2339 30.93 26.9536 30.9199 26.4294 29.7707C25.9152 30.8392 25.6129 31.7163 25.502 32.4018C25.0786 34.9624 27.2762 34.8716 29.6049 34.5188C33.8691 33.8837 38.3753 26.9884 39.2524 21.7463C39.7867 18.5809 38.9701 15.9699 35.9055 15.7884C38.6374 13.9134 40.452 11.1915 40.8552 8.79229C41.4097 5.46558 39.2322 2.70346 33.1534 3.61074C26.6814 4.57851 18.6974 10.7984 17.7901 16.2018C17.2961 19.1253 18.6066 19.9216 21.278 19.5184C21.2982 19.1555 20.8547 18.9035 21.1974 16.8369C22.2257 10.6674 27.0343 6.34264 33.3046 5.40511C36.3289 4.95147 37.2362 6.75599 36.8531 9.03428C36.339 12.119 33.4457 16.0808 30.2299 16.5546L29.9577 16.595L33.3248 7.30033L27.4576 8.97373L27.4476 8.99392Z" fill="white"/>
</svg>
