<svg width="86" height="80" viewBox="0 0 86 80" fill="none" xmlns="http://www.w3.org/2000/svg">
<path d="M8.6684 0L6.09778 4.49609H0.956543L3.52716 8.99217L0.956543 13.4883H6.09778L8.6684 17.9843L11.2491 13.4883H16.3904L13.8198 8.99217L16.3904 4.49609H11.2491L8.6684 0Z" fill="white"/>
<path d="M15.2113 29.0129L12.6406 33.509H17.7819L20.3525 38.0051L22.9333 33.509H28.0745L25.5039 29.0129L28.0745 24.5168H22.9333L20.3525 20.0208L17.7819 24.5168H12.6406L15.2113 29.0129Z" fill="white"/>
<path d="M40.4035 33.509L42.9741 38.0051L45.5448 33.509H50.6861L48.1154 29.0129L50.6861 24.5168H45.5448L42.9741 20.0208L40.4035 24.5168H35.2622L37.8228 29.0129L35.2622 33.509H40.4035Z" fill="white"/>
<path d="M60.4341 29.0129L57.8735 33.509H63.0148L65.5855 38.0051L68.1561 33.509H73.2974L70.7267 29.0129L73.2974 24.5168H68.1561L65.5855 20.0208L63.0148 24.5168H57.8735L60.4341 29.0129Z" fill="white"/>
<path d="M29.0119 4.49609H23.8706L26.4412 8.99218L23.8706 13.4883H29.0119L31.5825 17.9944L34.1531 13.4883H39.3045L36.7339 8.99218L39.3045 4.49609H34.1531L31.5825 0L29.0119 4.49609Z" fill="white"/>
<path d="M54.4964 0L51.9257 4.49609H46.7744L49.345 8.99217L46.7744 13.4883H51.9257L54.4964 17.9843L57.067 13.4883H62.2083L59.6376 8.99217L62.2083 4.49609H57.067L54.4964 0Z" fill="white"/>
<path d="M77.4104 0L74.8297 4.49609H69.6885L72.2591 8.99217L69.6885 13.4883H74.8297L77.4104 17.9843L79.9811 13.4883H85.1224L82.5517 8.99217L85.1224 4.49609H79.9811L77.4104 0Z" fill="white"/>
<path d="M79.6785 43.9629H74.2146L70.7972 52.6526L68.0653 60.5561L65.0813 52.2292L61.9159 43.9629H55.7666H50.3027V62.1388V79.5183H54.4056H59.8695V71.6148V62.9251L62.6014 71.6148L64.6479 79.5183H68.0653H70.7972L73.2166 71.6955L76.2611 62.9251V71.6148V79.5183H81.0495H85.1424V62.1388V43.9629H79.6785Z" fill="white"/>
<path d="M37.6411 43.9629V62.1388V79.5183H42.4195H46.5224V62.1388V43.9629H42.4195H37.6411Z" fill="white"/>
<path d="M0.845703 43.9629V48.7009V54.2353H9.71689H17.2372L9.13218 61.8767L0.845703 69.2458V74.7702V79.5183H17.2372H33.6288V74.7702V69.2458H24.7475L16.3602 69.2257L24.5963 61.8666L33.6288 54.2353V48.7009V43.9629H17.2372H0.845703Z" fill="white"/>
</svg>
