<svg width="309" height="56" viewBox="0 0 309 56" fill="none" xmlns="http://www.w3.org/2000/svg">
<path d="M47.8019 20.4874C46.4107 21.9793 44.9994 23.5016 43.5478 25.0641C43.3159 25.3161 43.2655 25.669 43.4268 26.0117C44.4147 28.1287 45.4531 30.165 46.5721 32.1308C47.0358 32.9272 46.0881 33.6934 44.9591 33.4313C42.207 32.7558 39.5255 31.9494 36.9145 31.032C36.4911 30.8808 36.0375 30.911 35.6947 31.1026C33.5273 32.3224 31.3095 33.6026 29.0312 35.014C28.0937 35.5886 26.8437 34.9736 26.9042 33.9252C27.0453 31.3748 27.1663 28.8344 27.257 26.294C27.2772 25.8907 27.0856 25.4774 26.7529 25.1952C24.6864 23.431 22.6702 21.5963 20.6641 19.7414C19.8475 18.9853 20.1096 17.5841 21.0976 17.4127C23.517 16.9792 25.9263 16.707 28.3256 16.5155C28.7086 16.4852 29.0111 16.2534 29.132 15.9006C29.8881 13.7029 30.624 11.5557 31.3397 9.45885C31.6321 8.60197 32.9023 8.83383 33.5072 9.82176C34.9891 12.2311 36.471 14.5295 37.9932 16.7272C38.2351 17.08 38.6283 17.3421 39.0315 17.4228C41.5618 17.947 44.1123 18.4006 46.6627 18.7333C47.7011 18.8744 48.3765 19.8825 47.812 20.4874M72.0768 31.7679C66.9456 24.7113 64.0019 16.3139 62.2479 7.73502C62.1874 7.42251 61.7942 7.20073 61.3809 7.24105C51.4311 8.23906 41.461 6.31361 31.5716 3.64216C21.6722 1.28323 11.8736 -1.97291 1.9741 3.99499C1.56079 4.2571 1.25832 4.98293 1.30873 5.58778C2.65957 22.2011 2.35715 39.0967 0.875256 54.9742C0.824852 55.5488 1.23814 55.6899 1.79259 55.3068C12.4683 46.3348 24.3638 43.6634 38.1444 41.8589C49.7878 40.0746 62.0664 37.4838 71.6836 32.6046C72.0767 32.403 72.2481 32.03 72.0566 31.7679" fill="white"/>
<path d="M294.351 45.0847H308.918V40.4777H299.744V32.9674H308.252V28.3605H299.744V21.1425H308.918V16.5356H294.351V45.0847ZM272.364 45.0847H277.344V34.2175C277.344 32.1005 277.304 29.3182 277.264 27.1205H277.384C278.171 29.0258 279.461 31.8888 280.58 34.2175L285.893 45.0847H290.459V16.5356H285.479V27.2012C285.479 29.2778 285.52 32.0602 285.56 34.2578H285.439C284.653 32.3928 283.282 29.3585 282.203 27.1205L277.011 16.5456H272.364V45.0948V45.0847ZM262.949 45.0847H268.342V16.5356H262.949V45.0847ZM247.515 45.0847H261.084V40.4777H252.908V16.5356H247.515V45.0847ZM226.355 30.1448V20.9712H228.926C231.537 20.9712 232.827 21.9692 232.827 24.9128V26.1527C232.827 29.1367 231.456 30.1347 228.926 30.1347H226.355V30.1448ZM238.845 45.0847C237.434 41.264 235.902 37.4534 234.319 33.6731C236.849 32.5541 238.261 30.2658 238.261 26.3342V24.7112C238.261 18.5316 234.984 16.5356 229.087 16.5356H220.952V45.0847H226.345V34.5905H229.369C230.609 38.0381 231.94 41.7278 233.109 45.0847H238.835H238.845ZM205.941 34.4997C206.102 33.3808 206.314 32.3021 206.475 31.3041C206.929 28.2294 207.635 24.5398 208.219 21.3845H208.633C209.298 24.4995 210.004 28.2294 210.498 31.3041C210.709 32.3021 210.871 33.3808 211.082 34.4997H205.941ZM212.786 45.0847H218.391C216.647 35.4977 214.701 25.7092 212.665 16.5356H204.288C202.292 25.7898 200.386 35.4977 198.683 45.0847H204.248C204.54 43.0484 204.873 41.0221 205.205 38.9857H211.848C212.181 40.9314 212.474 43.008 212.806 45.0847M188.783 45.0847H194.177V21.1425H199.862V16.5356H183.098V21.1425H188.783V45.0847ZM173.682 45.4174C179.156 45.4174 182.19 42.3024 182.19 37.4938V36.9595C182.19 32.3928 180.406 30.6085 175.88 28.7839L174.136 28.0379C171.273 26.8786 170.406 25.9612 170.406 24.0156V23.8039C170.406 21.8986 171.484 20.7796 173.481 20.7796C174.72 20.7796 175.557 21.1929 176.132 21.9792C176.626 22.6446 176.918 23.5619 177.039 24.7616L182.019 24.1769C181.807 21.3139 180.819 19.1969 179.075 17.8662C177.704 16.7473 175.88 16.2029 173.511 16.2029C168.238 16.2029 165.093 19.1465 165.093 23.8341V24.2071C165.093 28.4411 167.079 30.6791 171.232 32.3424L172.936 33.0481C176.091 34.3788 176.878 35.2457 176.878 37.4434V37.6551C176.878 39.6914 175.678 40.8507 173.642 40.8507C172.351 40.8507 171.404 40.3567 170.819 39.4394C170.366 38.8547 170.073 38.0684 169.861 36.7881L164.841 37.3728C165.053 39.6914 165.799 41.5665 166.998 42.8871C168.49 44.5504 170.769 45.4174 173.682 45.4174ZM143.187 40.6088V20.9812H145.798C147.502 20.9812 148.702 21.3139 149.407 22.1809C150.194 23.0478 150.405 24.4592 150.405 26.1628V35.4574C150.405 37.1208 150.194 38.5321 149.407 39.4394C148.702 40.266 147.502 40.5987 145.798 40.5987H143.187V40.6088ZM137.794 45.0948H146.091C149.579 45.0948 151.978 44.3085 153.52 42.7258C155.224 40.9414 155.889 38.2498 155.889 34.6308V26.9995C155.889 23.3906 155.224 20.6486 153.52 18.9046C151.988 17.2815 149.579 16.5356 146.091 16.5356H137.794V45.0847V45.0948ZM121.655 45.0948H135.223V40.4878H127.048V16.5456H121.655V45.0948ZM108.963 40.5685C107.632 40.5685 106.684 40.1551 106.019 39.4091C105.273 38.5422 104.981 37.3728 104.981 35.5078V26.1326C104.981 24.2676 105.273 23.068 106.019 22.1909C106.684 21.4853 107.632 21.0316 108.963 21.0316C110.293 21.0316 111.241 21.4853 111.906 22.1909C112.652 23.0579 112.945 24.2676 112.945 26.1326V35.5078C112.945 37.3728 112.652 38.5422 111.906 39.4091C111.241 40.1551 110.293 40.5685 108.963 40.5685ZM108.963 45.4275C112.158 45.4275 114.648 44.3891 116.181 42.6048C117.713 40.8205 118.378 38.4111 118.378 34.5098V27.1205C118.378 23.1789 117.713 20.7695 116.181 18.9852C114.648 17.2009 112.158 16.2029 108.963 16.2029C105.767 16.2029 103.277 17.2009 101.745 18.9852C100.212 20.7695 99.5471 23.1789 99.5471 27.1205V34.5098C99.5471 38.4111 100.212 40.8205 101.745 42.6048C103.277 44.3891 105.767 45.4275 108.963 45.4275ZM88.3372 29.4492V33.7235H92.5711V35.2558C92.5711 37.5341 92.1981 38.5321 91.5731 39.3184C90.9077 40.1451 89.8291 40.5685 88.4984 40.5685C87.1677 40.5685 86.0488 40.1551 85.3835 39.3184C84.7584 38.5321 84.3855 37.5341 84.3855 35.2558V26.2536C84.3855 24.2172 84.7181 23.0176 85.4238 22.1909C86.0488 21.445 87.0367 21.0316 88.2868 21.0316C89.5368 21.0316 90.4844 21.4853 91.1094 22.3623C91.6941 23.189 92.0268 24.3583 92.1881 25.8906L97.4201 25.4773C97.168 21.949 96.1801 19.8723 94.7688 18.461C93.2768 17.0497 91.2001 16.223 88.2968 16.223C85.1011 16.223 82.7825 17.2211 81.2401 18.9247C79.6272 20.7494 78.9619 23.32 78.9619 27.0197V34.5703C78.9619 38.391 79.5869 40.881 81.1595 42.6653C82.6515 44.369 85.0205 45.4476 88.4178 45.4476C91.8151 45.4476 94.184 44.369 95.676 42.6653C97.2486 40.881 97.8737 38.391 97.8737 34.5703V29.4694H88.3271L88.3372 29.4492Z" fill="white"/>
</svg>
