<svg width="155" height="30" viewBox="0 0 155 30" fill="none" xmlns="http://www.w3.org/2000/svg">
<path d="M141.855 14.3161L153.66 1.03951V0.837891H145.141L135.796 11.7354V0.837891H128.83V29.5181H135.796V17.2295L145.716 29.5181H154.153V29.3165L141.865 14.3161H141.855ZM109.525 6.77555H114.929C117.348 6.77555 118.739 8.12639 118.739 10.1325C118.739 12.1386 117.348 13.5298 114.929 13.5298H109.525V6.76547V6.77555ZM120.382 18.7013C123.82 17.3504 125.705 14.3161 125.705 10.1426C125.705 4.40653 122.056 0.837891 115.826 0.837891H102.549V29.5181H109.515V19.4775H113.608L118.931 29.5181H126.31V29.1854L120.372 18.6912L120.382 18.7013ZM82.4378 19.5178L86.0064 10.3039L89.5751 19.5178H82.4479H82.4378ZM88.5468 0.837891H83.4661L71.4193 29.1854V29.5181H78.5868L80.3108 25.0522H91.7021L93.426 29.5181H100.594V29.1854L88.5468 0.837891ZM63.3849 0.837891L53.7173 15.0117L44.0496 0.837891H37.981V29.5181H44.7049V13.1265L52.9007 24.8405H54.5439L62.7397 13.1265V29.5181H69.4637V0.837891H63.395H63.3849ZM27.5371 29.5181H34.503V0.837891H27.5371V29.5181ZM23.6358 0.837891H1.54858V6.77555H12.9803L0.651367 29.1048V29.5181H23.6358V23.5804H11.3068L23.6358 1.25121V0.837891Z" fill="white"/>
</svg>
