<svg width="134" height="67" viewBox="0 0 134 67" fill="none" xmlns="http://www.w3.org/2000/svg">
<path d="M133.064 20.1353C133.064 18.4619 133.013 17.8671 132.57 16.9901C132.026 15.982 130.866 15.2864 129.455 15.2864C128.044 15.2864 126.884 15.982 126.34 16.9901C125.906 17.8671 125.846 18.4619 125.846 20.1353V37.8475L112.821 18.5929C111.279 16.3247 110.271 15.2965 108.597 15.2965C107.519 15.2965 106.612 15.6795 105.896 16.4054C105.099 17.232 104.918 18.3107 104.918 19.7825V47.5352C104.918 49.2087 104.968 49.8034 105.412 50.6805C105.956 51.6886 107.116 52.3841 108.527 52.3841C109.938 52.3841 111.098 51.6886 111.642 50.6805C112.075 49.8034 112.136 49.2087 112.136 47.5352V29.8231L125.191 49.0776C126.713 51.3458 127.741 52.3741 129.384 52.3741C130.493 52.3741 131.37 51.991 132.086 51.2652C132.913 50.4385 133.064 49.3599 133.064 47.8881V20.1353Z" fill="white"/>
<path d="M83.8589 3.07852C83.5968 1.22363 81.6714 0.427246 80.4314 0.427246C79.6048 0.427246 78.8588 0.709504 78.3144 1.25387C77.6995 1.86881 77.4374 2.41318 76.9535 3.87492L65.3806 39.2589L58.5558 18.3309C58.0619 16.8591 57.8098 16.3248 57.1949 15.6998C56.6505 15.1555 55.9045 14.8732 55.088 14.8732C53.848 14.8732 51.9226 15.6696 51.6605 17.5245C51.5294 18.3511 51.6605 18.9963 52.1544 20.458L61.4994 48.4225C61.9934 49.864 62.3966 50.5596 62.941 51.0737C63.6366 51.6887 64.3826 51.9508 65.3907 51.9508C66.3988 51.9508 67.1145 51.6887 67.8101 51.0737C68.3545 50.5596 68.7577 49.864 69.2517 48.4225L83.375 6.00199C83.869 4.53018 83.99 3.89508 83.869 3.06844" fill="white"/>
<path d="M101.47 45.9527C100.775 45.5898 100.18 45.4991 98.6677 45.4991H85.9758V36.5271H96.1878C97.71 36.5271 98.2947 36.5472 98.9903 36.1843C99.8875 35.7206 100.512 34.7024 100.512 33.4423C100.512 32.1822 99.8975 31.0229 98.9903 30.5592C98.2947 30.1963 97.6999 30.045 96.1878 30.045H85.9758V21.567H98.6677C100.19 21.567 100.775 21.567 101.47 21.2142C102.367 20.7504 102.992 19.7222 102.992 18.4621C102.992 17.202 102.377 16.0527 101.47 15.589C100.775 15.2261 100.18 15.085 98.6677 15.085H82.9616C82.8104 15.085 82.6088 15.1959 82.4576 15.1959L78.5059 27.0611V47.5858C78.5059 48.6443 78.5462 49.9649 79.5543 50.9629C80.5624 51.971 81.9132 51.9811 82.9717 51.9811H98.6778C100.2 51.9811 100.785 51.9206 101.48 51.5577C102.377 51.094 103.002 50.0153 103.002 48.7552C103.002 47.4951 102.388 46.4165 101.48 45.9527" fill="white"/>
<path d="M26.9924 64.1789C27.2444 66.0338 29.1799 66.8302 30.4199 66.8302C31.2465 66.8302 31.9925 66.5479 32.5268 66.0036C33.1417 65.3886 33.4038 64.8442 33.8877 63.3825L45.4606 27.9985L52.2854 48.9265C52.7794 50.3983 53.0314 50.9326 53.6463 51.5576C54.1907 52.102 54.9367 52.3842 55.7532 52.3842C56.9932 52.3842 58.9186 51.5879 59.1807 49.733C59.3118 48.9063 59.1807 48.2612 58.6868 46.7994L49.3418 18.835C48.8478 17.3934 48.4446 16.6978 47.9002 16.1837C47.2046 15.5687 46.4586 15.3066 45.4505 15.3066C44.4424 15.3066 43.7267 15.5687 43.0311 16.1837C42.4867 16.6978 42.0835 17.3934 41.5895 18.835L27.4662 61.2554C26.9722 62.7273 26.8512 63.3724 26.9722 64.189" fill="white"/>
<path d="M26.1356 47.5354C26.1356 49.2088 26.2465 49.8036 26.6901 50.6806C27.0127 51.2855 27.6679 51.7694 28.3534 52.0617L33.6157 36.5673V19.7524C33.6157 18.1798 33.3334 17.1515 32.4664 16.2745C31.8213 15.6293 30.9845 15.2966 30.0067 15.2966C29.1599 15.2966 28.4946 15.4478 27.8494 15.8914C27.1336 16.3551 26.4784 17.2322 26.0147 18.1092L16.841 35.5693L7.66739 18.1092C7.20367 17.2322 6.5585 16.3551 5.84275 15.8914C5.19757 15.4579 4.55239 15.2966 3.70559 15.2966C2.72775 15.2966 1.93136 15.6293 1.28618 16.2745C0.409137 17.1515 0.20752 18.1798 0.20752 19.7524V47.5354C0.20752 49.2088 0.257922 49.8036 0.701482 50.6806C1.24585 51.6887 2.39508 52.3843 3.81648 52.3843C5.23789 52.3843 6.27623 51.6887 6.8206 50.6806C7.25408 49.8036 7.19359 49.2088 7.19359 47.5354V30.9321L13.2825 42.6965C14.1797 44.4708 15.0869 45.2168 16.7906 45.2168C18.4943 45.2168 19.3008 44.4708 20.2081 42.6965L26.1457 30.9321V47.5354H26.1356Z" fill="white"/>
</svg>
