<svg width="132" height="45" viewBox="0 0 132 45" fill="none" xmlns="http://www.w3.org/2000/svg">
<path d="M9.75966 34.2569V11.0002H16.6349C22.4515 11.0002 27.1694 16.202 27.1694 22.6336C27.1694 29.0652 22.4515 34.267 16.6349 34.267H9.75966V34.2569ZM16.6349 41.9285C25.6169 41.9285 33.1676 35.7892 35.3148 27.4825L57.15 44.5394L78.9752 27.4926V41.9285H103.875V34.2569H87.7355V3.32863H78.9651V17.7645L58.0271 34.1157L53.3495 30.4564L63.37 22.6235L74.2775 14.0951L68.0475 9.22597L47.1195 25.5772L42.442 21.9178L63.38 5.56659L57.15 0.69751L35.3148 17.7544C33.1575 9.44774 25.6169 3.30848 16.6349 3.30848H0.989258V41.9083H16.6349V41.9285ZM131.759 34.2569V41.9285H106.859V3.32863H115.629V34.2569H131.759Z" fill="white"/>
</svg>
