<svg width="187" height="47" viewBox="0 0 187 47" fill="none" xmlns="http://www.w3.org/2000/svg">
<path d="M145.05 20.7728C144.485 24.5431 141.673 24.5431 138.951 24.5431H137.398L138.487 17.5167C138.558 17.0933 138.911 16.7808 139.334 16.7808H140.04C141.894 16.7808 143.639 16.7808 144.546 17.8595C145.09 18.5046 145.251 19.4623 145.04 20.7829M143.86 10.9641H133.598C132.892 10.9641 132.297 11.4883 132.187 12.194L128.033 39.0899C127.953 39.6241 128.356 40.0979 128.88 40.0979H134.142C134.636 40.0979 135.05 39.735 135.13 39.2411L136.31 31.6199C136.421 30.9142 137.015 30.39 137.721 30.39H140.967C147.731 30.39 151.633 27.0432 152.651 20.42C153.115 17.5167 152.671 15.2485 151.34 13.6557C149.879 11.9016 147.288 10.9742 143.86 10.9742" fill="white"/>
<path d="M71.8423 20.7728C71.2778 24.5431 68.4652 24.5431 65.7434 24.5431H64.1909L65.2796 17.5167C65.3502 17.0933 65.7031 16.7808 66.1265 16.7808H66.8321C68.687 16.7808 70.431 16.7808 71.3383 17.8595C71.8826 18.5046 72.0439 19.4623 71.8322 20.7829M70.6528 10.9641H60.3904C59.6848 10.9641 59.09 11.4883 58.9791 12.194L54.8257 39.0899C54.7451 39.6241 55.1483 40.0979 55.6725 40.0979H60.5719C61.2775 40.0979 61.8723 39.5738 61.9832 38.8681L63.1022 31.6098C63.2131 30.9042 63.8078 30.3799 64.5135 30.3799H67.7596C74.5239 30.3799 78.4251 27.0331 79.4433 20.4099C79.907 17.5066 79.4635 15.2384 78.1328 13.6456C76.6711 11.8916 74.0803 10.9641 70.6528 10.9641Z" fill="white"/>
<path d="M94.4843 30.4304C94.0105 33.3035 91.7826 35.229 88.9398 35.229C87.5184 35.229 86.3692 34.7652 85.6433 33.8781C84.9175 33.0011 84.6453 31.741 84.8772 30.3498C85.3207 27.507 87.5789 25.521 90.3814 25.521C91.7826 25.521 92.9117 25.9948 93.6577 26.892C94.4138 27.7893 94.7061 29.0594 94.4944 30.4405M101.339 20.662H96.4198C95.9964 20.662 95.6436 20.9746 95.573 21.398L95.3614 22.7992L95.0186 22.2952C93.95 20.7125 91.581 20.1882 89.212 20.1882C83.7784 20.1882 79.1411 24.392 78.2439 30.2893C77.7701 33.2329 78.4456 36.0455 80.0787 38.0012C81.5807 39.8057 83.7179 40.5517 86.2684 40.5517C90.6435 40.5517 93.073 37.6786 93.073 37.6786L92.8512 39.0799C92.7705 39.6142 93.1738 40.088 93.698 40.088H98.1235C98.8292 40.088 99.4239 39.5638 99.5348 38.8581L102.196 21.6601C102.277 21.1258 101.874 20.652 101.349 20.652" fill="white"/>
<path d="M167.691 30.4304C167.218 33.3035 164.99 35.229 162.147 35.229C160.725 35.229 159.576 34.7652 158.85 33.8781C158.125 33.0011 157.852 31.741 158.084 30.3498C158.528 27.507 160.796 25.521 163.588 25.521C164.99 25.521 166.119 25.9948 166.865 26.892C167.621 27.7893 167.913 29.0594 167.701 30.4405M174.546 20.662H169.627C169.203 20.662 168.851 20.9746 168.78 21.398L168.568 22.7992L168.226 22.2952C167.157 20.7125 164.788 20.1882 162.419 20.1882C156.985 20.1882 152.348 24.392 151.451 30.2893C150.977 33.2329 151.653 36.0455 153.286 38.0012C154.788 39.8057 156.925 40.5517 159.475 40.5517C163.851 40.5517 166.28 37.6786 166.28 37.6786L166.058 39.0799C165.978 39.6142 166.381 40.088 166.905 40.088H171.331C172.036 40.088 172.631 39.5638 172.742 38.8581L175.403 21.6601C175.484 21.1258 175.081 20.652 174.556 20.652" fill="white"/>
<path d="M127.509 20.6522H122.569C122.095 20.6522 121.652 20.8941 121.39 21.2873L114.575 31.5396L111.692 21.6804C111.51 21.0655 110.956 20.6421 110.321 20.6421H105.462C104.877 20.6421 104.464 21.2268 104.655 21.8014L110.099 38.1224L104.978 45.5016C104.575 46.0762 104.978 46.8827 105.673 46.8827H110.613C111.087 46.8827 111.52 46.6508 111.783 46.2577L128.214 22.0232C128.608 21.4385 128.204 20.6522 127.509 20.6522Z" fill="white"/>
<path d="M180.333 11.69L176.119 39.0798C176.039 39.6141 176.442 40.0879 176.966 40.0879H181.2C181.906 40.0879 182.5 39.5637 182.611 38.8581L186.765 11.9622C186.845 11.4279 186.442 10.9541 185.918 10.9541H181.18C180.756 10.9541 180.404 11.2666 180.333 11.69Z" fill="white"/>
<path d="M18.1008 27.2952H14.0986C13.5845 27.2952 13.1511 27.6783 13.0704 28.1924C13.0704 28.1924 10.5199 44.6042 10.3687 45.6828C10.2679 46.3381 10.8324 46.8724 11.4171 46.8724H17.7681C18.6351 46.8724 19.3709 46.2272 19.5121 45.3502L21.0545 35.5313C21.1855 34.6543 21.9315 34.0091 22.7985 34.0091H23.8973C30.9943 34.0091 36.5488 31.0655 38.1719 22.537C38.8473 18.9785 38.6356 15.0167 35.571 12.9299C34.573 18.5954 31.458 27.2751 18.1109 27.2751" fill="white"/>
<path d="M14.0989 25.3194H18.2321C20.4196 25.3194 22.3753 25.0674 24.1092 24.5633C28.4843 23.2831 31.4179 20.3697 32.8998 15.7526C34.7547 9.93593 33.928 6.48826 31.8211 4.09909C29.684 1.68975 25.9339 0.611084 21.0849 0.611084H7.97975C6.99182 0.611084 6.14505 1.34699 5.99384 2.345L0.12674 40.3299C0.0158499 41.0759 0.580374 41.7614 1.31628 41.7614H9.03829C9.03829 41.7614 11.115 28.4344 11.1754 28.0413C11.3771 26.7408 12.1734 25.3295 14.109 25.3295" fill="white"/>
</svg>
