<svg width="130" height="39" viewBox="0 0 130 39" fill="none" xmlns="http://www.w3.org/2000/svg">
<path d="M31.6262 26.9967V17.561L0.647461 1.09888V22.6216H19.7609C20.5674 22.6216 21.2226 23.2366 21.2226 23.9825V25.1015C21.2226 25.8475 20.5674 26.4625 19.7609 26.4625H0.647461V38.5091H40.0134V27.0068H31.6362L31.6262 26.9967Z" fill="white"/>
<path d="M29.8726 1.61304V13.4279L39.7619 18.6095V1.61304H29.8726Z" fill="white"/>
<path d="M103.373 17.6215L111.841 13.1859V1.38113H101.951V16.4924L82.334 0.92749V38.5293H91.9814L91.9612 23.9725C91.9612 23.2164 92.6165 22.6115 93.423 22.6115H94.5923C95.3988 22.6115 96.0541 23.2265 96.0541 23.9725L96.0844 38.5293H129.704L103.363 17.6215H103.373Z" fill="white"/>
<path d="M74.1074 26.402V17.561L43.1187 1.09888V22.6115H62.2422C63.0487 22.6115 63.7039 23.2265 63.7039 23.9725V25.0915C63.7039 25.8374 63.0487 26.4524 62.2422 26.4524H43.1187V38.5091L79.1983 38.5596V26.4625L74.1074 26.4121V26.402Z" fill="white"/>
</svg>
