<svg width="203" height="165" viewBox="0 0 203 165" fill="none" xmlns="http://www.w3.org/2000/svg">
<g clip-path="url(#clip0_216_2449)">
<path d="M0.832336 27.9431C0.832336 27.9431 43.6478 -10.9778 92.2269 4.36581C140.806 19.7094 137.512 70.7586 130.102 88.8728C122.692 106.987 107.048 128.395 94.697 124.278C82.3464 120.161 95.0346 87.0038 134.388 69.8241C173.132 52.9078 202.608 111.923 199.533 161.684" stroke="#FC1684" stroke-linecap="round" stroke-dasharray="1.65 1.65"/>
<path d="M199.525 161.416C200.254 160.77 201.633 160.527 202.576 160.56C201.254 161.425 200.072 162.581 199.364 164.022C198.862 162.503 197.763 161.264 196.602 160.189C197.606 160.334 198.817 160.655 199.525 161.416Z" fill="#FC1684"/>
</g>
<defs>
<clipPath id="clip0_216_2449">
<rect width="202.155" height="163.646" fill="white" transform="translate(0.420654 0.372559)"/>
</clipPath>
</defs>
</svg>
