<svg width="355" height="332" viewBox="0 0 355 332" fill="none" xmlns="http://www.w3.org/2000/svg">
<g clip-path="url(#clip0_146_296)">
<path d="M1 1C1 1 1.91 68.04 58.45 96.05C114.99 124.07 166.97 99.05 187.04 83.04C207.1 67.03 246.32 29.01 280.97 26.01C333.73 21.44 364.8 78.34 350.28 116.06C332.95 161.08 286.67 175.55 211.66 180.22C133.23 185.1 64.79 207.12 52.98 240.13C35.72 288.33 109.21 318.44 130.09 325.92" stroke="#FC1684" stroke-width="2" stroke-linecap="round" stroke-dasharray="4 4"/>
<path d="M129.49 325.66C128.46 323.53 128.8 320.15 129.49 317.96C130.64 321.62 132.57 325.14 135.48 327.75C131.6 327.93 127.98 329.68 124.71 331.7C125.7 329.45 127.25 326.83 129.5 325.67L129.49 325.66Z" fill="#FC1684"/>
</g>
<defs>
<clipPath id="clip0_146_296">
<rect width="354.86" height="331.69" fill="white"/>
</clipPath>
</defs>
</svg>
