<svg width="231" height="215" viewBox="0 0 231 215" fill="none" xmlns="http://www.w3.org/2000/svg">
<g clip-path="url(#clip0_220_2486)">
<path d="M0.648254 0.648827C0.648254 0.648827 1.23811 44.1039 37.8871 62.2598C74.5361 80.4222 108.229 64.2044 121.239 53.8268C134.241 43.4492 159.664 18.8048 182.124 16.8602C216.322 13.8979 236.462 50.7803 227.05 75.2302C215.817 104.412 185.818 113.791 137.197 116.818C86.3592 119.982 41.9966 134.255 34.3415 155.652C23.1536 186.895 70.7895 206.412 84.3238 211.261" stroke="#FC1684" stroke-linecap="round" stroke-dasharray="2.59 2.59"/>
<path d="M83.9349 211.092C83.2673 209.711 83.4877 207.52 83.9349 206.101C84.6804 208.473 85.9314 210.755 87.8176 212.447C85.3026 212.563 82.9561 213.698 80.8365 215.007C81.4783 213.549 82.483 211.85 83.9414 211.098L83.9349 211.092Z" fill="#FC1684"/>
</g>
<defs>
<clipPath id="clip0_220_2486">
<rect width="230.019" height="215" fill="white"/>
</clipPath>
</defs>
</svg>
