<svg width="492" height="398" viewBox="0 0 492 398" fill="none" xmlns="http://www.w3.org/2000/svg">
    <g clip-path="url(#clip0_146_290)">
        <path d="M1 66.97C1 66.97 105 -27.57 223 9.70002C341 46.97 333 170.97 315 214.97C297 258.97 259 310.97 229 300.97C199 290.97 229.82 210.43 325.41 168.7C419.52 127.61 491.12 270.96 483.65 391.83"
              stroke="#FC1684" stroke-width="2" stroke-linecap="round" stroke-dasharray="4 4"/>
        <path d="M483.63 391.18C485.4 389.61 488.75 389.02 491.04 389.1C487.83 391.2 484.96 394.01 483.24 397.51C482.02 393.82 479.35 390.81 476.53 388.2C478.97 388.55 481.91 389.33 483.63 391.18Z"
              fill="#FC1684"/>
    </g>
    <defs>
        <clipPath id="clip0_146_290">
            <rect width="491.04" height="397.5" fill="white"/>
        </clipPath>
    </defs>
</svg>
